<svg xmlns="http://www.w3.org/2000/svg" viewBox="0 0 1000 1000.1"><path d="M379.7 557.2c-7-7.6-10.6-16.7-10.6-27.6 0-9.5 3.5-16.3 11-21.4 4.2-3 9-5.3 14.5-6.7 13-3.2 30.5-3 39.5 1.7 5 2.6 9 5.8 11.7 9.5 3 4 5 7.8 6 12 1.2 4.6 1.8 8.6 1.8 11.8s-.6 6.6-1.8 10c-1 3.3-3 6.4-6 9.3-2.8 3-6.8 5.6-11.8 7.7-5.3 2.2-12 3.4-20.5 3.7-14.8.3-25-2.3-32-8.3l-1.8-1.8zm609-298.2v482c0 137-110.8 248-247.7 248H259C122.2 989 11.2 878 11.2 741V259c0-136.8 111-247.8 247.8-247.8h482c137 0 247.8 111 247.8 247.8zm-718-19.8l72.4 72.4c38.4-32 85-51.3 134.7-55.7V153.3c-77 5-149 34.8-207 85.8zM153.4 477.7h102.4c4.5-49.7 23.8-96.3 55.7-134.6L239 270.8c-51 58-80.8 130-85.6 207zM311.6 657c-32-38.4-51.3-85-55.7-134.7H153.3c5 77 34.8 149.2 85.7 207l72.6-72.4zm166 87.2c-49.6-4.5-96.2-23.8-134.5-55.8l-72.3 72.4c58 51 130 81 207 85.8V744.2zm9.5-314.7c-3.3-6.3-7-12.4-11-18.6-4.6-7-9.7-12.7-15.4-16.7-6-4.3-12.7-7.3-20-9-7-1.7-15.4-2.5-24.8-2.5-14 0-27 3.3-38.3 9.8-11 6.3-20.6 15-28.2 26-7.5 10.5-13.3 23-17.2 37.3-3.8 13.8-5.8 28.8-5.8 44.5 0 35 7 60.3 21.2 77.2 14.2 16.8 36 25.4 64.6 25.4h2c26 0 45-7 57.2-20.7 11.7-13.4 17.6-29.4 17.6-47.7 0-6.7-1.3-14-4-22-2.7-8.3-7-16-13-23-6-7.2-14-13.2-23.3-18-13-6.4-27.7-8.3-50.7-6.4-6.4.6-12.8 2-19 4-5 1.5-9.6 3.6-14.2 6.3l1-4.5c2.3-10 6-19 10.7-26.7 4.6-7.5 10.7-13.8 18-18.6 7-4.6 15.2-6.8 25.5-6.8 5.8 0 10.6 1 14.3 3 4.2 2 7.4 4.5 10 7.4s4.6 5.8 6 8.5l2.6 5.8.2 8h5.5c4 4 9.2 6 15 6l4-.8c6.2-2.8 10-6.8 11.8-12 1.2-3.5 1.7-9-2-15.5zm31.2 136.2c7 9.8 16.2 18 27.3 24.2 11.3 6.3 25 9.5 40.7 9.5 15.3 0 29-3 40.5-9s21-14 28.5-23.4c7.4-9.3 13-20 16.4-31.8 3.5-11.6 5.3-23.4 5.3-35 0-7.3-.7-15-2-23.2-1.2-8-3.2-16.4-6-24.5-2.7-8-6.3-16-10.8-23.5-4.5-7.7-10-14.6-16.8-20.6s-14.6-11-23.6-14.5c-18-7.3-43.4-7.4-61.3 0-9 3.6-16.8 8.7-23.5 15-6.5 6-12 13.2-16.5 21-4.4 7.5-8 15.5-10.7 23.7-2.6 8-4.6 16-5.7 24.3-1 8-1.7 15.4-1.7 22 0 11 1.6 22.3 4.7 33.7 3.2 11.6 8.3 22.3 15.2 32zm211 195.2L657 688.4c-38.4 32-85 51.3-134.7 55.8v102.4c77-5 149.2-34.8 207-85.8zm117.4-238.7H744.2c-4.5 49.7-23.8 96.3-55.7 134.6l72.4 72.3c51-57.8 80.8-130 85.6-207zm-297.3 21.5c3.7 5 8.5 9 14.5 12 12.2 6.4 33.5 6 45.8 0 6.5-3 11.6-7 15.6-12 4-5.2 7.2-11.5 9.2-18.8 2-7.6 3-16 3-25 0-9.6-1-19.2-3-28.3-2-8.8-5-16.7-9.2-23.4-4-6.3-9-11.4-15.3-15.2-6.3-3.6-13.6-5.4-22.4-5.4-9 0-16.4 2-22.5 5.7-6.2 4-11 9-15.2 15.7-4 6.8-7.2 14.7-9 23.4-2 9-3 18.5-3 27.7 0 9 1 17.3 3 25 1.8 7.4 4.6 13.6 8.5 18.8z"/></svg>