<svg xmlns="http://www.w3.org/2000/svg" viewBox="0 0 1000 1000.1"><path d="M724.5 897.3c0 19-15.5 34.6-34.5 34.6H310c-19 0-34.5-15.6-34.5-34.7s15.5-34.5 34.5-34.5h380c19 0 34.5 15.4 34.5 34.5zm259-764.3v596c0 35.7-29 64.7-64.7 64.7H81.2c-35.8 0-64.8-29-64.8-64.8V133c0-35.8 29-64.8 64.8-64.8H919c35.6 0 64.6 29 64.6 64.8zm-69 4.3h-829v518.2h251l-5-47s0-20 15.6-55.5c19.6-44.5 90.7-151.8 125-194.3L343 231.5l-1.8-.8.3-1-.3-.3.7-.6 22-60 35.8 28-17 41L488.3 341c47.4-40.8 85.3 21 85.3 21l91 104.4-20 20-67.8-33.5S480.3 557 469.2 579.4c-11 22.2-9 56-9 56l-2.2 19.8h456.7v-518h-.2zM618 346.6c24.7 0 44.7-20 44.7-44.5 0-24.6-20-44.6-44.6-44.6s-44.6 20-44.6 44.7c0 24.7 20 44.6 44.7 44.6z"/></svg>