<svg xmlns="http://www.w3.org/2000/svg" viewBox="0 0 1000 147.9">
  <path fill="#808184" fill-rule="evenodd" d="M361.7 62.4l55.8 8.2-55.8 8.2-8.2 56-8.2-56-55.8-8.2 55.8 8.2 16.4-16.4zm-16.4 0l8.2-56-8.2 56z" clip-rule="evenodd"/>
  <path fill="#2F3E65" fill-rule="evenodd" d="M353.5 6.5l8.2 56-16.4 16.3-55.8-8.2 55.8-8.2 8.2-56" clip-rule="evenodd"/>
  <path fill="#2F3E65" d="M22 73.2c0 7.2 2.3 13.2 7 18 5 5 10.7 7.4 17.6 7.4 6.2 0 11.8-2.4 16.5-7.3 4.8-5 7.2-10.6 7.2-17 0-7-2.4-13-7.2-18-4.8-5-10.4-7.5-16.8-7.5-6.7 0-12.4 2.4-17.2 7-4.7 4.7-7 10.5-7 17.4zm50.4 43.4V106c-2.4 4.3-5.7 7.5-10 9.5s-9.8 3-16.6 3c-12.6 0-23-4.3-31.6-13C5.8 97 1.5 86.4 1.5 73.6c0-6 1-11.7 3.2-17 2-5.5 5-10.2 9-14.3 4.3-4.5 9-7.8 14.2-10 5-2 11-3.2 17.3-3.2 6.2 0 11.5 1 16 3 4.5 2.2 8 5.3 10.8 9.5V31h19.5v85.6h-19zM128.5 31V41c3-4 6.2-6.7 10-8.6 3.8-2 8-2.8 12.8-2.8 7 0 12.8 1.2 17.6 3.7 4.8 2.5 9 6.3 12.5 11.5 3.4-5 7-9 11.3-11.3 4.2-2.5 8.8-3.7 14-3.7 10.4 0 18.4 3.3 24 10 5.6 6.5 8.4 16 8.4 28.2v49h-19.5v-38c0-11.5-1.3-19.4-3.8-23.6-2.7-4-7-6.2-13.4-6.2-6.6 0-11.3 2.3-14 7-3 4.7-4.3 12.7-4.3 24v36.7h-19.7V78.8c0-11.6-1.3-19.4-4-23.6-2.5-4.2-7-6.3-13.6-6.3s-11.4 2.2-14.3 7c-3 4.6-4.3 12.6-4.3 24v36.6h-19.2V31h19.3zM276 22.4h-19.5v-19H276v19zm-19.5 94.2V31H276v85.6h-19.5z"/>
  <path fill="#808184" d="M441.7 31h10.8v14c3-4.7 7.5-8.6 13.3-11.4 5.8-3 12-4.3 18.4-4.3 13 0 23.6 4.3 32 13 8.4 8.5 12.7 19.2 12.7 32 0 12.5-4.3 23-12.6 31.7-8.4 8.6-18.8 13-31.3 13-6.8 0-13-1.5-18.6-4-5.6-2.8-10.2-6.7-13.8-11.8v41.1h-10.8V31zm10.8 42.3c0 9.7 3.2 18 9.6 25 6.5 7 14 10.4 22.8 10.4 9 0 16.6-3.3 23-9.8 6.4-6.7 9.6-14.7 9.6-24.2 0-10-3.2-18.4-9.7-25-6.4-7-14.2-10.2-23.4-10.2-8.4 0-16 3.4-22.3 10.2-6.3 6.6-9.5 14.5-9.5 23.5zM614 73.3c0-9-3-17-9.6-23.7-6.5-6.8-14-10-22.3-10-9 0-16.8 3.3-23.3 10-6.4 6.8-9.7 15-9.7 25 0 9.6 3.2 17.7 9.6 24.2 6.4 6.5 14 9.8 23 9.8 8.8 0 16.4-3.4 22.8-10.4 6.5-6.8 9.7-15 9.7-25zm0 29.8c-3.3 5-8 9-13.7 11.7-5.8 2.8-12 4.2-18.8 4.2-12.5 0-23-4.4-31.2-13-8.3-8.6-12.5-19-12.5-31.7 0-12.8 4.3-23.5 12.8-32 8.5-8.7 19-13 32-13 6.5 0 12.5 1.3 18 4s10 6.5 13.7 11.5V31H625v85.6h-10.7V103h-.2zM653 116.6h-11V31H652v10c2.7-3.8 5.6-6.6 8.8-8.3 3.2-1.7 7-2.7 11-2.8l.2 11.8c-7 .6-11.8 2.7-14.8 6.2s-4.5 9.2-4.5 17v51.6zM689.2 116.6V42.2H673v-11h16.2V3.4h11V31h16.2v11.2h-16.2v74.4h-11M725 31h10.7V41c3.4-4 7.3-6.8 11.7-8.6 4.4-2 9.5-2.8 15.2-2.8 6.2 0 11.8 1.2 16.7 3.5s8.8 5.6 11.6 10c2 3 3.3 6.5 4 10.7 1 4 1.4 10.2 1.4 18.2v44.6h-10.8V68.8c0-10-2-17.4-5.8-22-4-4.6-10-6.8-18.5-6.8-5 0-9.3 1-13 3-3.8 2-6.8 5-9 8.6-1.4 2.3-2.3 5-2.8 8-.6 3-.8 8.2-.8 15.6v41.6H725V31zM897.5 77.3h-77c.7 9.3 4 16.8 10 22.6 6 5.6 13.7 8.5 22.7 8.5 6.4 0 12.2-1.7 17.3-5 5-3.3 9-8 12-14h12.3c-4 9.6-9.5 16.8-16.5 22-7 5-15.4 7.5-24.7 7.5-12.4 0-23-4.4-31.5-13.3-8.5-9-12.8-19.5-12.8-32 0-13 4.2-23.7 12.6-32 8.4-8.6 19-13 32.2-13 12.8 0 23.3 4.5 31.4 13.4 8 9 12 20.5 12 34.6v.7zm-12-9.2c-2.2-9.5-6-16.7-11.5-21.6-5.5-5-12.7-7.3-21.6-7.3-8.3 0-15.3 2.7-21 8-5.7 5-9.2 12.2-10.5 21h64.4zM921 116.6h-11V31H920v10c2.7-3.8 5.6-6.6 8.8-8.3 3.2-1.7 7-2.7 11-2.8l.2 11.8c-7 .6-11.8 2.7-14.8 6.2s-4.5 9.2-4.5 17v51.6zM944.3 89.7h11.2v.3c0 5.3 1.5 9.7 4.6 13.2 3 3.5 7 5.3 11.4 5.3 4.3 0 7.8-1.4 10.7-4 3-2.7 4.4-6 4.4-10.2 0-4-1-7.4-3.4-10-2.3-2.4-6.3-4.7-12.2-7-9.5-3.3-15.6-6.7-18.5-10.2-3-3.4-4.3-8-4.3-14 0-6.8 2.4-12.5 7.3-17 4.8-4.8 10.7-7 17.5-7 7.3 0 13 2 17.4 6 4.3 4.3 6.6 10 7 17.4h-11.8c-.3-4-1.5-7.2-3.8-9.4s-5.5-3.3-9.4-3.3c-3.6 0-6.5 1.2-9 3.6-2.3 2.4-3.5 5.4-3.5 9 0 2.5.5 4.7 1.5 6.4 1 1.7 2.6 3.3 5 4.7 2 1.3 5 2.5 9 3.7l8 2.7c5.2 2.3 9 5.3 11.7 9 2.4 4 3.7 8.7 3.7 14.6 0 7.3-2.6 13.4-7.7 18.3-5 4.8-11.6 7.2-19.5 7.2-8 0-14.5-2.6-19.3-8-5-5-7.6-12.2-8-21z"/>
</svg>
