<svg xmlns="http://www.w3.org/2000/svg" viewBox="0 0 1000 147"><g><path fill-rule="evenodd" d="M362.5 61.6l55.4 8-55.5 8.3-8 55.3-8.2-55.4-55.4-8.2 55.3 8 16.2-16.2zm-16.3 0l8-55.4-8 55.4z" clip-rule="evenodd"/><path fill-rule="evenodd" d="M354.3 6.2l8.2 55.4L346.2 78l-55.5-8.3 55.5-8 8-55.5" clip-rule="evenodd"/><path d="M24.7 72.3c0 7 2.4 13 7 18 4.8 4.7 10.6 7 17.5 7 6.2 0 11.7-2.3 16.4-7 4.7-5 7-10.6 7-17 0-7-2.3-13-7-18S55.3 48 49 48c-6.8 0-12.5 2.3-17.2 7-4.8 4.8-7 10.5-7 17.3zm50.2 43V105c-2.5 4.2-5.8 7.3-10 9.3-4.4 2-10 3-16.6 3-12.5 0-23-4.3-31.4-12.8C8.7 96 4.5 85.3 4.5 72.5c0-6 1-11.5 3.2-17 2-5.2 5-10 9-14 4.2-4.5 9-7.8 14-10 5-2 11-3 17.3-3 6.2 0 11.5 1 16 3 4.3 2 8 5.2 10.6 9.3V30.6H94v84.8H75zM130.7 30.6v9.6c3-3.8 6.2-6.7 10-8.6 3.6-1.8 8-2.8 12.7-2.8 6.8 0 12.7 1.2 17.5 3.6 4.8 2.4 9 6.2 12.4 11.3 3.3-5 7-8.8 11.3-11.2 4.2-2.5 8.8-3.7 13.8-3.7 10.4 0 18.4 3.3 24 9.8s8.2 16 8.2 28v48.8h-19.4V78c0-11.6-1.3-19.4-3.8-23.6-2.6-4-7-6.2-13.2-6.2-6.5 0-11.2 2.3-14 7-2.8 4.7-4.2 12.6-4.2 24v36.2h-19.5V78c0-11.6-1.3-19.4-4-23.5-2.5-4.2-7-6.2-13.5-6.2-6.6 0-11.3 2.3-14.2 7-3 4.7-4.3 12.6-4.3 24v36.2h-19v-85h19.2zM277.2 22H258V3.2H277V22zM258 115.4V30.6H277v84.8H258zM442 30.6h10.7v14c3-5 7.5-8.7 13.2-11.5 5.6-2.8 11.7-4.2 18.2-4.2 12.8 0 23.4 4.3 31.8 12.8 8.4 8.5 12.6 19 12.6 32 0 12.3-4.2 22.8-12.4 31.4-8.3 8.5-18.7 12.8-31 12.8-7 0-13.2-1.3-18.7-4s-10-6.6-13.8-11.7v41H442V30.6zm10.7 42c0 9.6 3.2 17.8 9.6 24.7 6.4 7 14 10.3 22.5 10.3 9 0 16.5-3.3 23-9.8 6.3-6.5 9.5-14.5 9.5-24 0-9.8-3.2-18-9.6-24.8-6.4-6.7-14-10-23.2-10-8.4 0-15.8 3.3-22 10-6.6 6.7-9.8 14.5-9.8 23.5zM613.4 72.5c0-9-3.2-16.8-9.6-23.6-6.4-6.8-13.8-10.2-22.2-10.2-9 0-16.8 3.3-23.2 10-6.4 6.8-9.6 15-9.6 25 0 9.4 3.2 17.4 9.6 24 6.4 6.4 14 9.7 23 9.7 8.6 0 16.2-3.4 22.6-10.3 6.2-6.8 9.4-15 9.4-24.7zm0 29.5c-3.4 5-8 8.7-13.8 11.5-5.8 2.8-12 4.2-18.7 4.2-12.5 0-23-4.3-31.2-12.8-8.3-8.6-12.4-19-12.4-31.6 0-12.7 4.2-23.3 12.7-31.8s19-12.8 31.8-12.8c6.5 0 12.5 1.3 18 4 5.3 2.7 10 6.5 13.5 11.4V30.6H624v84.8h-10.7V102zM652 115.4h-11V30.6h10.4v9.8C654 36.6 657 34 660 32c3.3-1.6 7-2.6 11.2-2.7V41c-6.7.7-11.6 2.8-14.6 6.2-3 3.5-4.4 9-4.4 17v51.2zM688 115.4v-74h-16V30.7h16V3.2h11v27.4h16v11h-16v73.8h-11M723.8 30.6h10.6v9.7c3.3-4 7.2-6.7 11.6-8.6 4.4-2 9.4-2.8 15-2.8 6.3 0 11.8 1 16.7 3.4s8.7 5.6 11.5 10c2 3 3.3 6.5 4.2 10.6.8 4 1.3 10 1.3 18v44.4H784V68c0-10-2-17.4-5.7-22-3.8-4.4-10-6.7-18.4-6.7-5 0-9.4 1-13 3-3.8 2-6.8 4.8-9 8.5-1.2 2.3-2.2 5-2.7 8-.6 2.8-.8 8-.8 15.3v41.3H724V30.6h-.2zM895 76.5h-76.5c.7 9.2 4 16.7 10 22.4 6 5.6 13.5 8.4 22.5 8.4 6.4 0 12-1.7 17.2-5 5-3.2 9-7.8 11.8-13.7h12.3c-4 9.4-9.4 16.6-16.4 21.6-7.2 5-15.4 7.6-24.7 7.6-12.3 0-22.8-4.5-31.3-13.3S807.2 85.3 807.2 73c0-13 4.2-23.6 12.5-32 8.3-8.4 19-12.7 32-12.7 12.8 0 23.2 4.4 31.2 13.2 8 8.8 12 20.2 12 34.3v.7zm-12-9.2c-2-9.5-5.7-16.7-11.2-21.5-5.5-4.8-12.7-7.2-21.5-7.2-8.2 0-15.2 2.6-21 7.8-5.6 5.2-9 12.2-10.4 21h64zM918.5 115.4h-11V30.6h10.3v9.8c2.7-3.8 5.6-6.5 8.7-8.3 3.2-1.6 7-2.6 11-2.7l.2 11.8c-6.8.7-11.7 2.8-14.7 6.2-3 3.5-4.4 9-4.4 17v51.2zM941.7 88.7H953v.3c0 5.3 1.4 9.7 4.5 13 3 3.6 6.8 5.3 11.3 5.3 4.3 0 7.8-1.3 10.6-4s4.2-6 4.2-10c0-4.2-1-7.4-3.3-10-2.2-2.4-6.3-4.7-12.2-6.8-9.3-3.3-15.5-6.8-18.3-10.2-3-3.5-4.3-8.2-4.3-14 0-6.7 2.4-12.4 7.2-17 4.8-4.6 10.6-7 17.4-7 7.3 0 13 2.2 17.3 6.3 4.3 4 6.6 10 7 17.2h-11.7c-.3-4-1.5-7-3.8-9.3-2.3-2.2-5.4-3.3-9.4-3.3-3.6 0-6.5 1.2-9 3.6-2.3 2.4-3.5 5.4-3.5 9 0 2.4.4 4.5 1.4 6.3 1 1.8 2.6 3.4 4.8 4.8 2 1.3 5 2.5 9 3.7 4 1.2 6.6 2 8 2.6 5.2 2.4 9 5.4 11.6 9 2.5 4 3.7 8.6 3.7 14.4 0 7.3-2.6 13.3-7.6 18-5.2 5-11.7 7.3-19.4 7.3-8 0-14.4-2.6-19.2-7.8-5-5.4-7.4-12.4-7.7-21.3z"/></g></svg>