<svg xmlns="http://www.w3.org/2000/svg" viewBox="0 0 1000 1000">
  <path d="M508 611.5c-4.8 0-9.6-1.6-12.7-4.8L391.7 495.2c-6.4-6.4-4.8-16 1.6-22.3 6.4-6.6 17.5-5 22.3 1.4l90.8 98.7 90.8-98.6c6.4-6.4 16-6.4 22.3-1.6 6.4 6.3 6.4 15.8 1.6 22.2L517.7 606.7c0 3.2-4.8 4.8-9.5 4.8z"/>
  <path d="M500 993.6C227.7 993.6 6.4 772.3 6.4 500S227.7 6.4 500 6.4 993.6 227.7 993.6 500 772.3 993.6 500 993.6zm0-955.4c-254.8 0-461.8 207-461.8 461.8s207 461.8 461.8 461.8 461.8-207 461.8-461.8S754.8 38.2 500 38.2z"/>
</svg>
