<svg data-name="Layer 1" xmlns="http://www.w3.org/2000/svg" viewBox="0 0 16 16"><defs><clipPath id="a"><path fill="none" d="M4.83 4.98h6.33v6.33H4.83z"/></clipPath></defs><path d="M0 8a8 8 0 1 1 8 8 8 8 0 0 1-8-8Z" fill="#d94452"/><g clip-path="url(#a)"><path d="m8.26 8.14 2.88-2.87v-.12A.18.18 0 0 0 11 5a.15.15 0 0 0-.11.06L8 7.91 5.12 5A.15.15 0 0 0 5 5a.18.18 0 0 0-.18.17.16.16 0 0 0 .06.12l2.89 2.85L4.89 11a.16.16 0 0 0-.06.12.19.19 0 0 0 .18.17.15.15 0 0 0 .11-.06L8 8.38l2.88 2.87a.24.24 0 0 0 .11.06.19.19 0 0 0 .18-.17.16.16 0 0 0-.06-.12Z" fill="#fff" fill-rule="evenodd"/></g></svg>