<svg xmlns="http://www.w3.org/2000/svg" viewBox="0 0 1000 1000"><path d="M320.3 438v124l169.2-.2c-26.5 80.4-67.7 124-169.2 124-102.7 0-182.8-83-182.8-185.8 0-102.7 80-186 182.8-186 54.3 0 89.4 19.2 121.5 45.8 25.7-25.7 23.6-29.4 89-91.3C475.4 218 401.5 187 320.4 187c-173 0-313 140-313 313s140 313 313 313c258.4 0 321.5-225 300.6-375H320.2zm564 6.2V335.8h-77.5v108.5H695.2v77.5h111.6v111.6h77.5V521.7h108.5v-77.5H884.3z"/></svg><svg xmlns="http://www.w3.org/2000/svg" viewBox="0 0 1000 1000"><path d="M1000.4 149H864.2V13h-68v136h-136v68.2h136v136h68v-136h136.2M517 572.2c-27.3-20.4-86.8-62.5-86.8-91 0-33 9.4-49.2 59.3-88 51-40 87-92.5 87-157.7 0-71-29-135.5-83.6-166.8h77L636-.5H341C191.3-.5 66.5 110 66.5 231.5c0 124 82 223 223 223 9.7 0 19.2-.6 28.5-1.2-9.2 17.5-15.6 37-15.6 57.6 0 34 19 54 42.4 77h-53.5C120 588 0 706 0 819c0 111.7 144.7 181.5 316.2 181.5 195.4 0 315.6-111 315.6-222.4 0-89.3-19.4-134.3-114.7-206zm-170.4-163c-79.6-2.4-155.2-75.4-169-180C164 125 217.4 45 297 47.2c79.5 2.6 147.6 88 161.3 192.8C472 344 426 411.4 346.7 409zm-31.2 542c-118.5 0-204-75-204-165 0-88.3 100.3-164.5 219-163.2 27.5.2 53.3 4.7 76.7 12.3C472 680 524 708 537 759c2.4 10.3 3.8 21 3.8 31.8 0 90-58 160.5-224.6 160.5z"/></svg>