<svg xmlns="http://www.w3.org/2000/svg" viewBox="0 0 1000 1000"><path d="M878 3.6H121.3C56 3.6 3.3 56.3 3.3 121.3v757.2c0 65 52.8 117.7 118 117.7H878c65.2 0 118-52.7 118-117.7v-757c0-65-53-118-118-118zm-185.2 141c0-15.4 12.4-27.8 27.8-27.8h134.2c15.3 0 27.8 12.4 27.8 27.7v134c0 15.2-12.4 27.6-27.8 27.6H720.6c-15.3 0-27.8-12-27.8-27V145zm-192 166c105.4 0 191 85.4 191 190.6s-85.6 190.5-191 190.5-191-85.3-191-190.5 85.5-190.5 191-190.5zm384 542.6c0 15.3-12.3 27.7-27.7 27.7H145c-15.3 0-27.8-13-27.8-28V421h93c-7 25.4-11 52-11 79.7 0 166 135.5 301.3 302 301.3S803 667.3 803 501c0-27.5-4-54.2-10.7-79.6h93V853z"/></svg>