<svg xmlns="http://www.w3.org/2000/svg" viewBox="0 0 1000 1000"><path d="M553.4 654.5c-43 0-83.4-23.2-97.3-49.6 0 0-23 91.6-28 109.3-17 62.5-67.7 125.3-71.6 130.4-2.8 3.5-8.8 2.2-9.5-2.5-1-8-14-87 1.2-151.3l51.3-217s-13-25.3-13-62.8c0-59 34.3-103.2 77-103.2 36 0 53.5 27 53.5 59.8 0 36.4-23 91-35.2 141.3-10 42 21.3 76.6 63 76.6 75.4 0 126.3-97 126.3-211.8 0-87-58.8-152.5-165.8-152.5-120.8 0-196 90-196 190.8 0 34.8 10 59.2 26.2 78 7.4 8.8 8.3 12.4 5.7 22.3l-8 32c-2.4 10-10.6 13.6-19.7 10-55.6-22.8-81.6-83.8-81.6-152.3-.2-113 95.3-248.8 284.5-248.8 152 0 252.2 110 252.2 228.2 0 156.3-87 273-215 273z"/></svg>