<svg xmlns="http://www.w3.org/2000/svg" viewBox="0 0 1000 1000"><path d="M868.3 271.6c-27 12-56.3 20-87 23.8 31.3-18.7 55.3-48.3 66.6-83.6-29.3 17.3-61.7 30-96 36.7-27.5-29.3-66.8-47.7-110.3-47.7-83.6 0-151.3 67.6-151.3 151 0 12 1.3 23.4 4 34.5-125.5-6.3-237-66.5-311.4-158-13 22.4-20.4 48.4-20.4 76 0 52.5 26.7 99 67.2 125.8-24.8-.6-48-7.5-68.5-18.8v2c0 73 52.2 134 121.3 148-12.6 3.4-26 5-39.8 5-9.7 0-19.2-.8-28.4-2.6 19.2 60 75 103.7 141 105C304 709 238.8 733.2 168 733.2c-12.3 0-24.3-.7-36-2 66.7 43 146.2 68 231.4 68 278 0 430-230.3 430-430 0-6.5-.3-13-.6-19.5 29.4-21.3 55-48 75.5-78.2z"/></svg>