<!DOCTYPE svg PUBLIC "-//W3C//DTD SVG 1.1//EN" "http://www.w3.org/Graphics/SVG/1.1/DTD/svg11.dtd"><svg xmlns="http://www.w3.org/2000/svg" xmlns:xlink="http://www.w3.org/1999/xlink"><symbol viewBox="0 0 100 100" id="close"><path d="M49.9 55l-.2-.2-36.4 36.4-4.6-4.5 36.5-36.5L8.5 13.5l4.6-4.6L54 50.5z"/><path d="M49.7 45.9L86.2 9.4l4.2 4.6L54 50.5l36.9 36.6-4.6 4.6-41.1-41.5z"/></symbol><symbol viewBox="0 0 1000 1000" id="facebook-icon"><path d="M711.7 500.5H571.4v500.2h-208V500.5h-98.8V323.8h99V209.4c0-81.8 38.8-209.8 209.7-209.8l154 .6v171.6H615.5c-18.2 0-44 9-44 48v104H730l-18.4 176.7z"/></symbol><symbol viewBox="0 0 1000 1000" id="google-icon"><path d="M1000.4 149H864.2V13h-68v136h-136v68.2h136v136h68v-136h136.2M517 572.2c-27.3-20.4-86.8-62.5-86.8-91 0-33 9.4-49.2 59.3-88 51-40 87-92.5 87-157.7 0-71-29-135.5-83.6-166.8h77L636-.5H341C191.3-.5 66.5 110 66.5 231.5c0 124 82 223 223 223 9.7 0 19.2-.6 28.5-1.2-9.2 17.5-15.6 37-15.6 57.6 0 34 19 54 42.4 77h-53.5C120 588 0 706 0 819c0 111.7 144.7 181.5 316.2 181.5 195.4 0 315.6-111 315.6-222.4 0-89.3-19.4-134.3-114.7-206zm-170.4-163c-79.6-2.4-155.2-75.4-169-180C164 125 217.4 45 297 47.2c79.5 2.6 147.6 88 161.3 192.8C472 344 426 411.4 346.7 409zm-31.2 542c-118.5 0-204-75-204-165 0-88.3 100.3-164.5 219-163.2 27.5.2 53.3 4.7 76.7 12.3C472 680 524 708 537 759c2.4 10.3 3.8 21 3.8 31.8 0 90-58 160.5-224.6 160.5z"/></symbol><symbol viewBox="0 0 1000 1000" id="instagram-icon"><path d="M878 3.6H121.3C56 3.6 3.3 56.3 3.3 121.3v757.2c0 65 52.8 117.7 118 117.7H878c65.2 0 118-52.7 118-117.7v-757c0-65-53-118-118-118zm-185.2 141c0-15.4 12.4-27.8 27.8-27.8h134.2c15.3 0 27.8 12.4 27.8 27.7v134c0 15.2-12.4 27.6-27.8 27.6H720.6c-15.3 0-27.8-12-27.8-27V145zm-192 166c105.4 0 191 85.4 191 190.6s-85.6 190.5-191 190.5-191-85.3-191-190.5 85.5-190.5 191-190.5zm384 542.6c0 15.3-12.3 27.7-27.7 27.7H145c-15.3 0-27.8-13-27.8-28V421h93c-7 25.4-11 52-11 79.7 0 166 135.5 301.3 302 301.3S803 667.3 803 501c0-27.5-4-54.2-10.7-79.6h93V853z"/></symbol><symbol viewBox="0 0 1000 1000" id="linkedin-icon"><path d="M750.8 319.7c-112.7 0-163 61.8-191.4 105.4v3H558l1.4-2v-91H347c2.8 60 0 638.8 0 638.8h212.4v-357c0-19 1.4-38 7-51.6 15.4-38.2 50.4-78 109-78C752.2 487 783 546 783 632v341.7h212v-366C995 411 890.2 320 750.6 320zm-626-293c-72.5 0-120 47.7-120 110.4 0 62 46 111 117.2 111h1.8c74 0 120-49 120-110-1.4-63-46-111-118.8-111zm-107.5 308h212.4v638.7H17.3z"/></symbol><symbol viewBox="0 0 1000 147.9" id="logo-foot"><path fill="#808184" fill-rule="evenodd" d="M361.7 62.4l55.8 8.2-55.8 8.2-8.2 56-8.2-56-55.8-8.2 55.8 8.2 16.4-16.4zm-16.4 0l8.2-56-8.2 56z" clip-rule="evenodd"/><path fill="#2F3E65" fill-rule="evenodd" d="M353.5 6.5l8.2 56-16.4 16.3-55.8-8.2 55.8-8.2 8.2-56" clip-rule="evenodd"/><path fill="#2F3E65" d="M22 73.2c0 7.2 2.3 13.2 7 18 5 5 10.7 7.4 17.6 7.4 6.2 0 11.8-2.4 16.5-7.3 4.8-5 7.2-10.6 7.2-17 0-7-2.4-13-7.2-18-4.8-5-10.4-7.5-16.8-7.5-6.7 0-12.4 2.4-17.2 7-4.7 4.7-7 10.5-7 17.4zm50.4 43.4V106c-2.4 4.3-5.7 7.5-10 9.5s-9.8 3-16.6 3c-12.6 0-23-4.3-31.6-13C5.8 97 1.5 86.4 1.5 73.6c0-6 1-11.7 3.2-17 2-5.5 5-10.2 9-14.3 4.3-4.5 9-7.8 14.2-10 5-2 11-3.2 17.3-3.2 6.2 0 11.5 1 16 3 4.5 2.2 8 5.3 10.8 9.5V31h19.5v85.6h-19zM128.5 31v10c3-4 6.2-6.7 10-8.6 3.8-2 8-2.8 12.8-2.8 7 0 12.8 1.2 17.6 3.7 4.8 2.5 9 6.3 12.5 11.5 3.4-5 7-9 11.3-11.3 4.2-2.5 8.8-3.7 14-3.7 10.4 0 18.4 3.3 24 10 5.6 6.5 8.4 16 8.4 28.2v49h-19.5V79c0-11.5-1.3-19.4-3.8-23.6-2.7-4-7-6.2-13.4-6.2-6.6 0-11.3 2.3-14 7-3 4.7-4.3 12.7-4.3 24v36.7h-19.7V78.8c0-11.6-1.3-19.4-4-23.6-2.5-4.2-7-6.3-13.6-6.3s-11.4 2.2-14.3 7c-3 4.6-4.3 12.6-4.3 24v36.6H109V31h19.3zM276 22.4h-19.5v-19H276v19zm-19.5 94.2V31H276v85.6h-19.5z"/><path fill="#808184" d="M441.7 31h10.8v14c3-4.7 7.5-8.6 13.3-11.4 5.8-3 12-4.3 18.4-4.3 13 0 23.6 4.3 32 13 8.4 8.5 12.7 19.2 12.7 32 0 12.5-4.3 23-12.6 31.7-8.4 8.6-18.8 13-31.3 13-6.8 0-13-1.5-18.6-4-5.6-2.8-10.2-6.7-13.8-11.8v41.1h-10.8V31zm10.8 42.3c0 9.7 3.2 18 9.6 25 6.5 7 14 10.4 22.8 10.4 9 0 16.6-3.3 23-9.8 6.4-6.7 9.6-14.7 9.6-24.2 0-10-3.2-18.4-9.7-25-6.4-7-14.2-10.2-23.4-10.2-8.4 0-16 3.4-22.3 10.2-6.3 6.6-9.5 14.5-9.5 23.5zm161.5 0c0-9-3-17-9.6-23.7-6.5-6.8-14-10-22.3-10-9 0-16.8 3.3-23.3 10-6.4 6.8-9.7 15-9.7 25 0 9.6 3.2 17.7 9.6 24.2 6.4 6.5 14 9.8 23 9.8 8.8 0 16.4-3.4 22.8-10.4 6.5-6.8 9.7-15 9.7-25zm0 29.8c-3.3 5-8 9-13.7 11.7-5.8 2.8-12 4.2-18.8 4.2-12.5 0-23-4.4-31.2-13-8.3-8.6-12.5-19-12.5-31.7 0-12.8 4.3-23.5 12.8-32 8.5-8.7 19-13 32-13 6.5 0 12.5 1.3 18 4s10 6.5 13.7 11.5V31H625v85.6h-10.7V103h-.2zm39 13.5h-11V31h10v10c2.7-3.8 5.6-6.6 8.8-8.3 3.2-1.7 7-2.7 11-2.8l.2 11.8c-7 .6-11.8 2.7-14.8 6.2s-4.5 9.2-4.5 17v51.6zm36.2 0V42.2H673v-11h16.2V3.4h11V31h16.2v11.2h-16.2v74.4h-11M725 31h10.7v10c3.4-4 7.3-6.8 11.7-8.6 4.4-2 9.5-2.8 15.2-2.8 6.2 0 11.8 1.2 16.7 3.5s8.8 5.6 11.6 10c2 3 3.3 6.5 4 10.7 1 4 1.4 10.2 1.4 18.2v44.6h-10.8V68.8c0-10-2-17.4-5.8-22-4-4.6-10-6.8-18.5-6.8-5 0-9.3 1-13 3-3.8 2-6.8 5-9 8.6-1.4 2.3-2.3 5-2.8 8-.6 3-.8 8.2-.8 15.6v41.6H725V31zm172.5 46.3h-77c.7 9.3 4 16.8 10 22.6 6 5.6 13.7 8.5 22.7 8.5 6.4 0 12.2-1.7 17.3-5 5-3.3 9-8 12-14h12.3c-4 9.6-9.5 16.8-16.5 22-7 5-15.4 7.5-24.7 7.5-12.4 0-23-4.4-31.5-13.3-8.5-9-12.8-19.5-12.8-32 0-13 4.2-23.7 12.6-32 8.4-8.6 19-13 32.2-13 12.8 0 23.3 4.5 31.4 13.4 8 9 12 20.5 12 34.6v.7zm-12-9.2c-2.2-9.5-6-16.7-11.5-21.6-5.5-5-12.7-7.3-21.6-7.3-8.3 0-15.3 2.7-21 8-5.7 5-9.2 12.2-10.5 21h64.4zm35.5 48.5h-11V31h10v10c2.7-3.8 5.6-6.6 8.8-8.3 3.2-1.7 7-2.7 11-2.8l.2 11.8c-7 .6-11.8 2.7-14.8 6.2s-4.5 9.2-4.5 17v51.6zm23.3-26.9h11.2v.3c0 5.3 1.5 9.7 4.6 13.2 3 3.5 7 5.3 11.4 5.3 4.3 0 7.8-1.4 10.7-4 3-2.7 4.4-6 4.4-10.2 0-4-1-7.4-3.4-10-2.3-2.4-6.3-4.7-12.2-7-9.5-3.3-15.6-6.7-18.5-10.2-3-3.4-4.3-8-4.3-14 0-6.8 2.4-12.5 7.3-17 4.8-4.8 10.7-7 17.5-7 7.3 0 13 2 17.4 6 4.3 4.3 6.6 10 7 17.4h-11.8c-.3-4-1.5-7.2-3.8-9.4s-5.5-3.3-9.4-3.3c-3.6 0-6.5 1.2-9 3.6-2.3 2.4-3.5 5.4-3.5 9 0 2.5.5 4.7 1.5 6.4 1 1.7 2.6 3.3 5 4.7 2 1.3 5 2.5 9 3.7l8 2.7c5.2 2.3 9 5.3 11.7 9 2.4 4 3.7 8.7 3.7 14.6 0 7.3-2.6 13.4-7.7 18.3-5 4.8-11.6 7.2-19.5 7.2-8 0-14.5-2.6-19.3-8-5-5-7.6-12.2-8-21z"/></symbol><symbol viewBox="0 0 1000 147" id="logo-head"><path fill-rule="evenodd" d="M362.5 61.6l55.4 8-55.5 8.3-8 55.3-8.2-55.4-55.4-8.2 55.3 8 16.2-16.2zm-16.3 0l8-55.4-8 55.4z" clip-rule="evenodd"/><path fill-rule="evenodd" d="M354.3 6.2l8.2 55.4L346.2 78l-55.5-8.3 55.5-8 8-55.5" clip-rule="evenodd"/><path d="M24.7 72.3c0 7 2.4 13 7 18 4.8 4.7 10.6 7 17.5 7 6.2 0 11.7-2.3 16.4-7 4.7-5 7-10.6 7-17 0-7-2.3-13-7-18S55.3 48 49 48c-6.8 0-12.5 2.3-17.2 7-4.8 4.8-7 10.5-7 17.3zm50.2 43V105c-2.5 4.2-5.8 7.3-10 9.3-4.4 2-10 3-16.6 3-12.5 0-23-4.3-31.4-12.8C8.7 96 4.5 85.3 4.5 72.5c0-6 1-11.5 3.2-17 2-5.2 5-10 9-14 4.2-4.5 9-7.8 14-10 5-2 11-3 17.3-3 6.2 0 11.5 1 16 3 4.3 2 8 5.2 10.6 9.3V30.6H94v84.8H75zm55.8-84.7v9.6c3-3.8 6.2-6.7 10-8.6 3.6-1.8 8-2.8 12.7-2.8 6.8 0 12.7 1.2 17.5 3.6 4.8 2.4 9 6.2 12.4 11.3 3.3-5 7-8.8 11.3-11.2 4.2-2.5 8.8-3.7 13.8-3.7 10.4 0 18.4 3.3 24 9.8s8.2 16 8.2 28v48.8h-19.4V78c0-11.6-1.3-19.4-3.8-23.6-2.6-4-7-6.2-13.2-6.2-6.5 0-11.2 2.3-14 7-2.8 4.7-4.2 12.6-4.2 24v36.2h-19.5V78c0-11.6-1.3-19.4-4-23.5-2.5-4.2-7-6.2-13.5-6.2-6.6 0-11.3 2.3-14.2 7-3 4.7-4.3 12.6-4.3 24v36.2h-19v-85h19.2zM277.2 22H258V3.2h19V22zM258 115.4V30.6h19v84.8h-19zm184-84.8h10.7v14c3-5 7.5-8.7 13.2-11.5 5.6-2.8 11.7-4.2 18.2-4.2 12.8 0 23.4 4.3 31.8 12.8 8.4 8.5 12.6 19 12.6 32 0 12.3-4.2 22.8-12.4 31.4-8.3 8.5-18.7 12.8-31 12.8-7 0-13.2-1.3-18.7-4s-10-6.6-13.8-11.7v41H442V30.6zm10.7 42c0 9.6 3.2 17.8 9.6 24.7 6.4 7 14 10.3 22.5 10.3 9 0 16.5-3.3 23-9.8 6.3-6.5 9.5-14.5 9.5-24 0-9.8-3.2-18-9.6-24.8-6.4-6.7-14-10-23.2-10-8.4 0-15.8 3.3-22 10-6.6 6.7-9.8 14.5-9.8 23.5zm160.7-.1c0-9-3.2-16.8-9.6-23.6-6.4-6.8-13.8-10.2-22.2-10.2-9 0-16.8 3.3-23.2 10-6.4 6.8-9.6 15-9.6 25 0 9.4 3.2 17.4 9.6 24 6.4 6.4 14 9.7 23 9.7 8.6 0 16.2-3.4 22.6-10.3 6.2-6.8 9.4-15 9.4-24.7zm0 29.5c-3.4 5-8 8.7-13.8 11.5-5.8 2.8-12 4.2-18.7 4.2-12.5 0-23-4.3-31.2-12.8-8.3-8.6-12.4-19-12.4-31.6 0-12.7 4.2-23.3 12.7-31.8s19-12.8 31.8-12.8c6.5 0 12.5 1.3 18 4 5.3 2.7 10 6.5 13.5 11.4V30.6H624v84.8h-10.7V102zm38.6 13.4h-11V30.6h10.4v9.8C654 36.6 657 34 660 32c3.3-1.6 7-2.6 11.2-2.7V41c-6.7.7-11.6 2.8-14.6 6.2-3 3.5-4.4 9-4.4 17v51.2zm36 0v-74h-16V30.7h16V3.2h11v27.4h16v11h-16v73.8h-11m35.8-84.8h10.6v9.7c3.3-4 7.2-6.7 11.6-8.6 4.4-2 9.4-2.8 15-2.8 6.3 0 11.8 1 16.7 3.4s8.7 5.6 11.5 10c2 3 3.3 6.5 4.2 10.6.8 4 1.3 10 1.3 18v44.4H784V68c0-10-2-17.4-5.7-22-3.8-4.4-10-6.7-18.4-6.7-5 0-9.4 1-13 3-3.8 2-6.8 4.8-9 8.5-1.2 2.3-2.2 5-2.7 8-.6 2.8-.8 8-.8 15.3v41.3H724V30.6h-.2zM895 76.5h-76.5c.7 9.2 4 16.7 10 22.4 6 5.6 13.5 8.4 22.5 8.4 6.4 0 12-1.7 17.2-5 5-3.2 9-7.8 11.8-13.7h12.3c-4 9.4-9.4 16.6-16.4 21.6-7.2 5-15.4 7.6-24.7 7.6-12.3 0-22.8-4.5-31.3-13.3S807.2 85.3 807.2 73c0-13 4.2-23.6 12.5-32 8.3-8.4 19-12.7 32-12.7 12.8 0 23.2 4.4 31.2 13.2 8 8.8 12 20.2 12 34.3v.7zm-12-9.2c-2-9.5-5.7-16.7-11.2-21.5-5.5-4.8-12.7-7.2-21.5-7.2-8.2 0-15.2 2.6-21 7.8-5.6 5.2-9 12.2-10.4 21h64zm35.5 48.1h-11V30.6h10.3v9.8c2.7-3.8 5.6-6.5 8.7-8.3 3.2-1.6 7-2.6 11-2.7l.2 11.8c-6.8.7-11.7 2.8-14.7 6.2-3 3.5-4.4 9-4.4 17v51.2zm23.2-26.7H953v.3c0 5.3 1.4 9.7 4.5 13 3 3.6 6.8 5.3 11.3 5.3 4.3 0 7.8-1.3 10.6-4s4.2-6 4.2-10c0-4.2-1-7.4-3.3-10-2.2-2.4-6.3-4.7-12.2-6.8-9.3-3.3-15.5-6.8-18.3-10.2-3-3.5-4.3-8.2-4.3-14 0-6.7 2.4-12.4 7.2-17 4.8-4.6 10.6-7 17.4-7 7.3 0 13 2.2 17.3 6.3 4.3 4 6.6 10 7 17.2h-11.7c-.3-4-1.5-7-3.8-9.3-2.3-2.2-5.4-3.3-9.4-3.3-3.6 0-6.5 1.2-9 3.6-2.3 2.4-3.5 5.4-3.5 9 0 2.4.4 4.5 1.4 6.3 1 1.8 2.6 3.4 4.8 4.8 2 1.3 5 2.5 9 3.7 4 1.2 6.6 2 8 2.6 5.2 2.4 9 5.4 11.6 9 2.5 4 3.7 8.6 3.7 14.4 0 7.3-2.6 13.3-7.6 18-5.2 5-11.7 7.3-19.4 7.3-8 0-14.4-2.6-19.2-7.8-5-5.4-7.4-12.4-7.7-21.3z"/></symbol><symbol viewBox="0 0 1000 1000" id="phone"><path d="M351 3.2s-220.6 5-215.8 201.3 44.2 368 108 466.2S474 1019 660.4 994.7c0 0 93.2-19.7 162-64L596.4 754s-68.7 44.5-108-14.5c-44-58.8-171.7-319-171.7-319S282.3 337 361 297.7L351 3.2zm24.6 0s14.7-4.8 49 10c29.6 14.7 29.6 29.4 29.6 29.4l5 196.3s-10 9.4-19.7 24c-10 10-49 29.4-54 14.7-9.8-10-10-275-10-275z"/><path d="M616 724.7l64-34.4s14.7-4.8 34.3 10c24.5 14.6 142.4 108 142.4 108s19.6 14.6 14.7 39c-5 19.7-19.6 64-19.6 64L616 724.6z"/></symbol><symbol viewBox="0 0 1000 1000" id="pinterest-icon"><path d="M581.4 721.2c-62 0-120-33.4-140-71.4 0 0-33.3 132-40.3 157.5-24.5 90-97.6 180.3-103.2 187.6-4 5-12.7 3.2-13.6-3.6-1.5-11.5-20-125 1.8-217.8l73.8-312.3S341.2 425 341.2 371c0-85 49.3-148.5 110.6-148.5 52 0 77.2 39 77.2 86 0 52.4-33.3 130.8-50.6 203.4C464 572.4 509 622 569 622c108.5 0 181.7-139.5 181.7-304.8C750.7 192 666 97.8 512 97.8c-173.8 0-282.2 129.7-282.2 274.6 0 50 14.7 85 37.8 112.3 10.6 12.5 12 17.7 8.2 32-2.8 10.5-9 36-11.7 46-3.5 14.5-15.3 19.6-28.4 14.3-80-32.6-117.4-120.4-117.4-219C118 195.3 255.4 0 527.8 0c218.8 0 363 158.4 363 328.4 0 224.8-125 392.8-309.3 392.8z"/></symbol><symbol viewBox="0 0 1000 1000" id="scroll-arrow"><path d="M508 611.5c-4.8 0-9.6-1.6-12.7-4.8L391.7 495.2c-6.4-6.4-4.8-16 1.6-22.3 6.4-6.6 17.5-5 22.3 1.4l90.8 98.7 90.8-98.6c6.4-6.4 16-6.4 22.3-1.6 6.4 6.3 6.4 15.8 1.6 22.2L517.7 606.7c0 3.2-4.8 4.8-9.5 4.8z"/><path d="M500 993.6C227.7 993.6 6.4 772.3 6.4 500S227.7 6.4 500 6.4 993.6 227.7 993.6 500 772.3 993.6 500 993.6zm0-955.4c-254.8 0-461.8 207-461.8 461.8s207 461.8 461.8 461.8 461.8-207 461.8-461.8S754.8 38.2 500 38.2z"/></symbol><symbol viewBox="0 0 1000 1000" id="twitter-icon"><path d="M996 192.4c-36.5 16.2-75.8 27-117 32 42-25.2 74.3-65 89.6-112.6-39.3 23.3-83 40.3-129.2 49.4-37-39.5-90-64.2-148.5-64.2-112.6 0-203.7 91-203.7 203.4 0 16 1.8 31.5 5.3 46.4-169-8.5-319-89.5-419.4-212.6-17.5 30-27.5 65-27.5 102.3 0 70.6 36 133 90.5 169.3-33.4-1-64.7-10.2-92.2-25.5v2.6c0 98.4 70.3 180.6 163.3 199.3-17 4.7-35 7-53.6 7-13 0-25.8-1.2-38.3-3.6 25.8 80.8 101 139.7 190 141.3-69.6 54.7-157.3 87.2-252.7 87.2-16.4 0-32.6-1-48.5-2.8 90 58 197 91.6 311.8 91.6 374.3 0 579-310 579-579 0-8.7-.3-17.5-.7-26.2C934 269 968.6 233.2 996 192.4z"/></symbol></svg>