<!DOCTYPE svg PUBLIC "-//W3C//DTD SVG 1.1//EN" "http://www.w3.org/Graphics/SVG/1.1/DTD/svg11.dtd"><svg xmlns="http://www.w3.org/2000/svg" xmlns:xlink="http://www.w3.org/1999/xlink"><symbol viewBox="-104 -194 1000 1000" id="Location"><path d="M724 134c0-181.1-146.8-328-328-328C214.9-194 68-47.2 68 134c0 54.1 13.2 105.1 36.4 150.1h-.1l1.2 2.1c2.9 5.4 5.8 10.8 9 16L396 806l281.5-503.7c3.1-5.3 6.1-10.6 9-16l1.2-2.1h-.1C710.8 239.1 724 188.1 724 134zM396 345.4c-116.7 0-211.4-94.6-211.4-211.4 0-116.7 94.6-211.4 211.4-211.4 116.7 0 211.4 94.6 211.4 211.4 0 116.7-94.7 211.4-211.4 211.4z"/></symbol><symbol id="Phone" viewBox="-104 -194 1000 1000"><style>.bst0{fill-rule:evenodd;clip-rule:evenodd}</style><path class="bst0" d="M896.7 619.6c2.9 349-488.8 121-622.9 13.2C59.2 453.4-107.1 221-104.7 29.2c.7-55.3 23.8-152 79-194.1C1.9-184.5 54.1-193.6 78.9-194c13.7-.2 30.3-.5 38.5 7.7 24.3 65.9 57 134.7 84.3 203.9 11 22.2 24.6 63.9 24.6 72.3-5.5 18.1-46 59.9-73.5 88.4-14.5 15-21.7 44.8-11.3 62.7 29.6 50.7 98.9 135 140.3 176.9 31.5 31.9 120.3 96.9 171.2 127.5 18.1 10.9 47 4.6 62.1-10.3 27.5-27 66.3-64 88-71 20 0 212.5 91.9 261.6 106.3 34.6 11.5 31.8 26 32 49.2z"/></symbol><symbol viewBox="0 0 100 100" id="cancel"><path d="M49.9 55l-.2-.2-36.4 36.4-4.6-4.5 36.5-36.5L8.5 13.5l4.6-4.6L54 50.5z"/><path d="M49.7 45.9L86.2 9.4l4.2 4.6L54 50.5l36.9 36.6-4.6 4.6-41.1-41.5z"/></symbol><symbol viewBox="0 0 1000 1000" id="facebook-icon"><path d="M657.8 500.3H554.5v368.2h-153V500.3h-72.8v-130h73V286c0-60.2 28.5-154.4 154.2-154.4l113.3.4v126.3H587c-13.4 0-32.4 6.6-32.4 35.3V370h116.7l-13.5 130.3z"/></symbol><symbol viewBox="0 0 1000 1000" id="google-icon"><path d="M320.3 438v124l169.2-.2c-26.5 80.4-67.7 124-169.2 124-102.7 0-182.8-83-182.8-185.8 0-102.7 80-186 182.8-186 54.3 0 89.4 19.2 121.5 45.8 25.7-25.7 23.6-29.4 89-91.3C475.4 218 401.5 187 320.4 187c-173 0-313 140-313 313s140 313 313 313c258.4 0 321.5-225 300.6-375H320.2zm564 6.2V335.8h-77.5v108.5H695.2v77.5h111.6v111.6h77.5V521.7h108.5v-77.5H884.3z"/></symbol><symbol viewBox="0 0 1000 1000" id="instagram-icon"><path d="M878 3.6H121.3C56 3.6 3.3 56.3 3.3 121.3v757.2c0 65 52.8 117.7 118 117.7H878c65.2 0 118-52.7 118-117.7v-757c0-65-53-118-118-118zm-185.2 141c0-15.4 12.4-27.8 27.8-27.8h134.2c15.3 0 27.8 12.4 27.8 27.7v134c0 15.2-12.4 27.6-27.8 27.6H720.6c-15.3 0-27.8-12-27.8-27V145zm-192 166c105.4 0 191 85.4 191 190.6s-85.6 190.5-191 190.5-191-85.3-191-190.5 85.5-190.5 191-190.5zm384 542.6c0 15.3-12.3 27.7-27.7 27.7H145c-15.3 0-27.8-13-27.8-28V421h93c-7 25.4-11 52-11 79.7 0 166 135.5 301.3 302 301.3S803 667.3 803 501c0-27.5-4-54.2-10.7-79.6h93V853z"/></symbol><symbol viewBox="0 0 1000 1000" id="linkedin-icon"><path d="M670 377.7c-76.4 0-110.5 42-129.7 71.4v2h-1l1-1.3V388H396.5c2 40.7 0 432.7 0 432.7h143.8V579c0-13 1-25.7 4.7-35 10.4-25.8 34-52.7 73.8-52.7 52-.2 73 39.8 73 98v231.4h143.5v-248c0-133.2-71-194.8-165.5-194.8v-.3zM246 179.3c-49 0-81.3 32.3-81.3 74.8 0 42 31.2 75.3 79.4 75.3h1.3c50 0 81.3-33.2 81.3-74.5-1-42.7-31.2-75.2-80.5-75.2v-.3zm-72.8 208.5H317v432.6H173.2V387.8z"/></symbol><symbol viewBox="0 0 1000 1000" id="pinterest-icon"><path d="M553.4 654.5c-43 0-83.4-23.2-97.3-49.6 0 0-23 91.6-28 109.3-17 62.5-67.7 125.3-71.6 130.4-2.8 3.5-8.8 2.2-9.5-2.5-1-8-14-87 1.2-151.3l51.3-217s-13-25.3-13-62.8c0-59 34.3-103.2 77-103.2 36 0 53.5 27 53.5 59.8 0 36.4-23 91-35.2 141.3-10 42 21.3 76.6 63 76.6 75.4 0 126.3-97 126.3-211.8 0-87-58.8-152.5-165.8-152.5-120.8 0-196 90-196 190.8 0 34.8 10 59.2 26.2 78 7.4 8.8 8.3 12.4 5.7 22.3l-8 32c-2.4 10-10.6 13.6-19.7 10-55.6-22.8-81.6-83.8-81.6-152.3-.2-113 95.3-248.8 284.5-248.8 152 0 252.2 110 252.2 228.2 0 156.3-87 273-215 273z"/></symbol><symbol viewBox="0 0 1000 1000" id="twitter-icon"><path d="M868.3 271.6c-27 12-56.3 20-87 23.8 31.3-18.7 55.3-48.3 66.6-83.6-29.3 17.3-61.7 30-96 36.7-27.5-29.3-66.8-47.7-110.3-47.7-83.6 0-151.3 67.6-151.3 151 0 12 1.3 23.4 4 34.5-125.5-6.3-237-66.5-311.4-158-13 22.4-20.4 48.4-20.4 76 0 52.5 26.7 99 67.2 125.8-24.8-.6-48-7.5-68.5-18.8v2c0 73 52.2 134 121.3 148-12.6 3.4-26 5-39.8 5-9.7 0-19.2-.8-28.4-2.6 19.2 60 75 103.7 141 105C304 709 238.8 733.2 168 733.2c-12.3 0-24.3-.7-36-2 66.7 43 146.2 68 231.4 68 278 0 430-230.3 430-430 0-6.5-.3-13-.6-19.5 29.4-21.3 55-48 75.5-78.2z"/></symbol></svg>