<svg xmlns="http://www.w3.org/2000/svg" viewBox="0 0 1000 1000.1"><path fill="#fff" d="M529.3 806.5c-16.7-17.5-30-37-40.8-57.3l-158-38.3V175l217.8 52.8v215.4c9.3-8 18.8-15.3 29-21.6V227.8l217.6-53v223c28.3 10.2 55.2 25.3 79 46V74L563 149.8 316.8 90 6.4 165.7v699L317 789l245.8 59.7 14-3.4c-17-10.8-33-23.7-47.5-38.8zM303 711L85.5 763.6v-536L303 175v536zm684.6 118.4l-91-95.6c42-78 31.5-177.6-33-245.3-80.2-84-213.4-87.3-297.6-7-84 80-87.3 213.4-7 297.5 64.4 67.7 163.3 83 243.3 44.6l91 95.6c30.2 31.7 125-57.5 94.3-89.8zm-191.8-107c-49 46.8-126.6 45-173.4-4-46.6-49-44.8-126.7 4.2-173.5s126.6-45 173.4 4c46.7 49 45 126.7-4.2 173.5z"/></svg>
