<?xml version="1.0" encoding="utf-8"?>
<!-- Generator: Adobe Illustrator 18.0.0, SVG Export Plug-In . SVG Version: 6.00 Build 0)  -->
<!DOCTYPE svg PUBLIC "-//W3C//DTD SVG 1.1//EN" "http://www.w3.org/Graphics/SVG/1.1/DTD/svg11.dtd">
<svg version="1.1" xmlns="http://www.w3.org/2000/svg" xmlns:xlink="http://www.w3.org/1999/xlink" x="0px" y="0px"
	 viewBox="0 0 1000 1000" enable-background="new 0 0 1000 1000" xml:space="preserve">
<g id="installation">
	<g>
		<path d="M175,77c4.4,1.3,7.1-3.7,11.6-3c4.1,0.7,8.5,0.1,12.7,0.1c39.1,0,78.4-1.8,117.4,0.4c75.1,4.3,150.1,1.3,225.1,2.4
			c38.6-5,77.5-1.3,116.2-3.3c9.9-0.5,19.9-2.1,30-2.4c6.9-0.2,12.9,4.4,20.1,2.9c26.8-5.3,54-0.9,80.8-3.4
			c11.9-1.1,23.7-2,36.3-2.3c0,12,0,24,0,36.2c-7.1,0.3-13.2,6.4-22,2.1c0,16.2-1.7,31,0.6,45.1c1.7,10.1,0.4,20.3,2.5,30
			c5.2,23.6-0.2,47.5,2.9,71c3.7,28.4,2,56.8,2.4,85.1c0.4,28.3,0.2,56.6,0,84.9c0,6.9,3.8,12.8,3.1,20.1c-6,57.5-1.8,115.2-3,172.8
			c0,0.4-0.5,0.7-1.1,1.7c-44.2,5.9-89.2,1.8-133.9,2.9c-16,0.4-31.9,0.1-48.4,0.1c0,6.4,0,12.4,0,18.2c-14.6,5.6-29.4,4.3-44,4.4
			c-15.5,0-30.9,0-45.5,0c-6,23.2-3.8,46-4.4,68.8c5.9,8.9,12.5,17.4,19.5,25.8c10.1,12.1,20.3,24.2,29.3,37.2
			c4.6,6.7,10.8,12.4,16.1,18.7c13.5,16.4,25.8,33.7,39,50.3c15.4,19.4,30.4,39.1,44.8,59.3c1.9,2.6,4.6,4.7,6.6,6.7
			c0,3.5,0,6.7,0,10.1c-10.7,0-21,0-32.3,0c-12.3-11.6-21.7-26.7-31.8-41c-8.5-11.9-17.1-24-25.8-35.8
			c-10.6-14.5-20.3-29.6-31.1-43.9c-0.9-1.2-1.2-3.2-2.5-4.6c-12.6-12.3-22-27.6-36.4-38.3c-2.1,3.1-0.8,7-0.8,10.6
			c-0.2,9.9-0.1,19.8-0.1,29.7c0,10.8,0,21.7,0,32.5c0,11.3-0.1,22.6,0,33.9c0.1,10.6-4.1,20.6-3.1,31.4c1,10.7,0.2,21.7,0.2,32.5
			c-8.4,6.7-18.2,3.8-28.5,4.6c0-56.1,0-111.5,0-168c-12.8,4.9-16.7,16.9-24.4,24.9c-7.7,8-14.3,17.5-21.2,26.4
			c-7.1,9.2-15.9,16.8-23,25.8c-6.7,8.5-13.9,16.7-20.1,25.6c-6.5,9.3-15.3,17.2-20.7,26.8c-5.8,10.3-18.1,14.7-20.1,26.7
			c-10.2,0-19,0-27,0c-2-1.6-3.4-2.8-4.6-3.7c-0.4-4.5,2.6-7.4,4.4-9.9c12.9-17.8,25.4-36,39.1-53.1c10.8-13.4,20.8-27.4,31.6-40.8
			c9.8-12.1,19.7-24,29.9-35.8c13.7-15.8,25.8-33,40.1-48.4c2.7-2.9,3.5-7.4,7.4-9.9c0-24.8,0-49.6,0-75c-27.7,0-55.4,0-84.3,0
			c1.5-8.3-4.8-14.5-2.8-22.9c-67.3,0-133.6,0-199.5,0c-1.5-1.5-2.5-2.5-5.3-5.3c-0.1-0.1,0.9-2.6,0.9-4.8
			c-0.1-53.7-0.2-107.5,0-161.2c0.1-16.2-5.2-32.1-2.8-48.3c5.8-40.5,2-81.3,2.6-121.9c0.7-40.5,0.4-81.1-0.1-121.6
			c-0.1-6.7,4-12,3.2-18.6c-0.7-6.5-0.2-13.2-0.2-19.8c0-2.3,0-4.6,0-7.9c-8.7,0-17.1,0-25.5,0C175,99.6,175,88.3,175,77z
			 M401.4,611.7c-0.5-6-0.4-12.4,4.6-17c18.1,1.1,35.8-4,54-3c18.3,1,36.8,0.2,55.2,0.2s36.8-0.1,55.2,0c18.2,0.1,36.4-0.7,54.5,0.5
			c0,6.6,0,12.3,0,17.8c2.5,3.3,6.3,6.5,9.4,4c4.4-3.6,8.8-2.5,13.2-2.4c10,0.1,19.9,0.2,30.1,2.2c11.8,2.3,24.5-0.1,36.7,0.7
			c28.5,1.9,56.6-4.3,84.6-2.9c1.7-1.8,4.2-3.4,4-4.4c-1.5-8,3.3-15,3.2-22.9c-0.4-26.4-0.2-52.8-0.2-79.2c0-25.9,0.5-51.9-0.1-77.8
			c-0.6-26,1.4-52-2.2-78.1c-2.6-19-0.2-38.6-0.6-57.9c-0.3-19.4,0.2-38.8-2.3-58.3c-3.1-24.8,1.9-50.2-3.1-75.2
			c-1.6-8.2-0.7-17-0.1-25.4c0.6-8.4-5.4-15.5-2.5-24.4c-3.6,0-6,0.3-8.2,0c-14-1.9-27.4,2.9-41.3,2.9c-27.8-0.1-55.6,0-83.5,0
			c-28.3,0-56.6-0.4-84.9,0.1c-27.4,0.6-54.8-1.6-82.4,2.2c-17.6,2.4-35.8,0.5-53.7,0.5c-18.4,0-36.8,0.4-55.2-0.1
			c-17.5-0.5-35,0.6-52.7-2.1c-20.5-3.1-41.6,0.4-62.4-3.1c-17.9-2.9-36,1.3-53.9,2.6c-3.6,0.3-7.4-1.3-10.8,1.2
			c0,24.2,0,48.2,0,72.2c0,23.6,0.4,47.2-0.1,70.7c-0.5,23.7-3.6,47.2-2.9,71c0.7,23.6,0.2,47.1,0.2,70.7c0,24,0,48.1,0,72.1
			c0,23.6,0,47.2,0,70.7c0,23.9,0,47.8,0,72c14.2,0,27.4,0.3,40.5-0.1c13-0.4,25.3,4.1,38.5,3.1c26.4-2.1,53,2.2,79.5-2.6
			C374.1,609.8,387.2,611.7,401.4,611.7z M816.9,76.5c-27.9,2.5-54.7-0.2-81.8,2.7c-35.6,3.8-71.7-0.6-107.6,3
			c-23.8,2.4-48,0-72,0.6c-23.6,0.5-47.4-2.7-70.9,2.7c-7.8,1.8-15.2-2.5-22.8-2.7c-16-0.4-32-0.1-48.1-0.1c-16.5,0-33,0-49.5,0
			c-16,0-32.1-0.4-48.1,0.1c-16.2,0.6-32.2-1.9-48.3-2.8c-14.1-0.7-28.3,0.5-42.4-0.3c-13.9-0.8-27.1,5.3-41.3,2.8
			c0,8.1,0,15.4,0,22.9c2.4,0,4.3,0,6.1,0c16.6-0.3,33.1-0.8,49.8-2.2c17.7-1.5,35.8-1.6,54,1.7c14.6,2.7,30.1,1.3,45.1,0.3
			c14.9-1,29.2,4.2,44.1,3.3c11.4-0.7,22.8-2,34.2-2.6c27.7-1.4,55.6-0.2,83.4-0.5c27.4-0.3,54.8,1,82.3-2.4c15.8-2,32-0.6,48-0.3
			c16.1,0.4,32.1-0.3,48.4,2.3c21.6,3.5,43.4-1.8,65.2-2.3c24.1-0.5,48.2,1.5,72.4-4.1C816.9,91.9,816.9,85,816.9,76.5z M534.1,722
			c-5.5,0-9.5,0.8-13-0.2c-3.8-1.1-6.8-0.8-10.5,0c-4.1,0.9-8.7-0.7-12.6,0.4c-4.1,1.1-9.7,2.3-11.1,6.6c-1.8,5.3-6.6,7.6-9.2,11.8
			c-5.5,8.6-13.3,15.1-19.7,23c-9.1,11.2-16.9,23.5-26.6,34.1c-7.8,8.5-14.6,17.8-22.4,26.4c-4.5,4.9-9.7,9.9-13.1,15.6
			c-7.5,12.7-17.2,23.9-25.5,36c-8,11.5-17.1,22.1-22.3,35.7c5.6,0,10.6,0,15.1,0c13.4-12.1,23.6-26.3,34.8-39.7
			c13.7-16.4,25-34.9,40.7-49.7c2.9-9.1,11.4-13.9,16.8-21.2c8.3-11.3,15.7-23.4,26.1-33.2c3.2-3.1,6.1-6.4,8.5-10.5
			c2.3-4,5.8-9.5,13.4-9.6c0,59.8,0,119,0,177.8c6.7,1.6,10.9-3.2,16.7-3c0-4.5,0.1-8.7,0-12.9c-1.8-55.3,4.9-110.4,2.9-165.7
			c0-0.5,1.1-1.1,1.6-1.5c1.1,3.1,5.7,1.2,6.6,3.9c2.9,8.5,10.3,13,16.3,18.6c6.2,5.7,9.7,13.4,15.8,19.1
			c11,10.3,18.8,23.1,27.5,35.2c9,12.4,18.4,24.4,27.5,36.7c8.8,11.9,17.6,23.8,26.2,35.8c5.4,7.6,10.4,15.4,15.5,22.8
			c6,0,11.7,0,17.2,0c1.4-1.4,2.8-2.8,3.8-3.8C635.2,845.3,582.5,785.4,534.1,722z M619.4,633.7c-1.4-11.6,2.7-23-4.5-33.4
			c-12.2,2.1-24-3.4-36.6-2.9c-23,0.9-46.1-0.2-69.2,0.4c-23.2,0.6-46.4-2.4-69.5,2.4c-8.6,1.8-17.8,0.3-26.8,0.3
			c-0.8,0-1.6,0.5-2.5,0.8c-0.3,1.3-0.4,2.8-1.1,3.8c-1.1,1.5-2.8,2.5-1.9,6.3c7.2,6.1-2.2,17.9,6.4,25.8c34.1,0,68.4,0.4,102.7-0.1
			C550.4,636.5,584.4,640,619.4,633.7z M498.4,643.1c-2.3,29.3-1.6,65.5,1.5,73.6c8.7-6.3,18.8-1.3,28.2-3.9c0-23.2,0-46.5,0-69.7
			C517.8,643.1,508.1,643.1,498.4,643.1z"/>
		<path d="M237.2,150.5c1.1-4.5,4.1-6.1,8.5-5.7C244.6,149.3,241.6,151,237.2,150.5z"/>
		<path d="M466.4,241.1c2-0.1,2.9,0.9,2.8,2.8C467.3,244,466.3,243,466.4,241.1z"/>
		<path d="M469.2,243.9c2-0.1,2.9,0.9,2.8,2.8C470.1,246.8,469.1,245.8,469.2,243.9z"/>
		<path d="M727.9,591.1c-132.5,2.4-265-0.6-397.4,6.3C462.8,584.4,595.4,590.7,727.9,591.1z"/>
		<path d="M214.9,112.7c0,77.2,0,154.5,0,231.7c-0.8,0-1.7,0-2.5,0c0-77.3,0-154.6,0-232C213.3,112.5,214.1,112.6,214.9,112.7z"/>
		<path d="M281.2,579.5c-9.8-50.3,9.3-109.5,0-140.8C281.2,470.2,281.2,529,281.2,579.5z"/>
		<path d="M786.9,523.3c0-28.7,0-57.4,0-86.1c0.5,0,0.9,0,1.4,0c0,28.7,0,57.4,0,86.1C787.8,523.3,787.4,523.3,786.9,523.3z"/>
		<path d="M786.2,480c0-28.7,0-57.4,0-86.1c0.5,0,0.9,0,1.4,0c0,28.7,0,57.4,0,86.1C787.1,480.1,786.7,480.1,786.2,480z"/>
		<path d="M716.2,122c-132.5,2.4-265-0.6-397.4,6.3C451,115.3,583.6,121.6,716.2,122z"/>
		<path d="M716.2,114.3c-132.5,2.4-265-0.6-397.4,6.3C451,107.6,583.6,113.9,716.2,114.3z"/>
	</g>
</g>
</svg>
