<?xml version="1.0" encoding="utf-8"?>
<!-- Generator: Adobe Illustrator 18.0.0, SVG Export Plug-In . SVG Version: 6.00 Build 0)  -->
<!DOCTYPE svg PUBLIC "-//W3C//DTD SVG 1.1//EN" "http://www.w3.org/Graphics/SVG/1.1/DTD/svg11.dtd">
<svg version="1.1" id="Layer_1" xmlns="http://www.w3.org/2000/svg" xmlns:xlink="http://www.w3.org/1999/xlink" x="0px" y="0px"
	 viewBox="0 0 1000 1000" enable-background="new 0 0 1000 1000" xml:space="preserve">
<g>
	<g>
		<path d="M816.7,817.9c-211.1,4.8-422.5-1.2-633.4,13.1C394,804.1,605.5,817.1,816.7,817.9z"/>
	</g>
	<g>
		<path d="M218,321c218.7,0,437.5,0,656.2,0c0,1.5,0,3,0,4.5c-218.4,0-436.8,0-655.3,0C218.6,324,218.3,322.5,218,321z"/>
	</g>
	<g>
		<path d="M125.2,814.5c0-114.4-0.7-228.9,0.5-343.3c0.3-30.2,1.9-59.7-0.7-90.2c-6.9-79.4-6.1-79.8,33-75.9
			c-19.8-6.8-26.3,19.8-25,63.7c3.9,130.2,0.1,260.9,8.6,390.9c1.2,17.8,5.1,36.7-1.8,53.9C134.9,813.9,130,814.2,125.2,814.5z"/>
	</g>
	<g>
		<path d="M98,728.7c-15.6-103.4,14.8-225.2,0-289.6C98,503.8,98,624.8,98,728.7z"/>
	</g>
	<g>
		<path d="M910.4,383.1c-4.4,133.9-8.8,267.7-13.2,401.6C881.1,652.3,898,518,910.4,383.1z"/>
	</g>
	<g>
		<path d="M171.5,502.6c0-59,0-118.1,0-177.1c0.7,0,1.5,0,2.2,0c0,59.1,0,118.1,0,177.2C173,502.6,172.2,502.6,171.5,502.6z"/>
	</g>
	<g>
		<path fill="none" d="M488,872.5c-139.7,0-279.4,0.3-419.1-0.5c-17.3-0.1-41.7,9.7-44-24c-1.8-26.9,8.7-35.6,34.1-34
			c23.4,1.5,25-15.9,25-33.1c0.1-150.6-0.1-301.2,0.2-451.8c0-21-4.9-36.8-30-34.1c-38.3,4-37.6-19.7-38.7-47.6
			c-1.3-33.1,16.4-38.4,43.1-41.3c293.6-32,587.1-64.4,880.6-97.5c30.6-3.4,49.1,0.1,44.8,37.8c-2.9,25.1-1.8,50.8-0.3,76.1
			c2.6,44.6,3.9,85.5-61.7,72.8c-22.4-4.3-26.2,12.4-26.2,30.9c0.2,152.4,0.2,304.8-0.1,457.2c0,18.7,3.7,32.7,26.5,30.9
			c22.7-1.8,32.5,6.9,32.1,31.1c-0.6,32.1-22.5,27-41.7,27C771,872.7,629.5,872.6,488,872.5z M495.4,304.4
			c-110.7,0-221.4,0.5-332.1-0.4c-27.4-0.2-44,3.4-43.5,37.5c2,143.3,3.1,286.7,1.6,430c-0.4,37.6,13.9,44,47.3,43.8
			c216-1.2,432-1.4,648,0.3c36.3,0.3,46.4-11.7,46.1-46.4c-1.3-139.7-1.4-279.5,0.5-419.2c0.5-36-11.2-46.8-46.6-46.2
			C709.6,305.5,602.5,304.3,495.4,304.4z M926.8,153.7c-1.9-5.2-3.9-10.5-5.8-15.7c-68.7,7.3-137.4,14.7-209.8,22.4
			c84.7,117,84.6,116.9,177.6,24.4C900.4,173.3,914.1,164,926.8,153.7z M581.5,267.9c65.5,0,122.6,0,181.8,0
			c-73.4-106.7-84.4-108-165.4-21.4C593.3,251.3,589.7,257.1,581.5,267.9z M850.5,267.3c117.7,11.5,125.6,3.3,102.2-106.9
			C918.9,195.7,886,230.2,850.5,267.3z M634.5,169.1c-35.9,4-60.8,6.7-85.7,9.5c-24.1,2.7-48.2,5.6-75.6,8.8
			C550.9,279.9,531.9,283.2,634.5,169.1z M504.3,269.4c-66.8-84.6-87.2-83.6-124.8,0C418.8,269.4,457.9,269.4,504.3,269.4z
			 M390.1,194.9c-36.2,4.7-70.1,9.1-106.2,13.9C331.4,276.4,343.2,274.6,390.1,194.9z M291.2,268.3c-45.1-59.3-45.1-59.3-86.5,0
			C232.9,268.3,259.3,268.3,291.2,268.3z"/>
		<path d="M48.5,875.3c-11.1,0-24-3.1-25.6-27.1c-0.9-13.6,1.2-22.6,6.7-28.5c5-5.3,12.6-7.8,23.9-7.8c1.8,0,3.7,0.1,5.6,0.2
			c0.9,0.1,1.8,0.1,2.6,0.1c18.7,0,20.3-14.1,20.3-31.2c0-56.5,0-113,0-169.4c0-92.6,0-188.3,0.2-282.4c0-23-6.6-32.4-22.7-32.4
			c-1.6,0-3.3,0.1-5.1,0.3c-2.9,0.3-5.6,0.5-8.1,0.5c-30.9,0-31.8-22.7-32.6-46.7l-0.1-3.3C12.1,212,32.1,207,58.4,204.1
			c322-35.1,610.1-67,880.6-97.5c6.3-0.7,11.2-1,15.6-1c12.2,0,20.3,2.7,25.4,8.4c5.8,6.5,7.8,17.2,6,32.6
			c-2.9,25.2-1.7,51.3-0.3,75.8c1.4,24.2,3,51.7-10.7,66.2c-7,7.4-17.2,11-31.3,11c-6.5,0-13.9-0.8-22.1-2.4
			c-2.2-0.4-4.3-0.6-6.2-0.6c-12.3,0-17.6,8.8-17.6,29.6c0.2,164,0.2,313.6-0.1,457.2c0,17.9,3.5,29.1,20.7,29.1
			c1.1,0,2.4-0.1,3.6-0.2c2-0.2,3.8-0.2,5.6-0.2c9.5,0,16.5,2.3,21.1,7.1c5.3,5.4,7.7,14,7.5,26.3c-0.5,25.7-14.5,29.3-29.7,29.3
			c-2.3,0-4.7-0.1-7.1-0.1c-2.3-0.1-4.7-0.1-7-0.1c-63.4,0.1-132.8,0.2-212,0.2c-70.5,0-142.2,0-211.5-0.1l-1.1,0
			c-29.9,0-59.9,0-89.8,0c-29.9,0-59.9,0-89.8,0c-70.5,0-154.1-0.1-239.5-0.6l-0.3,0c-3,0-6.2,0.3-9.5,0.6
			C55.6,874.9,52,875.3,48.5,875.3z M53.5,815.8c-10.1,0-16.8,2.1-21,6.6c-4.6,4.9-6.4,13.2-5.6,25.5c1.4,20.6,11.2,23.4,21.6,23.4
			c3.3,0,6.8-0.3,10.2-0.6c3.3-0.3,6.7-0.6,9.9-0.6l0.3,0c85.4,0.5,169,0.6,239.5,0.6c29.9,0,59.9,0,89.8,0c29.9,0,59.9,0,89.8,0
			l1.1,0c69.3,0,141,0.1,211.5,0.1c79.3,0,148.6-0.1,212-0.2c2.4,0,4.8,0.1,7.1,0.1c2.3,0.1,4.7,0.1,6.9,0.1
			c13.3,0,25.2-1.9,25.7-25.3c0.2-11.2-1.9-18.9-6.4-23.4c-4.6-4.7-12.2-6.5-23.6-5.6c-1.4,0.1-2.7,0.2-3.9,0.2
			c-21.7,0-24.7-15.9-24.7-33.1c0.3-143.6,0.3-293.2,0.1-457.2c0-10.3,1.2-17.5,3.8-22.9c4.3-8.9,12.7-12.3,24.8-10
			c7.9,1.5,15.1,2.3,21.3,2.3c12.9,0,22.2-3.2,28.4-9.8c12.5-13.3,11-39.8,9.6-63.2c-1.5-24.7-2.6-50.9,0.3-76.4
			c1.6-14.2,0-23.9-5-29.5c-4.3-4.8-11.4-7.1-22.4-7.1c-4.2,0-9.1,0.3-15.2,1C668.9,141.1,380.9,173,58.8,208.1
			c-25,2.7-42.6,7.1-41.3,39.2l0.1,3.3c0.9,24.9,1.6,42.8,28.6,42.8c2.4,0,5-0.1,7.7-0.4c1.9-0.2,3.8-0.3,5.5-0.3
			c23.7,0,26.7,19.5,26.7,36.4C86,423.2,86,518.9,86,611.5c0,56.5,0,113,0,169.4c0,13.2,0,35.2-24.3,35.2c-0.9,0-1.9,0-2.9-0.1
			C57,815.9,55.2,815.8,53.5,815.8z M818,817.6c-0.4,0-0.9,0-1.3,0c-105.8-0.8-213.7-1.2-329.6-1.2c-100.7,0-204.8,0.3-318.4,0.9
			l-1.5,0c-16.9,0-29.9-1.7-38.1-10c-6.9-7-9.9-18-9.7-35.8c1.3-124.6,0.8-257.2-1.6-430c-0.2-14.5,2.5-24.2,8.7-30.4
			c7.8-7.9,20.4-9.3,36.8-9.1c45.8,0.4,94.3,0.5,157.3,0.5c29.1,0,58.3,0,87.4-0.1c29.1,0,58.3-0.1,87.4-0.1c4.4,0,8.8,0,13.3,0
			c28.7,0,58,0.1,86.2,0.2c28.3,0.1,57.5,0.2,86.2,0.2c53,0,96.1-0.3,135.6-0.9c0.9,0,1.8,0,2.7,0c17.7,0,28.8,3.2,35.8,10.3
			c7.2,7.3,10.4,19.1,10.1,37.9c-1.8,129.3-1.9,266.4-0.5,419.2c0.2,19.3-2.9,30.7-10.2,38C847.5,814.4,836.2,817.6,818,817.6z
			 M487.1,812.4c116,0,223.8,0.4,329.7,1.2c17.8,0.2,28.6-2.7,35.1-9.2c6.5-6.5,9.2-17,9-35.2c-1.4-152.8-1.3-289.9,0.5-419.2
			c0.2-17.7-2.5-28.6-8.9-35.1c-6.2-6.3-16.4-9.1-32.9-9.1c-0.9,0-1.8,0-2.7,0c-39.5,0.6-82.6,0.9-135.7,0.9
			c-28.7,0-58-0.1-86.2-0.2c-28.3-0.1-57.5-0.2-86.2-0.2c-4.4,0-8.8,0-13.3,0c-29.1,0-58.3,0-87.4,0.1c-29.1,0-58.3,0.1-87.4,0.1
			c-63,0-111.5-0.2-157.3-0.5c-15.4-0.1-27.2,1.1-34,8c-5.3,5.4-7.7,14.1-7.5,27.5c2.4,172.8,2.9,305.4,1.6,430
			c-0.2,16.4,2.5,26.9,8.6,33c6.2,6.2,16.4,8.8,35.3,8.8l1.5,0C282.2,812.7,386.4,812.4,487.1,812.4z M909.6,273.2
			C909.6,273.2,909.6,273.2,909.6,273.2c-13.9,0-31-1.1-59.3-3.9l-4.1-0.4l2.8-3c16.4-17.1,32.2-33.7,47.9-50.1
			c18.2-19.1,36.1-37.8,54.3-56.8l2.6-2.7l0.8,3.7c11.9,56.2,15.2,83.9,2.8,99.2C949.5,269,935.2,273.2,909.6,273.2z M854.8,265.7
			c25.7,2.5,41.8,3.5,54.8,3.5c0,0,0,0,0,0c24.2,0,37.6-3.7,44.7-12.5c11-13.6,8-40.7-2.8-92.1c-17.3,18.1-34.4,35.9-51.7,54.1
			C885.1,234,870.2,249.6,854.8,265.7z M508.4,271.4h-132l1.3-2.8c17.8-39.7,33-64.3,53.4-64.3c17.8,0,38,17.3,74.8,63.8
			L508.4,271.4z M382.6,267.4h117.6c-28.3-35.6-51-59.1-69.1-59.1C415.7,208.3,402,224.9,382.6,267.4z M295.2,270.3h-94.4l2.2-3.1
			c21.1-30.2,31.6-45.3,43.5-45.3c11.8,0,23.3,15.1,46.2,45.3L295.2,270.3z M208.5,266.3h78.6c-19.9-26.1-31.2-40.5-40.6-40.5
			C237.2,225.8,226.8,240.2,208.5,266.3z M767.1,269.9H577.5l2.4-3.2c2.9-3.9,5.2-7,7.3-9.8c3.6-5,6.2-8.6,9.3-11.7
			c40.5-43.3,62.1-62.7,83.1-62.7c24.7,0,46,27,85.4,84.3L767.1,269.9z M585.5,265.9h174c-38.6-56-58.6-79.4-80-79.4
			c-19.5,0-40.5,18.9-80.2,61.4c-2.9,3-5.4,6.5-8.9,11.3C589,261.2,587.4,263.4,585.5,265.9z M334.9,259.2
			C334.9,259.2,334.9,259.2,334.9,259.2c-15.1,0-30.1-17.3-52.6-49.3l-1.9-2.7l3.3-0.4c35.6-4.7,69.2-9.1,104.7-13.7l5.5-0.7
			l-2.1,3.5C366.6,238.8,351.6,259.2,334.9,259.2z M287.4,210.3c20.2,28.5,34.5,44.9,47.4,44.9c0,0,0,0,0,0
			c14.3,0,28.7-19.5,51.4-57.8C352.8,201.8,321,205.9,287.4,210.3z M542.6,257.8C542.6,257.8,542.6,257.8,542.6,257.8
			c-14.4,0-26.4-14.8-50.4-44.2c-6-7.4-12.8-15.8-20.6-25l-2.4-2.8l3.7-0.4c8.4-1,16.6-1.9,24.5-2.9c17.7-2.1,34.5-4.1,51.1-5.9
			c13.3-1.5,26.7-3,41.7-4.6c13-1.4,27.3-3,44-4.9l5.2-0.6l-3.5,3.9c-9.4,10.4-17.8,20-25.3,28.4
			C574.9,239.3,558.5,257.8,542.6,257.8z M477.1,189c6.8,8.1,12.8,15.5,18.2,22.2c22.4,27.5,34.8,42.7,47.2,42.7c0,0,0,0,0,0
			c14.1,0,31.2-19.3,65.1-57.6c6.5-7.4,13.8-15.6,21.8-24.5c-14.5,1.6-27.1,3-38.8,4.3c-15,1.7-28.4,3.1-41.7,4.6
			c-16.7,1.9-33.4,3.8-51.1,5.9C491.1,187.3,484.2,188.1,477.1,189z M800.8,253.4C800.8,253.4,800.8,253.4,800.8,253.4
			c-24.7,0-45.5-28.8-91.2-91.8l-2-2.8l3.4-0.4c35.5-3.8,70-7.5,104.1-11.1c35.5-3.8,70.6-7.6,105.7-11.3l1.6-0.2l0.5,1.5
			c0.9,2.6,1.9,5.2,2.9,7.8c1,2.6,2,5.3,2.9,7.9l0.5,1.3l-1.1,0.9c-4,3.3-8.2,6.5-12.3,9.6c-8.7,6.7-17.7,13.6-25.5,21.3l-0.3,0.3
			C845.1,231.1,822.6,253.4,800.8,253.4z M714.8,162c43.4,60,63.6,87.4,85.9,87.4c0,0,0,0,0,0c20.2,0,43.7-23.3,86.3-65.7l0.3-0.3
			c8-7.9,17.1-14.9,25.9-21.7c3.7-2.8,7.5-5.7,11.1-8.7c-0.8-2.2-1.6-4.4-2.4-6.6c-0.8-2.1-1.6-4.2-2.3-6.3
			c-34.5,3.7-69.1,7.4-104.1,11.1C782.5,154.8,749.1,158.4,714.8,162z"/>
	</g>
	<g>
		<path d="M874.4,728.7c-15.6-103.4,14.8-225.2,0-289.6C874.4,503.8,874.4,624.8,874.4,728.7z"/>
	</g>
	<g>
		<path d="M93.4,888.1c259-15.6,564.2,14.8,725.3,0C656.8,888.1,353.6,888.1,93.4,888.1z"/>
	</g>
</g>
</svg>
