<?xml version="1.0" encoding="utf-8"?>
<!-- Generator: Adobe Illustrator 17.1.0, SVG Export Plug-In . SVG Version: 6.00 Build 0)  -->
<!DOCTYPE svg PUBLIC "-//W3C//DTD SVG 1.1//EN" "http://www.w3.org/Graphics/SVG/1.1/DTD/svg11.dtd">
<svg version="1.1" id="Layer_1" xmlns="http://www.w3.org/2000/svg" xmlns:xlink="http://www.w3.org/1999/xlink" x="0px" y="0px"
	 viewBox="0 0 1000 1000" enable-background="new 0 0 1000 1000" xml:space="preserve">
<path d="M581.414,721.162c-61.877,0-120.107-33.375-140.028-71.383c0,0-33.313,132.051-40.324,157.511
	c-24.848,90.144-97.878,180.289-103.479,187.599c-3.961,5.12-12.73,3.536-13.647-3.287c-1.584-11.451-20.221-125.109,1.71-217.811
	c11.02-46.534,73.759-312.34,73.759-312.34s-18.337-36.549-18.337-90.631c0-85.03,49.279-148.374,110.615-148.374
	c52.137,0,77.234,39.1,77.234,86.003c0,52.379-33.318,130.829-50.558,203.435c-14.376,60.786,30.456,110.365,90.451,110.365
	c108.599,0,181.754-139.48,181.754-304.787c0-125.596-84.606-219.639-238.524-219.639c-173.833,0-282.19,129.737-282.19,274.581
	c0,49.94,14.744,85.149,37.828,112.311c10.597,12.549,12.056,17.663,8.22,32.04c-2.8,10.478-9.013,35.938-11.695,45.924
	c-3.773,14.62-15.593,19.734-28.684,14.376c-80.096-32.645-117.375-120.357-117.375-219.028C118.143,195.277,255.433,0,527.819,0
	c218.846,0,362.892,158.366,362.892,328.426C890.711,553.179,765.67,721.162,581.414,721.162z"/>
</svg>
