<?xml version="1.0" encoding="utf-8"?>
<!-- Generator: Adobe Illustrator 17.1.0, SVG Export Plug-In . SVG Version: 6.00 Build 0)  -->
<!DOCTYPE svg PUBLIC "-//W3C//DTD SVG 1.1//EN" "http://www.w3.org/Graphics/SVG/1.1/DTD/svg11.dtd">
<svg version="1.1" id="Layer_1" xmlns="http://www.w3.org/2000/svg" xmlns:xlink="http://www.w3.org/1999/xlink" x="0px" y="0px"
	 viewBox="0 0 1000 1000" enable-background="new 0 0 1000 1000" xml:space="preserve">
<path d="M897.079,287.069c0.425,8.788,0.613,17.638,0.613,26.551c0,271.134-206.374,583.77-583.776,583.77
	c-115.913,0-223.706-33.996-314.529-92.168c16.113,1.831,32.414,2.813,48.952,2.813c96.199,0,184.579-32.784,254.777-87.774
	c-89.73-1.713-165.54-61.041-191.597-142.527c12.506,2.381,25.326,3.725,38.57,3.725c18.739,0,36.871-2.569,54.022-7.238
	C110.354,555.365,39.55,472.442,39.55,373.042c0-0.856,0-1.712,0-2.593c27.708,15.382,59.328,24.626,92.961,25.664
	c-55.059-36.777-91.255-99.581-91.255-170.753c0-37.602,10.133-72.848,27.777-103.156
	C170.17,246.355,321.428,328.028,491.906,336.572c-3.481-15.013-5.313-30.67-5.313-46.759c0-113.313,91.868-205.149,205.211-205.149
	c58.966,0,112.313,24.908,149.727,64.76c46.696-9.182,90.643-26.245,130.32-49.772C956.47,147.568,924,187.789,881.634,213.153
	c41.509-4.944,81.061-15.963,117.807-32.289C971.977,222.003,937.181,258.137,897.079,287.069z"/>
</svg>
