<?xml version="1.0" encoding="utf-8"?>
<!-- Generator: Adobe Illustrator 18.0.0, SVG Export Plug-In . SVG Version: 6.00 Build 0)  -->
<!DOCTYPE svg PUBLIC "-//W3C//DTD SVG 1.1//EN" "http://www.w3.org/Graphics/SVG/1.1/DTD/svg11.dtd">
<svg version="1.1" id="Layer_1" xmlns="http://www.w3.org/2000/svg" xmlns:xlink="http://www.w3.org/1999/xlink" x="0px" y="0px"
	 viewBox="0 0 1000 337.8" enable-background="new 0 0 1000 337.8" xml:space="preserve">
<g>
	<g>
		<path fill="#FFA400" d="M14.7,109.5h0.7C21.2,89.4,42,58.3,82.5,58.3c56.7,0,82.9,49.2,82.9,106.3c0,61.4-26.5,105.5-82.9,105.5
			c-30.5,0-56.3-14.2-67.1-46.9h-0.7v114.6H1.1V63h13.6V109.5z M151.7,164.6c0-46.1-19.7-93.3-69.2-93.3
			c-49.1,0-67.4,45.3-67.4,93.3c0,48,15.4,92.5,67.4,92.5C130.6,257.1,151.7,214.6,151.7,164.6z"/>
		<path fill="#FFA400" d="M206.9,107.9h1.1c7.2-26.4,37.3-47.6,70.6-46.1v15c-14.3-2-34.4,2-50.9,19.7c-13.6,15.3-19.4,28-20.8,58.3
			v110.6h-13.6V63h13.6V107.9z"/>
		<path fill="#FFA400" d="M358.5,58.3c54.1,0,84.6,48.4,84.6,105.9c0,57.5-30.5,105.9-84.6,105.9c-54.2,0-84.6-48.4-84.6-105.9
			C273.9,106.7,304.4,58.3,358.5,58.3z M358.5,257.1c46.3,0,71-44.5,71-92.9c0-48.4-24.7-92.9-71-92.9c-46.3,0-71,44.5-71,92.9
			C287.5,212.6,312.2,257.1,358.5,257.1z"/>
		<path fill="#FFA400" d="M609.3,125.6c-2.5-35.8-29.1-54.3-62.4-54.3c-46.3,0-71,44.9-71,91c0,54.7,23.3,94.9,71,94.9
			c34.4,0,59.5-26,64.2-63h13.6c-6.1,48.4-38,76-77.8,76c-59.9,0-84.6-51.6-84.6-107.9c0-56.3,30.1-103.9,84.6-103.9
			c39.8,0,72.1,21.3,76,67.3H609.3z"/>
		<path fill="#FFA400" d="M715.8,76h-40.2v141.4c0,32.7,14,35.8,39.8,35v13c-28,2-54.9-2.4-53.4-48V76h-34.1V63H662V0h13.6v63h40.2
			V76z"/>
		<path fill="#FFA400" d="M801.6,58.3c54.2,0,84.6,48.4,84.6,105.9c0,57.5-30.5,105.9-84.6,105.9c-54.1,0-84.6-48.4-84.6-105.9
			C717,106.7,747.4,58.3,801.6,58.3z M801.6,257.1c46.3,0,71-44.5,71-92.9c0-48.4-24.7-92.9-71-92.9c-46.3,0-71,44.5-71,92.9
			C730.6,212.6,755.3,257.1,801.6,257.1z"/>
		<path fill="#FFA400" d="M927.2,107.9h1.1c7.2-26.4,37.3-47.6,70.7-46.1v15c-14.3-2-34.4,2-50.9,19.7c-13.6,15.3-19.4,28-20.8,58.3
			v110.6h-13.6V63h13.6V107.9z"/>
	</g>
</g>
</svg>
