<svg xmlns="http://www.w3.org/2000/svg" viewBox="0 0 1000 1000"><path fill="#453A48" fill-rule="evenodd" d="M278.6 786.6v169.7c.8 25.5 29.2 34.8 46.7 19.7l220.5-189.4h265.4c50.3 0 96-20.5 129-53.6 33-33 53.6-78.8 53.6-129V199.4c0-50.3-20.5-96-53.6-129-33-33-78.8-53.6-129-53.6H188.8c-50.3 0-96 20.5-129 53.6-33.2 33-53.7 78.8-53.7 129V604c0 50.3 20.6 96 53.7 129 33 33 78.8 53.6 129 53.6h90zM266 446h468c19.2 0 34.8 15.5 34.8 34.8s-15.6 35-35 35H266.2c-19.2 0-34.8-15.7-34.8-35s15.6-35 35-35zm0-158.3h468c19.2 0 34.8 15.6 34.8 35 0 19.2-15.6 34.8-35 34.8H266.2c-19.2 0-34.8-15.6-34.8-35 0-19.2 15.6-34.8 35-34.8zM811.3 133c18.2 0 34.8 7.5 46.8 19.5s19.5 28.6 19.5 46.8V604c0 18.2-7.5 34.8-19.5 46.8s-28.6 19.5-46.8 19.5H188.8c-18.2 0-34.8-7.5-46.8-19.5s-19.5-28.6-19.5-46.8V199.4c0-18.2 7.5-34.8 19.5-46.8s28.6-19.5 46.8-19.5h622.4z" clip-rule="evenodd"/></svg>