<svg xmlns="http://www.w3.org/2000/svg" viewBox="0 0 1000 1000"><path fill="#010101" d="M990.2 500c0 270.8-219.5 490.3-490.2 490.3C229.2 990.3 9.8 770.8 9.8 500S229.2 9.7 500 9.7c270.8 0 490.2 219.5 490.2 490.3z"/><path fill="#FFF" d="M29.3 611.6h941.4c5.7-24.2 9.6-49 11.5-74.4H17.8c2 25.4 5.8 50.3 11.5 74.4zM92.4 760.5h815.2c15-23.5 28.2-48.4 39-74.5H53.4c11 26 24 51 39 74.5zM242.3 909.3h515.4c33.4-21 64-46 91.2-74.4H151c27.3 28.3 58 53.3 91.3 74.3zM757.8 90.7H242.2c-33.4 21-64 46-91.2 74.4h697.8c-27-28.2-57.6-53.3-91-74.3z"/><g fill="#BF2033"><path d="M53.3 686h893.4c10-23.8 18-48.7 24-74.3H29.3c6 25.6 14 50.5 24 74.4zM151 835h698c21.8-23 41.5-47.8 58.6-74.5H92.4c17.2 26.7 36.8 51.6 58.7 74.4zM500 983.8c94.8 0 183-27.4 257.7-74.5H242.3c74.6 47 163 74.5 257.7 74.5zM29.3 388.4h941.4c-6-25.7-14-50.5-24-74.4H53.3c-10 23.8-18 48.7-24 74.4zM16.2 500c0 12.5.6 25 1.6 37.2h964.5c1-12.3 1.6-24.7 1.6-37.2 0-12.6-.7-25-1.7-37.2H17.8c-1 12.3-1.6 24.6-1.6 37.2zM151 165c-21.8 23-41.4 47.8-58.6 74.5h815.2c-17-26.7-36.8-51.6-58.7-74.4H151zM500 16.2c-94.8 0-183 27.4-257.7 74.5h515.5c-74.7-47-163-74.5-257.8-74.5z"/></g><path fill="#FFF" d="M17.8 462.8h964.5c-2-25.5-5.8-50.3-11.5-74.4H29.3c-5.7 24-9.6 49-11.5 74.4zM53.3 314h893.4c-11-26.2-24-51-39-74.5H92.3c-15 23.5-28.2 48.4-39 74.4z"/><g><path fill="#213065" d="M499.7 16.2C232.7 16.4 16.2 233 16.2 500c0 12.7.6 25.3 1.6 37.8h482V16.2z"/><g fill="#FFF"><path d="M45.7 333.2l-1.8 5.4 1.7-5.4zM40.4 348.8l-4.8 15.6 5-15.5-.2-.2zM63.8 510l-14.3-10.5L35 510l5.6-17-14.3-10.4H44l5.5-16.7 5.4 16.6h17.6L58.3 493M128.6 437.3l-14.4-10.5-14.3 10.5 5.4-17L91 410h17.8l5.4-16.7 5.5 16.7h17.7L123 420.4M124.4 273l5.4 16.7-14.3-10.4-14.3 10.4 5.5-16.8-14.3-10.5H110l5.5-16.7 5.5 16.7h17.7M196 510l-14.3-10.5-14.3 10.4 5.5-17-14.4-10.4h17.6l5.5-16.7 5.5 16.6H205L190.4 493M197 344.3l-6.5 4.7 5.5 16.8-14.3-10.4-14.3 10.4L173 349l-6.5-4.7-8-5.7h17.7l5.5-16.8 5.5 16.8H205M190.5 198l5.5 16.8-14.3-10.3-14.3 10.3L173 198l-14.4-10.4h17.6l5.5-16.8 5.5 16.8H205M260.8 442.6L246.5 432l-14.3 10.6 5.5-17-14.3-10.3H241l5.5-17 5.5 17h17.7l-14.4 10.4M256.7 278.2l5.5 16.8-14.4-10.5-14.3 10.5 5.5-16.8-14.3-10.4h17.6l5.5-16.8 5.5 16.8H271M258 129l5.5 16.7-14.3-10.3-14.3 10.3 5.3-16.8-14.2-10.5h17.7l5.5-16.8 5.4 16.8h17.7M328.3 510L314 499.4 299.7 510l5.4-17-14-10.4h17.5L314 466l5.4 16.6H337L323 493M329.2 344.3l-6.4 4.7 5.5 16.8-14.3-10.4-14.3 10.4L305 349l-6.3-4.7-7.8-5.7h17.5l5.5-16.8 5.4 16.8H337M322.8 198l5.5 16.8-14.3-10.3-14.3 10.3L305 198l-14-10.4h17.5l5.5-16.8 5.4 16.8H337M393 442.6L379 432l-14.3 10.6 5.5-17-14.4-10.3h17.8l5.4-17 5.5 17H402l-14.4 10.4M389 278.2l5.4 16.8-14.3-10.5L366 295l5.5-16.8-14.3-10.4h17.7L380 251l5.6 16.8h17.6M390.3 129l5.5 16.7-14.3-10.3-14.4 10.3 5.6-16.8-14.3-10.5H376l5.5-16.8 5.4 16.8h17.6M460.6 510l-14.3-10.5L432 510l5.5-17-14.4-10.4H441l5.5-16.7 5.4 16.6h17.7L455 493M461.5 344.3L455 349l5.6 16.8-14.3-10.4-14.3 10.4 5.5-16.8-6.4-4.7-8-5.7H441l5.5-16.8 5.4 16.8h17.7M455 198l5.6 16.8-14.3-10.3-14.3 10.3 5.5-16.8-14.4-10.4H441l5.5-16.8 5.4 16.8h17.7M455 50.4l5.6 16.8L446.3 57 432 67l5.5-16.8L423 40H441l5.5-16.7 5.4 16.7h17.7M314 57l14.3 10.3-5.4-16.8 2-1.4c-7.6 3-15 6-22.4 9.4l-3 9L314 56.8z"/><path d="M314 170.8l-5.5 16.8H291l14 10.4-5.3 16.8 14.3-10.3 14.3 10.3-5.5-16.8 14.3-10.4h-17.6M314 321.8l-5.5 16.8H291l7.7 5.7 6.4 4.7-5.3 16.8 14.3-10.4 14.3 10.4-5.5-16.8 6.4-4.7 8-5.7h-17.8M319.4 482.6L314 466l-5.5 16.6H291l14 10.4-5.3 17 14.3-10.5 14.3 10.4-5.5-17 14.3-10.4M181.7 170.8l-5.5 16.8h-17.6L173 198l-5.6 16.8 14.3-10.3 14.3 10.3-5.5-16.8 14.4-10.4H187M181.7 321.8l-5.5 16.8h-17.6l8 5.7 6.3 4.7-5.6 16.8 14.3-10.4 14.3 10.4-5.5-16.8 6.5-4.7 8-5.7H187M187.2 482.6l-5.5-16.7-5.5 16.6h-17.6L173 493l-5.6 17 14.3-10.5L196 510l-5.5-17 14.4-10.4M35 365.8l.6-1.4-.5 1.4zM49.5 321.8l-3.8 11.5c1.3-3.5 2.8-7 4-10.4l-.2-1.2z"/><path d="M63.8 365.8L58.3 349l6.4-4.6 8-5.7H54.8L49.7 323c-1.4 3.3-3 6.8-4 10.3l-2 5.4-3.5 10.2h.2l-5 15.6c0 .5-.2 1-.4 1.3l14.4-10.5 14.4 10.3zM55 482.6L49.4 466 44 482.5H26.2L40.6 493 35 510l14.5-10.5L63.8 510l-5.5-17 14.3-10.4M380 251l-5.3 16.8H357l14.3 10.4-5.5 16.8 14.3-10.5 14.4 10.5-5.4-16.8 14.2-10.4h-17.6M384.3 415.3l-5.5-17-5.4 17h-17.8l14.4 10.4-5.5 17 14.3-10.6 14.3 10.6-5.4-17 14.4-10.3M247.8 251l-5.5 16.8h-17.6l14.3 10.4-5.5 16.8 14.3-10.5 14.4 10.5-5.5-16.8 14.3-10.4h-17.7M252 415.3l-5.5-17-5.5 17h-17.6l14.3 10.4-5.5 17 14.3-10.6 14.3 10.6-5.5-17 14.4-10.3M115.5 245.8l-5.4 16.7H92.5l14.3 10.4-5.5 16.7 14.3-10.4 14.3 10.4-5.4-16.8 14.3-10.5H121M119.7 410l-5.5-16.7-5.4 16.7H91l14.4 10.4-5.5 17 14.2-10.6 14.4 10.5-5.5-17 14.4-10.3M446.3 170.8l-5.5 16.8H423l14.5 10.4-5.5 16.8 14.3-10.3 14.3 10.3L455 198l14.4-10.4h-17.7M249.2 101.7l-5.5 16.8H226l14.3 10.4-5.4 16.7 14.2-10.3 14.3 10.3L258 129l14.3-10.5h-17.7M381.5 101.7l-5.6 16.8h-17.7l14.3 10.4-5.5 16.7 14.5-10.3 14.3 10.3-5.5-16.8 14.3-10.5H387M446.3 23.3L440.8 40H423l14.5 10.4-5.5 16.8L446.3 57 460.6 67 455 50.4 469.5 40h-17.7M446.3 321.8l-5.5 16.8H423l8 5.7 6.5 4.7-5.5 16.8 14.3-10.4 14.3 10.4L455 349l6.5-4.7 8-5.7h-17.8M451.7 482.6l-5.4-16.7-5.5 16.6H423l14.5 10.4-5.5 17 14.3-10.5 14.3 10.4-5.5-17 14.4-10.4"/></g></g></svg>