<svg xmlns="http://www.w3.org/2000/svg" viewBox="0 0 1000 1000"><path d="M972 55.5c-73.8-82.4-297.4-17-542 177h1.6c-61 3-112.4 16.2-150.2 38.2-43.6 25.3-69 63-69 110.5 0 42.7 29 84.5 79 100-20.6 2.7-37.4 9.7-50 19.4-16 12.6-24.8 29.8-24.8 47.6-.2 28 17.2 52.8 46.7 61.8-38.3 12.3-62.3 40-62.3 74.6.3 65.3 63.2 105 183.3 116C266 859 166 873.2 113.5 819.3 44.3 727.4 137 575.7 217.5 451 24.5 626.7-32.2 878.3 24.7 945c64.5 75.7 250.7 24.5 468.5-142 73-3.4 129-18.5 167.7-41.2 44-25.7 66.4-62 66.4-101.3 0-21.3-5-41.4-18.2-59 61.4-69.4 79.7-104 79.7-104l-80 70.8-17.4 15.7c-5.4-4.2-11.4-8.2-18.2-12-41-21.8-109-35-219.3-35-18.7 0-31.5-2-39-5-7.7-3.3-10-7-10-10.6.5-10.8 5.4-16.4 22.6-16.8H461c85.3 0 147.4-13.6 188.3-36.3C690 446 710 413.5 710 377c0-37.5-10-56.8-33.7-80 9 1 17.5 1.8 26.7 1.8 48.6-.2 85.5-27.7 86-60.2 0-8-2-22.3-6.6-31.8l-.6-1.6H609.3v2.8c-.2 7.5-2.5 13-15 18-12.3 5-35 7.8-72 7.8-9.4 0-25-1-41-1.6h.3c149.3-85 324-159 394.6-83.6C947 224 882.2 345 818.7 459 975.5 273.6 1034 125 972 55.5zM463.4 626.8c51.5.4 60.8 16.8 61.2 38-.6 21.8-9.7 38.2-61.2 38.8-51.5-.6-60.8-17-61.2-38.7.4-21.4 9.7-37.8 61.2-38.2zM668 293.2zM507.8 373c-.4 28-15.6 41-46.8 41.6-30.7-.4-46.7-13.6-47-41.6.3-28 16.3-41.2 47-41.6 31 .5 46.3 13.6 46.7 41.6z"/></svg>
