<svg xmlns="http://www.w3.org/2000/svg" viewBox="0 0 1000 368.9"><path fill="#FFFFFF" d="M402.3 316.8c-9-8-7.7-25.4-1.5-46.3h-9.4v-17.7C366 297.6 348 344.2 363.8 358c27.6 19 125.3-61.2 164.6-108.6-37.3 35.6-94 90-126 67.4z"/><path fill="#FFFFFF" d="M890.4 224.3c-12 0-19-8-19-32s7-32 19-32c10.3 0 16.8 5.5 18.6 21h75.3c-6-39.3-44.3-69.5-94-69.5-44.5 0-80 25-91 58.7-10.7-33.8-46.4-58.7-91.2-58.7-28.2 0-53 10-70 26V112h-2c27.5-42.8 44.4-90.5 26.5-102.5-28-18.8-112 51.7-160.4 102.5h-22.6v47.7h48.3v110H590v-110h31.6c-5 10-8 21-8 32.7 0 44.3 40.7 80.5 94.5 80.5 44.8 0 80.3-25 91.4-58.8 10.8 33.7 46.4 58.4 91 58.4 49.6 0 87.6-30 94-69.2H909c-1.8 15.4-8.4 21-18.6 21zM503 112c37.3-35.3 89-79.2 119.3-57.7 12.8 11 10 32 .3 57.6H503zm205 48.5c9.8 0 16 4.7 18.5 18.4H690c2.3-13.8 8.6-18.5 18-18.5zm17 52c-3.3 8.6-9 11.8-17 11.8-10.4 0-17-5.7-18.5-22.6h107c.6 3.7 1.4 7.3 2.4 10.8h-74zM982.7 245.3c7 0 12.8 5.5 12.8 12.7 0 7.4-5.8 13-12.8 13-7 0-13-5.6-13-13 0-7.2 6-12.7 13-12.7zm0 23.7c6 0 10.5-4.7 10.5-11 0-6-4.6-10.8-10.5-10.8-6 0-10.6 4.7-10.6 10.8 0 6.3 4.7 11 10.7 11zm-5-18.4h5.8c3.6 0 5.2 1.4 5.2 4.3 0 2.6-1.7 3.7-4 4l4.4 6.6h-2.4l-4-6.4H980v6.4h-2.3v-15zm2.3 6.6h2.4c2 0 4 0 4-2.5 0-2-1.8-2.3-3.4-2.3h-3v4.8zM279.4 168c-13-11-30.8-18-51.2-18-20.5 0-38.5 7-51.4 18-12.8 11.2-20.6 26.5-20.6 43.5s7.8 32.2 20.6 43.4c13 11 31 17.8 51.4 17.8s38.3-7 51.2-18c12.8-11 20.6-26.4 20.6-43.3 0-17-7.8-32.3-20.6-43.4zM228 188.5c8.7 0 13.6 5 13.7 23 0 18-5 23-13.6 23.2-8.6 0-13.3-5-13.4-23.2 0-18 5-22.8 13.5-23zM306.8 111H365v159.5h-58.2zM453 148.6c2-1.8 4.8-3 7.8-3h15.4v-34.5h-31.8c-17.6 0-31 4.2-39.8 11.4-8.8 7.2-13.2 17.5-13.2 29.5v9h-21v32.5h21v76.9h58.4v-77h26.4v-32.3h-26.4V155c0-2 1.2-4.4 3.2-6.2z"/><path fill="#FFFFFF" d="M171.6 154c0-2.3-.6-6.4-1.8-9l-.2-.6h-49.1v.8c0 2-.7 3.7-4.3 5-3.5 1.5-10 2.3-20.5 2.3-3.8 0-11.2-.6-17.4-.6-21 0-38.6 3.8-51 11-12.3 7.2-19.6 18-19.5 31.4 0 12 8.2 24 22.4 28.4-5.8.8-10.6 2.8-14 5.5-4.6 3.6-7.2 8.5-7.2 13.5 0 8 5 15 13.3 17.6-11 3.6-17.8 11.4-17.8 21.3 0 22.2 25.6 34 73.8 34 25.3 0 44.2-4.7 57-12C147.7 295.4 154 285 154 274c.2-10-3.6-19-15.3-25.2-11.6-6.2-31-10-62.3-10-5.4 0-9-.6-11-1.4-2.3-1-3-2-3-3 .2-3 1.6-4.7 6.5-4.8h9.4c24.3 0 42-4 53.5-10.3 11.5-6.4 17-15.6 17-26 .2-10.7-2.7-16.2-9.4-22.8 2.5.3 5 .5 7.6.5 13.8 0 24.2-7.8 24.4-17zM79 264.2c14.7 0 17.4 4.8 17.5 10.8-.2 6.3-2.8 11-17.4 11-14.5 0-17.2-4.7-17.3-11 0-6 2.8-10.6 17.4-10.7zm-.6-60.4c-8.7-.2-13.2-4-13.4-12 0-8 4.7-11.6 13.4-11.7 9 0 13.2 4 13.3 11.8 0 8-4.5 11.8-13.3 12zm58.8-34.5z"/></svg>