<svg xmlns="http://www.w3.org/2000/svg" viewBox="0 0 1000 1000"><path d="M349 9.6s-218 5-213.2 199c4.7 194 43.7 364 106.6 460.8s228 344.3 412.4 320c0 0 92-19.3 160-63L591.5 751.7s-68 43.8-106.6-14.5C441.2 679.2 315 422 315 422s-34-82.6 43.8-121.3L349 9.7z"/><path d="M373.4 9.6S388 5 422 19.4c29 14.7 29 29.2 29 29.2l5 194s-9.8 9.8-19.5 24.2c-9.8 9.7-48.6 29-53.4 14.5-9.6-9.8-9.6-271.7-9.6-271.7zM611 722.7l63-34s14.7-4.7 34 9.8c24.3 14.5 141 106.7 141 106.7s19.2 14.5 14.4 38.7c-5 19.3-19.4 63-19.4 63L611 722.7z"/></svg>