<svg xmlns="http://www.w3.org/2000/svg" viewBox="0 0 50 50" xml:space="preserve"><path fill-rule="evenodd" clip-rule="evenodd" fill="#60666B" d="M42.6 16.3v-.9c0-7.1-5.9-12.8-13.2-12.8-5.1 0-9.5 2.8-11.7 6.8-.8-.3-1.7-.5-2.6-.5-4.3 0-7.7 3.3-7.7 7.5 0 .5.1 1.1.2 1.6C3.7 19.3.8 22.9.8 27.1c0 5.3 4.4 9.6 9.9 9.6h4.4c.6 0 1.1-.5 1.1-1.1 0-.6-.5-1.1-1.1-1.1h-4.4C6.5 34.5 3 31.2 3 27c0-3.2 2.1-6.1 5.3-7.1l1.9-.6-.4-1.9c-.1-.4-.1-.7-.1-1.1 0-2.9 2.5-5.3 5.5-5.3.6 0 1.3.1 1.9.3l1.8.6.9-1.6c1.9-3.5 5.7-5.7 9.8-5.7 6.1 0 11 4.8 11 10.7v.8l-.1 1.5 1.4.6c3.2 1.4 5.3 4.4 5.3 7.8 0 4.7-4 8.5-8.8 8.5H35c-.6 0-1.1.5-1.1 1.1 0 .6.5 1.1 1.1 1.1h3.3c6.1 0 11-4.8 11-10.7 0-4.3-2.7-8-6.7-9.7z"/><path fill="#60666B" d="M38.3 37.4H35c-.9 0-1.7-.7-1.7-1.7S34 34 35 34h3.3c4.5 0 8.2-3.6 8.2-7.9 0-3.2-1.9-6-5-7.3l-1.8-.8.1-2.1v-.5c0-5.5-4.7-10.1-10.4-10.1-3.9 0-7.4 2.1-9.2 5.4l-1.1 2.1-2.3-.8c-.5-.2-1.1-.3-1.7-.3-2.7 0-4.9 2.1-4.9 4.7 0 .3 0 .7.1 1l.5 2.4-2.4.8c-2.9.9-4.9 3.6-4.9 6.5 0 3.8 3.2 6.9 7.1 6.9H15c.9 0 1.7.7 1.7 1.7s-.8 1.7-1.7 1.7h-4.4C4.8 37.4.1 32.8.1 27.2c0-4.2 2.7-8 6.7-9.5-.1-.4-.1-.8-.1-1.2 0-4.4 3.7-8.1 8.3-8.1.8 0 1.6.1 2.3.3 2.5-4.2 7-6.7 12-6.7 7.6 0 13.8 6 13.8 13.4v.5c4 1.9 6.6 5.8 6.6 10.2.2 6.2-5 11.3-11.4 11.3zM35 35.2c-.3 0-.5.2-.5.5s.2.5.5.5h3.3c5.7 0 10.4-4.5 10.4-10.1 0-4-2.5-7.6-6.3-9.2l-.4-.2V15.4c0-6.7-5.7-12.2-12.6-12.2-4.7 0-9 2.5-11.2 6.5l-.2.5-.5-.2c-.8-.3-1.6-.4-2.4-.4-3.9 0-7.1 3.1-7.1 6.9 0 .5.1 1 .2 1.4l.1.5-.5.2c-3.8 1.2-6.4 4.7-6.4 8.5 0 5 4.2 9 9.3 9h4.4c.3 0 .5-.2.5-.5s-.2-.5-.5-.5h-4.4c-4.6 0-8.3-3.6-8.3-8.1 0-3.5 2.3-6.5 5.7-7.6l1.4-.4-.3-1.3c-.1-.3-.2-.8-.2-1.2 0-3.3 2.7-5.9 6.1-5.9.7 0 1.4.1 2.1.4l1.3.5.7-1.2c2-3.7 6-6 10.3-6 6.4 0 11.6 5 11.6 11.3v.6l-.1 1.1 1 .4c3.5 1.4 5.7 4.7 5.7 8.4 0 5-4.2 9.1-9.4 9.1H35z"/><g fill="#60666B"><path fill-rule="evenodd" clip-rule="evenodd" d="m30.7 40.6-3.9 3.9V25.1c0-.5-.4-.9-.9-.9s-.9.4-.9.9v19.4l-3.9-3.9c-.2-.2-.4-.3-.6-.3-.5 0-.9.4-.9.9 0 .2.1.5.3.6l5.4 5.4c.2.2.4.3.6.3.2 0 .5-.1.6-.3l5.4-5.4c.2-.2.3-.4.3-.6 0-.5-.4-.9-.9-.9l-.6.3z"/><path d="M26 47.8c-.3 0-.6-.1-.8-.4L19.8 42c-.2-.2-.3-.5-.3-.8 0-.7.5-1.2 1.2-1.2.3 0 .6.1.8.4l3.3 3.3V25.1c0-.7.5-1.2 1.2-1.2s1.2.5 1.2 1.2v18.7l3.3-3.3c.2-.2.5-.4.8-.4.7 0 1.2.5 1.2 1.2 0 .3-.1.6-.3.8l-5.4 5.4c-.2.2-.5.3-.8.3zm-5.4-7.1c-.3 0-.6.3-.6.6 0 .2.1.3.2.4l5.4 5.4c.2.2.6.2.8 0l5.4-5.4c.1-.1.2-.3.2-.4 0-.3-.3-.6-.6-.6-.2 0-.3.1-.4.2l-4.4 4.4V25.1c0-.3-.3-.6-.6-.6s-.6.3-.6.6v20.1L21 40.8c-.1-.1-.3-.1-.4-.1z"/></g></svg>