<svg xmlns="http://www.w3.org/2000/svg" viewBox="0 0 50 50" xml:space="preserve"><path fill-rule="evenodd" clip-rule="evenodd" fill="#60666B" d="M42.7 16.3v-.9c0-7.1-6-12.9-13.3-12.9-5.1 0-9.6 2.8-11.8 6.9C16.9 9.1 16 9 15 9c-4.3 0-7.8 3.4-7.8 7.5 0 .5.1 1.1.2 1.6-4 1.3-6.8 4.9-6.8 9.2 0 5.3 4.5 9.7 10 9.7H15c.6 0 1.1-.5 1.1-1.1 0-.6-.5-1.1-1.1-1.1h-4.4c-4.3 0-7.8-3.4-7.8-7.5 0-3.2 2.1-6.1 5.3-7.1l1.9-.6-.4-1.9c-.1-.4-.1-.8-.1-1.1 0-3 2.5-5.4 5.6-5.4.6 0 1.3.1 1.9.3l1.8.6.9-1.7c1.9-3.5 5.7-5.8 9.8-5.8 6.1 0 11.1 4.8 11.1 10.7v.8l-.1 1.5 1.4.6c3.3 1.4 5.4 4.5 5.4 7.9 0 4.7-4 8.6-8.9 8.6H35c-.6 0-1.1.5-1.1 1.1 0 .6.5 1.1 1.1 1.1h3.3c6.1 0 11.1-4.8 11.1-10.7.1-4.5-2.7-8.3-6.7-9.9z"/><path fill="#60666B" d="M38.4 37.5H35c-.9 0-1.7-.8-1.7-1.7 0-.9.8-1.7 1.7-1.7h3.3c4.6 0 8.3-3.6 8.3-8 0-3.2-2-6.1-5-7.3l-1.8-.8.1-2.1v-.5c0-5.6-4.7-10.1-10.5-10.1-3.9 0-7.5 2.1-9.3 5.4L19 12.8l-2.3-.8c-.6-.2-1.1-.3-1.7-.3-2.7 0-5 2.1-5 4.8 0 .3 0 .7.1 1l.5 2.4-2.4.8c-2.9.9-4.9 3.6-4.9 6.6 0 3.8 3.2 6.9 7.2 6.9H15c.9 0 1.7.8 1.7 1.7 0 .9-.8 1.7-1.7 1.7h-4.4C4.8 37.5 0 32.9 0 27.2c0-4.3 2.7-8 6.8-9.6-.1-.4-.1-.8-.1-1.2 0-4.5 3.8-8.1 8.4-8.1.8 0 1.6.1 2.4.3 2.5-4.2 7.1-6.8 12.1-6.8 7.7 0 13.9 6.1 13.9 13.5v.5c4.1 1.9 6.7 5.9 6.7 10.2-.1 6.4-5.4 11.5-11.8 11.5zM35 35.4c-.3 0-.5.2-.5.5s.2.5.5.5h3.3c5.8 0 10.5-4.6 10.5-10.1 0-4-2.5-7.7-6.3-9.3l-.4-.2V15.5c0-6.8-5.7-12.3-12.7-12.3-4.7 0-9.1 2.5-11.3 6.6l-.1.4-.5-.2c-.8-.3-1.6-.4-2.4-.4-4 0-7.2 3.1-7.2 6.9 0 .5.1 1 .2 1.4l.1.5-.5.2c-3.8 1.2-6.4 4.7-6.4 8.6 0 5 4.2 9.1 9.4 9.1H15c.3 0 .5-.2.5-.5s-.2-.5-.5-.5h-4.4c-4.6 0-8.4-3.6-8.4-8.1 0-3.5 2.3-6.6 5.7-7.7l1.4-.4-.3-1.3c-.1-.4-.1-.8-.1-1.3 0-3.3 2.8-6 6.2-6 .7 0 1.4.1 2.1.4l1.3.5.7-1.2c2-3.7 6-6.1 10.4-6.1 6.5 0 11.7 5.1 11.7 11.3v.5l-.1 1.3 1 .4c3.5 1.5 5.7 4.8 5.7 8.4 0 5.1-4.3 9.2-9.5 9.2H35z"/><g fill="#60666B"><path fill-rule="evenodd" clip-rule="evenodd" d="m30.7 40.8-3.9 3.9v-9.6c0-.5-.4-.9-.9-.9s-.9.4-.9.9v9.6l-3.9-3.9c-.2-.2-.4-.3-.6-.3-.5 0-.9.4-.9.9 0 .3.1.5.3.6l5.4 5.4c.2.2.4.3.6.3.3 0 .5-.1.6-.3l5.4-5.4c.2-.2.3-.4.3-.6 0-.5-.4-.9-.9-.9-.2 0-.4.1-.6.3z"/><path d="M25.9 48.1c-.3 0-.6-.1-.9-.4l-5.4-5.4c-.2-.2-.4-.5-.4-.9 0-.7.5-1.2 1.2-1.2.3 0 .6.1.9.4l3.4 3.4v-8.9c0-.7.5-1.2 1.2-1.2s1.2.5 1.2 1.2V44l3.4-3.4c.2-.2.5-.4.8-.4.7 0 1.2.5 1.2 1.2 0 .3-.1.6-.4.9l-5.4 5.4c-.1.2-.4.4-.8.4zm-5.4-7.3c-.3 0-.6.3-.6.6 0 .2.1.3.2.4l5.4 5.4c.2.2.6.2.9 0l5.4-5.4c.1-.1.2-.3.2-.4 0-.3-.3-.6-.6-.6-.2 0-.3.1-.4.2l-4.4 4.4V35.1c0-.3-.3-.6-.6-.6s-.6.3-.6.6v10.3L20.9 41c-.1-.1-.2-.2-.4-.2z"/></g><path fill="#80B953" d="M22 29.1c-.3 0-.6-.1-.8-.4-.5-.5-.5-1.2 0-1.7l10.9-10.9c.5-.5 1.2-.5 1.7 0s.5 1.2 0 1.7l-10.9 11c-.3.2-.6.3-.9.3z"/><path fill="#80B953" d="M22.1 29.1c-.3 0-.6-.1-.9-.4L16 23.3c-.5-.5-.4-1.2 0-1.7.5-.5 1.2-.4 1.7 0l5.2 5.5c.5.5.4 1.2 0 1.7-.2.2-.5.3-.8.3z"/></svg>