<?xml version="1.0" encoding="utf-8"?>
<!-- Generator: Adobe Illustrator 26.3.1, SVG Export Plug-In . SVG Version: 6.00 Build 0)  -->
<svg version="1.1" id="Layer_1" xmlns="http://www.w3.org/2000/svg" xmlns:xlink="http://www.w3.org/1999/xlink" x="0px" y="0px"
	 viewBox="0 0 50 50" style="enable-background:new 0 0 50 50;" xml:space="preserve">
<style type="text/css">
	.st0{fill-rule:evenodd;clip-rule:evenodd;fill:#4C4C4C;}
	.st1{fill-rule:evenodd;clip-rule:evenodd;fill:#FFFFFF;}
	.st2{fill:#FFFFFF;}
</style>
<path class="st0" d="M50,25c0,13.8-11.2,25-25,25S0,38.8,0,25S11.2,0,25,0S50,11.2,50,25z"/>
<path class="st1" d="M25,37.6c-6.9,0-12.5-5.6-12.5-12.5S18.1,12.6,25,12.6s12.5,5.6,12.5,12.5S31.9,37.6,25,37.6z M25,11.4
	c-7.6,0-13.7,6.2-13.7,13.8S17.5,38.9,25,38.9c7.6,0,13.8-6.2,13.8-13.7C38.7,17.5,32.5,11.4,25,11.4z M30.3,29.6l-9.7-9.7
	c-0.2-0.2-0.6-0.2-0.9,0c-0.2,0.2-0.2,0.6,0,0.9l9.7,9.7c0.2,0.2,0.6,0.2,0.9,0C30.5,30.2,30.5,29.8,30.3,29.6z M19.6,29.6l9.7-9.7
	c0.2-0.2,0.6-0.2,0.9,0c0.2,0.2,0.2,0.6,0,0.9l-9.7,9.7c-0.2,0.2-0.6,0.2-0.9,0C19.4,30.2,19.4,29.8,19.6,29.6z"/>
<path class="st2" d="M19.7,19.8l0.3,0.3L19.7,19.8z M29.4,30.4l-0.3,0.3L29.4,30.4z M30.3,30.4L30,30.1L30.3,30.4z M29.4,19.8
	l-0.3-0.3L29.4,19.8z M30.3,19.8L30,20.1L30.3,19.8z M30.3,20.7l0.3,0.3L30.3,20.7z M20.5,30.4l-0.3-0.3L20.5,30.4z M19.6,30.4
	l0.3-0.3L19.6,30.4z M25,37.2c-6.7,0-12.1-5.4-12.1-12.1H12C12,32.3,17.8,38,25,38C25,38,25,37.2,25,37.2z M12.9,25.1
	C12.9,18.5,18.3,13,25,13v-0.8c-7.2,0-13,5.8-13,12.9C12,25.1,12.9,25.1,12.9,25.1z M25,13c6.6,0,12,5.5,12,12.1h0.8
	c0-7.1-5.8-12.9-12.9-12.9V13L25,13z M37,25.1c0,6.7-5.4,12.1-12.1,12.1V38c7.1,0,12.9-5.8,12.9-12.9H37z M25,11
	c-7.8,0-14.2,6.3-14.2,14.2h0.8c0-7.4,6-13.3,13.3-13.3L25,11L25,11z M10.8,25.1c0,7.8,6.3,14.2,14.2,14.2v-0.8
	c-7.4,0-13.3-6-13.3-13.3h-0.9V25.1z M25,39.3c7.8,0,14.2-6.3,14.2-14.2h-0.8c0,7.4-6,13.3-13.3,13.3v0.9H25z M39.1,25.1
	C39.1,17.3,32.8,11,25,11v0.8c7.4,0,13.3,6,13.3,13.3C38.3,25.1,39.1,25.1,39.1,25.1z M30.5,29.3l-9.7-9.7l-0.6,0.6l9.7,9.7
	C29.9,29.9,30.5,29.3,30.5,29.3z M20.8,19.5c-0.4-0.4-1.1-0.4-1.5,0l0.6,0.6c0.1-0.1,0.2-0.1,0.3,0L20.8,19.5z M19.4,19.5
	c-0.4,0.4-0.4,1.1,0,1.5l0.6-0.6c-0.1-0.1-0.1-0.2,0-0.3L19.4,19.5z M19.4,21l9.7,9.7l0.6-0.6L20,20.4C20,20.4,19.4,21,19.4,21z
	 M29.1,30.7c0.4,0.4,1.1,0.4,1.5,0L30,30.1c-0.1,0.1-0.2,0.1-0.3,0L29.1,30.7z M30.5,30.7c0.4-0.4,0.4-1.1,0-1.5L30,29.8
	c0.1,0.1,0.1,0.2,0,0.3L30.5,30.7z M19.9,29.8l9.7-9.7L29,19.5l-9.7,9.7C19.3,29.2,19.9,29.8,19.9,29.8z M29.7,20.1
	c0.1-0.1,0.2-0.1,0.3,0l0.6-0.6c-0.4-0.4-1.1-0.4-1.5,0L29.7,20.1z M30,20.1c0.1,0.1,0.1,0.2,0,0.3l0.6,0.6c0.4-0.4,0.4-1.1,0-1.5
	L30,20.1z M30,20.4l-9.7,9.7l0.6,0.6l9.7-9.7C30.6,21,30,20.4,30,20.4z M20.2,30.1c-0.1,0.1-0.2,0.1-0.3,0l-0.6,0.6
	c0.4,0.4,1.1,0.4,1.5,0L20.2,30.1z M19.9,30.1c-0.1-0.1-0.1-0.2,0-0.3l-0.6-0.6c-0.4,0.4-0.4,1.1,0,1.5L19.9,30.1z"/>
<path class="st2" d="M24.4,24.8h1.2V26h-1.2V24.8z"/>
</svg>
