<?xml version="1.0" encoding="utf-8"?>
<!-- Generator: Adobe Illustrator 26.3.1, SVG Export Plug-In . SVG Version: 6.00 Build 0)  -->
<svg version="1.1" id="Layer_1" xmlns="http://www.w3.org/2000/svg" xmlns:xlink="http://www.w3.org/1999/xlink" x="0px" y="0px"
	 viewBox="0 0 50 50" style="enable-background:new 0 0 50 50;" xml:space="preserve">
<style type="text/css">
	.st0{fill-rule:evenodd;clip-rule:evenodd;fill:#BF2419;}
	.st1{fill-rule:evenodd;clip-rule:evenodd;fill:#FFFFFE;}
	.st2{fill:#FFFFFF;}
</style>
<path class="st0" d="M50,25c0,13.8-11.2,25-25,25S0,38.8,0,25S11.2,0,25,0S50,11.2,50,25z"/>
<path class="st1" d="M37.2,26.7c-1.9,3.3-4,6.8-6.9,9.3c-1.1,0.9-2.4,1.4-3.9,1.4h-4.1c-3.9-0.2-7.1-3.4-7.1-7.2V18.3
	c0-0.8,0.6-1.4,1.4-1.4s1.4,0.6,1.4,1.4v6.4c0,0.4,0.3,0.7,0.7,0.7c0.4,0,0.7-0.3,0.7-0.7v-9.2c0-0.8,0.6-1.4,1.4-1.4
	s1.4,0.6,1.4,1.4v9.2c0,0.4,0.3,0.7,0.7,0.7c0.4,0,0.7-0.3,0.7-0.7V12.9c0-0.8,0.6-1.4,1.4-1.4s1.4,0.6,1.4,1.4v11.8
	c0,0.4,0.3,0.7,0.7,0.7c0.4,0,0.7-0.3,0.7-0.7v-9.2c0-0.8,0.6-1.4,1.4-1.4s1.4,0.6,1.4,1.4v11.8c0,0.3,0.2,0.6,0.5,0.7
	s0.6,0,0.8-0.2l2.6-2.4c0.5-0.5,1.3-0.5,1.8,0c0.3,0.2,0.4,0.6,0.4,0.9C37.3,26.4,37.2,26.5,37.2,26.7z M37.9,24.3
	c-1.1-1.1-2.9-1.1-3.9,0l-1.3,1.3V15.5c0-1.6-1.2-2.9-2.8-2.9c-0.5,0-1.1,0.1-1.5,0.4v-0.1c0-1.6-1.3-2.8-2.9-2.8s-2.9,1.3-2.9,2.8
	V13c-1.4-0.8-3.2-0.3-4,1.1c-0.3,0.4-0.4,0.9-0.4,1.4v0.4c-1.4-0.8-3.2-0.3-4,1.1c-0.3,0.4-0.4,0.9-0.4,1.4v11.8
	c0.1,4.6,3.8,8.4,8.6,8.7h4.1c1.8,0,3.5-0.7,4.8-1.8c3.1-2.6,5.2-6.2,7.3-9.7C39,26.2,38.7,25,37.9,24.3z"/>
<path class="st2" d="M37.2,26.7l0.2,0.1L37.2,26.7z M30.3,35.9l0.1,0.2L30.3,35.9z M22.4,37.4v0.2V37.4z M15.2,30.1H15
	C15,30.1,15.2,30.1,15.2,30.1z M15.2,18.3H15C15,18.3,15.2,18.3,15.2,18.3z M16.7,16.9v-0.2V16.9z M18.1,18.3h0.2H18.1z M19.6,15.5
	h-0.2H19.6z M21,14.1v-0.2V14.1z M22.5,15.5h0.2H22.5z M23.9,12.9h-0.2H23.9z M25.4,11.5v-0.2V11.5z M26.8,12.9H27H26.8z M28.3,15.5
	h-0.2H28.3z M29.7,14.1v-0.2V14.1z M31.2,15.5h0.2H31.2z M31.2,27.3H31C31,27.3,31.2,27.3,31.2,27.3z M31.6,27.9l-0.1,0.2L31.6,27.9
	z M32.5,27.8l0.1,0.2L32.5,27.8z M35,25.3l0.1,0.2L35,25.3z M36.9,25.3l-0.1,0.1L36.9,25.3z M37.3,26.3h-0.2H37.3z M34,24.3
	l-0.1-0.1L34,24.3z M32.7,25.5h-0.2V26l0.4-0.4L32.7,25.5z M32.7,15.5h-0.2H32.7z M29.9,12.6v0.2V12.6z M28.3,13h-0.2v0.4l0.3-0.2
	C28.4,13.2,28.3,13,28.3,13z M28.3,12.8h0.2H28.3z M25.4,10v0.2V10z M22.5,12.8h-0.2H22.5z M22.5,13l-0.1,0.2l0.3,0.2V13
	C22.7,13,22.5,13,22.5,13z M18.5,14l0.2,0.1L18.5,14z M18.1,15.8L18,16l0.3,0.2v-0.4C18.3,15.8,18.1,15.8,18.1,15.8z M14.1,16.8
	l0.2,0.1L14.1,16.8z M13.8,18.3H14H13.8z M13.8,30.1h-0.2H13.8z M22.3,38.7v0.2V38.7z M26.4,38.7V39V38.7z M31.3,36.9l-0.1-0.2
	L31.3,36.9z M38.5,27.2l0.2,0.1L38.5,27.2z M37.9,24.2l0.1-0.1l-0.4-0.3v0.5h0.3L37.9,24.2z M37,26.6c-1.9,3.3-4,6.7-6.9,9.2
	l0.3,0.3c2.9-2.5,5.1-6,6.9-9.3C37.3,26.8,37,26.6,37,26.6z M30.2,35.8c-1,0.9-2.3,1.4-3.7,1.4v0.4c1.5,0,2.9-0.5,4-1.5
	C30.5,36.1,30.2,35.8,30.2,35.8z M26.4,37.2h-4.1v0.4h4.1V37.2z M22.4,37.2c-3.8-0.2-6.9-3.3-6.9-7h-0.4c0.1,4,3.3,7.2,7.3,7.4V37.2
	z M15.5,30.1V18.3H15v11.8C15,30.1,15.5,30.1,15.5,30.1z M15.5,18.3c0-0.7,0.5-1.2,1.2-1.2v-0.4c-0.9,0-1.6,0.7-1.6,1.6H15.5z
	 M16.7,17.1c0.7,0,1.2,0.5,1.2,1.2h0.4c0-0.9-0.7-1.6-1.6-1.6V17.1z M17.9,18.3v6.4h0.4v-6.4H17.9z M17.9,24.7c0,0.5,0.4,0.9,1,0.9
	v-0.4c-0.3,0-0.5-0.2-0.5-0.5H17.9z M18.9,25.6c0.5,0,1-0.4,1-0.9h-0.4c0,0.3-0.2,0.5-0.5,0.5v0.4H18.9z M19.8,24.7v-9.2h-0.4v9.2
	H19.8z M19.8,15.5c0-0.6,0.5-1.2,1.2-1.2v-0.4c-0.9,0-1.6,0.7-1.6,1.6C19.4,15.5,19.8,15.5,19.8,15.5z M21,14.3
	c0.7,0,1.2,0.5,1.2,1.2h0.4c0-0.9-0.7-1.6-1.6-1.6C21,13.9,21,14.3,21,14.3z M22.2,15.5v9.2h0.4v-9.2H22.2z M22.2,24.7
	c0,0.5,0.4,0.9,1,0.9v-0.4c-0.3,0-0.5-0.2-0.5-0.5H22.2z M23.2,25.6c0.5,0,1-0.4,1-0.9h-0.4c0,0.3-0.2,0.5-0.5,0.5v0.4H23.2z
	 M24.2,24.7V12.9h-0.4v11.8C23.8,24.7,24.2,24.7,24.2,24.7z M24.2,12.9c0-0.7,0.6-1.2,1.2-1.2v-0.4c-0.9,0-1.6,0.7-1.6,1.6
	C23.8,12.9,24.2,12.9,24.2,12.9z M25.4,11.7c0.7,0,1.2,0.5,1.2,1.2H27c0-0.9-0.7-1.6-1.6-1.6C25.4,11.3,25.4,11.7,25.4,11.7z
	 M26.6,12.9v11.8H27V12.9C27,12.9,26.6,12.9,26.6,12.9z M26.6,24.7c0,0.5,0.4,0.9,1,0.9v-0.4c-0.3,0-0.5-0.2-0.5-0.5H26.6z
	 M27.6,25.6c0.5,0,1-0.4,1-0.9h-0.4c0,0.3-0.2,0.5-0.5,0.5v0.4H27.6z M28.5,24.7v-9.2h-0.4v9.2H28.5z M28.5,15.5
	c0-0.6,0.5-1.2,1.2-1.2v-0.4c-0.9,0-1.6,0.7-1.6,1.6C28.1,15.5,28.5,15.5,28.5,15.5z M29.7,14.3c0.7,0,1.2,0.5,1.2,1.2h0.4
	c0-0.9-0.7-1.6-1.6-1.6C29.7,13.9,29.7,14.3,29.7,14.3z M31,15.5v11.8h0.4V15.5C31.4,15.5,31,15.5,31,15.5z M31,27.3
	c0,0.4,0.2,0.7,0.6,0.9l0.2-0.4c-0.2-0.1-0.3-0.3-0.3-0.5C31.5,27.3,31,27.3,31,27.3z M31.6,28.1c0.4,0.1,0.8,0.1,1-0.2l-0.3-0.3
	c-0.2,0.1-0.4,0.2-0.6,0.1L31.6,28.1z M32.6,27.9l2.6-2.4l-0.3-0.3l-2.6,2.4L32.6,27.9z M35.2,25.5c0.4-0.4,1.1-0.4,1.5,0l0.3-0.3
	c-0.6-0.6-1.5-0.6-2.1,0L35.2,25.5z M36.7,25.5c0.2,0.2,0.3,0.5,0.3,0.8h0.4c0-0.4-0.2-0.8-0.5-1.1C36.9,25.2,36.7,25.5,36.7,25.5z
	 M37.1,26.3c0,0.1,0,0.2-0.1,0.3l0.4,0.1c0.1-0.2,0.1-0.3,0.1-0.5L37.1,26.3z M38.1,24.1c-1.2-1.1-3.1-1.1-4.2,0l0.3,0.3
	c1-1,2.6-1,3.7,0L38.1,24.1z M33.8,24.1l-1.3,1.3l0.3,0.3l1.3-1.3L33.8,24.1z M32.9,25.5v-10h-0.4v10.1h0.4V25.5z M32.9,15.5
	c0-1.7-1.3-3.1-3.1-3.1v0.4c1.5,0,2.7,1.2,2.6,2.7C32.4,15.5,32.9,15.5,32.9,15.5z M29.9,12.4c-0.6,0-1.1,0.1-1.6,0.4l0.2,0.4
	c0.4-0.2,0.9-0.4,1.4-0.4V12.4z M28.5,13v-0.1h-0.4V13H28.5z M28.5,12.8c0-1.7-1.4-3-3.1-3v0.4c1.5,0,2.7,1.2,2.7,2.6
	C28.1,12.8,28.5,12.8,28.5,12.8z M25.4,9.8c-1.7,0-3.1,1.4-3.1,3h0.4c0-1.5,1.2-2.6,2.7-2.6C25.4,10.2,25.4,9.8,25.4,9.8z
	 M22.3,12.8V13h0.4v-0.1L22.3,12.8L22.3,12.8z M22.6,12.8c-1.5-0.8-3.4-0.3-4.3,1.1l0.4,0.2c0.7-1.3,2.4-1.7,3.7-1L22.6,12.8z
	 M18.3,13.9c-0.3,0.5-0.4,1-0.4,1.5h0.4c0-0.5,0.1-0.9,0.4-1.3L18.3,13.9z M17.9,15.4v0.4h0.4v-0.4H17.9z M18.2,15.6
	c-1.5-0.8-3.4-0.3-4.3,1.1l0.4,0.2c0.7-1.3,2.4-1.7,3.7-1C18,15.9,18.2,15.6,18.2,15.6z M14,16.7c-0.3,0.5-0.4,1-0.4,1.5H14
	c0-0.5,0.1-0.9,0.4-1.3L14,16.7z M13.5,18.3v11.8H14V18.3C14,18.3,13.5,18.3,13.5,18.3z M13.5,30.1c0.1,4.7,3.9,8.6,8.8,8.9v-0.4
	c-4.6-0.3-8.3-4-8.4-8.5C13.9,30.1,13.5,30.1,13.5,30.1z M22.3,39h4.1v-0.4h-4.1V39z M26.4,39c1.8,0,3.6-0.7,5-1.9l-0.3-0.3
	c-1.3,1.1-3,1.8-4.7,1.8C26.4,38.6,26.4,39,26.4,39z M31.4,37.1c3.1-2.7,5.3-6.3,7.3-9.8l-0.4-0.2c-2,3.5-4.2,7-7.2,9.7
	C31.1,36.8,31.4,37.1,31.4,37.1z M38.7,27.3c0.5-1.1,0.2-2.4-0.7-3.3l-0.3,0.3c0.8,0.7,1,1.9,0.6,2.8L38.7,27.3z M37.7,24.2l0.4,0.1
	v-0.1H37.7z"/>
</svg>
