<?xml version="1.0" encoding="utf-8"?>
<!-- Generator: Adobe Illustrator 26.3.1, SVG Export Plug-In . SVG Version: 6.00 Build 0)  -->
<svg version="1.1" id="Layer_1" xmlns="http://www.w3.org/2000/svg" xmlns:xlink="http://www.w3.org/1999/xlink" x="0px" y="0px"
	 viewBox="0 0 50 50" style="enable-background:new 0 0 50 50;" xml:space="preserve">
<style type="text/css">
	.st0{fill-rule:evenodd;clip-rule:evenodd;fill:#FFFFFF;filter:url(#Adobe_OpacityMaskFilter);}
	.st1{mask:url(#b_00000088134715052621598730000002636839899115331253_);}
	.st2{fill-rule:evenodd;clip-rule:evenodd;fill:#4C4C4C;}
	.st3{fill-rule:evenodd;clip-rule:evenodd;fill:#FFFFFF;}
	.st4{fill:#FFFFFF;}
</style>
<defs>
	<filter id="Adobe_OpacityMaskFilter" filterUnits="userSpaceOnUse" x="0" y="0" width="50" height="50">
		<feColorMatrix  type="matrix" values="1 0 0 0 0  0 1 0 0 0  0 0 1 0 0  0 0 0 1 0"/>
	</filter>
</defs>
<mask maskUnits="userSpaceOnUse" x="0" y="0" width="50" height="50" id="b_00000088134715052621598730000002636839899115331253_">
	<path class="st0" d="M0,0h50v50H0V0z"/>
</mask>
<g class="st1">
	<path class="st2" d="M50,25c0,13.8-11.2,25-25,25S0,38.8,0,25S11.2,0,25,0S50,11.2,50,25z"/>
	<path class="st3" d="M24.8,34.6c-5.4,0-9.8-4.4-9.8-9.8s4.4-9.8,9.8-9.8s9.8,4.4,9.8,9.8S30.2,34.6,24.8,34.6z M24.8,14.1
		c-5.9,0-10.8,4.8-10.8,10.8c0,5.9,4.8,10.8,10.8,10.8c5.9,0,10.8-4.8,10.8-10.8S30.8,14.1,24.8,14.1z M30.2,24.3H19.4
		c-0.3,0-0.5,0.2-0.5,0.5s0.2,0.5,0.5,0.5h10.8c0.3,0,0.5-0.2,0.5-0.5C30.7,24.6,30.5,24.3,30.2,24.3z"/>
	<path class="st4" d="M24.8,34.2c-5.2,0-9.4-4.2-9.4-9.4h-0.8c0,5.6,4.6,10.2,10.2,10.2V34.2z M15.5,24.8c0-5.2,4.2-9.4,9.4-9.4
		v-0.8c-5.6,0-10.2,4.6-10.2,10.2C14.7,24.8,15.5,24.8,15.5,24.8z M24.8,15.5c5.2,0,9.4,4.2,9.4,9.4H35c0-5.6-4.6-10.2-10.2-10.2
		C24.8,14.7,24.8,15.5,24.8,15.5z M34.2,24.8c0,5.2-4.2,9.4-9.4,9.4V35C30.5,35,35,30.5,35,24.8C35,24.8,34.2,24.8,34.2,24.8z
		 M24.8,13.7c-6.2,0-11.2,5-11.2,11.2h0.8c0-5.7,4.6-10.3,10.3-10.3v-0.9L24.8,13.7z M13.7,24.8c0,6.2,5,11.2,11.2,11.2v-0.8
		c-5.7,0-10.3-4.6-10.3-10.3h-0.9V24.8z M24.8,36C31,36,36,31,36,24.8h-0.8c0,5.7-4.6,10.3-10.3,10.3V36H24.8z M36,24.8
		c0-6.2-5-11.2-11.2-11.2v0.8c5.7,0,10.3,4.6,10.3,10.3L36,24.8L36,24.8z M30.2,23.9H19.4v0.8h10.8V23.9z M19.4,23.9
		c-0.5,0-0.9,0.4-0.9,0.9h0.8c0,0,0-0.1,0.1-0.1V23.9z M18.5,24.8c0,0.5,0.4,0.9,0.9,0.9v-0.8c0,0-0.1,0-0.1-0.1H18.5z M19.4,25.7
		h10.8v-0.8H19.4C19.4,24.9,19.4,25.7,19.4,25.7z M30.2,25.7c0.5,0,0.9-0.4,0.9-0.9h-0.8c0,0,0,0.1-0.1,0.1V25.7z M31.1,24.8
		c0-0.5-0.4-0.9-0.9-0.9v0.8c0,0,0.1,0,0.1,0.1H31.1z"/>
</g>
</svg>
