<?xml version="1.0" encoding="utf-8"?>
<!-- Generator: Adobe Illustrator 26.3.1, SVG Export Plug-In . SVG Version: 6.00 Build 0)  -->
<svg version="1.1" id="Layer_1" xmlns="http://www.w3.org/2000/svg" xmlns:xlink="http://www.w3.org/1999/xlink" x="0px" y="0px"
	 viewBox="0 0 50 50" style="enable-background:new 0 0 50 50;" xml:space="preserve">
<style type="text/css">
	.st0{fill-rule:evenodd;clip-rule:evenodd;fill:#38ADD8;}
	.st1{fill:#FFFFFF;}
</style>
<path class="st0" d="M50,25c0,13.8-11.2,25-25,25S0,38.8,0,25S11.2,0,25,0S50,11.2,50,25z"/>
<path class="st1" d="M25.1,35.3c-0.8,0-1.4-0.6-1.4-1.4V21.6c0-0.8,0.6-1.4,1.4-1.4s1.4,0.6,1.4,1.4v12.2
	C26.5,34.7,25.9,35.3,25.1,35.3z"/>
<g>
	<circle class="st1" cx="25.1" cy="14.3" r="1.8"/>
	<path class="st1" d="M25.1,16.5c-1.2,0-2.3-1-2.3-2.3c0-1.2,1-2.3,2.3-2.3c1.2,0,2.3,1,2.3,2.3C27.3,15.5,26.3,16.5,25.1,16.5z
		 M25.1,12.9c-0.8,0-1.4,0.6-1.4,1.4s0.6,1.4,1.4,1.4s1.4-0.6,1.4-1.4S25.8,12.9,25.1,12.9z"/>
</g>
</svg>
