<?xml version="1.0" encoding="utf-8"?>
<!-- Generator: Adobe Illustrator 26.3.1, SVG Export Plug-In . SVG Version: 6.00 Build 0)  -->
<svg version="1.1" id="Layer_1" xmlns="http://www.w3.org/2000/svg" xmlns:xlink="http://www.w3.org/1999/xlink" x="0px" y="0px"
	 viewBox="0 0 50 50" style="enable-background:new 0 0 50 50;" xml:space="preserve">
<style type="text/css">
	.st0{fill-rule:evenodd;clip-rule:evenodd;fill:#FF832B;}
	.st1{fill:#FFFFFF;}
</style>
<path class="st0" d="M50,25c0,13.8-11.2,25-25,25S0,38.8,0,25S11.2,0,25,0S50,11.2,50,25z"/>
<path class="st1" d="M37.5,36.1H13.3c-0.6,0-1.1-0.3-1.4-0.8c-0.3-0.5-0.3-1.1,0-1.6L24,11.2c0.3-0.5,0.8-0.9,1.5-0.9
	c0.6,0,1.2,0.3,1.5,0.9l12.1,22.5c0.3,0.5,0.3,1.1,0,1.6C38.6,35.8,38,36.1,37.5,36.1z M26.1,11.5l-0.7,0.4L13.3,34.4h24.2
	L25.4,11.9L26.1,11.5z"/>
<path class="st1" d="M26.2,28.5h-2l-0.4-7.9h2.8L26.2,28.5z M23.8,31.3c0-0.5,0.1-0.8,0.4-1c0.2-0.2,0.6-0.3,1.1-0.3
	c0.4,0,0.8,0.1,1,0.4c0.2,0.2,0.4,0.6,0.4,1s-0.1,0.8-0.4,1c-0.2,0.2-0.6,0.4-1,0.4c-0.5,0-0.8-0.1-1.1-0.4
	C23.9,32,23.8,31.7,23.8,31.3z"/>
</svg>
