<?xml version="1.0" encoding="utf-8"?>
<!-- Generator: Adobe Illustrator 26.3.1, SVG Export Plug-In . SVG Version: 6.00 Build 0)  -->
<svg version="1.1" id="Layer_1" xmlns="http://www.w3.org/2000/svg" xmlns:xlink="http://www.w3.org/1999/xlink" x="0px" y="0px"
	 viewBox="0 0 50 50" style="enable-background:new 0 0 50 50;" xml:space="preserve">
<style type="text/css">
	.st0{fill-rule:evenodd;clip-rule:evenodd;fill:#FFFFFF;filter:url(#Adobe_OpacityMaskFilter);}
	.st1{mask:url(#b_00000144324949121454778450000004376832942421477512_);}
	.st2{fill-rule:evenodd;clip-rule:evenodd;fill:#80B953;}
	.st3{fill-rule:evenodd;clip-rule:evenodd;fill:#FFFFFF;}
	.st4{fill:#FFFFFF;}
</style>
<defs>
	<filter id="Adobe_OpacityMaskFilter" filterUnits="userSpaceOnUse" x="0" y="0.2" width="50" height="50">
		<feColorMatrix  type="matrix" values="1 0 0 0 0  0 1 0 0 0  0 0 1 0 0  0 0 0 1 0"/>
	</filter>
</defs>
<mask maskUnits="userSpaceOnUse" x="0" y="0.2" width="50" height="50" id="b_00000144324949121454778450000004376832942421477512_">
	<path class="st0" d="M0,0.2h50v50H0V0.2z"/>
</mask>
<g class="st1">
	<path class="st2" d="M50,25.2c0,13.8-11.2,25-25,25S0,39,0,25.2s11.2-25,25-25S50,11.4,50,25.2z"/>
</g>
<path class="st3" d="M24.4,28.3l-4.7-4.7c-0.1-0.1-0.2-0.1-0.4-0.1c-0.3,0-0.5,0.2-0.5,0.5c0,0.1,0.1,0.3,0.1,0.4l5.1,5.1
	c0.1,0.1,0.2,0.1,0.4,0.1c0.1,0,0.3-0.1,0.4-0.2l8.5-8.9l0.7-0.8l1.5-1.5c0.1-0.1,0.1-0.2,0.1-0.4c0-0.3-0.2-0.5-0.5-0.5
	c-0.1,0-0.3,0.1-0.4,0.2l-1.3,1.4l-0.7,0.7C32.7,19.6,24.4,28.3,24.4,28.3z"/>
<path class="st4" d="M24.4,29.9c-0.2,0-0.4-0.1-0.6-0.2l-5.1-5.1c-0.2-0.2-0.2-0.4-0.2-0.6c0-0.5,0.4-0.8,0.8-0.8
	c0.2,0,0.4,0.1,0.6,0.2l4.5,4.5l8-8.4l0.7-0.7l1.3-1.3c0.2-0.1,0.3-0.2,0.6-0.2c0.5,0,0.8,0.4,0.8,0.8c0,0.2-0.1,0.4-0.2,0.6
	l-1.4,1.5L25,29.6C24.8,29.8,24.6,29.9,24.4,29.9z M19.3,23.8c-0.1,0-0.2,0.1-0.2,0.2s0,0.1,0.1,0.1l5.1,5.1c0.1,0.1,0.2,0.1,0.3,0
	l9.2-9.6l1.5-1.5l0.1-0.1c0-0.2-0.3-0.2-0.3-0.1l-1.3,1.3L33,19.8l-8.3,8.7c-0.1,0.1-0.1,0.1-0.2,0.1s-0.2,0-0.2-0.1l-4.7-4.7H19.3z
	"/>
<path class="st4" d="M24.4,36.7c-6.2,0-11.2-5-11.2-11.2s5-11.2,11.2-11.2c2.2,0,4.4,0.7,6.2,1.9c0.4,0.3,0.5,0.8,0.2,1.1
	c-0.3,0.4-0.8,0.5-1.1,0.2c-1.6-1.1-3.4-1.6-5.3-1.6c-5.2,0-9.5,4.3-9.5,9.5s4.3,9.5,9.5,9.5s9.5-4.3,9.5-9.5c0-0.7-0.1-1.4-0.2-2.1
	c-0.1-0.4,0.2-0.9,0.6-1c0.4-0.1,0.9,0.2,1,0.6c0.2,0.8,0.3,1.6,0.3,2.5C35.6,31.6,30.6,36.7,24.4,36.7z"/>
</svg>
