<?xml version="1.0" encoding="utf-8"?>
<!-- Generator: Adobe Illustrator 26.3.1, SVG Export Plug-In . SVG Version: 6.00 Build 0)  -->
<svg version="1.1" id="Layer_1" xmlns="http://www.w3.org/2000/svg" xmlns:xlink="http://www.w3.org/1999/xlink" x="0px" y="0px"
	 viewBox="0 0 50 50" style="enable-background:new 0 0 50 50;" xml:space="preserve">
<style type="text/css">
	.st0{fill-rule:evenodd;clip-rule:evenodd;fill:#FFFFFF;filter:url(#Adobe_OpacityMaskFilter);}
	.st1{mask:url(#b_00000080187179484127130430000008066474007177164453_);}
	.st2{fill-rule:evenodd;clip-rule:evenodd;fill:#38ADD8;}
	.st3{fill-rule:evenodd;clip-rule:evenodd;fill:#FFFFFE;}
	.st4{fill-rule:evenodd;clip-rule:evenodd;fill:#FFFFFF;}
	.st5{fill:#FFFFFF;}
</style>
<defs>
	<filter id="Adobe_OpacityMaskFilter" filterUnits="userSpaceOnUse" x="0" y="0" width="50" height="50">
		<feColorMatrix  type="matrix" values="1 0 0 0 0  0 1 0 0 0  0 0 1 0 0  0 0 0 1 0"/>
	</filter>
</defs>
<mask maskUnits="userSpaceOnUse" x="0" y="0" width="50" height="50" id="b_00000080187179484127130430000008066474007177164453_">
	<path class="st0" d="M0,0h51.2v50.7H0V0z"/>
</mask>
<g class="st1">
	<path class="st2" d="M50,25c0,13.8-11.2,25-25,25S0,38.8,0,25S11.2,0,25,0S50,11.2,50,25z"/>
</g>
<path class="st3" d="M34.6,21.2H15v-2.9c0-0.5,0.4-1,1-1h2v1.5c0,0.3,0.2,0.5,0.5,0.5s0.5-0.2,0.5-0.5v-1.5h11.7v1.5
	c0,0.3,0.2,0.5,0.5,0.5s0.5-0.2,0.5-0.5v-1.5h2c0.5,0,1,0.4,1,1v2.9H34.6z M34.6,33.9c0,0.5-0.4,1-1,1H16c-0.5,0-1-0.4-1-1V22.2
	h19.6V33.9z M33.6,16.3h-2v-1.5c0-0.3-0.2-0.5-0.5-0.5s-0.5,0.2-0.5,0.5v1.5H19v-1.5c0-0.3-0.2-0.5-0.5-0.5S18,14.5,18,14.8v1.5h-2
	c-1.1,0-2,0.9-2,2v15.6c0,1.1,0.9,2,2,2h17.6c1.1,0,2-0.9,2-2V18.3C35.6,17.2,34.7,16.3,33.6,16.3z"/>
<path class="st4" d="M34.6,21.2H15v-2.9c0-0.5,0.4-1,1-1h2v1.5c0,0.3,0.2,0.5,0.5,0.5s0.5-0.2,0.5-0.5v-1.5h11.7v1.5
	c0,0.3,0.2,0.5,0.5,0.5s0.5-0.2,0.5-0.5v-1.5h2c0.5,0,1,0.4,1,1v2.9H34.6z M34.6,33.9c0,0.5-0.4,1-1,1H16c-0.5,0-1-0.4-1-1V22.2
	h19.6V33.9z M33.6,16.3h-2v-1.5c0-0.3-0.2-0.5-0.5-0.5s-0.5,0.2-0.5,0.5v1.5H19v-1.5c0-0.3-0.2-0.5-0.5-0.5S18,14.5,18,14.8v1.5h-2
	c-1.1,0-2,0.9-2,2v15.6c0,1.1,0.9,2,2,2h17.6c1.1,0,2-0.9,2-2V18.3C35.6,17.2,34.7,16.3,33.6,16.3z"/>
<path class="st5" d="M34.6,21.2v0.4H35v-0.4H34.6z M15,21.2h-0.4v0.4H15V21.2z M18,17.3h0.4v-0.4H18C18,16.9,18,17.3,18,17.3z
	 M19,17.3v-0.4h-0.4v0.4H19z M30.7,17.3h0.4v-0.4h-0.4V17.3z M31.7,17.3v-0.4h-0.4v0.4H31.7z M15,22.2v-0.4h-0.4v0.4H15z M34.6,22.2
	H35v-0.4h-0.4V22.2z M31.7,16.3h-0.4v0.4h0.4V16.3z M30.7,16.3v0.4h0.4v-0.4H30.7z M19,16.3h-0.4v0.4H19V16.3z M18,16.3v0.4h0.4
	v-0.4H18z M34.6,20.8H15v0.8h19.6V20.8z M15.5,21.2v-2.9h-0.8v2.9H15.5z M15.5,18.3c0-0.3,0.3-0.6,0.6-0.6v-0.8
	c-0.8,0-1.4,0.6-1.4,1.4C14.7,18.3,15.5,18.3,15.5,18.3z M16,17.7h2v-0.8h-2V17.7z M17.6,17.3v1.5h0.8v-1.5H17.6z M17.6,18.8
	c0,0.5,0.4,0.9,0.9,0.9v-0.8c0,0-0.1,0-0.1-0.1H17.6z M18.5,19.7c0.5,0,0.9-0.4,0.9-0.9h-0.8c0,0,0,0.1-0.1,0.1V19.7z M19.4,18.8
	v-1.5h-0.8v1.5H19.4z M19,17.7h11.7v-0.8H19C19,16.9,19,17.7,19,17.7z M30.3,17.3v1.5h0.8v-1.5H30.3z M30.3,18.8
	c0,0.5,0.4,0.9,0.9,0.9v-0.8c0,0-0.1,0-0.1-0.1H30.3z M31.2,19.7c0.5,0,0.9-0.4,0.9-0.9h-0.8c0,0,0,0.1-0.1,0.1V19.7z M32.1,18.8
	v-1.5h-0.8v1.5H32.1z M31.7,17.7h2v-0.8h-2C31.7,16.9,31.7,17.7,31.7,17.7z M33.6,17.7c0.3,0,0.6,0.3,0.6,0.6H35
	c0-0.8-0.6-1.4-1.4-1.4C33.6,16.9,33.6,17.7,33.6,17.7z M34.2,18.3v2.9H35v-2.9H34.2z M34.2,33.9c0,0.3-0.3,0.6-0.6,0.6v0.8
	c0.8,0,1.4-0.6,1.4-1.4C35,33.9,34.2,33.9,34.2,33.9z M33.6,34.5H16v0.8h17.6V34.5z M16,34.5c-0.3,0-0.6-0.3-0.6-0.6h-0.8
	c0,0.8,0.6,1.4,1.4,1.4C16,35.3,16,34.5,16,34.5z M15.5,33.9V22.2h-0.8v11.7H15.5z M15,22.6h19.6v-0.8H15V22.6z M34.2,22.2v11.7H35
	V22.2H34.2z M33.6,15.9h-2v0.8h2V15.9z M32.1,16.3v-1.5h-0.8v1.5H32.1z M32.1,14.9c0-0.5-0.4-0.9-0.9-0.9v0.8c0,0,0.1,0,0.1,0.1
	C31.3,14.9,32.1,14.9,32.1,14.9z M31.2,14c-0.5,0-0.9,0.4-0.9,0.9h0.8c0,0,0-0.1,0.1-0.1C31.2,14.8,31.2,14,31.2,14z M30.3,14.9v1.5
	h0.8v-1.5H30.3z M30.7,15.9H19v0.8h11.7C30.7,16.7,30.7,15.9,30.7,15.9z M19.4,16.3v-1.5h-0.8v1.5H19.4z M19.4,14.9
	c0-0.5-0.4-0.9-0.9-0.9v0.8c0,0,0.1,0,0.1,0.1C18.6,14.9,19.4,14.9,19.4,14.9z M18.5,14c-0.5,0-0.9,0.4-0.9,0.9h0.8
	c0,0,0-0.1,0.1-0.1C18.5,14.8,18.5,14,18.5,14z M17.6,14.9v1.5h0.8v-1.5H17.6z M18,15.9h-2v0.8h2C18,16.7,18,15.9,18,15.9z M16,15.9
	c-1.3,0-2.4,1.1-2.4,2.4h0.8c0-0.9,0.7-1.5,1.5-1.5L16,15.9L16,15.9z M13.7,18.3v15.6h0.8V18.3C14.5,18.3,13.7,18.3,13.7,18.3z
	 M13.7,33.9c0,1.3,1.1,2.4,2.4,2.4v-0.8c-0.9,0-1.5-0.7-1.5-1.5h-0.9L13.7,33.9z M16,36.3h17.6v-0.8H16C16,35.5,16,36.3,16,36.3z
	 M33.6,36.3c1.3,0,2.4-1.1,2.4-2.4h-0.8c0,0.9-0.7,1.5-1.5,1.5v0.9H33.6z M36,33.9V18.3h-0.8v15.6H36z M36,18.3
	c0-1.3-1.1-2.4-2.4-2.4v0.8c0.9,0,1.5,0.7,1.5,1.5H36V18.3z"/>
</svg>
