<?xml version="1.0" encoding="utf-8"?>
<!-- Generator: Adobe Illustrator 26.3.1, SVG Export Plug-In . SVG Version: 6.00 Build 0)  -->
<svg version="1.1" id="Layer_1" xmlns="http://www.w3.org/2000/svg" xmlns:xlink="http://www.w3.org/1999/xlink" x="0px" y="0px"
	 viewBox="0 0 50 50" style="enable-background:new 0 0 50 50;" xml:space="preserve">
<style type="text/css">
	.st0{fill-rule:evenodd;clip-rule:evenodd;fill:#FFFFFF;filter:url(#Adobe_OpacityMaskFilter);}
	.st1{mask:url(#b_00000023989521893025447110000003590419323794053261_);}
	.st2{fill-rule:evenodd;clip-rule:evenodd;fill:#FF832B;}
	.st3{clip-path:url(#SVGID_00000132054878066429955170000016814994393998518974_);}
	.st4{fill-rule:evenodd;clip-rule:evenodd;fill:#FFFFFF;}
	.st5{fill:#FFFFFF;}
</style>
<defs>
	<filter id="Adobe_OpacityMaskFilter" filterUnits="userSpaceOnUse" x="0" y="0" width="50" height="50">
		<feColorMatrix  type="matrix" values="1 0 0 0 0  0 1 0 0 0  0 0 1 0 0  0 0 0 1 0"/>
	</filter>
</defs>
<mask maskUnits="userSpaceOnUse" x="0" y="0" width="50" height="50" id="b_00000023989521893025447110000003590419323794053261_">
	<path class="st0" d="M0,0h50v49.9H0V0z"/>
</mask>
<g class="st1">
	<path class="st2" d="M50,25c0,13.8-11.2,25-25,25S0,38.8,0,25S11.2,0,25,0S50,11.2,50,25z"/>
</g>
<g>
	<defs>
		<rect id="SVGID_1_" x="14.1" y="14.5" width="21.5" height="21.5"/>
	</defs>
	<clipPath id="SVGID_00000121994571190258274150000008280939891932549821_">
		<use xlink:href="#SVGID_1_"  style="overflow:visible;"/>
	</clipPath>
	<g style="clip-path:url(#SVGID_00000121994571190258274150000008280939891932549821_);">
		<path class="st4" d="M34.6,21.4H15v-2.9c0-0.5,0.4-1,1-1h2V19c0,0.3,0.2,0.5,0.5,0.5S19,19.3,19,19v-1.5h11.7V19
			c0,0.3,0.2,0.5,0.5,0.5s0.5-0.2,0.5-0.5v-1.5h2c0.5,0,1,0.4,1,1v2.9H34.6z M34.6,34.1c0,0.5-0.4,1-1,1H16c-0.5,0-1-0.4-1-1V22.3
			h19.6V34.1z M33.6,16.5h-2V15c0-0.3-0.2-0.5-0.5-0.5s-0.5,0.2-0.5,0.5v1.5H19V15c0-0.3-0.2-0.5-0.5-0.5S18,14.7,18,15v1.5h-2
			c-1.1,0-2,0.9-2,2v15.6c0,1.1,0.9,2,2,2h17.6c1.1,0,2-0.9,2-2V18.4C35.6,17.3,34.7,16.5,33.6,16.5z"/>
		<path class="st5" d="M34.6,21.4v0.4H35v-0.4H34.6z M15,21.4h-0.4v0.4H15V21.4z M18,17.4h0.4V17H18C18,17,18,17.4,18,17.4z
			 M19,17.4V17h-0.4v0.4H19z M30.7,17.4h0.4V17h-0.4V17.4z M31.7,17.4V17h-0.4v0.4H31.7z M15,22.3v-0.4h-0.4v0.4H15z M34.6,22.3H35
			v-0.4h-0.4V22.3z M31.7,16.5h-0.4v0.4h0.4V16.5z M30.7,16.5v0.4h0.4v-0.4H30.7z M19,16.5h-0.4v0.4H19V16.5z M18,16.5v0.4h0.4v-0.4
			H18z M34.6,20.9H15v0.8h19.6V20.9z M15.5,21.4v-2.9h-0.8v2.9H15.5z M15.5,18.4c0-0.3,0.3-0.6,0.6-0.6V17c-0.8,0-1.4,0.6-1.4,1.4
			C14.7,18.4,15.5,18.4,15.5,18.4z M16,17.9h2V17h-2V17.9z M17.6,17.4v1.5h0.8v-1.5H17.6z M17.6,18.9c0,0.5,0.4,0.9,0.9,0.9V19
			c0,0-0.1,0-0.1-0.1H17.6z M18.5,19.8c0.5,0,0.9-0.4,0.9-0.9h-0.8c0,0,0,0.1-0.1,0.1V19.8z M19.4,18.9v-1.5h-0.8v1.5H19.4z
			 M19,17.9h11.7V17H19C19,17,19,17.9,19,17.9z M30.3,17.4v1.5h0.8v-1.5H30.3z M30.3,18.9c0,0.5,0.4,0.9,0.9,0.9V19
			c0,0-0.1,0-0.1-0.1H30.3z M31.2,19.8c0.5,0,0.9-0.4,0.9-0.9h-0.8c0,0,0,0.1-0.1,0.1V19.8z M32.1,18.9v-1.5h-0.8v1.5H32.1z
			 M31.7,17.9h2V17h-2C31.7,17,31.7,17.9,31.7,17.9z M33.6,17.9c0.3,0,0.6,0.3,0.6,0.6H35c0-0.8-0.6-1.4-1.4-1.4
			C33.6,17.1,33.6,17.9,33.6,17.9z M34.2,18.4v2.9H35v-2.9H34.2z M34.2,34.1c0,0.3-0.3,0.6-0.6,0.6v0.8c0.8,0,1.4-0.6,1.4-1.4
			C35,34.1,34.2,34.1,34.2,34.1z M33.6,34.6H16v0.8h17.6V34.6z M16,34.6c-0.3,0-0.6-0.3-0.6-0.6h-0.8c0,0.8,0.6,1.4,1.4,1.4
			C16,35.4,16,34.6,16,34.6z M15.5,34.1V22.3h-0.8V34L15.5,34.1L15.5,34.1z M15,22.7h19.6v-0.8H15V22.7z M34.2,22.3V34H35V22.3
			C35,22.3,34.2,22.3,34.2,22.3z M33.6,16h-2v0.8h2V16z M32.1,16.5V15h-0.8v1.5H32.1z M32.1,15c0-0.5-0.4-0.9-0.9-0.9v0.8
			c0,0,0.1,0,0.1,0.1C31.3,15,32.1,15,32.1,15z M31.2,14.1c-0.5,0-0.9,0.4-0.9,0.9h0.8c0,0,0-0.1,0.1-0.1
			C31.2,14.9,31.2,14.1,31.2,14.1z M30.3,15v1.5h0.8V15H30.3z M30.7,16H19v0.8h11.7C30.7,16.8,30.7,16,30.7,16z M19.4,16.5V15h-0.8
			v1.5H19.4z M19.4,15c0-0.5-0.4-0.9-0.9-0.9v0.8c0,0,0.1,0,0.1,0.1C18.6,15,19.4,15,19.4,15z M18.5,14.1c-0.5,0-0.9,0.4-0.9,0.9
			h0.8c0,0,0-0.1,0.1-0.1C18.5,14.9,18.5,14.1,18.5,14.1z M17.6,15v1.5h0.8V15H17.6z M18,16h-2v0.8h2V16z M16,16
			c-1.3,0-2.4,1.1-2.4,2.4h0.8c0-0.9,0.7-1.5,1.5-1.5L16,16L16,16z M13.7,18.4V34h0.8V18.4H13.7z M13.7,34.1c0,1.3,1.1,2.4,2.4,2.4
			v-0.8c-0.9,0-1.5-0.7-1.5-1.5h-0.9L13.7,34.1z M16,36.4h17.6v-0.8H16C16,35.6,16,36.4,16,36.4z M33.6,36.4c1.3,0,2.4-1.1,2.4-2.4
			h-0.8c0,0.9-0.7,1.5-1.5,1.5v0.9H33.6z M36,34.1V18.4h-0.8V34L36,34.1L36,34.1z M36,18.4c0-1.3-1.1-2.4-2.4-2.4v0.8
			c0.9,0,1.5,0.7,1.5,1.5H36V18.4z M27,26.4c0,0.4-0.1,0.8-0.4,1.1c-0.3,0.3-0.6,0.5-1.1,0.6c0.6,0.1,1,0.2,1.3,0.5s0.4,0.6,0.4,1.1
			c0,0.7-0.2,1.2-0.7,1.6s-1.2,0.6-2.1,0.6c-0.8,0-1.5-0.1-2-0.4v-1.3c0.3,0.1,0.6,0.3,0.9,0.3s0.7,0.1,1,0.1c0.5,0,0.9-0.1,1.1-0.3
			s0.4-0.4,0.4-0.8c0-0.3-0.1-0.6-0.4-0.7s-0.7-0.2-1.3-0.2h-0.5v-1.1h0.5c0.5,0,1-0.1,1.2-0.2c0.3-0.1,0.4-0.4,0.4-0.7
			c0-0.5-0.3-0.8-1-0.8c-0.2,0-0.5,0-0.7,0.1s-0.5,0.2-0.8,0.4l-0.7-1c0.6-0.5,1.4-0.7,2.3-0.7c0.7,0,1.3,0.1,1.7,0.4
			C26.7,25.5,27,25.9,27,26.4z"/>
	</g>
</g>
</svg>
