<?xml version="1.0" encoding="utf-8"?>
<!-- Generator: Adobe Illustrator 26.3.1, SVG Export Plug-In . SVG Version: 6.00 Build 0)  -->
<svg version="1.1" id="Layer_1" xmlns="http://www.w3.org/2000/svg" xmlns:xlink="http://www.w3.org/1999/xlink" x="0px" y="0px"
	 viewBox="0 0 50 50" style="enable-background:new 0 0 50 50;" xml:space="preserve">
<style type="text/css">
	.st0{fill-rule:evenodd;clip-rule:evenodd;fill:#BF2419;}
	.st1{fill-rule:evenodd;clip-rule:evenodd;fill:#FFFFFF;}
	.st2{fill:#FFFFFF;}
</style>
<path class="st0" d="M50,25c0,13.8-11.2,25-25,25S0,38.8,0,25S11.2,0,25,0S50,11.2,50,25z"/>
<path class="st1" d="M24.8,36.6c-5.8,0-10.5-4.5-10.5-10.1S19,16.4,24.8,16.4s10.5,4.5,10.5,10.1C35.3,32,30.6,36.6,24.8,36.6z
	 M24.8,15.3c-6.4,0-11.6,5-11.6,11.1s5.2,11.1,11.6,11.1s11.6-5,11.6-11.1S31.2,15.3,24.8,15.3z"/>
<path class="st2" d="M24.8,36.2c-5.7,0-10.2-4.4-10.2-9.8H14c0,5.8,4.9,10.4,10.8,10.4C24.8,36.8,24.8,36.2,24.8,36.2z M14.6,26.4
	c0-5.4,4.6-9.8,10.2-9.8V16c-6,0-10.8,4.7-10.8,10.4C14,26.4,14.6,26.4,14.6,26.4z M24.8,16.6c5.7,0,10.2,4.4,10.2,9.8h0.6
	c0-5.8-4.9-10.4-10.8-10.4V16.6z M35,26.4c0,5.4-4.6,9.8-10.2,9.8v0.6c6,0,10.8-4.7,10.8-10.4H35z M24.8,15
	c-6.6,0-11.9,5.1-11.9,11.4h0.6c0-6,5-10.8,11.3-10.8V15z M12.9,26.4c0,6.3,5.3,11.4,11.9,11.4v-0.6c-6.2,0-11.3-4.9-11.3-10.8
	C13.5,26.4,12.9,26.4,12.9,26.4z M24.8,37.9c6.6,0,11.9-5.1,11.9-11.4h-0.6c0,6-5,10.8-11.3,10.8V37.9z M36.7,26.4
	c0-6.3-5.3-11.4-11.9-11.4v0.6c6.2,0,11.3,4.9,11.3,10.8H36.7z"/>
<path class="st2" d="M34.1,16.9c0.3-0.3,0.2-0.9-0.1-1.2s-0.9-0.2-1.2,0.1L34.1,16.9z M31.3,17.6c-0.3,0.3-0.2,0.9,0.1,1.2
	c0.3,0.3,0.9,0.2,1.2-0.1L31.3,17.6z M22.7,11.1c-0.5,0-0.8,0.4-0.8,0.8c0,0.5,0.4,0.8,0.8,0.8V11.1z M26.9,12.7
	c0.5,0,0.8-0.4,0.8-0.8c0-0.5-0.4-0.8-0.8-0.8V12.7z M24,27c0,0.5,0.4,0.8,0.8,0.8c0.5,0,0.8-0.4,0.8-0.8H24z M25.6,20.2
	c0-0.5-0.4-0.8-0.8-0.8c-0.5,0-0.8,0.4-0.8,0.8C24,20.2,25.6,20.2,25.6,20.2z M32.8,15.8l-1.5,1.8l1.3,1.1l1.5-1.8L32.8,15.8z
	 M22.7,12.7h4.1V11h-4.1C22.7,11,22.7,12.7,22.7,12.7z M25.6,27v-6.8H24V27H25.6z"/>
</svg>
