<svg xmlns="http://www.w3.org/2000/svg" viewBox="0 0 50 50" xml:space="preserve"><path fill-rule="evenodd" clip-rule="evenodd" fill="#80B953" d="M50 25c0 13.8-11.2 25-25 25S0 38.8 0 25 11.2 0 25 0s25 11.2 25 25z"/><path fill-rule="evenodd" clip-rule="evenodd" fill="#FFF" d="M24 12.6v3.5c0 .4.4.8.9.9.5 0 .9-.4.9-.8v-3.5c0-.4-.4-.8-.9-.8-.5-.1-.9.2-.9.7zm4.2 4.4c-.3.3-.3.9 0 1.2.1.1.4.2.6.2.2 0 .4 0 .6-.2l2.7-2.5c.3-.3.3-.9 0-1.2-.3-.3-.9-.3-1.2 0L28.2 17zm-9.7 20.1h-2.6c-.9 0-1.6-.7-1.7-1.5v-8.1c0-.9.7-1.5 1.6-1.5h2.6c.4 0 .9.2 1.1.4.3-.1 3-.9 3-3.1v-3.2c0-.4.2-.7.6-.8.2-.1 1.9-.5 3.2.4.9.6 1.3 1.5 1.3 2.9V25h3.9c1.7 0 3.1 1.3 3.1 2.9v.2l-1.1 6.6c-.2 1.8-1.6 2.8-3.6 2.8h-8.4c-.8 0-1.5-.3-2.1-.8-.3.3-.6.4-.9.4zm5.8-13.8c0 3.3-3.7 4.5-4.2 4.6v6.8c0 .7.6 1.3 1.4 1.3h8.4c1.7 0 1.9-1 1.9-1.4l1.1-6.6c0-.7-.6-1.3-1.4-1.3h-4.7c-.5 0-.9-.4-.9-.8v-3.3c0-.8-.2-1.3-.6-1.6-.3-.2-.7-.2-1.1-.2v2.5zm-8.4 4.2h2.4v8h-2.4v-8zm14.5-7.1h3.8c.5 0 .9.4.9.8s-.4.8-.9.8h-3.8c-.5 0-.9-.4-.9-.8s.4-.8.9-.8zm-12.7-4.7c-.3-.3-.3-.9 0-1.2.3-.3.9-.3 1.2 0l2.7 2.5c.3.3.3.9 0 1.2-.2.2-.4.2-.6.2-.2 0-.4-.1-.6-.2l-2.7-2.5zm-2.1 4.8c-.5 0-.9.4-.9.8s.4.8.9.8h3.8c.5 0 .9-.4.9-.8s-.4-.8-.9-.8h-3.8z"/></svg>