<?xml version="1.0" encoding="utf-8"?>
<!-- Generator: Adobe Illustrator 18.0.0, SVG Export Plug-In . SVG Version: 6.00 Build 0)  -->
<!DOCTYPE svg PUBLIC "-//W3C//DTD SVG 1.1//EN" "http://www.w3.org/Graphics/SVG/1.1/DTD/svg11.dtd">
<svg version="1.1" xmlns="http://www.w3.org/2000/svg" xmlns:xlink="http://www.w3.org/1999/xlink" x="0px" y="0px"
	 viewBox="0 0 1000 1000" enable-background="new 0 0 1000 1000" xml:space="preserve">
<g id="events">
	<g>
		<path d="M449.7,857.9c-0.2,0-0.5,0-0.8-0.1l-229-33.2c-1.7-0.2-3.2-1.3-4-2.9c-0.8-1.5-0.7-3.4,0.1-4.9l105.8-187
			c0.9-1.7,2.7-2.7,4.6-2.7c0,0,0,0,0,0c1.9,0,3.6,1,4.6,2.7l123.3,220.3c1,1.7,0.9,3.9-0.3,5.5
			C453.1,857.1,451.5,857.9,449.7,857.9z M229.1,815.4L440,846L326.5,643.1L229.1,815.4z"/>
	</g>
	<g>
		<path d="M449.7,857.9c-1.8,0-3.5-0.9-4.4-2.4c-1.1-1.7-1.1-3.8-0.1-5.5l121.4-208.2l-240.2-4.2l0,0c0,0,0,0,0,0c0,0,0,0,0,0
			c0,0,0,0,0,0s0,0,0,0c0,0,0,0,0,0c-0.2,0-0.5,0-0.7-0.1l-189-32.5l89,212.3c0.8,1.9,0.4,4.1-1,5.6c-1.4,1.5-3.5,2.1-5.5,1.5
			L71.5,777.3c-0.1,0-0.3-0.1-0.4-0.2c-0.7-0.3-1.3-0.7-1.8-1.2c-42.5-43.4-42.5-45.6-42.5-48.2V573c0-0.3,0-0.6,0.1-1l0,0l0,0
			c0,0,0,0,0,0l0,0c0,0,0,0,0,0l0,0c0-0.1,0-0.1,0-0.2l34.1-146c0.4-1.6,1.5-2.9,2.9-3.6l55.9-25.4l0,0c0.8-0.4,1.7-0.5,2.6-0.4
			l145.9,11.4c0.2,0,0.4,0,0.5,0.1c0,0,0,0,0,0c0.1,0,0.3,0.1,0.4,0.1L455,455.7l198-45.2c0.1,0,0.2-0.1,0.4-0.1
			c0.2,0,0.4-0.1,0.5-0.1l182.7-10.5c1.6-0.1,3.1,0.6,4.2,1.7c1.1,1.2,1.5,2.8,1.3,4.4l-33.7,198.1L935,582l29.5-27.8
			c1.6-1.5,3.9-1.9,5.8-0.9c1.9,0.9,3.2,2.9,3,5l-10.5,190.6c-0.2,2.7-2.4,4.9-5.1,5c-2.8,0.1-5-1.9-5.4-4.6L933,593.1l-123.7,21.5
			l70.1,174c0.6,1.4,0.5,3.1-0.2,4.4c-0.7,1.4-2,2.3-3.5,2.7l-179.1,38.4c-0.2,0-0.3,0.1-0.5,0.1l0,0c0,0,0,0,0,0c0,0,0,0,0,0
			c0,0-0.1,0-0.1,0l-245.6,23.6C450.1,857.9,449.9,857.9,449.7,857.9z M575.8,646.9L459.4,846.5l227-21.8L575.8,646.9z
			 M801.6,623.4l-96.7,198.2l162.5-34.9L801.6,623.4z M584.4,641l110.4,177.2l98.3-201.4L584.4,641z M79.6,768.8L211.5,811
			l-82.7-197.5L79.6,768.8z M37.2,726.3c2.8,3.7,14.2,16,27.1,29.4L37.2,624.4V726.3z M38.8,580.2l35.3,171.3L121.4,602L38.8,580.2
			z M943,588.9l12.6,101l6.5-119L943,588.9z M336.8,627.3l228.7,4L454.8,470.1L336.8,627.3z M656,426.5l-72.6,204.1l208.9-24.2
			L656,426.5z M137.4,594.6l181.9,31.3l-53.7-201.1L137.4,594.6z M463.7,464.5l110.4,160.8l72-202.5L463.7,464.5z M275.3,420.3
			l53.5,200.3l117.3-156.4L275.3,420.3z M664.4,420.3l134.5,177.4l31.8-187L664.4,420.3z M39.6,569.6l83,21.9l-5.3-169.7
			L39.6,569.6z M127.4,407.3l5.5,175.9L258,417.5L127.4,407.3z M70.5,430.7L46.3,534.2l63.9-121.5L70.5,430.7z"/>
	</g>
	<g>
		<path d="M874.6,795.9c-1.2,0-2.4-0.4-3.4-1.2c-1.6-1.4-2.2-3.5-1.6-5.6l62.6-202.6l-15.6-158.9c-0.2-2.6,1.5-5.1,4.1-5.6
			c2.6-0.6,5.2,0.9,6.1,3.4l46.3,131.1l-9.9,3.5l-31.9-90.4l11.5,117c0.1,0.7,0,1.4-0.2,2l-59.3,191.9l72-36.4l4.7,9.4l-83,42
			C876.2,795.7,875.4,795.9,874.6,795.9z"/>
	</g>
	<g>
		<path d="M921.8,432.2c-0.4,0-0.9-0.1-1.3-0.2l-84.8-21.8c-2.1-0.5-3.6-2.3-3.9-4.4l-14.9-120.6c-0.3-2.4,1.1-4.7,3.3-5.5
			c2.2-0.9,4.8-0.1,6.2,1.9L926.1,424c1.2,1.8,1.3,4.2,0,6C925.1,431.4,923.5,432.2,921.8,432.2z M841.8,400.9l67.6,17.4
			l-79.4-113.6L841.8,400.9z"/>
	</g>
	<g>
		<path d="M460.2,461.4l-10.5-0.7l10.7-166.2L270.8,417.4c-1.7,1.1-3.9,1.1-5.6,0.1c-1.7-1.1-2.7-3-2.5-5l15.2-153.7L125.6,405.4
			c-1.8,1.7-4.5,1.9-6.5,0.6c-2-1.3-2.9-3.9-2.1-6.2l29.6-81.6L70.3,429.9l-8.7-5.9l99.7-146c1.5-2.2,4.4-2.9,6.7-1.7
			c2.4,1.2,3.5,4,2.5,6.5l-36,99.4l146.3-140.8c1.6-1.5,3.9-1.9,5.9-0.9c2,1,3.1,3,2.9,5.2l-15.5,157l189.3-122.6
			c1.7-1.1,3.8-1.1,5.5-0.1c1.7,1,2.7,2.9,2.6,4.9L460.2,461.4z"/>
	</g>
	<g>
		<path d="M822.1,289.8c-0.4,0-0.9-0.1-1.3-0.2l-151.2-39.3c-1.9-0.5-3.4-2-3.8-4l-14.9-68.2c-0.4-2.1,0.4-4.2,2.1-5.4
			c1.7-1.2,4.1-1.2,5.8-0.1L825,280.1c2.2,1.4,3,4.2,2,6.5C826.1,288.6,824.2,289.8,822.1,289.8z M675.3,240.9L792,271.2
			l-128.1-82.9L675.3,240.9z"/>
	</g>
	<g>
		<path d="M466.4,289.7c-1.3,0-2.6-0.5-3.6-1.5c-1.2-1.2-1.8-2.9-1.6-4.6l17.5-116.3c0.2-1.6,1.2-3,2.6-3.8
			c1.4-0.8,3.1-0.9,4.6-0.3l187.1,76.9c2.1,0.9,3.5,3.1,3.2,5.4c-0.2,2.3-2,4.2-4.2,4.6l-204.6,39.3
			C467,289.7,466.7,289.7,466.4,289.7z M488,175.6l-15.4,102.3l180-34.6L488,175.6z"/>
	</g>
	<g>
		<path d="M932.9,589.5L832.8,408.4L675.1,256.5l-15.6,159.7c-0.2,1.9-1.3,3.5-3,4.3c-1.7,0.8-3.7,0.6-5.2-0.5L464.2,289.4
			l-179.5-38.8L167.2,286c-2.5,0.8-5.2-0.5-6.3-2.9c-1.1-2.4-0.2-5.2,2-6.6l169.6-104c0.3-0.2,0.7-0.4,1.1-0.5c0,0,0,0,0,0
			c0,0,0,0,0,0l0,0c0,0,0,0,0,0s0,0,0,0c0,0,0,0,0,0s0,0,0,0c0,0,0,0,0,0l0,0c0.2,0,0.3-0.1,0.5-0.1l0,0c0,0,0,0,0,0h0c0,0,0,0,0,0
			h0c0,0,0,0,0,0s0,0,0,0c0,0,0,0,0,0c0,0,0,0,0,0l164.8-29.7c0.6-0.1,1.3-0.1,1.9,0l156,29.7c2.7,0.5,4.6,3,4.2,5.8
			s-2.7,4.8-5.5,4.6l-171.1-8.7l-181.9,70.2l164.7,35.6c0.7,0.1,1.3,0.4,1.9,0.8l180.6,126l15.7-161.5c0.2-2,1.5-3.7,3.4-4.4
			c1.9-0.7,4-0.2,5.5,1.1l166.1,160c0.4,0.4,0.7,0.8,0.9,1.2l100.5,181.8L932.9,589.5z M314.8,195.7l-111.9,68.6l78.4-23.6
			L314.8,195.7z M338,182.1l-38.4,51.7l151-58.3L338,182.1z M494.1,163.5l86.1,4.4L502.2,153L494.1,163.5z M487.5,154.8l-65.2,11.8
			l58.8-3.5L487.5,154.8z"/>
	</g>
</g>
</svg>
