<svg xmlns="http://www.w3.org/2000/svg" viewBox="0 0 1000 1000"><path d="M581.4 721.2c-62 0-120-33.4-140-71.4 0 0-33.3 132-40.3 157.5-24.5 90-97.6 180.3-103.2 187.6-4 5-12.7 3.2-13.6-3.6-1.5-11.5-20-125 1.8-217.8l73.8-312.3S341.2 425 341.2 371c0-85 49.3-148.5 110.6-148.5 52 0 77.2 39 77.2 86 0 52.4-33.3 130.8-50.6 203.4C464 572.4 509 622 569 622c108.5 0 181.7-139.5 181.7-304.8C750.7 192 666 97.8 512 97.8c-173.8 0-282.2 129.7-282.2 274.6 0 50 14.7 85 37.8 112.3 10.6 12.5 12 17.7 8.2 32-2.8 10.5-9 36-11.7 46-3.5 14.5-15.3 19.6-28.4 14.3-80-32.6-117.4-120.4-117.4-219C118 195.3 255.4 0 527.8 0c218.8 0 363 158.4 363 328.4 0 224.8-125 392.8-309.3 392.8z"/></svg>