<svg xmlns="http://www.w3.org/2000/svg" viewBox="0 0 1000 1000">
  <path d="M996 192.4c-36.5 16.2-75.8 27-117 32 42-25.2 74.3-65 89.6-112.6-39.3 23.3-83 40.3-129.2 49.4-37-39.5-90-64.2-148.5-64.2-112.6 0-203.7 91-203.7 203.4 0 16 1.8 31.5 5.3 46.4-169-8.5-319-89.5-419.4-212.6-17.5 30-27.5 65-27.5 102.3 0 70.6 36 133 90.5 169.3-33.4-1-64.7-10.2-92.2-25.5v2.6c0 98.4 70.3 180.6 163.3 199.3-17 4.7-35 7-53.6 7-13 0-25.8-1.2-38.3-3.6 25.8 80.8 101 139.7 190 141.3-69.6 54.7-157.3 87.2-252.7 87.2-16.4 0-32.6-1-48.5-2.8 90 58 197 91.6 311.8 91.6 374.3 0 579-310 579-579 0-8.7-.3-17.5-.7-26.2C934 269 968.6 233.2 996 192.4z"/>
</svg>
