<!DOCTYPE svg PUBLIC "-//W3C//DTD SVG 1.1//EN" "http://www.w3.org/Graphics/SVG/1.1/DTD/svg11.dtd"><svg xmlns="http://www.w3.org/2000/svg" xmlns:xlink="http://www.w3.org/1999/xlink"><symbol viewBox="0 0 100 100" id="cancel"><path d="M49.9 55l-.2-.2-36.4 36.4-4.6-4.5 36.5-36.5L8.5 13.5l4.6-4.6L54 50.5z"/><path d="M49.7 45.9L86.2 9.4l4.2 4.6L54 50.5l36.9 36.6-4.6 4.6-41.1-41.5z"/></symbol><symbol viewBox="0 0 1000 1000" id="facebook-icon"><path d="M711.7 500.5H571.4v500.2h-208V500.5h-98.8V323.8h99V209.4c0-81.8 38.8-209.8 209.7-209.8l154 .6v171.6H615.5c-18.2 0-44 9-44 48v104H730l-18.4 176.7z"/></symbol><symbol viewBox="0 0 1000 1000" id="google-icon"><path d="M1000.4 149H864.2V13h-68v136h-136v68.2h136v136h68v-136h136.2M517 572.2c-27.3-20.4-86.8-62.5-86.8-91 0-33 9.4-49.2 59.3-88 51-40 87-92.5 87-157.7 0-71-29-135.5-83.6-166.8h77L636-.5H341C191.3-.5 66.5 110 66.5 231.5c0 124 82 223 223 223 9.7 0 19.2-.6 28.5-1.2-9.2 17.5-15.6 37-15.6 57.6 0 34 19 54 42.4 77h-53.5C120 588 0 706 0 819c0 111.7 144.7 181.5 316.2 181.5 195.4 0 315.6-111 315.6-222.4 0-89.3-19.4-134.3-114.7-206zm-170.4-163c-79.6-2.4-155.2-75.4-169-180C164 125 217.4 45 297 47.2c79.5 2.6 147.6 88 161.3 192.8C472 344 426 411.4 346.7 409zm-31.2 542c-118.5 0-204-75-204-165 0-88.3 100.3-164.5 219-163.2 27.5.2 53.3 4.7 76.7 12.3C472 680 524 708 537 759c2.4 10.3 3.8 21 3.8 31.8 0 90-58 160.5-224.6 160.5z"/></symbol><symbol viewBox="0 0 1000 1000" id="instagram-icon"><path d="M878 3.6H121.3C56 3.6 3.3 56.3 3.3 121.3v757.2c0 65 52.8 117.7 118 117.7H878c65.2 0 118-52.7 118-117.7v-757c0-65-53-118-118-118zm-185.2 141c0-15.4 12.4-27.8 27.8-27.8h134.2c15.3 0 27.8 12.4 27.8 27.7v134c0 15.2-12.4 27.6-27.8 27.6H720.6c-15.3 0-27.8-12-27.8-27V145zm-192 166c105.4 0 191 85.4 191 190.6s-85.6 190.5-191 190.5-191-85.3-191-190.5 85.5-190.5 191-190.5zm384 542.6c0 15.3-12.3 27.7-27.7 27.7H145c-15.3 0-27.8-13-27.8-28V421h93c-7 25.4-11 52-11 79.7 0 166 135.5 301.3 302 301.3S803 667.3 803 501c0-27.5-4-54.2-10.7-79.6h93V853z"/></symbol><symbol viewBox="0 0 1000 1000" id="linkedin-icon"><path d="M750.8 319.7c-112.7 0-163 61.8-191.4 105.4v3H558l1.4-2v-91H347c2.8 60 0 638.8 0 638.8h212.4v-357c0-19 1.4-38 7-51.6 15.4-38.2 50.4-78 109-78C752.2 487 783 546 783 632v341.7h212v-366C995 411 890.2 320 750.6 320zm-626-293c-72.5 0-120 47.7-120 110.4 0 62 46 111 117.2 111h1.8c74 0 120-49 120-110-1.4-63-46-111-118.8-111zm-107.5 308h212.4v638.7H17.3z"/></symbol><symbol viewBox="0 0 1000 1000" id="pinterest-icon"><path d="M581.4 721.2c-62 0-120-33.4-140-71.4 0 0-33.3 132-40.3 157.5-24.5 90-97.6 180.3-103.2 187.6-4 5-12.7 3.2-13.6-3.6-1.5-11.5-20-125 1.8-217.8l73.8-312.3S341.2 425 341.2 371c0-85 49.3-148.5 110.6-148.5 52 0 77.2 39 77.2 86 0 52.4-33.3 130.8-50.6 203.4C464 572.4 509 622 569 622c108.5 0 181.7-139.5 181.7-304.8C750.7 192 666 97.8 512 97.8c-173.8 0-282.2 129.7-282.2 274.6 0 50 14.7 85 37.8 112.3 10.6 12.5 12 17.7 8.2 32-2.8 10.5-9 36-11.7 46-3.5 14.5-15.3 19.6-28.4 14.3-80-32.6-117.4-120.4-117.4-219C118 195.3 255.4 0 527.8 0c218.8 0 363 158.4 363 328.4 0 224.8-125 392.8-309.3 392.8z"/></symbol><symbol viewBox="0 0 1000 1000" id="twitter-icon"><path d="M996 192.4c-36.5 16.2-75.8 27-117 32 42-25.2 74.3-65 89.6-112.6-39.3 23.3-83 40.3-129.2 49.4-37-39.5-90-64.2-148.5-64.2-112.6 0-203.7 91-203.7 203.4 0 16 1.8 31.5 5.3 46.4-169-8.5-319-89.5-419.4-212.6-17.5 30-27.5 65-27.5 102.3 0 70.6 36 133 90.5 169.3-33.4-1-64.7-10.2-92.2-25.5v2.6c0 98.4 70.3 180.6 163.3 199.3-17 4.7-35 7-53.6 7-13 0-25.8-1.2-38.3-3.6 25.8 80.8 101 139.7 190 141.3-69.6 54.7-157.3 87.2-252.7 87.2-16.4 0-32.6-1-48.5-2.8 90 58 197 91.6 311.8 91.6 374.3 0 579-310 579-579 0-8.7-.3-17.5-.7-26.2C934 269 968.6 233.2 996 192.4z"/></symbol></svg>