<?xml version="1.0" encoding="utf-8"?>
<!-- Generator: Adobe Illustrator 17.1.0, SVG Export Plug-In . SVG Version: 6.00 Build 0)  -->
<!DOCTYPE svg PUBLIC "-//W3C//DTD SVG 1.1//EN" "http://www.w3.org/Graphics/SVG/1.1/DTD/svg11.dtd">
<svg version="1.1" id="Layer_1" xmlns="http://www.w3.org/2000/svg" xmlns:xlink="http://www.w3.org/1999/xlink" x="0px" y="0px"
	 viewBox="0 0 1000 1000" enable-background="new 0 0 1000 1000" xml:space="preserve">
<g>
	<path fill="none" d="M342.264,475.565c117.217,25.411,234.393,50.973,351.579,76.505c2.253,0.493,4.527,0.865,7.233,1.378
		c0-10.935,0.211-21.176-0.06-31.397c-0.272-10.231-3.461-13.872-13.39-16.428c-108.555-27.906-217.11-55.812-325.675-83.707
		c-7.867-2.022-15.754-3.984-24.375-6.157c0,2.193,0,3.732,0,5.281c0,16.186,0.101,32.362-0.08,48.548
		C337.456,473.272,338.422,474.73,342.264,475.565z"/>
	<path fill="#010101" d="M756.667,670.071c57.592,7.907,115.185,15.834,172.777,23.731c23.48,3.219,46.969,6.358,70.449,9.537
		c0-11.86,0-23.721,0-35.581c-19.516-3.682-39.012-7.434-58.538-11.016c-59.705-10.955-119.39-22.061-179.155-32.684
		c-36.738-6.539-73.587-12.474-110.446-18.349c-18.872-3.008-37.724-0.382-56.526,1.61c-32.976,3.501-65.962,6.941-98.938,10.442
		c-15.13,1.61-30.26,3.3-45.39,4.98c-1.097,0.121-2.173,0.422-3.692,0.734c0,81.726,0,163.371,0,245.63
		c-36.356,1.589-72.269,3.169-108.515,4.758c0-19.657,0-38.801,0-58.598c1.962,0,3.843,0,5.714,0c24.355,0,48.72,0,73.074,0
		c6.539,0,6.951-0.382,8.35-7.625c1.237-6.408-0.181-10.482-5.09-11.861c-3.933-1.107-8.199-1.408-12.313-1.418
		c-22.111-0.06-44.223,0.081-66.334,0.141c-1.247,0-2.505-0.151-4.074-0.251c0-19.003,0-37.815,0-57.059c28.922,0,57.703,0,87.188,0
		c0.453-5.996,0.885-11.629,1.348-17.645c-1.509-0.282-2.686-0.624-3.893-0.714c-26.84-1.992-53.689-3.984-80.539-5.885
		c-2.636-0.191-4.527-0.251-4.497-3.833c0.161-17.303,0.07-34.616,0.091-51.919c0-0.614,0.181-1.217,0.352-2.374
		c3.591,0.252,7.052,0.443,10.492,0.755c23.298,2.113,46.597,4.195,69.875,6.458c3.662,0.352,6.147,0.02,7.102-4.145
		c0.976-4.255,1.982-8.531-2.666-11.036c-2.595-1.398-5.704-2.133-8.672-2.495c-23.369-2.877-46.758-5.593-70.147-8.38
		c-1.871-0.221-3.722-0.573-5.734-0.885c0-18.882,0-37.412,0-56.808c9.154,0.825,18.057,1.227,26.85,2.495
		c29.797,4.295,59.494,9.376,89.351,13.239c25.713,3.33,51.486,3.108,76.907-3.129c1.69-0.412,3.37-0.885,5.161-2.314
		c-2.656-0.503-5.312-1.056-7.977-1.509c-62.059-10.533-124.108-21.095-186.197-31.497c-3.762-0.634-4.99-1.841-4.929-5.704
		c0.221-16.025,0.091-32.05,0.091-48.076c0-1.559,0-3.129,0-5.251c12.675,2.475,24.757,4.758,36.809,7.213
		c79.885,16.257,159.759,32.553,239.634,48.81c24.174,4.919,48.347,9.798,72.541,14.617c14.818,2.958,17.554,7.464,14.436,25.26
		c13.45,2.273,26.9,4.557,40.802,6.911c0.121-1.791,0.302-3.179,0.292-4.557c-0.181-36.215-0.473-72.43-0.463-108.646
		c0-5.392-2.102-8.923-6.478-11.307c-2.787-1.519-5.774-2.817-8.812-3.712c-139.288-40.672-278.586-81.303-417.883-121.915
		c-10.764-3.139-21.669-5.825-32.322-9.275c-15.271-4.949-30.622-3.772-46.154-1.972c-29.274,3.39-58.598,6.418-87.902,9.537
		c-22.775,2.424-45.571,4.738-68.356,7.122c-1.428,0.151-2.837,0.433-4.819,0.734c0,172.716,0,345.372,0,518.703
		c-22.886,0-45.199,0-67.803,0c0,21.256,0,41.849,0,62.934c1.771,0.091,3.471,0.262,5.161,0.262
		c329.629,0.01,659.248,0.01,988.877,0c1.589,0,3.179-0.181,4.768-0.272c0-26.286,0-52.562,0-78.849
		c-15.341,0.765-30.692,1.408-46.023,2.314c-39.978,2.374-79.955,4.869-119.933,7.313c-36.296,2.223-72.601,4.446-108.897,6.64
		c-1.75,0.111-3.511,0.01-5.724,0.01c0-18.591,0-37.211,0-56.466c2.062,0,4.094,0,6.126,0c89.411,0,178.813,0,268.224-0.01
		c2.082,0,4.155-0.131,6.237-0.201c0-6.086,0-12.182,0-18.269c-2.072-0.111-4.135-0.322-6.207-0.322
		c-89.995-0.02-179.99-0.01-269.984-0.01c-6.247,0-6.257-0.01-6.257-6.187c0-15.049,0-30.109,0-45.158c0-1.74,0-3.471,0-5.724
		c2.052,0,3.732-0.091,5.402,0.01c58.005,3.712,115.999,7.434,173.994,11.187c34.354,2.223,68.698,4.517,103.042,6.78
		c0-5.13,0-10.261,0-15.381c-49.635-4.185-99.27-8.37-148.915-12.545c-42.774-3.601-85.548-7.173-128.323-10.774
		c-1.237-0.101-2.455-0.443-3.833-0.694c0-18.57,0-36.909,0-55.711C731.669,666.691,744.163,668.351,756.667,670.071z
		 M337.577,421.051c0-1.549,0-3.088,0-5.281c8.621,2.173,16.508,4.135,24.375,6.157c108.555,27.896,217.12,55.802,325.675,83.707
		c9.929,2.555,13.118,6.197,13.39,16.428c0.272,10.221,0.06,20.452,0.06,31.397c-2.696-0.513-4.98-0.885-7.233-1.378
		c-117.186-25.532-234.363-51.094-351.579-76.505c-3.843-0.835-4.809-2.294-4.768-5.976
		C337.677,453.414,337.577,437.227,337.577,421.051z"/>
	<path fill="#010101" d="M353.059,338.833c65.308,19.154,130.626,38.298,195.944,57.431c8.913,2.616,17.816,5.261,26.769,7.746
		c5.633,1.569,7.344,0.251,7.686-5.402c0.302-5.12,0.634-10.231,0.966-15.351c0.211-3.229,0.463-6.458,0.724-10.11
		c8.008,2.746,15.13,5.161,22.232,7.615c64.795,22.363,129.58,44.736,194.375,67.099c7.112,2.455,14.375,4.527,21.337,7.334
		c8.37,3.37,13.882,9.507,13.832,18.943c-0.05,9.889-0.845,19.767-1.348,30.169c-23.278-6.931-46.657-13.883-69.905-20.794
		c-5.573,11.116-2.746,17.162,8.47,20.27c14.194,3.933,28.328,8.088,42.412,12.404c4.255,1.308,8.38,3.209,12.353,5.231
		c4.557,2.324,7.857,6.287,7.776,11.378c-0.171,10.915-1.137,21.81-1.811,33.197c-2.364-0.543-3.279-0.744-4.195-0.966
		c-19.918-4.839-39.867-9.557-59.735-14.607c-4.446-1.127-7.313-0.332-9.185,3.762c8.48,13.43,11.036,15.07,26.467,18.419
		c10.482,2.273,20.884,4.879,31.306,7.434c9.708,2.384,15.009,8.621,15.995,18.59c0.483,4.939,0.976,9.889,1.76,14.788
		c0.201,1.268,1.308,3.179,2.324,3.42c8.37,1.972,16.81,3.632,26.015,5.543c0.292-8.34,0.805-16.136,0.815-23.932
		c0.191-102.549,0.312-205.109,0.453-307.658c0.01-9.295,0.07-18.59,0.05-27.886c-0.03-12.323-5.312-21.528-16.297-27.342
		c-1.982-1.046-3.933-2.163-5.905-3.229c-23.852-12.796-47.724-25.562-71.565-38.388c-73.658-39.605-147.285-79.241-220.913-118.876
		c-10.915-5.875-22.624-7.977-34.857-6.78c-47.19,4.617-94.371,9.356-141.561,14.084c-11.589,1.167-23.168,2.485-34.907,3.752
		c-0.101,1.901-0.231,3.32-0.231,4.748c0.131,77.4,0.262,154.79,0.433,232.19C341.158,331.429,345.041,336.489,353.059,338.833z
		 M835.989,442.931c-1.72-0.513-3.169-0.885-4.567-1.388c-79.221-28.66-158.442-57.341-237.662-86.011
		c-5.875-2.123-9.285-6.147-9.305-12.555c-0.04-14.717-0.01-29.435-0.01-44.987c13.289,5.291,25.763,10.231,38.227,15.231
		l202.514,81.112c7.042,2.807,10.683,7.374,10.774,14.738C836.079,420.106,835.989,431.151,835.989,442.931z M584.363,148.512
		c8.35,4.034,15.864,7.555,23.278,11.267c68.869,34.475,137.719,68.97,206.547,103.515c4.426,2.223,8.692,4.788,12.897,7.414
		c6.8,4.255,10.382,10.563,9.949,18.54c-0.513,9.396-1.68,18.751-2.626,28.821c-2.042-0.754-3.36-1.127-4.587-1.7
		c-78.396-36.457-156.782-72.923-235.157-109.42c-6.458-3.008-10.362-7.806-10.321-15.331
		C584.414,177.574,584.363,163.521,584.363,148.512z M584.464,223.779c7.484,3.038,14.667,5.664,21.618,8.802
		c68.749,30.964,137.477,61.988,206.175,93.073c4.949,2.233,9.738,4.859,14.416,7.625c6.438,3.813,9.788,9.738,9.698,17.152
		c-0.101,8.148-0.694,16.307-1.247,24.445c-0.322,4.658-3.239,3.803-6.207,2.585c-14.969-6.116-29.958-12.172-44.917-18.309
		c-62.21-25.491-124.389-51.063-186.659-76.424c-8.651-3.521-13.037-9.315-13.068-18.56c-0.05-12.323-0.151-24.657-0.201-36.98
		C584.061,226.274,584.273,225.348,584.464,223.779z"/>
</g>
</svg>
