<svg xmlns="http://www.w3.org/2000/svg" xmlns:xlink="http://www.w3.org/1999/xlink" version="1.1" x="0px" y="0px" viewBox="0 0 1000 1000" enable-background="new 0 0 1000 1000" xml:space="preserve"><g><path fill="#231F20" d="M349.6 706.8c29.4 75.1 97.8 128.3 183.3 128.3c85.5 0 153.9-53.3 183.3-128.3H349.6z"/><path fill="#231F20" d="M377.1 395.2c-35.5 0-64.2 28.7-64.2 64.2c0 35.4 28.7 64.1 64.2 64.1c35.4 0 64.2-28.7 64.2-64.1 C441.2 424 412.5 395.2 377.1 395.2"/><path fill="#231F20" d="M688.7 395.2c-35.5 0-64.2 28.7-64.2 64.2c0 35.4 28.7 64.1 64.2 64.1c35.4 0 64.2-28.7 64.2-64.1 C752.9 424 724.2 395.2 688.7 395.2"/><path fill="#231F20" d="M778.1 140.3c-3.2 0-2 2.2-4.3 0C429.1-204.5 215.9 295.2 26.9 250.1v0c-2.3-1-4.7-1.6-7.3-1.6 c-10.2 0-18.3 8.2-18.3 18.3c0 6.6 3.6 12.1 8.8 15.3c0 0.1-0.1 0.2-0.1 0.3c70.5 42.6 260.5 112.8 348.8 112.8 c159.4 0 300.1-79.9 384.5-201.7c-5.5 20.5-8.7 42-8.7 64.3c0 136.7 110.8 247.5 247.5 247.5c5.6 0 11.1-0.4 16.7-0.8 C991.2 285.2 921.6 140.3 778.1 140.3"/><path fill="#231F20" d="M898.9 529.3c0.1 4.2 0.6 8.3 0.6 12.6c0 202.2-164.5 366.6-366.6 366.6c-202.2 0-366.6-164.5-366.6-366.6 c0-50.6 10.3-98.8 28.9-142.7c-23.4-7.3-46.8-15.4-69.5-23.9C104.7 426.6 93 482.9 93 541.8c0 243 196.9 440 439.9 440 c243 0 440-196.9 440-440c0-0.1-0.1-0.3-0.1-0.4C947.2 540.6 922.4 536.5 898.9 529.3"/></g></svg>