<?xml version="1.0" encoding="utf-8"?>
<!-- Generator: Adobe Illustrator 18.0.0, SVG Export Plug-In . SVG Version: 6.00 Build 0)  -->
<!DOCTYPE svg PUBLIC "-//W3C//DTD SVG 1.1//EN" "http://www.w3.org/Graphics/SVG/1.1/DTD/svg11.dtd">
<svg version="1.1" id="Layer_1" xmlns="http://www.w3.org/2000/svg" xmlns:xlink="http://www.w3.org/1999/xlink" x="0px" y="0px"
	 viewBox="0 0 1000 1000" enable-background="new 0 0 1000 1000" xml:space="preserve">
<path d="M736.4,745.5h-7.5V812c0.1,0,0.1,0,0.2,0v0.1c0,23-16.1,32.2-35.9,20.7L515.1,729c-19.8-11.6-19.8-30.3,0-41.9l178.1-103.7
	c19.9-11.6,35.9-2.3,35.9,20.7v41.6h7.3c165.6,0,246.4,118.3,262.8,249.6C999.2,895.3,926,745.5,736.4,745.5z M416.9,520.8
	c-114.9,0-208-93.1-208-208s93.1-208,208-208s208,93.1,208,208S531.8,520.8,416.9,520.8z M437.4,683.2c-17.3,14-14.5,42.3-0.7,49.8
	c40.8,30.3,107.5,75.8,174.6,120.7c-205,0-429.5,0-610.4,0c0-137.9,186.3-332.8,416.1-332.8c65.7,0,127.5,16.3,182.8,42.2
	C530.9,608.4,466.4,654.2,437.4,683.2z"/>
</svg>
