<svg xmlns="http://www.w3.org/2000/svg" viewBox="0 0 1000 1000"><path fill="#3A7D3C" d="M822 459.2c11.6-34.5 18-71.5 18-110C840 161 688 9 500 9S160 161.3 160 349c0 38.6 6.4 75.6 18.2 110.2l.2.5C189.4 492 500 991 500 991s310.5-499 321.7-531.3l.2-.5z"/><circle cx="500" cy="349.1" r="298.1" fill="#FFF"/><path fill="#015796" d="M510.6 386.4h-40.4v115h-42v-115H341v-40L430.8 178h39.4v167.6h40.4v40.8zM428 345.6V256l-49.6 89.6H428z"/><path fill="#333533" d="M638 501.4h-45l-46-115h-9v115h-43.3V177.8H555c49 0 77.7 35.2 77.7 90.2 0 21-1.3 52-15 73.6-8 12.3-19.2 22.2-35.5 28.6l56 131.2zM538 344.2c17-.3 30-6.4 37.2-14.5 11-12.4 14-35 14-54.8-.2-22.5-4.4-41.8-13.3-51-7.4-7.8-18.5-12.5-35-12.5H538v132.7h-.2z"/></svg>
