<svg xmlns="http://www.w3.org/2000/svg" viewBox="0 0 100 100" xml:space="preserve"><path fill-rule="evenodd" clip-rule="evenodd" d="M81 5.9c-1.5-2.5.5-4.7 2.4-5.8L50.1 0C22.4 0 0 22.4 0 50s22.4 50 50.1 50l49.9-.1V63.6H54c-7.5 0-13.6-6.1-13.6-13.6S46.5 36.4 54 36.4l46-.1V0H89.5l-3.3 2.1c0-.1-.3-.2-.6-.3-.3 0-.6 0-.9.2-.6.4-.9.8-.6 1.3.3.5 1.3.2 2.4-.2 1.9-.7 4.5-1.5 5.8.7 1.2 2 .5 4.3-2.8 6.4-2.1 1.3-4.8 2-6.3-.1L86.8 8s.3.2.6.3c.3 0 .7 0 1.1-.3.6-.3 1-.9.6-1.6-.4-.6-1.3-.3-2.5.2-1.9.7-4.2 1.6-5.6-.7zM86.8 8zm-59 40.1 3.4-2.1-6-9.6-3.6 2.2 2.9 4.6c.9 1.5 1.1 2.5.1 3.2-.9.5-1.6.4-2.4-.9L19 40.3l-3.6 2.2 3.6 5.9c1.7 2.8 3.8 3.2 5.8 2 1.5-.9 2-1.7 2.3-3l.7.7zm-1-12.7 3.3-2.1.9.7c0-1 .8-2.1 1.9-2.8 1.6-1 3-.8 4.1-.1.1-1.6.7-2.9 2.1-3.7 2.7-1.6 4.5-.6 6.1 2l3.5 5.7-3.7 2.3-3-4.9c-.9-1.4-1.5-1.8-2.4-1.2-1.1.7-.7 1.8 0 2.9l2.9 4.8-3.6 2.2-3-4.9c-.9-1.4-1.5-1.8-2.4-1.2-1.1.7-.7 1.8 0 2.9l2.9 4.7-3.6 2.3-6-9.6zM71.6 21l-6-9.6-3.6 2.2 6 9.6 3.6-2.2zm-6.7-10.8-3.6 2.2-1.7-2.7 3.6-2.2 1.7 2.7zm6-2-3.3 2 6 9.6 3.6-2.2-3-4.9c-.8-1.2-.9-2.2.2-2.9 1-.6 1.8.1 2.4 1l3.1 5.1 3.6-2.2-3.6-5.8c-1.6-2.6-3.7-3.4-6.1-1.9-1.4.9-1.8 1.9-1.9 2.9l-1-.7zM44.2 24.6l3.3-2.1.9.7c0-1 .8-2.1 1.9-2.8 1.6-1 3-.8 4.1-.1.1-1.6.7-2.9 2.1-3.7 2.7-1.7 4.5-.6 6.1 2l3.5 5.7-3.6 2.2-3-4.9c-.9-1.4-1.5-1.8-2.4-1.2-1.1.7-.7 1.8 0 2.9l2.9 4.8-3.6 2.2-3-4.9c-.9-1.4-1.5-1.8-2.4-1.2-1.1.7-.7 1.8 0 2.9l2.9 4.8-3.6 2.2-6.1-9.5zM3.6 53.3C6 57.2 11.1 58.4 15 56l4.7-2.9-2.3-3.7-4.1 2.5c-1.9 1.2-4.3.6-5.5-1.3-1.2-1.9-.6-4.3 1.3-5.5l4.1-2.5-2.2-3.7-4.7 2.9c-3.9 2.4-5.1 7.6-2.7 11.5z"/></svg>
