
<svg xmlns="http://www.w3.org/2000/svg" viewBox="0 0 1000 1000.1"><path fill="#fff" d="M-.4 907V168.3l303.8-73v55L42.6 211v633.7l260.8-60.3V834L-.4 907zM1000.4 93v738.5c-104.8 25-209.6 50.3-314.5 75.4v-54l270.4-62.5V156.8L686 219.3v-50.8L1000.4 93zm-697 79.4L61 228.4v95c16.8 11.2 62.6 44.3 85.6 56.5 8.3 4.7 12 2.8 20 0 31.4-13.8 118-59.6 136.8-69.6v-138zm0 189.6c-36 18.6-109.6 55.8-143.3 65.4-9 2.2-16.8 2.3-24.3-2.3C118.4 415.8 85 394 61 378v126.8l71 3.3c6.4.6 11.2 3.8 14.6 9.5l55.4 94.8L303.3 562V362zm0 246.5L61 729v89.4l242.4-56v-154zM61 682.5l106.6-53-46.2-79-60.3-3v135zM342 834v-49.3l303.8 73v49.2l-303.8-73zm0-71l303.8 72.8V698l-134 7.4c-19.8 0-49.2-6.3-66-18l-103.8-73V763zm0-208.6V356l118.5 33c19 7 47.4 21.5 59.5 39 42.8 62.3 84 107 126 151.4v67.2l-136 7.5c-14.6-.3-28.6-4-42-11.2l-126-88.4zm0-241.4c101.3 29 202.6 59 303.8 88.2V243.8l-303.8-73V313zm303.8 127.3l-75.5-21c-14-4.3-12.5 3.7-1.3 19.8 25.4 34 51 64 76.8 92.2v-91zM341.8 149V95.6l303.8 73V222l-303.8-73zM686 831l214.5-49.5c-24.3-41-58.3-77.7-92.4-107.6-12.6-10.5-24.2-12.2-37.6-8.8L686 697v134zm0-195.7l37-10c5.2-1.4 7-4.6-2-9.7-5.8-2.8-26.8-13-35-16.8v36.5zm0-84c24 10.8 55.8 25 78.6 37.7 10 5.3 14.2 3.3 21-1.2l150.2-119 2.2-2v-284l-93.5 21.7C817 338.5 815.7 381.8 686 426v125.3zm0-163.8c31.3-11.4 63.5-30 77.4-47.8 2.3-2 2-9-1.8-12.3L686 254v133.5zM704.3 237l70.7 60c5.3 3 9.3 3.7 12.5-4.6 6-16 13.2-53 18.6-79L704.4 237zM938 548.6l-91.6 72c-10.4 7.4-10 18.3-2 26.7C876.8 680 914.8 725 938 766.7v-218z"/></svg>