<svg xmlns="http://www.w3.org/2000/svg" viewBox="0 0 1000 1000.1"><path fill="#fff" d="M943.5 512.7V941H201.3c-77 0-198.7-38.6-199.7-131.5v-630c0-82.2 93.4-121 182-120.5 44.7.3 88 10.6 117.8 30.3 21 14 42.7 36.2 42.7 63v575c-31.4-27.8-87-39.2-118.6-39.2-58.4-.4-142.2 24.2-142.2 88 0 61.7 92.2 87.7 142.2 87.7h633V602.4l85-89.7zM525.8 171H391.6V248h106.7c5.3-27.5 14.7-53.5 27.5-77.3zM767.3 65.6c-127.6 0-231 103.5-231 231 0 64 25.8 121.7 67.6 163.5l163.3 174.5 163.4-174.5c41.8-41.8 67.7-99.6 67.7-163.4 0-127.6-103.5-231-231-231zm105.4 231c0 58.3-47.2 105.6-105.5 105.6-58.2 0-105.4-47.2-105.4-105.5S709 191.4 767.3 191.4c58.2 0 105.4 47.2 105.4 105.4z"/></svg>