<?xml version="1.0" encoding="utf-8"?>
<!-- Generator: Adobe Illustrator 18.0.0, SVG Export Plug-In . SVG Version: 6.00 Build 0)  -->
<!DOCTYPE svg PUBLIC "-//W3C//DTD SVG 1.1//EN" "http://www.w3.org/Graphics/SVG/1.1/DTD/svg11.dtd">
<svg version="1.1" id="Layer_1" xmlns="http://www.w3.org/2000/svg" xmlns:xlink="http://www.w3.org/1999/xlink" x="0px" y="0px"
	 viewBox="0 0 1000 1000" enable-background="new 0 0 1000 1000" xml:space="preserve">
<g>
	<path fill="#10497D" d="M794.3,277.3c-5.7-15.3-12.9-43.3-5.5-77.2c12.8-58.6,129.4-127.9,129.4-127.9S679,71.8,513.9,116.7
		c-2-42.6,89.8-114.1,89.8-114.1S394.6,82.6,308.6,169c-17.8,17.8-32,30.9-43.4,40.4c-25.4-28.6-3.3-112-3.3-112
		S155.1,239.2,128.6,347.6c-10.3,42-17.6,69.5-22.7,87.5c-3.8,10.6-7.1,21.4-10,32.4c-0.4,1.2-0.6,1.8-0.6,2.2
		c-8.7,33.7-13.4,69-13.4,105.4c0,116.4,48,221.1,121.8,297.5c76,77.7,180.2,124.7,296.1,124.7c114.7,0,220.1-47,294.9-124.7
		c73.7-76.4,121.7-181.1,121.7-297.5c0-116.4-48-221.1-121.7-297.5C794.5,277.5,794.4,277.4,794.3,277.3z M499.1,927.1
		c-189.4,0-342.9-154.3-342.9-344.5c0-190.2,153.5-344.5,342.9-344.5c189.4,0,342.9,154.3,342.9,344.5
		C842,772.8,688.5,927.1,499.1,927.1z"/>
	<path fill="#14A2DC" d="M347.8,724c83.3,83.6,218.4,83.6,301.5,0h0.1c10.4-10.5,10.5-27.4,0-37.9c-10.4-10.4-27.3-10.5-37.7,0
		l-0.1,0c-62.5,62.7-163.6,62.7-226.2,0c-10.3-10.5-27.3-10.5-37.7-0.1C337.3,696.5,337.3,713.5,347.8,724"/>
	<path fill="#14A2DC" d="M584.9,540.2c-12.7,0-23.8-9.2-26-22.1c-2.4-14.4,7.3-28,21.7-30.5l72.1-12.2c14.4-2.3,28,7.4,30.3,21.8
		c2.4,14.4-7.3,28.1-21.6,30.6l-72.1,12.1C587.8,540.1,586.4,540.2,584.9,540.2"/>
	<path fill="#14A2DC" d="M324.5,516.6c0,29.7,23.4,53.7,52.3,53.7c28.8,0,52.3-24,52.3-53.7c0-29.6-23.4-53.7-52.3-53.7
		C347.9,462.9,324.5,486.9,324.5,516.6"/>
</g>
</svg>
