<?xml version="1.0" encoding="utf-8"?>
<!-- Generator: Adobe Illustrator 18.0.0, SVG Export Plug-In . SVG Version: 6.00 Build 0)  -->
<!DOCTYPE svg PUBLIC "-//W3C//DTD SVG 1.1//EN" "http://www.w3.org/Graphics/SVG/1.1/DTD/svg11.dtd">
<svg version="1.1" xmlns="http://www.w3.org/2000/svg" xmlns:xlink="http://www.w3.org/1999/xlink" x="0px" y="0px"
	 viewBox="0 0 1000 1000" enable-background="new 0 0 1000 1000" xml:space="preserve">
<g id="Layer_2">
</g>
<g id="Layer_1">
	<circle fill="#7DBADD" cx="493.2" cy="511.1" r="336.8"/>
	<path fill="#FFFFFF" d="M500.3,4.9C226.7,4.9,4.9,226.6,4.9,500c0,273.5,221.8,495.1,495.4,495.1c273.6,0,495.4-221.6,495.4-495.1
		C995.7,226.6,773.9,4.9,500.3,4.9z M606.4,500.2H537c0,110.9,0,247.4,0,247.4H434.1c0,0,0-135.1,0-247.4h-48.9v-87.4h48.9v-56.6
		c0-40.5,19.2-103.8,103.8-103.8l76.2,0.3v84.9c0,0-46.3,0-55.3,0c-9,0-21.8,4.5-21.8,23.8v51.4h78.4L606.4,500.2z"/>
</g>
</svg>
