<?xml version="1.0" encoding="utf-8"?>
<!-- Generator: Adobe Illustrator 19.0.0, SVG Export Plug-In . SVG Version: 6.00 Build 0)  -->
<!DOCTYPE svg PUBLIC "-//W3C//DTD SVG 1.1//EN" "http://www.w3.org/Graphics/SVG/1.1/DTD/svg11.dtd">
<svg version="1.1" id="Layer_1" xmlns="http://www.w3.org/2000/svg" xmlns:xlink="http://www.w3.org/1999/xlink" x="0px" y="0px"
	 viewBox="-104 -194 1000 1000" style="enable-background:new -104 -194 1000 1000;" xml:space="preserve">
<style type="text/css">
	.st0{fill-rule:evenodd;clip-rule:evenodd;}
</style>
<path class="st0" d="M896.7,619.6c2.9,349-488.8,121-622.9,13.2C59.2,453.4-107.1,221-104.7,29.2c0.7-55.3,23.8-152,79-194.1
	c27.6-19.6,79.8-28.7,104.6-29.1c13.7-0.2,30.3-0.5,38.5,7.7c24.3,65.9,57,134.7,84.3,203.9c11,22.2,24.6,63.9,24.6,72.3
	c-5.5,18.1-46,59.9-73.5,88.4c-14.5,15-21.7,44.8-11.3,62.7c29.6,50.7,98.9,135,140.3,176.9c31.5,31.9,120.3,96.9,171.2,127.5
	c18.1,10.9,47,4.6,62.1-10.3c27.5-27,66.3-64,88-71c20,0,212.5,91.9,261.6,106.3C899.3,581.9,896.5,596.4,896.7,619.6z"/>
</svg>
