<?xml version="1.0" encoding="utf-8"?>
<!-- Generator: Adobe Illustrator 19.0.0, SVG Export Plug-In . SVG Version: 6.00 Build 0)  -->
<!DOCTYPE svg PUBLIC "-//W3C//DTD SVG 1.1//EN" "http://www.w3.org/Graphics/SVG/1.1/DTD/svg11.dtd">
<svg version="1.1" id="Layer_1" xmlns="http://www.w3.org/2000/svg" xmlns:xlink="http://www.w3.org/1999/xlink" x="0px" y="0px"
	 viewBox="-104 -194 1000 1000" style="enable-background:new -104 -194 1000 1000;" xml:space="preserve">
<path d="M724,134c0-181.1-146.8-328-328-328C214.9-194,68-47.2,68,134c0,54.1,13.2,105.1,36.4,150.1h-0.1l1.2,2.1
	c2.9,5.4,5.8,10.8,9,16L396,806l281.5-503.7c3.1-5.3,6.1-10.6,9-16l1.2-2.1h-0.1C710.8,239.1,724,188.1,724,134z M396,345.4
	c-116.7,0-211.4-94.6-211.4-211.4c0-116.7,94.6-211.4,211.4-211.4c116.7,0,211.4,94.6,211.4,211.4
	C607.4,250.7,512.7,345.4,396,345.4z"/>
</svg>
