<svg viewBox="0 0 100 100"><symbol viewBox="0 0 1000 1000" id="shape-facebook-circle"><title>facebook-circle</title>  <g id="svgstore9910bbd22435813592e170e025784816Layer_1"> <circle fill="#7DBADD" cx="493.2" cy="511.1" r="336.8"/> <path fill="#FFFFFF" d="M500.3,4.9C226.7,4.9,4.9,226.6,4.9,500c0,273.5,221.8,495.1,495.4,495.1c273.6,0,495.4-221.6,495.4-495.1
		C995.7,226.6,773.9,4.9,500.3,4.9z M606.4,500.2H537c0,110.9,0,247.4,0,247.4H434.1c0,0,0-135.1,0-247.4h-48.9v-87.4h48.9v-56.6
		c0-40.5,19.2-103.8,103.8-103.8l76.2,0.3v84.9c0,0-46.3,0-55.3,0c-9,0-21.8,4.5-21.8,23.8v51.4h78.4L606.4,500.2z"/> </g> </symbol><symbol viewBox="0 0 1000 1000" id="shape-google-circle-blue"><title>google-circle-blue</title>  <g id="svgstorec1bd30797ffdf62ad40d8b3fd04a019aLayer_1"> <circle fill="#FFFFFF" cx="492.8" cy="514.6" r="359.6"/> <path fill="#00A4E2" d="M398.8,274.8c-39.6-1.2-66.1,38.6-59.3,90.5c6.8,52,44.4,88.3,84,89.5c39.6,1.2,62.3-32.3,55.5-84.3
		C472.3,318.7,438.4,276,398.8,274.8z"/> <path fill="#00A4E2" d="M415.5,561.2c-59-0.7-108.9,37.2-108.9,81.2c0,44.8,42.6,82.2,101.6,82.2c82.9,0,111.8-35,111.8-79.9
		c0-5.4-0.7-10.7-1.9-15.8c-6.5-25.4-32.3-39.3-64.3-61.5C442,563.6,429.2,561.4,415.5,561.2z"/> <path fill="#00A4E2" d="M500,1.8C224.9,1.8,1.8,224.9,1.8,500c0,275.2,223.1,498.2,498.2,498.2c275.1,0,498.2-223,498.2-498.2
		C998.2,224.9,775.1,1.8,500,1.8z M538.1,368.4c0,32.5-18,58.6-43.4,78.4c-24.8,19.4-29.5,27.5-29.5,44c0,14,29.6,35,43.2,45.2
		c47.4,35.6,57,58,57,102.4c0,55.5-59.8,110.7-157,110.7c-85.3,0-157.3-34.7-157.3-90.2c0-56.3,59.7-115.1,145-115.1
		c9.3,0,17.8-0.2,26.6-0.2c-11.7-11.3-21.1-21.1-21.1-38.2c0-10.2,3.2-19.9,7.8-28.6c-4.6,0.3-9.4,0.6-14.2,0.6
		c-70.1,0-110.9-49.3-110.9-111c0-60.4,62.1-115.4,136.6-115.4c38.4,0,146.8,0,146.8,0L535,285.4h-38.6
		C523.6,301,538.1,333,538.1,368.4z M748.9,359.3h-67.7V427h-33.9v-67.7h-67.7v-33.9h67.7v-67.7h33.9v67.7h67.7V359.3z"/> </g> </symbol><symbol viewBox="0 0 1000 1000" id="shape-google-circle"><title>google-circle</title>  <g id="svgstoreac93b59dd60dc0cc5bfbb9ec331e877aLayer_1"> <circle fill="#7DBADD" cx="492.8" cy="514.6" r="359.6"/> <path fill="#FFFFFF" d="M398.8,274.8c-39.6-1.2-66.1,38.6-59.3,90.5c6.8,52,44.4,88.3,84,89.5c39.6,1.2,62.3-32.3,55.5-84.3
		C472.3,318.7,438.4,276,398.8,274.8z"/> <path fill="#FFFFFF" d="M415.5,561.2c-59-0.7-108.9,37.2-108.9,81.2c0,44.8,42.6,82.2,101.6,82.2c82.9,0,111.8-35,111.8-79.9
		c0-5.4-0.7-10.7-1.9-15.8c-6.5-25.4-32.3-39.3-64.3-61.5C442,563.6,429.2,561.4,415.5,561.2z"/> <path fill="#FFFFFF" d="M500,1.8C224.9,1.8,1.8,224.9,1.8,500c0,275.2,223.1,498.2,498.2,498.2c275.1,0,498.2-223,498.2-498.2
		C998.2,224.9,775.1,1.8,500,1.8z M538.1,368.4c0,32.5-18,58.6-43.4,78.4c-24.8,19.4-29.5,27.5-29.5,44c0,14,29.6,35,43.2,45.2
		c47.4,35.6,57,58,57,102.4c0,55.5-59.8,110.7-157,110.7c-85.3,0-157.3-34.7-157.3-90.2c0-56.3,59.7-115.1,145-115.1
		c9.3,0,17.8-0.2,26.6-0.2c-11.7-11.3-21.1-21.1-21.1-38.2c0-10.2,3.2-19.9,7.8-28.6c-4.6,0.3-9.4,0.6-14.2,0.6
		c-70.1,0-110.9-49.3-110.9-111c0-60.4,62.1-115.4,136.6-115.4c38.4,0,146.8,0,146.8,0L535,285.4h-38.6
		C523.6,301,538.1,333,538.1,368.4z M748.9,359.3h-67.7V427h-33.9v-67.7h-67.7v-33.9h67.7v-67.7h33.9v67.7h67.7V359.3z"/> </g> </symbol><symbol viewBox="0 0 1000 101.7" id="shape-logo-main"><title>logo-main</title> <g> <g> <path fill="#14A2DC" d="M27.8,48.3c-0.7-1.1-1.6-2-2.9-2.7c-1.2-0.7-2.6-1.1-4.2-1.1c-0.7,0-1.4,0.1-2,0.2
			c-0.7,0.1-1.3,0.4-1.8,0.7c-0.5,0.3-1,0.7-1.3,1.2c-0.3,0.5-0.5,1.1-0.5,1.8c0,1.3,0.6,2.2,1.7,2.8c1.2,0.6,2.9,1.2,5.2,1.7
			c1.4,0.3,2.8,0.7,4,1.2c1.2,0.5,2.3,1.1,3.2,1.8c0.9,0.7,1.6,1.5,2.1,2.5c0.5,1,0.8,2.1,0.8,3.4c0,1.8-0.3,3.3-1,4.5
			c-0.7,1.2-1.6,2.2-2.7,3c-1.1,0.8-2.4,1.4-3.9,1.7c-1.4,0.3-2.9,0.5-4.5,0.5c-2.3,0-4.5-0.4-6.7-1.3c-2.2-0.9-4-2.3-5.5-4.1
			l4.3-3.6c0.8,1.2,1.9,2.2,3.4,3c1.4,0.8,3,1.2,4.7,1.2c0.8,0,1.5-0.1,2.2-0.2c0.7-0.1,1.3-0.4,1.9-0.7c0.6-0.3,1-0.8,1.4-1.3
			c0.3-0.6,0.5-1.3,0.5-2.1c0-1.4-0.7-2.4-2-3.1c-1.3-0.7-3.3-1.3-5.9-1.9c-1-0.3-2.1-0.6-3.1-0.9c-1-0.4-2-0.9-2.8-1.5
			c-0.9-0.6-1.5-1.4-2.1-2.4c-0.5-1-0.8-2.1-0.8-3.5c0-1.6,0.3-3,1-4.2c0.7-1.2,1.5-2.1,2.6-2.9c1.1-0.7,2.3-1.3,3.6-1.7
			c1.4-0.4,2.8-0.5,4.2-0.5c2.2,0,4.3,0.4,6.3,1.3c2,0.9,3.6,2.1,4.7,3.7L27.8,48.3z"/> <polygon fill="#14A2DC" points="65.4,45.6 48.2,65.9 66.1,65.9 66.1,70.9 40.7,70.9 40.7,66 57.9,45.6 41.6,45.6 41.6,40.7 
			65.4,40.7 		"/> <path fill="#14A2DC" d="M88.8,64.4h0.1l8.4-23.8h6.4L89,78.1c-0.5,1.3-1.1,2.4-1.7,3.4c-0.6,1-1.3,1.9-2.1,2.6
			c-0.8,0.7-1.8,1.2-2.8,1.6c-1.1,0.4-2.4,0.6-3.9,0.6c-0.6,0-1.3,0-1.9-0.1c-0.7-0.1-1.3-0.2-2-0.4l0.6-5.3c1,0.3,2,0.5,3,0.5
			c1.6,0,2.7-0.4,3.5-1.3c0.8-0.9,1.5-2.1,2.1-3.7l1.9-5l-13-30.3h6.7L88.8,64.4z"/> <path fill="#14A2DC" d="M123,41.5c1.7-1.1,3.7-1.7,6-1.7c2,0,3.9,0.5,5.5,1.4c1.6,0.9,2.9,2.5,3.9,4.7c1-2,2.4-3.5,4.3-4.5
			c1.8-1,3.8-1.6,6-1.6c2,0,3.6,0.3,5,1c1.4,0.7,2.6,1.5,3.5,2.7c0.9,1.1,1.6,2.4,2.1,3.9c0.4,1.5,0.7,3.1,0.7,4.8v18.8h-6V54.1
			c0-1.2-0.1-2.4-0.3-3.5c-0.2-1.1-0.6-2.1-1.1-2.9c-0.5-0.9-1.2-1.5-2-2c-0.9-0.5-1.9-0.8-3.3-0.8c-1.4,0-2.5,0.3-3.5,0.9
			c-1,0.6-1.8,1.3-2.4,2.2c-0.6,0.9-1.1,1.9-1.3,3.1c-0.3,1.1-0.4,2.3-0.4,3.5v16.4h-6v-18c0-1.2-0.1-2.3-0.3-3.3
			c-0.2-1-0.6-1.8-1.1-2.5c-0.5-0.7-1.2-1.3-2-1.7c-0.8-0.4-1.8-0.6-3-0.6c-2.2,0-4.1,0.9-5.5,2.7c-1.5,1.8-2.2,4.2-2.2,7.3v16.1h-6
			V47.2c0-0.8,0-1.9-0.1-3.1c0-1.3-0.1-2.4-0.2-3.4h5.7c0.1,0.8,0.1,1.6,0.2,2.6c0,1,0.1,1.8,0.1,2.4h0.2
			C120.1,44,121.3,42.7,123,41.5"/> <path fill="#14A2DC" d="M192.9,51.3c0-2.3-0.7-3.9-2-5c-1.4-1.1-3.2-1.6-5.4-1.6c-1.7,0-3.3,0.3-4.8,1c-1.5,0.7-2.8,1.5-3.8,2.5
			l-3.2-3.8c1.5-1.4,3.3-2.5,5.5-3.3c2.2-0.8,4.5-1.2,6.9-1.2c2.2,0,4.1,0.3,5.7,0.9c1.6,0.6,2.9,1.5,3.9,2.5c1,1.1,1.8,2.3,2.3,3.8
			c0.5,1.5,0.8,3,0.8,4.7v13.2c0,1,0,2.1,0.1,3.2c0.1,1.1,0.2,2.1,0.3,2.8h-5.4c-0.3-1.4-0.5-2.9-0.5-4.3H193
			c-1.1,1.6-2.5,2.9-4.2,3.8c-1.7,0.9-3.7,1.3-6,1.3c-1.2,0-2.4-0.2-3.7-0.5c-1.3-0.3-2.5-0.8-3.5-1.6c-1.1-0.7-1.9-1.7-2.6-2.9
			c-0.7-1.2-1.1-2.7-1.1-4.4c0-2.3,0.6-4.1,1.9-5.5c1.2-1.3,2.9-2.4,4.9-3.1c2-0.7,4.3-1.2,6.8-1.4c2.5-0.2,5-0.3,7.6-0.3V51.3z
			 M191.4,56.5c-1.5,0-3,0.1-4.6,0.2c-1.6,0.1-3,0.4-4.3,0.8c-1.3,0.4-2.4,1-3.2,1.7c-0.8,0.8-1.3,1.8-1.3,3.1
			c0,0.9,0.2,1.6,0.5,2.2c0.4,0.6,0.8,1.1,1.4,1.5c0.6,0.4,1.3,0.6,2,0.8c0.7,0.1,1.5,0.2,2.2,0.2c2.8,0,5-0.8,6.5-2.5
			c1.5-1.7,2.3-3.8,2.3-6.4v-1.6H191.4z"/> <path fill="#14A2DC" d="M218.1,40.7c0.1,0.8,0.1,1.6,0.2,2.6c0,1,0.1,1.8,0.1,2.4h0.2c0.4-0.8,0.9-1.6,1.6-2.3
			c0.7-0.7,1.4-1.3,2.3-1.9c0.8-0.5,1.8-0.9,2.8-1.2c1-0.3,2.1-0.4,3.2-0.4c2,0,3.6,0.3,5,1c1.4,0.7,2.6,1.5,3.5,2.7
			c0.9,1.1,1.6,2.4,2.1,3.9c0.4,1.5,0.7,3.1,0.7,4.8v18.8h-6V54.1c0-1.2-0.1-2.4-0.3-3.5c-0.2-1.1-0.5-2.1-1.1-2.9
			c-0.5-0.9-1.2-1.5-2.1-2c-0.9-0.5-2-0.8-3.4-0.8c-2.4,0-4.3,0.9-5.8,2.7c-1.5,1.8-2.3,4.2-2.3,7.3v16.1h-6V47.2
			c0-0.8,0-1.9-0.1-3.1c0-1.3-0.1-2.4-0.2-3.4H218.1z"/> <path fill="#14A2DC" d="M284.4,55.7c0,2.3-0.4,4.5-1.2,6.5c-0.8,2-2,3.7-3.4,5.1c-1.5,1.4-3.2,2.5-5.2,3.3c-2,0.8-4.2,1.2-6.5,1.2
			c-2.3,0-4.4-0.4-6.5-1.2c-2-0.8-3.7-1.9-5.2-3.3c-1.4-1.4-2.6-3.1-3.4-5.1c-0.8-2-1.2-4.1-1.2-6.5c0-2.3,0.4-4.5,1.2-6.4
			c0.8-1.9,2-3.6,3.4-5c1.4-1.4,3.2-2.5,5.2-3.3c2-0.8,4.2-1.2,6.5-1.2c2.3,0,4.4,0.4,6.5,1.2c2,0.8,3.7,1.9,5.2,3.3
			c1.5,1.4,2.6,3.1,3.4,5C284,51.3,284.4,53.4,284.4,55.7 M278.2,55.8c0-1.4-0.2-2.8-0.7-4.1c-0.5-1.3-1.1-2.5-2-3.5
			c-0.9-1-1.9-1.8-3.2-2.4c-1.3-0.6-2.7-0.9-4.3-0.9c-1.6,0-3.1,0.3-4.3,0.9c-1.3,0.6-2.3,1.4-3.2,2.4c-0.9,1-1.5,2.2-2,3.5
			c-0.4,1.3-0.7,2.7-0.7,4.1c0,1.4,0.2,2.8,0.7,4.1c0.4,1.3,1.1,2.5,2,3.5c0.9,1,1.9,1.8,3.2,2.4c1.3,0.6,2.7,0.9,4.3,0.9
			c1.6,0,3.1-0.3,4.3-0.9c1.3-0.6,2.3-1.4,3.2-2.4c0.9-1,1.5-2.2,2-3.5C278,58.6,278.2,57.2,278.2,55.8"/> <polygon fill="#14A2DC" points="298.9,40.7 305.8,63.8 305.9,63.8 313.1,40.7 319.5,40.7 326.8,63.8 326.9,63.8 333.8,40.7 
			340.1,40.7 330.1,70.9 323.8,70.9 316.3,48.2 316.2,48.2 308.8,70.9 302.5,70.9 292.4,40.7 		"/> <path fill="#14A2DC" d="M366.4,48.3c-0.7-1.1-1.6-2-2.9-2.7c-1.2-0.7-2.6-1.1-4.2-1.1c-0.7,0-1.4,0.1-2,0.2
			c-0.7,0.1-1.3,0.4-1.8,0.7c-0.5,0.3-1,0.7-1.3,1.2c-0.3,0.5-0.5,1.1-0.5,1.8c0,1.3,0.6,2.2,1.7,2.8c1.2,0.6,2.9,1.2,5.2,1.7
			c1.4,0.3,2.8,0.7,4,1.2c1.2,0.5,2.3,1.1,3.2,1.8c0.9,0.7,1.6,1.5,2.1,2.5c0.5,1,0.8,2.1,0.8,3.4c0,1.8-0.3,3.3-1,4.5
			c-0.7,1.2-1.6,2.2-2.7,3c-1.1,0.8-2.4,1.4-3.9,1.7c-1.4,0.3-2.9,0.5-4.5,0.5c-2.3,0-4.5-0.4-6.7-1.3c-2.2-0.9-4-2.3-5.5-4.1
			l4.3-3.6c0.8,1.2,1.9,2.2,3.4,3c1.4,0.8,3,1.2,4.7,1.2c0.8,0,1.5-0.1,2.2-0.2c0.7-0.1,1.3-0.4,1.9-0.7c0.6-0.3,1-0.8,1.4-1.3
			c0.3-0.6,0.5-1.3,0.5-2.1c0-1.4-0.7-2.4-2-3.1c-1.3-0.7-3.3-1.3-5.9-1.9c-1-0.3-2.1-0.6-3.1-0.9c-1-0.4-2-0.9-2.8-1.5
			c-0.8-0.6-1.5-1.4-2.1-2.4c-0.5-1-0.8-2.1-0.8-3.5c0-1.6,0.3-3,1-4.2c0.7-1.2,1.5-2.1,2.6-2.9c1.1-0.7,2.3-1.3,3.6-1.7
			c1.4-0.4,2.8-0.5,4.2-0.5c2.2,0,4.3,0.4,6.3,1.3c2,0.9,3.6,2.1,4.7,3.7L366.4,48.3z"/> <polygon fill="#14A2DC" points="388.5,53.8 388.7,53.8 401.4,40.7 409.5,40.7 395.3,54.4 410.7,70.9 402.4,70.9 388.7,55.2 
			388.5,55.2 388.5,70.9 382.5,70.9 382.5,22.7 388.5,22.7 		"/> <path fill="#14A2DC" d="M427,29.7c0,1.1-0.4,2-1.2,2.7c-0.8,0.7-1.7,1.1-2.8,1.1s-2-0.4-2.8-1.1c-0.8-0.7-1.1-1.6-1.1-2.7
			c0-1.1,0.4-2,1.1-2.8c0.8-0.7,1.7-1.1,2.8-1.1s2,0.4,2.8,1.1C426.6,27.7,427,28.6,427,29.7 M426.1,70.9h-6V40.7h6V70.9z"/> </g> <g> <path fill="#10497D" d="M595.2,56.7c0,2.5-0.4,4.8-1.2,6.9c-0.8,2.1-2,3.9-3.4,5.4c-1.5,1.5-3.3,2.7-5.3,3.5
			c-2.1,0.8-4.3,1.3-6.8,1.3c-2.5,0-4.7-0.4-6.7-1.3c-2-0.8-3.8-2-5.3-3.5c-1.5-1.5-2.6-3.3-3.4-5.4c-0.8-2.1-1.2-4.4-1.2-6.9
			c0-2.5,0.4-4.8,1.2-6.8c0.8-2.1,2-3.8,3.4-5.3c1.5-1.5,3.2-2.6,5.3-3.5c2-0.8,4.3-1.2,6.7-1.2c2.5,0,4.7,0.4,6.8,1.2
			c2.1,0.8,3.8,2,5.3,3.5c1.5,1.5,2.6,3.3,3.4,5.3C594.8,51.9,595.2,54.2,595.2,56.7 M593.7,56.7c0-2.1-0.3-4.1-1-6
			c-0.7-1.9-1.7-3.6-3-5c-1.3-1.4-2.9-2.5-4.8-3.3c-1.9-0.8-4-1.2-6.4-1.2c-2.4,0-4.5,0.4-6.3,1.2c-1.9,0.8-3.4,1.9-4.8,3.3
			c-1.3,1.4-2.3,3.1-3,5c-0.7,1.9-1,3.9-1,6c0,2.2,0.3,4.2,1,6.1c0.7,1.9,1.7,3.6,3,5c1.3,1.4,2.9,2.5,4.8,3.4
			c1.9,0.8,4,1.2,6.3,1.2c2.4,0,4.5-0.4,6.4-1.2c1.9-0.8,3.5-2,4.8-3.4c1.3-1.4,2.3-3.1,3-5C593.3,60.9,593.7,58.9,593.7,56.7"/> <path fill="#10497D" d="M617.2,42c2-1.5,4.2-2.2,6.6-2.2h0.6c0.2,0,0.4,0,0.6,0.1v1.3c-0.2,0-0.4-0.1-0.5-0.1h-0.4
			c-2,0-3.8,0.5-5.2,1.4c-1.4,0.9-2.6,2.1-3.5,3.5c-0.9,1.5-1.6,3.1-2,4.9c-0.4,1.8-0.7,3.6-0.7,5.3v16.5h-1.5V48.8
			c0-0.5,0-1.1,0-1.9c0-0.7,0-1.5-0.1-2.3c0-0.8-0.1-1.5-0.1-2.2c0-0.7-0.1-1.3-0.1-1.7h1.5c0,0.5,0.1,1,0.1,1.7
			c0,0.7,0,1.4,0.1,2.3c0,0.8,0,1.6,0.1,2.4c0,0.8,0,1.4,0,2h0.1C613.6,45.8,615.1,43.4,617.2,42"/> <path fill="#10497D" d="M647.6,73.4c-0.7,0.1-1.5,0.2-2.2,0.2c-2.5,0-4.3-0.7-5.3-2.1c-1.1-1.4-1.6-3.2-1.6-5.3v-24h-6.9v-1.3h6.9
			v-9.4h1.5v9.4h9.4v1.3H640v24c0,2.2,0.5,3.7,1.6,4.7c1.1,1,2.5,1.4,4.2,1.4c1.3,0,2.5-0.2,3.5-0.6l0.2,1.2
			C649,73,648.3,73.2,647.6,73.4"/> <path fill="#10497D" d="M664.3,49.2c0.5-1.5,1.1-2.8,2-4c0.9-1.2,1.8-2.1,3-3c1.1-0.8,2.3-1.4,3.6-1.8c1.3-0.4,2.6-0.6,4-0.6
			c2.2,0,4.1,0.4,5.6,1.2c1.5,0.8,2.7,1.8,3.5,3.1c0.9,1.3,1.5,2.8,1.9,4.4c0.4,1.6,0.6,3.3,0.6,4.9v19.3h-1.5V53.6
			c0-1.3-0.1-2.7-0.4-4.2c-0.3-1.5-0.8-2.8-1.6-4c-0.8-1.2-1.8-2.2-3.1-3c-1.3-0.8-2.9-1.2-4.9-1.2c-1.8,0-3.4,0.4-5,1.1
			c-1.6,0.7-2.9,1.7-4,3.1c-1.1,1.3-2,3-2.7,4.9c-0.7,1.9-1,4.1-1,6.6v16h-1.5V20.2h1.5v29H664.3z"/> <path fill="#10497D" d="M737.1,56.7c0,2.5-0.4,4.8-1.2,6.9c-0.8,2.1-2,3.9-3.4,5.4c-1.5,1.5-3.3,2.7-5.3,3.5
			c-2.1,0.8-4.3,1.3-6.8,1.3c-2.5,0-4.7-0.4-6.7-1.3c-2-0.8-3.8-2-5.3-3.5c-1.5-1.5-2.6-3.3-3.4-5.4c-0.8-2.1-1.2-4.4-1.2-6.9
			c0-2.5,0.4-4.8,1.2-6.8c0.8-2.1,2-3.8,3.4-5.3c1.5-1.5,3.2-2.6,5.3-3.5c2-0.8,4.3-1.2,6.7-1.2c2.5,0,4.7,0.4,6.8,1.2
			c2.1,0.8,3.8,2,5.3,3.5c1.5,1.5,2.6,3.3,3.4,5.3C736.7,51.9,737.1,54.2,737.1,56.7 M735.6,56.7c0-2.1-0.3-4.1-1-6
			c-0.7-1.9-1.7-3.6-3-5c-1.3-1.4-2.9-2.5-4.8-3.3c-1.9-0.8-4-1.2-6.4-1.2c-2.4,0-4.5,0.4-6.3,1.2c-1.9,0.8-3.4,1.9-4.8,3.3
			c-1.3,1.4-2.3,3.1-3,5c-0.7,1.9-1,3.9-1,6c0,2.2,0.3,4.2,1,6.1c0.7,1.9,1.7,3.6,3,5c1.3,1.4,2.9,2.5,4.8,3.4
			c1.9,0.8,4,1.2,6.3,1.2c2.4,0,4.5-0.4,6.4-1.2c1.9-0.8,3.5-2,4.8-3.4c1.3-1.4,2.3-3.1,3-5C735.2,60.9,735.6,58.9,735.6,56.7"/> <path fill="#10497D" d="M780.6,20.2h1.5v52.5h-1.5v-8.6h-0.2c-1.4,3.2-3.4,5.5-5.9,7.2c-2.6,1.6-5.4,2.4-8.4,2.4
			c-2.3,0-4.5-0.4-6.4-1.3c-2-0.9-3.7-2-5.1-3.5c-1.4-1.5-2.5-3.3-3.3-5.3c-0.8-2.1-1.2-4.3-1.2-6.7c0-2.4,0.4-4.7,1.2-6.7
			c0.8-2.1,1.9-3.9,3.3-5.4c1.4-1.5,3.1-2.7,5.1-3.6c2-0.9,4.1-1.3,6.4-1.3c3.1,0,5.9,0.8,8.4,2.4c2.6,1.6,4.6,4,5.9,7.2h0.2V20.2z
			 M751.6,56.8c0,2.1,0.3,4.1,1,6c0.7,1.9,1.6,3.6,2.9,5c1.3,1.4,2.8,2.5,4.6,3.4c1.8,0.8,3.8,1.2,6,1.2c2.1,0,4.1-0.4,5.9-1.2
			c1.8-0.8,3.3-2,4.6-3.4c1.3-1.4,2.3-3.1,3.1-5c0.7-1.9,1.1-3.9,1.1-6s-0.4-4.1-1.1-6c-0.7-1.9-1.8-3.6-3.1-5
			c-1.3-1.4-2.8-2.5-4.6-3.4c-1.8-0.8-3.7-1.3-5.9-1.3c-2.2,0-4.2,0.4-6,1.3c-1.8,0.9-3.3,2-4.6,3.4c-1.2,1.4-2.2,3.1-2.9,5
			C751.9,52.7,751.6,54.7,751.6,56.8"/> <path fill="#10497D" d="M831.2,56.7c0,2.5-0.4,4.8-1.2,6.9c-0.8,2.1-2,3.9-3.4,5.4c-1.5,1.5-3.3,2.7-5.3,3.5
			c-2.1,0.8-4.3,1.3-6.8,1.3s-4.7-0.4-6.7-1.3c-2-0.8-3.8-2-5.3-3.5c-1.5-1.5-2.6-3.3-3.4-5.4c-0.8-2.1-1.2-4.4-1.2-6.9
			c0-2.5,0.4-4.8,1.2-6.8c0.8-2.1,2-3.8,3.4-5.3c1.5-1.5,3.2-2.6,5.3-3.5c2-0.8,4.3-1.2,6.7-1.2s4.7,0.4,6.8,1.2
			c2.1,0.8,3.8,2,5.3,3.5c1.5,1.5,2.6,3.3,3.4,5.3C830.8,51.9,831.2,54.2,831.2,56.7 M829.7,56.7c0-2.1-0.3-4.1-1-6
			c-0.7-1.9-1.7-3.6-3-5c-1.3-1.4-2.9-2.5-4.8-3.3c-1.9-0.8-4-1.2-6.4-1.2c-2.4,0-4.5,0.4-6.3,1.2c-1.9,0.8-3.4,1.9-4.8,3.3
			c-1.3,1.4-2.3,3.1-3,5c-0.7,1.9-1,3.9-1,6c0,2.2,0.4,4.2,1,6.1c0.7,1.9,1.7,3.6,3,5c1.3,1.4,2.9,2.5,4.8,3.4
			c1.9,0.8,4,1.2,6.3,1.2c2.4,0,4.5-0.4,6.4-1.2c1.9-0.8,3.5-2,4.8-3.4c1.3-1.4,2.3-3.1,3-5C829.4,60.9,829.7,58.9,829.7,56.7"/> <path fill="#10497D" d="M850.7,45.2c0.9-1.2,1.9-2.1,3-3c1.1-0.8,2.3-1.4,3.6-1.8c1.3-0.4,2.6-0.6,4-0.6c2.2,0,4.1,0.4,5.6,1.2
			c1.5,0.8,2.7,1.8,3.5,3.1c0.9,1.3,1.5,2.8,1.9,4.4c0.4,1.6,0.6,3.3,0.6,4.9v19.3h-1.5V53.6c0-1.3-0.1-2.7-0.4-4.2
			c-0.3-1.5-0.8-2.8-1.6-4c-0.8-1.2-1.8-2.2-3.1-3c-1.3-0.8-2.9-1.2-4.9-1.2c-1.8,0-3.4,0.4-5,1.1c-1.6,0.7-2.9,1.7-4,3.1
			c-1.1,1.3-2,3-2.7,4.9c-0.7,1.9-1,4.1-1,6.6v16h-1.5V48.8c0-0.5,0-1.1,0-1.9c0-0.7,0-1.5-0.1-2.3c0-0.8-0.1-1.5-0.1-2.2
			c0-0.7-0.1-1.3-0.1-1.7h1.5c0,0.5,0.1,1,0.1,1.7c0,0.7,0,1.4,0.1,2.3c0,0.8,0,1.6,0.1,2.4c0,0.8,0,1.4,0,2h0.1
			C849.2,47.7,849.9,46.4,850.7,45.2"/> <path fill="#10497D" d="M901.3,73.4c-0.7,0.1-1.5,0.2-2.2,0.2c-2.5,0-4.3-0.7-5.3-2.1c-1.1-1.4-1.6-3.2-1.6-5.3v-24h-6.9v-1.3h6.9
			v-9.4h1.5v9.4h9.4v1.3h-9.4v24c0,2.2,0.5,3.7,1.6,4.7c1.1,1,2.5,1.4,4.2,1.4c1.3,0,2.5-0.2,3.5-0.6l0.2,1.2
			C902.7,73,902.1,73.2,901.3,73.4"/> <path fill="#10497D" d="M917.1,28.8c-0.4,0-0.8-0.2-1.1-0.5c-0.3-0.3-0.5-0.8-0.5-1.3c0-0.5,0.2-0.9,0.5-1.3
			c0.3-0.3,0.7-0.5,1.1-0.5c0.4,0,0.8,0.2,1.1,0.5c0.3,0.3,0.5,0.7,0.5,1.3c0,0.6-0.2,1-0.5,1.3C917.9,28.6,917.5,28.8,917.1,28.8
			 M916.4,40.8h1.5v32h-1.5V40.8z"/> <path fill="#10497D" d="M959.2,45.1c-1.2-1.2-2.6-2.2-4.2-2.9c-1.6-0.7-3.3-1-5.1-1c-2.3,0-4.3,0.4-6.1,1.3
			c-1.8,0.9-3.3,2-4.6,3.4c-1.3,1.4-2.3,3.1-3,5c-0.7,1.9-1,3.9-1,6c0,2.1,0.3,4.1,1,6c0.7,1.9,1.7,3.6,3,5c1.3,1.4,2.8,2.5,4.6,3.4
			c1.8,0.8,3.8,1.2,6.1,1.2c1.8,0,3.5-0.3,5.2-0.9c1.7-0.6,3.2-1.5,4.4-2.7l1,1c-1.4,1.4-3,2.4-4.9,3c-1.9,0.6-3.8,0.9-5.7,0.9
			c-2.4,0-4.5-0.4-6.5-1.3c-2-0.8-3.7-2-5.1-3.5c-1.5-1.5-2.6-3.3-3.4-5.3c-0.8-2.1-1.2-4.4-1.2-6.8c0-2.5,0.4-4.7,1.2-6.8
			c0.8-2.1,1.9-3.9,3.4-5.4c1.5-1.5,3.2-2.7,5.1-3.5c2-0.9,4.1-1.3,6.5-1.3c2,0,4,0.4,5.8,1.1c1.8,0.7,3.4,1.8,4.7,3.1L959.2,45.1z"/> <path fill="#10497D" d="M992,64.4c0,1.4-0.3,2.7-0.8,3.9c-0.6,1.1-1.3,2.1-2.3,2.9c-0.9,0.8-2,1.4-3.3,1.8c-1.3,0.4-2.6,0.6-4,0.6
			c-2.4,0-4.5-0.5-6.4-1.4c-1.9-0.9-3.5-2.2-4.8-4l1.3-0.8c2.3,3.2,5.6,4.9,10,4.9c1,0,2-0.2,3.1-0.5c1-0.3,2-0.8,2.8-1.5
			c0.9-0.6,1.6-1.5,2.1-2.4c0.5-1,0.8-2.1,0.8-3.3c0-1.5-0.3-2.7-1-3.6c-0.7-0.9-1.5-1.7-2.5-2.2c-1-0.6-2.1-1-3.4-1.4
			c-1.2-0.3-2.4-0.7-3.4-0.9c-1.2-0.3-2.2-0.7-3.3-1.1c-1-0.4-1.9-0.9-2.7-1.5c-0.8-0.6-1.4-1.4-1.8-2.3c-0.4-0.9-0.7-2.1-0.7-3.5
			c0-1.4,0.3-2.6,0.8-3.6c0.6-1,1.3-1.9,2.2-2.5c0.9-0.7,2-1.2,3.2-1.5c1.2-0.3,2.4-0.5,3.6-0.5c4.4,0,7.6,1.6,9.8,4.7l-1.3,0.8
			c-1.1-1.4-2.3-2.4-3.6-3.1c-1.3-0.7-3-1-4.9-1c-0.9,0-1.8,0.1-2.8,0.3c-1,0.2-1.9,0.6-2.7,1.1c-0.8,0.5-1.5,1.2-2,2.1
			c-0.5,0.9-0.8,1.9-0.8,3.2c0,1.4,0.2,2.5,0.7,3.3c0.4,0.8,1.1,1.5,1.8,2c0.8,0.5,1.7,0.9,2.8,1.3c1.1,0.3,2.3,0.7,3.7,1
			c1.3,0.3,2.5,0.7,3.6,1.1c1.2,0.4,2.2,1,3.1,1.6c0.9,0.7,1.6,1.5,2.2,2.4C991.8,61.7,992,63,992,64.4"/> </g> <g> <path fill="#10497D" d="M524.2,28.1c7.5,7.8,12.4,18.5,12.4,30.4c0,11.9-4.9,22.6-12.4,30.4c-7.7,7.9-18.4,12.7-30.1,12.7
			c-11.8,0-22.5-4.8-30.3-12.7c-7.5-7.8-12.4-18.5-12.4-30.4c0-11.9,4.9-22.6,12.4-30.4c7.8-7.8,18.4-12.7,30.3-12.7
			C505.8,15.4,516.5,20.3,524.2,28.1 M472.4,36.8c-5.4,5.5-8.8,13.1-8.8,21.8c0,8.7,3.5,16.2,8.8,21.7c5.6,5.7,13.4,9.1,21.6,9.1
			c8.3,0,15.9-3.5,21.4-9.1c5.5-5.5,9-13.2,9-21.7c0-8.5-3.5-16.2-9-21.8c-5.5-5.6-13.2-9.1-21.4-9.1
			C485.8,27.6,478,31.1,472.4,36.8"/> <path fill="#10497D" d="M524.7,29.3c-0.3-0.5-2.2-4.2-1.1-9.1c1.3-6,13.2-13.1,13.2-13.1s-25.9,0-42.8,5
			c-17,5-24.1,10.1-24.3,10.3L524.7,29.3z"/> <path fill="#FFFFFF" d="M459,59.3c0,19.4,15.7,35.2,35,35.2c19.3,0,35-15.8,35-35.2c0-19.4-15.7-35.2-35-35.2
			C474.7,24.1,459,39.8,459,59.3"/> <path fill="#14A2DC" d="M478.5,73.7c8.5,8.5,22.3,8.5,30.8,0h0c1.1-1.1,1.1-2.8,0-3.9c-1.1-1.1-2.8-1.1-3.8,0l0,0
			c-6.4,6.4-16.7,6.4-23.1,0c-1.1-1.1-2.8-1.1-3.9,0C477.5,70.9,477.5,72.6,478.5,73.7"/> <path fill="#14A2DC" d="M502.8,54.9c-1.3,0-2.4-0.9-2.7-2.3c-0.2-1.5,0.7-2.9,2.2-3.1l7.4-1.2c1.5-0.2,2.9,0.8,3.1,2.2
			c0.2,1.5-0.7,2.9-2.2,3.1l-7.4,1.2C503.1,54.9,502.9,54.9,502.8,54.9"/> <path fill="#14A2DC" d="M476.2,52.5c0,3,2.4,5.5,5.3,5.5c2.9,0,5.3-2.5,5.3-5.5c0-3-2.4-5.5-5.3-5.5
			C478.5,47,476.2,49.5,476.2,52.5"/> <path fill="#10497D" d="M500.3,17.8c-0.4-0.2-3.7-2.1-4.7-5.6C494.4,8,504.7,0,504.7,0s-21.4,8.2-30.2,17
			c-8.8,8.9-9.1,6.2-9.2,6.4L500.3,17.8z"/> <path fill="#10497D" d="M475.8,23.7c-0.4,0-3.1-0.2-5.5-2.3c-2.9-2.7-0.6-11.7-0.6-11.7s-10.9,14.5-13.6,25.6
			c-2.7,11.1-3.4,12.3-3.4,12.5L475.8,23.7z"/> </g> </g> </symbol><symbol viewBox="0 0 1000 1000" id="shape-mark-white"><title>mark-white</title> <g> <circle fill="#FFFFFF" cx="502" cy="579" r="379"/> <g> <path fill="#10497D" d="M794.3,277.3c-5.7-15.3-12.9-43.3-5.5-77.2c12.8-58.6,129.4-127.9,129.4-127.9S679,71.8,513.9,116.7
			c-2-42.6,89.8-114.1,89.8-114.1S394.6,82.6,308.6,169c-17.8,17.8-32,30.9-43.4,40.4c-25.4-28.6-3.3-112-3.3-112
			S155.1,239.2,128.6,347.6c-10.3,42-17.6,69.5-22.7,87.5c-3.8,10.6-7.1,21.4-10,32.4c-0.4,1.2-0.6,1.8-0.6,2.2
			c-8.7,33.7-13.4,69-13.4,105.4c0,116.4,48,221.1,121.8,297.5c76,77.7,180.2,124.7,296.1,124.7c114.7,0,220.1-47,294.9-124.7
			c73.7-76.4,121.7-181.1,121.7-297.5s-48-221.1-121.7-297.5C794.5,277.5,794.4,277.4,794.3,277.3z M499.1,927.1
			c-189.4,0-342.9-154.3-342.9-344.5s153.5-344.5,342.9-344.5S842,392.4,842,582.6S688.5,927.1,499.1,927.1z"/> <path fill="#14A2DC" d="M347.8,724c83.3,83.6,218.4,83.6,301.5,0h0.1c10.4-10.5,10.5-27.4,0-37.9c-10.4-10.4-27.3-10.5-37.7,0
			h-0.1c-62.5,62.7-163.6,62.7-226.2,0c-10.3-10.5-27.3-10.5-37.7-0.1C337.3,696.5,337.3,713.5,347.8,724"/> <path fill="#14A2DC" d="M584.9,540.2c-12.7,0-23.8-9.2-26-22.1c-2.4-14.4,7.3-28,21.7-30.5l72.1-12.2c14.4-2.3,28,7.4,30.3,21.8
			c2.4,14.4-7.3,28.1-21.6,30.6l-72.1,12.1C587.8,540.1,586.4,540.2,584.9,540.2"/> <path fill="#14A2DC" d="M324.5,516.6c0,29.7,23.4,53.7,52.3,53.7c28.8,0,52.3-24,52.3-53.7c0-29.6-23.4-53.7-52.3-53.7
			C347.9,462.9,324.5,486.9,324.5,516.6"/> </g> </g> </symbol><symbol viewBox="0 0 1000 1000" id="shape-mark"><title>mark</title> <g> <path fill="#10497D" d="M794.3,277.3c-5.7-15.3-12.9-43.3-5.5-77.2c12.8-58.6,129.4-127.9,129.4-127.9S679,71.8,513.9,116.7
		c-2-42.6,89.8-114.1,89.8-114.1S394.6,82.6,308.6,169c-17.8,17.8-32,30.9-43.4,40.4c-25.4-28.6-3.3-112-3.3-112
		S155.1,239.2,128.6,347.6c-10.3,42-17.6,69.5-22.7,87.5c-3.8,10.6-7.1,21.4-10,32.4c-0.4,1.2-0.6,1.8-0.6,2.2
		c-8.7,33.7-13.4,69-13.4,105.4c0,116.4,48,221.1,121.8,297.5c76,77.7,180.2,124.7,296.1,124.7c114.7,0,220.1-47,294.9-124.7
		c73.7-76.4,121.7-181.1,121.7-297.5c0-116.4-48-221.1-121.7-297.5C794.5,277.5,794.4,277.4,794.3,277.3z M499.1,927.1
		c-189.4,0-342.9-154.3-342.9-344.5c0-190.2,153.5-344.5,342.9-344.5c189.4,0,342.9,154.3,342.9,344.5
		C842,772.8,688.5,927.1,499.1,927.1z"/> <path fill="#14A2DC" d="M347.8,724c83.3,83.6,218.4,83.6,301.5,0h0.1c10.4-10.5,10.5-27.4,0-37.9c-10.4-10.4-27.3-10.5-37.7,0
		l-0.1,0c-62.5,62.7-163.6,62.7-226.2,0c-10.3-10.5-27.3-10.5-37.7-0.1C337.3,696.5,337.3,713.5,347.8,724"/> <path fill="#14A2DC" d="M584.9,540.2c-12.7,0-23.8-9.2-26-22.1c-2.4-14.4,7.3-28,21.7-30.5l72.1-12.2c14.4-2.3,28,7.4,30.3,21.8
		c2.4,14.4-7.3,28.1-21.6,30.6l-72.1,12.1C587.8,540.1,586.4,540.2,584.9,540.2"/> <path fill="#14A2DC" d="M324.5,516.6c0,29.7,23.4,53.7,52.3,53.7c28.8,0,52.3-24,52.3-53.7c0-29.6-23.4-53.7-52.3-53.7
		C347.9,462.9,324.5,486.9,324.5,516.6"/> </g> </symbol></svg>