<svg xmlns="http://www.w3.org/2000/svg" xmlns:xlink="http://www.w3.org/1999/xlink" version="1.1" x="0px" y="0px" viewBox="0 0 1000 1000" enable-background="new 0 0 1000 1000" xml:space="preserve"><g></g><g><path d="M999.3 604c0-139-11.8-312.1-124.8-312.1c-46.1 0-75 51-93.4 115.3c-23.3-68.2-64-115.3-135.5-115.3 c-83.5 0-125.2 62.8-146 149c-20.9-85.8-62.5-149-145.3-149c-71.7 0-112.5 46.6-135.8 114.3C200.3 342.4 171.3 292 125.5 292 C12.5 292 0.7 465 0.7 604c0 37 33.5 57.5 187.2 61.6c0 0.3 0 0.5 0 0.8c-0.2 20.8 20.8 41.6 41.6 41.6h249.7 c7.2 0 14.4-2.6 20.8-6.8c6.4 4.1 13.6 6.8 20.8 6.8h249.7c20.8 0 41.9-20.8 41.6-41.6c0-0.2 0-0.5 0-0.8 C966.1 661.6 999.3 641.1 999.3 604z M645.6 333.6c60.6 0 96.8 51.5 113.6 166.4h-77.8c-7.2-12.4-20.5-20.8-35.8-20.8 c-15.4 0-28.6 8.4-35.8 20.8h-78.3C548 385.1 584.4 333.6 645.6 333.6z M354.3 333.6c60.6 0 96.8 51.5 113.6 166.4h-77.8 c-7.2-12.4-20.5-20.8-35.8-20.8c-15.4 0-28.6 8.4-35.8 20.8h-78.3C256.7 385.1 293.1 333.6 354.3 333.6z M209.7 436.3 c-0.3 1.1-0.6 2.1-0.9 3.3v-3.3H209.7z M42.3 604.2V604c0-182 27.2-270.5 83.2-270.5c26.5 0 55.1 65.3 70.9 166.4h-55.9 c-7.2-12.4-20.5-20.8-35.8-20.8c-23 0-41.6 18.6-41.6 41.6c0 23 18.6 41.6 41.6 41.6c15.4 0 28.6-8.4 35.8-20.8h52.5 c-2.3 27.1-3.7 54.8-4.4 82.4C79.3 621 50 610.2 42.3 604.2z M477.5 666.4H231.2c-0.6-0.4-1.2-1.1-1.7-1.6 c0.4-46.4 2.4-87.2 5.7-123.2h83.2c7.2 12.4 20.5 20.8 35.8 20.8c15.4 0 28.6-8.4 35.8-20.8H473c3.5 36 5.5 76.9 6.2 123.2 C478.7 665.4 478.1 666 477.5 666.4z M768.8 666.4H522.5c-0.6-0.4-1.2-1.1-1.7-1.6c0.4-46.4 2.4-87.2 5.7-123.2h83.2 c7.2 12.4 20.5 20.8 35.8 20.8c15.4 0 28.6-8.4 35.8-20.8h82.8c3.5 36 5.5 76.9 6.2 123.2C770 665.4 769.3 666 768.8 666.4z M957.7 604.2c-7.7 6-37.1 16.8-146.5 19.8c-0.8-27.5-2.2-55.3-4.7-82.4h52.9c7.2 12.4 20.5 20.8 35.8 20.8 c23 0 41.6-18.6 41.6-41.6c0-23-18.6-41.6-41.6-41.6c-15.4 0-28.6 8.4-35.8 20.8h-56c15.8-101.1 44.4-166.4 71-166.4 c56 0 83.2 88.5 83.2 270.5V604.2z"/></g></svg>