<?xml version="1.0" encoding="utf-8"?>
<!-- Generator: Adobe Illustrator 17.1.0, SVG Export Plug-In . SVG Version: 6.00 Build 0)  -->
<!DOCTYPE svg PUBLIC "-//W3C//DTD SVG 1.1//EN" "http://www.w3.org/Graphics/SVG/1.1/DTD/svg11.dtd">
<svg version="1.1" id="Layer_1" xmlns="http://www.w3.org/2000/svg" xmlns:xlink="http://www.w3.org/1999/xlink" x="0px" y="0px"
	 viewBox="0 0 1000 1000" enable-background="new 0 0 1000 1000" xml:space="preserve">
<g id="qfnVzN_1_">
	<g>
		<path fill="#010101" d="M1000,727.185c0,90.012,0,180.024,0,270.037c-1.099,0.093-2.188,0.28-3.288,0.28
			c-51.649,0.01-103.298,0.01-154.947,0c-1.203,0-2.406-0.156-4.086-0.28c0-69.529,0-138.819,0-208.255c-15.64,0-30.792,0-46.443,0
			c0,69.57,0,138.861,0,208.182c-193.434,0-386.361,0-579.826,0c0-69.633,0-138.902,0-208.255c-15.578,0-30.626,0-46.308,0
			c0,69.602,0,138.985,0,208.618c-1.742,0-2.842,0-3.941,0c-51.649,0-103.298,0-154.947-0.01c-1.099,0-2.188-0.187-3.288-0.28
			c0-89.732,0-179.475,0-269.207c0.239-1.213,0.581-2.406,0.685-3.63c5.704-68.15,34.184-125.275,84.609-171.064
			c53.754-48.807,117.693-71.634,190.105-71.603c152.178,0.062,304.355-0.083,456.533,0.176c15.723,0.031,31.591,1.151,47.137,3.516
			c111.18,16.926,198.216,104.771,214.81,216.293C998.071,710.166,998.942,718.691,1000,727.185z"/>
		<path fill="#010101" d="M518.089,1c6.015,0.799,12.041,1.493,18.036,2.417C627.34,17.563,697.947,89,711.036,180.35
			c15.723,109.676-57.737,213.005-166.459,234.173c-114.374,22.267-224.559-53.049-245.54-167.869
			C278.067,131.958,356.401,21.722,471.812,3.551c6.264-0.985,12.56-1.711,18.845-2.551C499.804,1,508.941,1,518.089,1z"/>
	</g>
</g>
</svg>
