<?xml version="1.0" encoding="utf-8"?>
<!-- Generator: Adobe Illustrator 18.0.0, SVG Export Plug-In . SVG Version: 6.00 Build 0)  -->
<!DOCTYPE svg PUBLIC "-//W3C//DTD SVG 1.1//EN" "http://www.w3.org/Graphics/SVG/1.1/DTD/svg11.dtd">
<svg version="1.1" id="Layer_1" xmlns="http://www.w3.org/2000/svg" xmlns:xlink="http://www.w3.org/1999/xlink" x="0px" y="0px"
	 viewBox="0 0 1000 1000" enable-background="new 0 0 1000 1000" xml:space="preserve">
<path fill="#414042" d="M878,3.6H121.3c-65.2,0-118,52.7-118,117.7v757.2c0,65,52.8,117.7,118,117.7H878c65.2,0,118-52.7,118-117.7
	V121.4C996,56.4,943.1,3.6,878,3.6z M692.8,144.5c0-15.3,12.4-27.7,27.8-27.7h134.2c15.3,0,27.8,12.4,27.8,27.7v133.9
	c0,15.3-12.4,27.7-27.8,27.7H720.6c-15.3,0-27.8-12.4-27.8-27.7V144.5z M500.8,310.7c105.4,0,190.9,85.3,190.9,190.5
	s-85.5,190.5-190.9,190.5s-190.9-85.3-190.9-190.5C309.9,396,395.3,310.7,500.8,310.7z M884.9,853.2c0,15.3-12.4,27.7-27.8,27.7
	H144.4c-15.3,0-27.8-12.4-27.8-27.7V421.5h92.9c-7,25.4-10.7,52.1-10.7,79.7c0,166.1,135.5,301.3,302,301.3s302-135.2,302-301.3
	c0-27.6-3.8-54.3-10.7-79.7H885L884.9,853.2L884.9,853.2z"/>
</svg>
