<?xml version="1.0" encoding="utf-8"?>
<!-- Generator: Adobe Illustrator 18.0.0, SVG Export Plug-In . SVG Version: 6.00 Build 0)  -->
<!DOCTYPE svg PUBLIC "-//W3C//DTD SVG 1.1//EN" "http://www.w3.org/Graphics/SVG/1.1/DTD/svg11.dtd">
<svg version="1.1" id="Layer_1" xmlns="http://www.w3.org/2000/svg" xmlns:xlink="http://www.w3.org/1999/xlink" x="0px" y="0px"
	 viewBox="0 0 1000 1000" enable-background="new 0 0 1000 1000" xml:space="preserve">
<g>
	<path fill="#010101" d="M559.2,999.2c0.7-1.8,1.3-3.6,2.2-5.3c30.1-59.3,59.5-118.8,85.4-180.1c25.4-60,40.6-122.6,48.4-187.2
		c7.7-63.7,9.2-127.6,5.4-191.6c-6.3-106.1-31-207.5-77.6-303.3c-20.8-42.8-42.4-85.2-63.6-127.8c-0.7-1.5-1.3-3-1.9-4.5
		c21.1,0,42.2,0,63.3,0c0.7,1.3,1.3,2.7,2.1,4c20.6,33.1,41,66.4,61.8,99.4c25.9,41.1,49.1,83.3,66.8,128.8
		c30,77.1,46.8,156.8,49.5,239.4c1.5,45.5-0.9,90.8-6.8,135.9c-8,61.3-23.3,120.7-48.2,177.4c-19.8,45.4-44.3,88.3-69.8,130.7
		c-17,28.3-34.7,56.2-52.1,84.3C602.5,999.2,580.9,999.2,559.2,999.2z"/>
	<path fill="#010101" d="M198.6,231.6c32.7-0.1,65.5-0.1,98.2-0.1c3.5,0,6.9,0,10.7,0c0,38,0,75.8,0,114.1c-1.7,0-3.3,0-4.9,0
		c-33,0-66,0-99.1,0c-1.7,0-3.3,0.1-5,0.2C198.6,307.7,198.6,269.6,198.6,231.6z"/>
	<path fill="#010101" d="M198.6,670.7c1-0.1,1.9-0.2,2.9-0.3c34.3,0,68.5,0,102.8,0c1,0,1.9,0.1,3.3,0.2c0,37.8,0,75.6,0,113.9
		c-1.8,0-3.6,0-5.4,0c-32.7,0-65.5,0-98.2,0c-1.8,0-3.6,0.2-5.4,0.4C198.6,746.8,198.6,708.8,198.6,670.7z"/>
</g>
</svg>
