<svg viewBox="0 0 100 100"><symbol viewBox="0 0 100 100" id="shape-cancel"><title>cancel</title> <polygon points="49.9,55 49.7,54.8 13.3,91.2 8.7,86.7 45.2,50.2 8.5,13.5 13.1,8.9 54,50.5 "/> <polygon points="49.7,45.9 49.7,45.9 86.2,9.4 90.4,14 54,50.5 90.9,87.1 86.3,91.7 45.2,50.2 "/> </symbol><symbol viewBox="0 0 1000 1000" id="shape-events"><title>events</title> <g id="svgstoredb59e060d1531c1709045a56c73623ceinstallation"> <g> <path d="M175,77c4.4,1.3,7.1-3.7,11.6-3c4.1,0.7,8.5,0.1,12.7,0.1c39.1,0,78.4-1.8,117.4,0.4c75.1,4.3,150.1,1.3,225.1,2.4
			c38.6-5,77.5-1.3,116.2-3.3c9.9-0.5,19.9-2.1,30-2.4c6.9-0.2,12.9,4.4,20.1,2.9c26.8-5.3,54-0.9,80.8-3.4
			c11.9-1.1,23.7-2,36.3-2.3c0,12,0,24,0,36.2c-7.1,0.3-13.2,6.4-22,2.1c0,16.2-1.7,31,0.6,45.1c1.7,10.1,0.4,20.3,2.5,30
			c5.2,23.6-0.2,47.5,2.9,71c3.7,28.4,2,56.8,2.4,85.1c0.4,28.3,0.2,56.6,0,84.9c0,6.9,3.8,12.8,3.1,20.1c-6,57.5-1.8,115.2-3,172.8
			c0,0.4-0.5,0.7-1.1,1.7c-44.2,5.9-89.2,1.8-133.9,2.9c-16,0.4-31.9,0.1-48.4,0.1c0,6.4,0,12.4,0,18.2c-14.6,5.6-29.4,4.3-44,4.4
			c-15.5,0-30.9,0-45.5,0c-6,23.2-3.8,46-4.4,68.8c5.9,8.9,12.5,17.4,19.5,25.8c10.1,12.1,20.3,24.2,29.3,37.2
			c4.6,6.7,10.8,12.4,16.1,18.7c13.5,16.4,25.8,33.7,39,50.3c15.4,19.4,30.4,39.1,44.8,59.3c1.9,2.6,4.6,4.7,6.6,6.7
			c0,3.5,0,6.7,0,10.1c-10.7,0-21,0-32.3,0c-12.3-11.6-21.7-26.7-31.8-41c-8.5-11.9-17.1-24-25.8-35.8
			c-10.6-14.5-20.3-29.6-31.1-43.9c-0.9-1.2-1.2-3.2-2.5-4.6c-12.6-12.3-22-27.6-36.4-38.3c-2.1,3.1-0.8,7-0.8,10.6
			c-0.2,9.9-0.1,19.8-0.1,29.7c0,10.8,0,21.7,0,32.5c0,11.3-0.1,22.6,0,33.9c0.1,10.6-4.1,20.6-3.1,31.4c1,10.7,0.2,21.7,0.2,32.5
			c-8.4,6.7-18.2,3.8-28.5,4.6c0-56.1,0-111.5,0-168c-12.8,4.9-16.7,16.9-24.4,24.9c-7.7,8-14.3,17.5-21.2,26.4
			c-7.1,9.2-15.9,16.8-23,25.8c-6.7,8.5-13.9,16.7-20.1,25.6c-6.5,9.3-15.3,17.2-20.7,26.8c-5.8,10.3-18.1,14.7-20.1,26.7
			c-10.2,0-19,0-27,0c-2-1.6-3.4-2.8-4.6-3.7c-0.4-4.5,2.6-7.4,4.4-9.9c12.9-17.8,25.4-36,39.1-53.1c10.8-13.4,20.8-27.4,31.6-40.8
			c9.8-12.1,19.7-24,29.9-35.8c13.7-15.8,25.8-33,40.1-48.4c2.7-2.9,3.5-7.4,7.4-9.9c0-24.8,0-49.6,0-75c-27.7,0-55.4,0-84.3,0
			c1.5-8.3-4.8-14.5-2.8-22.9c-67.3,0-133.6,0-199.5,0c-1.5-1.5-2.5-2.5-5.3-5.3c-0.1-0.1,0.9-2.6,0.9-4.8
			c-0.1-53.7-0.2-107.5,0-161.2c0.1-16.2-5.2-32.1-2.8-48.3c5.8-40.5,2-81.3,2.6-121.9c0.7-40.5,0.4-81.1-0.1-121.6
			c-0.1-6.7,4-12,3.2-18.6c-0.7-6.5-0.2-13.2-0.2-19.8c0-2.3,0-4.6,0-7.9c-8.7,0-17.1,0-25.5,0C175,99.6,175,88.3,175,77z
			 M401.4,611.7c-0.5-6-0.4-12.4,4.6-17c18.1,1.1,35.8-4,54-3c18.3,1,36.8,0.2,55.2,0.2s36.8-0.1,55.2,0c18.2,0.1,36.4-0.7,54.5,0.5
			c0,6.6,0,12.3,0,17.8c2.5,3.3,6.3,6.5,9.4,4c4.4-3.6,8.8-2.5,13.2-2.4c10,0.1,19.9,0.2,30.1,2.2c11.8,2.3,24.5-0.1,36.7,0.7
			c28.5,1.9,56.6-4.3,84.6-2.9c1.7-1.8,4.2-3.4,4-4.4c-1.5-8,3.3-15,3.2-22.9c-0.4-26.4-0.2-52.8-0.2-79.2c0-25.9,0.5-51.9-0.1-77.8
			c-0.6-26,1.4-52-2.2-78.1c-2.6-19-0.2-38.6-0.6-57.9c-0.3-19.4,0.2-38.8-2.3-58.3c-3.1-24.8,1.9-50.2-3.1-75.2
			c-1.6-8.2-0.7-17-0.1-25.4c0.6-8.4-5.4-15.5-2.5-24.4c-3.6,0-6,0.3-8.2,0c-14-1.9-27.4,2.9-41.3,2.9c-27.8-0.1-55.6,0-83.5,0
			c-28.3,0-56.6-0.4-84.9,0.1c-27.4,0.6-54.8-1.6-82.4,2.2c-17.6,2.4-35.8,0.5-53.7,0.5c-18.4,0-36.8,0.4-55.2-0.1
			c-17.5-0.5-35,0.6-52.7-2.1c-20.5-3.1-41.6,0.4-62.4-3.1c-17.9-2.9-36,1.3-53.9,2.6c-3.6,0.3-7.4-1.3-10.8,1.2
			c0,24.2,0,48.2,0,72.2c0,23.6,0.4,47.2-0.1,70.7c-0.5,23.7-3.6,47.2-2.9,71c0.7,23.6,0.2,47.1,0.2,70.7c0,24,0,48.1,0,72.1
			c0,23.6,0,47.2,0,70.7c0,23.9,0,47.8,0,72c14.2,0,27.4,0.3,40.5-0.1c13-0.4,25.3,4.1,38.5,3.1c26.4-2.1,53,2.2,79.5-2.6
			C374.1,609.8,387.2,611.7,401.4,611.7z M816.9,76.5c-27.9,2.5-54.7-0.2-81.8,2.7c-35.6,3.8-71.7-0.6-107.6,3
			c-23.8,2.4-48,0-72,0.6c-23.6,0.5-47.4-2.7-70.9,2.7c-7.8,1.8-15.2-2.5-22.8-2.7c-16-0.4-32-0.1-48.1-0.1c-16.5,0-33,0-49.5,0
			c-16,0-32.1-0.4-48.1,0.1c-16.2,0.6-32.2-1.9-48.3-2.8c-14.1-0.7-28.3,0.5-42.4-0.3c-13.9-0.8-27.1,5.3-41.3,2.8
			c0,8.1,0,15.4,0,22.9c2.4,0,4.3,0,6.1,0c16.6-0.3,33.1-0.8,49.8-2.2c17.7-1.5,35.8-1.6,54,1.7c14.6,2.7,30.1,1.3,45.1,0.3
			c14.9-1,29.2,4.2,44.1,3.3c11.4-0.7,22.8-2,34.2-2.6c27.7-1.4,55.6-0.2,83.4-0.5c27.4-0.3,54.8,1,82.3-2.4c15.8-2,32-0.6,48-0.3
			c16.1,0.4,32.1-0.3,48.4,2.3c21.6,3.5,43.4-1.8,65.2-2.3c24.1-0.5,48.2,1.5,72.4-4.1C816.9,91.9,816.9,85,816.9,76.5z M534.1,722
			c-5.5,0-9.5,0.8-13-0.2c-3.8-1.1-6.8-0.8-10.5,0c-4.1,0.9-8.7-0.7-12.6,0.4c-4.1,1.1-9.7,2.3-11.1,6.6c-1.8,5.3-6.6,7.6-9.2,11.8
			c-5.5,8.6-13.3,15.1-19.7,23c-9.1,11.2-16.9,23.5-26.6,34.1c-7.8,8.5-14.6,17.8-22.4,26.4c-4.5,4.9-9.7,9.9-13.1,15.6
			c-7.5,12.7-17.2,23.9-25.5,36c-8,11.5-17.1,22.1-22.3,35.7c5.6,0,10.6,0,15.1,0c13.4-12.1,23.6-26.3,34.8-39.7
			c13.7-16.4,25-34.9,40.7-49.7c2.9-9.1,11.4-13.9,16.8-21.2c8.3-11.3,15.7-23.4,26.1-33.2c3.2-3.1,6.1-6.4,8.5-10.5
			c2.3-4,5.8-9.5,13.4-9.6c0,59.8,0,119,0,177.8c6.7,1.6,10.9-3.2,16.7-3c0-4.5,0.1-8.7,0-12.9c-1.8-55.3,4.9-110.4,2.9-165.7
			c0-0.5,1.1-1.1,1.6-1.5c1.1,3.1,5.7,1.2,6.6,3.9c2.9,8.5,10.3,13,16.3,18.6c6.2,5.7,9.7,13.4,15.8,19.1
			c11,10.3,18.8,23.1,27.5,35.2c9,12.4,18.4,24.4,27.5,36.7c8.8,11.9,17.6,23.8,26.2,35.8c5.4,7.6,10.4,15.4,15.5,22.8
			c6,0,11.7,0,17.2,0c1.4-1.4,2.8-2.8,3.8-3.8C635.2,845.3,582.5,785.4,534.1,722z M619.4,633.7c-1.4-11.6,2.7-23-4.5-33.4
			c-12.2,2.1-24-3.4-36.6-2.9c-23,0.9-46.1-0.2-69.2,0.4c-23.2,0.6-46.4-2.4-69.5,2.4c-8.6,1.8-17.8,0.3-26.8,0.3
			c-0.8,0-1.6,0.5-2.5,0.8c-0.3,1.3-0.4,2.8-1.1,3.8c-1.1,1.5-2.8,2.5-1.9,6.3c7.2,6.1-2.2,17.9,6.4,25.8c34.1,0,68.4,0.4,102.7-0.1
			C550.4,636.5,584.4,640,619.4,633.7z M498.4,643.1c-2.3,29.3-1.6,65.5,1.5,73.6c8.7-6.3,18.8-1.3,28.2-3.9c0-23.2,0-46.5,0-69.7
			C517.8,643.1,508.1,643.1,498.4,643.1z"/> <path d="M237.2,150.5c1.1-4.5,4.1-6.1,8.5-5.7C244.6,149.3,241.6,151,237.2,150.5z"/> <path d="M466.4,241.1c2-0.1,2.9,0.9,2.8,2.8C467.3,244,466.3,243,466.4,241.1z"/> <path d="M469.2,243.9c2-0.1,2.9,0.9,2.8,2.8C470.1,246.8,469.1,245.8,469.2,243.9z"/> <path d="M727.9,591.1c-132.5,2.4-265-0.6-397.4,6.3C462.8,584.4,595.4,590.7,727.9,591.1z"/> <path d="M214.9,112.7c0,77.2,0,154.5,0,231.7c-0.8,0-1.7,0-2.5,0c0-77.3,0-154.6,0-232C213.3,112.5,214.1,112.6,214.9,112.7z"/> <path d="M281.2,579.5c-9.8-50.3,9.3-109.5,0-140.8C281.2,470.2,281.2,529,281.2,579.5z"/> <path d="M786.9,523.3c0-28.7,0-57.4,0-86.1c0.5,0,0.9,0,1.4,0c0,28.7,0,57.4,0,86.1C787.8,523.3,787.4,523.3,786.9,523.3z"/> <path d="M786.2,480c0-28.7,0-57.4,0-86.1c0.5,0,0.9,0,1.4,0c0,28.7,0,57.4,0,86.1C787.1,480.1,786.7,480.1,786.2,480z"/> <path d="M716.2,122c-132.5,2.4-265-0.6-397.4,6.3C451,115.3,583.6,121.6,716.2,122z"/> <path d="M716.2,114.3c-132.5,2.4-265-0.6-397.4,6.3C451,107.6,583.6,113.9,716.2,114.3z"/> </g> </g> </symbol><symbol viewBox="0 0 1000 1000" id="shape-exhibits"><title>exhibits</title> <g> <g> <path d="M816.7,817.9c-211.1,4.8-422.5-1.2-633.4,13.1C394,804.1,605.5,817.1,816.7,817.9z"/> </g> <g> <path d="M218,321c218.7,0,437.5,0,656.2,0c0,1.5,0,3,0,4.5c-218.4,0-436.8,0-655.3,0C218.6,324,218.3,322.5,218,321z"/> </g> <g> <path d="M125.2,814.5c0-114.4-0.7-228.9,0.5-343.3c0.3-30.2,1.9-59.7-0.7-90.2c-6.9-79.4-6.1-79.8,33-75.9
			c-19.8-6.8-26.3,19.8-25,63.7c3.9,130.2,0.1,260.9,8.6,390.9c1.2,17.8,5.1,36.7-1.8,53.9C134.9,813.9,130,814.2,125.2,814.5z"/> </g> <g> <path d="M98,728.7c-15.6-103.4,14.8-225.2,0-289.6C98,503.8,98,624.8,98,728.7z"/> </g> <g> <path d="M910.4,383.1c-4.4,133.9-8.8,267.7-13.2,401.6C881.1,652.3,898,518,910.4,383.1z"/> </g> <g> <path d="M171.5,502.6c0-59,0-118.1,0-177.1c0.7,0,1.5,0,2.2,0c0,59.1,0,118.1,0,177.2C173,502.6,172.2,502.6,171.5,502.6z"/> </g> <g> <path fill="none" d="M488,872.5c-139.7,0-279.4,0.3-419.1-0.5c-17.3-0.1-41.7,9.7-44-24c-1.8-26.9,8.7-35.6,34.1-34
			c23.4,1.5,25-15.9,25-33.1c0.1-150.6-0.1-301.2,0.2-451.8c0-21-4.9-36.8-30-34.1c-38.3,4-37.6-19.7-38.7-47.6
			c-1.3-33.1,16.4-38.4,43.1-41.3c293.6-32,587.1-64.4,880.6-97.5c30.6-3.4,49.1,0.1,44.8,37.8c-2.9,25.1-1.8,50.8-0.3,76.1
			c2.6,44.6,3.9,85.5-61.7,72.8c-22.4-4.3-26.2,12.4-26.2,30.9c0.2,152.4,0.2,304.8-0.1,457.2c0,18.7,3.7,32.7,26.5,30.9
			c22.7-1.8,32.5,6.9,32.1,31.1c-0.6,32.1-22.5,27-41.7,27C771,872.7,629.5,872.6,488,872.5z M495.4,304.4
			c-110.7,0-221.4,0.5-332.1-0.4c-27.4-0.2-44,3.4-43.5,37.5c2,143.3,3.1,286.7,1.6,430c-0.4,37.6,13.9,44,47.3,43.8
			c216-1.2,432-1.4,648,0.3c36.3,0.3,46.4-11.7,46.1-46.4c-1.3-139.7-1.4-279.5,0.5-419.2c0.5-36-11.2-46.8-46.6-46.2
			C709.6,305.5,602.5,304.3,495.4,304.4z M926.8,153.7c-1.9-5.2-3.9-10.5-5.8-15.7c-68.7,7.3-137.4,14.7-209.8,22.4
			c84.7,117,84.6,116.9,177.6,24.4C900.4,173.3,914.1,164,926.8,153.7z M581.5,267.9c65.5,0,122.6,0,181.8,0
			c-73.4-106.7-84.4-108-165.4-21.4C593.3,251.3,589.7,257.1,581.5,267.9z M850.5,267.3c117.7,11.5,125.6,3.3,102.2-106.9
			C918.9,195.7,886,230.2,850.5,267.3z M634.5,169.1c-35.9,4-60.8,6.7-85.7,9.5c-24.1,2.7-48.2,5.6-75.6,8.8
			C550.9,279.9,531.9,283.2,634.5,169.1z M504.3,269.4c-66.8-84.6-87.2-83.6-124.8,0C418.8,269.4,457.9,269.4,504.3,269.4z
			 M390.1,194.9c-36.2,4.7-70.1,9.1-106.2,13.9C331.4,276.4,343.2,274.6,390.1,194.9z M291.2,268.3c-45.1-59.3-45.1-59.3-86.5,0
			C232.9,268.3,259.3,268.3,291.2,268.3z"/> <path d="M48.5,875.3c-11.1,0-24-3.1-25.6-27.1c-0.9-13.6,1.2-22.6,6.7-28.5c5-5.3,12.6-7.8,23.9-7.8c1.8,0,3.7,0.1,5.6,0.2
			c0.9,0.1,1.8,0.1,2.6,0.1c18.7,0,20.3-14.1,20.3-31.2c0-56.5,0-113,0-169.4c0-92.6,0-188.3,0.2-282.4c0-23-6.6-32.4-22.7-32.4
			c-1.6,0-3.3,0.1-5.1,0.3c-2.9,0.3-5.6,0.5-8.1,0.5c-30.9,0-31.8-22.7-32.6-46.7l-0.1-3.3C12.1,212,32.1,207,58.4,204.1
			c322-35.1,610.1-67,880.6-97.5c6.3-0.7,11.2-1,15.6-1c12.2,0,20.3,2.7,25.4,8.4c5.8,6.5,7.8,17.2,6,32.6
			c-2.9,25.2-1.7,51.3-0.3,75.8c1.4,24.2,3,51.7-10.7,66.2c-7,7.4-17.2,11-31.3,11c-6.5,0-13.9-0.8-22.1-2.4
			c-2.2-0.4-4.3-0.6-6.2-0.6c-12.3,0-17.6,8.8-17.6,29.6c0.2,164,0.2,313.6-0.1,457.2c0,17.9,3.5,29.1,20.7,29.1
			c1.1,0,2.4-0.1,3.6-0.2c2-0.2,3.8-0.2,5.6-0.2c9.5,0,16.5,2.3,21.1,7.1c5.3,5.4,7.7,14,7.5,26.3c-0.5,25.7-14.5,29.3-29.7,29.3
			c-2.3,0-4.7-0.1-7.1-0.1c-2.3-0.1-4.7-0.1-7-0.1c-63.4,0.1-132.8,0.2-212,0.2c-70.5,0-142.2,0-211.5-0.1l-1.1,0
			c-29.9,0-59.9,0-89.8,0c-29.9,0-59.9,0-89.8,0c-70.5,0-154.1-0.1-239.5-0.6l-0.3,0c-3,0-6.2,0.3-9.5,0.6
			C55.6,874.9,52,875.3,48.5,875.3z M53.5,815.8c-10.1,0-16.8,2.1-21,6.6c-4.6,4.9-6.4,13.2-5.6,25.5c1.4,20.6,11.2,23.4,21.6,23.4
			c3.3,0,6.8-0.3,10.2-0.6c3.3-0.3,6.7-0.6,9.9-0.6l0.3,0c85.4,0.5,169,0.6,239.5,0.6c29.9,0,59.9,0,89.8,0c29.9,0,59.9,0,89.8,0
			l1.1,0c69.3,0,141,0.1,211.5,0.1c79.3,0,148.6-0.1,212-0.2c2.4,0,4.8,0.1,7.1,0.1c2.3,0.1,4.7,0.1,6.9,0.1
			c13.3,0,25.2-1.9,25.7-25.3c0.2-11.2-1.9-18.9-6.4-23.4c-4.6-4.7-12.2-6.5-23.6-5.6c-1.4,0.1-2.7,0.2-3.9,0.2
			c-21.7,0-24.7-15.9-24.7-33.1c0.3-143.6,0.3-293.2,0.1-457.2c0-10.3,1.2-17.5,3.8-22.9c4.3-8.9,12.7-12.3,24.8-10
			c7.9,1.5,15.1,2.3,21.3,2.3c12.9,0,22.2-3.2,28.4-9.8c12.5-13.3,11-39.8,9.6-63.2c-1.5-24.7-2.6-50.9,0.3-76.4
			c1.6-14.2,0-23.9-5-29.5c-4.3-4.8-11.4-7.1-22.4-7.1c-4.2,0-9.1,0.3-15.2,1C668.9,141.1,380.9,173,58.8,208.1
			c-25,2.7-42.6,7.1-41.3,39.2l0.1,3.3c0.9,24.9,1.6,42.8,28.6,42.8c2.4,0,5-0.1,7.7-0.4c1.9-0.2,3.8-0.3,5.5-0.3
			c23.7,0,26.7,19.5,26.7,36.4C86,423.2,86,518.9,86,611.5c0,56.5,0,113,0,169.4c0,13.2,0,35.2-24.3,35.2c-0.9,0-1.9,0-2.9-0.1
			C57,815.9,55.2,815.8,53.5,815.8z M818,817.6c-0.4,0-0.9,0-1.3,0c-105.8-0.8-213.7-1.2-329.6-1.2c-100.7,0-204.8,0.3-318.4,0.9
			l-1.5,0c-16.9,0-29.9-1.7-38.1-10c-6.9-7-9.9-18-9.7-35.8c1.3-124.6,0.8-257.2-1.6-430c-0.2-14.5,2.5-24.2,8.7-30.4
			c7.8-7.9,20.4-9.3,36.8-9.1c45.8,0.4,94.3,0.5,157.3,0.5c29.1,0,58.3,0,87.4-0.1c29.1,0,58.3-0.1,87.4-0.1c4.4,0,8.8,0,13.3,0
			c28.7,0,58,0.1,86.2,0.2c28.3,0.1,57.5,0.2,86.2,0.2c53,0,96.1-0.3,135.6-0.9c0.9,0,1.8,0,2.7,0c17.7,0,28.8,3.2,35.8,10.3
			c7.2,7.3,10.4,19.1,10.1,37.9c-1.8,129.3-1.9,266.4-0.5,419.2c0.2,19.3-2.9,30.7-10.2,38C847.5,814.4,836.2,817.6,818,817.6z
			 M487.1,812.4c116,0,223.8,0.4,329.7,1.2c17.8,0.2,28.6-2.7,35.1-9.2c6.5-6.5,9.2-17,9-35.2c-1.4-152.8-1.3-289.9,0.5-419.2
			c0.2-17.7-2.5-28.6-8.9-35.1c-6.2-6.3-16.4-9.1-32.9-9.1c-0.9,0-1.8,0-2.7,0c-39.5,0.6-82.6,0.9-135.7,0.9
			c-28.7,0-58-0.1-86.2-0.2c-28.3-0.1-57.5-0.2-86.2-0.2c-4.4,0-8.8,0-13.3,0c-29.1,0-58.3,0-87.4,0.1c-29.1,0-58.3,0.1-87.4,0.1
			c-63,0-111.5-0.2-157.3-0.5c-15.4-0.1-27.2,1.1-34,8c-5.3,5.4-7.7,14.1-7.5,27.5c2.4,172.8,2.9,305.4,1.6,430
			c-0.2,16.4,2.5,26.9,8.6,33c6.2,6.2,16.4,8.8,35.3,8.8l1.5,0C282.2,812.7,386.4,812.4,487.1,812.4z M909.6,273.2
			C909.6,273.2,909.6,273.2,909.6,273.2c-13.9,0-31-1.1-59.3-3.9l-4.1-0.4l2.8-3c16.4-17.1,32.2-33.7,47.9-50.1
			c18.2-19.1,36.1-37.8,54.3-56.8l2.6-2.7l0.8,3.7c11.9,56.2,15.2,83.9,2.8,99.2C949.5,269,935.2,273.2,909.6,273.2z M854.8,265.7
			c25.7,2.5,41.8,3.5,54.8,3.5c0,0,0,0,0,0c24.2,0,37.6-3.7,44.7-12.5c11-13.6,8-40.7-2.8-92.1c-17.3,18.1-34.4,35.9-51.7,54.1
			C885.1,234,870.2,249.6,854.8,265.7z M508.4,271.4h-132l1.3-2.8c17.8-39.7,33-64.3,53.4-64.3c17.8,0,38,17.3,74.8,63.8
			L508.4,271.4z M382.6,267.4h117.6c-28.3-35.6-51-59.1-69.1-59.1C415.7,208.3,402,224.9,382.6,267.4z M295.2,270.3h-94.4l2.2-3.1
			c21.1-30.2,31.6-45.3,43.5-45.3c11.8,0,23.3,15.1,46.2,45.3L295.2,270.3z M208.5,266.3h78.6c-19.9-26.1-31.2-40.5-40.6-40.5
			C237.2,225.8,226.8,240.2,208.5,266.3z M767.1,269.9H577.5l2.4-3.2c2.9-3.9,5.2-7,7.3-9.8c3.6-5,6.2-8.6,9.3-11.7
			c40.5-43.3,62.1-62.7,83.1-62.7c24.7,0,46,27,85.4,84.3L767.1,269.9z M585.5,265.9h174c-38.6-56-58.6-79.4-80-79.4
			c-19.5,0-40.5,18.9-80.2,61.4c-2.9,3-5.4,6.5-8.9,11.3C589,261.2,587.4,263.4,585.5,265.9z M334.9,259.2
			C334.9,259.2,334.9,259.2,334.9,259.2c-15.1,0-30.1-17.3-52.6-49.3l-1.9-2.7l3.3-0.4c35.6-4.7,69.2-9.1,104.7-13.7l5.5-0.7
			l-2.1,3.5C366.6,238.8,351.6,259.2,334.9,259.2z M287.4,210.3c20.2,28.5,34.5,44.9,47.4,44.9c0,0,0,0,0,0
			c14.3,0,28.7-19.5,51.4-57.8C352.8,201.8,321,205.9,287.4,210.3z M542.6,257.8C542.6,257.8,542.6,257.8,542.6,257.8
			c-14.4,0-26.4-14.8-50.4-44.2c-6-7.4-12.8-15.8-20.6-25l-2.4-2.8l3.7-0.4c8.4-1,16.6-1.9,24.5-2.9c17.7-2.1,34.5-4.1,51.1-5.9
			c13.3-1.5,26.7-3,41.7-4.6c13-1.4,27.3-3,44-4.9l5.2-0.6l-3.5,3.9c-9.4,10.4-17.8,20-25.3,28.4
			C574.9,239.3,558.5,257.8,542.6,257.8z M477.1,189c6.8,8.1,12.8,15.5,18.2,22.2c22.4,27.5,34.8,42.7,47.2,42.7c0,0,0,0,0,0
			c14.1,0,31.2-19.3,65.1-57.6c6.5-7.4,13.8-15.6,21.8-24.5c-14.5,1.6-27.1,3-38.8,4.3c-15,1.7-28.4,3.1-41.7,4.6
			c-16.7,1.9-33.4,3.8-51.1,5.9C491.1,187.3,484.2,188.1,477.1,189z M800.8,253.4C800.8,253.4,800.8,253.4,800.8,253.4
			c-24.7,0-45.5-28.8-91.2-91.8l-2-2.8l3.4-0.4c35.5-3.8,70-7.5,104.1-11.1c35.5-3.8,70.6-7.6,105.7-11.3l1.6-0.2l0.5,1.5
			c0.9,2.6,1.9,5.2,2.9,7.8c1,2.6,2,5.3,2.9,7.9l0.5,1.3l-1.1,0.9c-4,3.3-8.2,6.5-12.3,9.6c-8.7,6.7-17.7,13.6-25.5,21.3l-0.3,0.3
			C845.1,231.1,822.6,253.4,800.8,253.4z M714.8,162c43.4,60,63.6,87.4,85.9,87.4c0,0,0,0,0,0c20.2,0,43.7-23.3,86.3-65.7l0.3-0.3
			c8-7.9,17.1-14.9,25.9-21.7c3.7-2.8,7.5-5.7,11.1-8.7c-0.8-2.2-1.6-4.4-2.4-6.6c-0.8-2.1-1.6-4.2-2.3-6.3
			c-34.5,3.7-69.1,7.4-104.1,11.1C782.5,154.8,749.1,158.4,714.8,162z"/> </g> <g> <path d="M874.4,728.7c-15.6-103.4,14.8-225.2,0-289.6C874.4,503.8,874.4,624.8,874.4,728.7z"/> </g> <g> <path d="M93.4,888.1c259-15.6,564.2,14.8,725.3,0C656.8,888.1,353.6,888.1,93.4,888.1z"/> </g> </g> </symbol><symbol viewBox="0 0 1000 1000" id="shape-facebook"><title>facebook</title> <path d="M711.703,500.474H571.411c0,224.153,0,500.214,0,500.214H363.538c0,0,0-273.314,0-500.214h-98.865V323.761
	h98.865V209.41c0-81.846,38.862-209.825,209.763-209.825l153.982,0.582v171.577c0,0-93.609,0-111.761,0
	c-18.208,0-44.111,9.104-44.111,48.116v103.902h158.5L711.703,500.474z"/> </symbol><symbol viewBox="0 0 1000 1000" id="shape-flickr"><title>flickr</title> <path d="M222.975,723.377C100.385,723.377,1,623.937,1,501.402s99.385-221.944,221.975-221.944
	c122.534,0,221.982,99.41,221.982,221.944S345.51,723.377,222.975,723.377z"/> <path d="M998.341,501.402c0,122.534-99.385,221.975-221.975,221.975c-122.534,0-221.919-99.441-221.919-221.975
	s99.385-221.944,221.919-221.944C898.956,279.458,998.341,378.868,998.341,501.402"/> </symbol><symbol viewBox="0 0 1000 1000" id="shape-instagram"><title>instagram</title> <path d="M878,3.6H121.3c-65.2,0-118,52.7-118,117.7v757.2c0,65,52.8,117.7,118,117.7H878c65.2,0,118-52.7,118-117.7
	V121.4C996,56.4,943.1,3.6,878,3.6z M692.8,144.5c0-15.3,12.4-27.7,27.8-27.7h134.2c15.3,0,27.8,12.4,27.8,27.7v133.9
	c0,15.3-12.4,27.7-27.8,27.7H720.6c-15.3,0-27.8-12.4-27.8-27.7V144.5z M500.8,310.7c105.4,0,190.9,85.3,190.9,190.5
	s-85.5,190.5-190.9,190.5s-190.9-85.3-190.9-190.5C309.9,396,395.3,310.7,500.8,310.7z M884.9,853.2c0,15.3-12.4,27.7-27.8,27.7
	H144.4c-15.3,0-27.8-12.4-27.8-27.7V421.5h92.9c-7,25.4-10.7,52.1-10.7,79.7c0,166.1,135.5,301.3,302,301.3s302-135.2,302-301.3
	c0-27.6-3.8-54.3-10.7-79.7H885L884.9,853.2L884.9,853.2z"/> </symbol><symbol viewBox="0 0 1000 1000" id="shape-mobile"><title>mobile</title> <g id="svgstoreb0b7be26a1d7b60018930803c2200eb4mobile"> <path d="M177.2,466.6c-23,16.2-42.7,18.8-65.3,11.3c0-37.2,0-74.5,0-110.2c6.7-7.5,12.6-14.1,17.7-19.8
		c21.7-2.8,27.7,18.6,45.3,28.2c0-94.4,0-185.1,0-270.9c14.5-25,33.8-25.1,54.3-25.1c127,0.4,254,0.8,381-0.3
		c22.9-0.2,44.5,0.9,69.2-10.3c37.8-17.3,79.5,8.2,119.9,12.9c23,2.7,16.4,37.5,32.2,45.4c2.3,17.2-14.4,22.2-11.8,27.2
		c17.3,32.7,12.1,67.5,12.5,101.8c0.4,33.2,0.1,66.3,0.1,98.1c15.8,12.2,32.1,1.7,51.5,10.3c-3.9,41.2,20,89.2-15.1,128.3
		c-16.6,3.9-23.5-4.9-34.4-19c0,77.7,0,146.2,0,212.3c-10.2,10.2-18.1,18.1-27.9,27.9c-0.5,43.1-3.9,87.8-39.3,119.7
		c-8.8,33.9,14.3,72.6-21.4,101.2c-23.9-2.1-52.1,11.1-73.6-20.5c0-24.8,0-53.1,0-83.7c-110.9,0-219.4,0-332.2,0
		c-7.7,31.6,7.9,71.6-21.1,103.2c-17.7,0-37,0-56.2,0C244.3,909,244.3,909,243.4,835c-12.6-12.6-25.2-25.2-39.3-39.3
		c-1.2-25.8,2.5-53.6-13-79.5c-14.6-24.4-14.9-52.7-14.3-81.1C178.1,581.7,177.2,528.2,177.2,466.6z M270.8,334.3
		c-36.1,37.7-41.6,84.7-40.1,133.7c-8.4-1.6-13.1,3.6-13.1,10.4c0.1,39.5,0.9,79,1.8,118.5c0,1.6,2.9,3.1,4.4,4.6
		c7-4.4,10.1-13.7,21-13.6c9.4,0.1,23,6.3,27.2-17c-11.9-12.5-26.6-27.9-41.4-43.5c0-19.7,0-39.6,0-59.5c12.7,1,13.5-7.7,13.3-16.8
		c-0.5-28.9,5.9-55.4,26.8-76.8c7.5,39.3-23.8,74.1-11.1,116.1c20,21,42.6,44.1,77.9,44.3c88.4,0.3,176.8-0.3,265.2,0.3
		c26.3,0.2,50.9-10.2,69.7-23.2c46.5-32,70.5-78.9,66.1-137.5c12.7-1,12.8,7.7,13.5,16.8c0.7,9.7-4.6,23.3,16.6,23
		c0,37.7,0,75.3,0,100.7c-13,33.1-45.1,38.4-43.5,66.9c10.2,11,22.4,3.5,32.1,6.9c10.7,3.8,16.6,24,35.9,5.4
		c-24-56.3-9.1-119.2-27.8-179.6c1.8-29.7,0.7-58.5-21.6-81.9c-9.3-9.7-18.3-19.1-31.5-5.5c10.9,14.7,32.3,23.4,26.4,47.3
		c-40-30.8-88.1-49-134.7-37.3c-32.2,8.1-62.8,9.7-94.3,10.2c-74.3,1.2-148.7,0.4-219.7,0.4c-8.9,11.5-1.2,28.1-19.2,26.7
		C270.8,361.1,270.8,347.7,270.8,334.3c6.5,1.1,10.5-1.9,11.9-8c0.2-1-2.9-4.2-3.9-3.9C272.6,323.8,269.7,327.8,270.8,334.3z
		 M273.1,301.2c11.1-27.8,32.4-20.2,51.5-20.2c106.8-0.3,213.5-0.1,320.3-0.1c11.1,0,26.7-4.8,32.6,0.8c32.8,30.6,59,4.3,86.9-5.4
		c6.3-39.4-6.2-78.1,12.6-116.6c8.9-18.1,9.7-48.7-19.5-66c-26.3,0-55.7,3.9-83.6-1c-32.3-5.7-57.8,15-88.1,14.7
		c-71.2-0.9-142.3-0.1-213.5-0.5c-10.5-0.1-22.6,5-31.7-3.6c-21.1-20-46.5-7.1-69.6-8.7c-18-1.2-52.7,33.5-53.4,51.6
		C215.5,200.5,215,255,273.1,301.2z M781.5,764.1c-186.2,0-367,0-547.3,0c-3.9,14-8.2,26.5,3.1,38.1c139.2,0,278.8-0.3,418.5,0.4
		c18.9,0.1,38.6,3,57,4.4C736.4,808.8,771.4,809.8,781.5,764.1z M384.4,751.9c-16-23.6-32-11.2-42.8-19.2
		c-13.7-38-47.1-72.1-26.7-113.5c25.9-10.8,51.9,4.5,79.9-14.7c-41,0-75.3,0-108.7,0c-6.1,20.7,6.7,43.3-14.6,56.8
		c14.4,23.2,53.6,35.2,34.8,73.8c-17.7,1.9-30-2.6-44.2-11.4c-9.7-6-29.8-7.1-47.2,6.3C266.1,766,321.6,739.9,384.4,751.9z
		 M683.1,320.9c-117.5-19.1-343.4-16.3-388.5-2.7c22.3,7.2,45-6,59.5,12.5c17.1-16,32.7,9.9,47.1,3c27.2-13,53.2-18.1,80.9-3.4
		c28.1-19.5,59.6-6.8,89.5-8.8C608.5,319.1,645.9,320.9,683.1,320.9z M676.8,733.6c9.5,3.6,20.9,3,21.1-6.8
		c0.4-24.3,8.2-36.3,32.7-47c16.7-7.3,31.4-10.4,48.3-11.3c17.1-0.9,14-11.8,11.1-22.8c-20.8,10.2-41.7,14.7-64,5
		c7.8-15.2-14.1-19.9-9.5-35.2c-2.6-3.7,15.7-2.9,3.5-12.4c-15.7-0.5-32.7-6.3-48.5,5.1c23.3,16.8,9,41.1,14.1,61.1
		C691.5,692.5,655.7,709.7,676.8,733.6z M657.3,659.6c-117.1-10.2-142.3-8.1-210.7,20.6c38.5-2.1,78.1,10.5,114.9-3.5
		c17.9-6.8,29.8-10.8,45.9,0.4c15.4,10.7,32.5,4.2,49.9,2.4C657.3,671.5,657.3,665.5,657.3,659.6z M870.2,471.4
		c0-31.3,0-56.3,0-82.1c-36.9-7.7-29.3,26.6-36.1,40C823.8,449.6,842.6,462.9,870.2,471.4z M433.8,630.7c-0.2,3.7-0.4,7.4-0.6,11.1
		c32.7,0,65.4,0.6,98-0.2c32.9-0.8,66.5,3.9,98.4-10.9C564.3,630.7,499.1,630.7,433.8,630.7z M148.3,373.5
		c-41.8,26.3-17.2,62.1-26,93.4c11.9,0,17.9,0,26,0C148.3,436.2,148.3,406.6,148.3,373.5z M460.4,697.5c34,8.8,68.6,16.1,102.3,0
		C528.6,697.5,494.5,697.5,460.4,697.5z M269.6,610.9c-14.7,11.3-41-11-38.1,25.8c13.6,7.3,25.5,7.7,38.1,0
		C269.6,631.2,269.6,625.3,269.6,610.9z M778,620c-13.7-6.8-25.5-7.6-37.2-0.3c-3.9,8.6-3.1,16.1,4.7,22.2
		C762.6,643.5,769.9,632.1,778,620z M540.6,595.8c16.4,4.5,33.5,10.9,55.2-2.3C573.4,586,557.1,586.9,540.6,595.8z M727.6,704.3
		c11.9,6.6,23.7,6.6,35.7-0.1c3.8-8.3,3.4-15.9-10.4-27C767.5,716.1,726.3,680.3,727.6,704.3z M246.7,704.9c11.6-0.7,25,9.6,38-3.6
		C270,692.9,258.2,692.9,246.7,704.9z M721.6,866.4c-0.7-11.6,9.6-25-3.6-38C709.6,843.1,709.6,855,721.6,866.4z M645.7,595
		c-14-10.5-27.4-10.5-41.3,0C618.4,605.6,631.8,605.6,645.7,595z M361.4,632.4c-6.4,3.4-17.8-13.2-21.9,5
		C347.5,643.9,354.9,644.3,361.4,632.4z M512.5,608.4c-12.1-8.7-20.6-12.5-26.2,2C494.1,617.6,501.5,617.2,512.5,608.4z
		 M798.9,334.4c9.7-9,9.7-18,0-27C789.2,316.5,789.2,325.4,798.9,334.4z M337.5,675.2c9,9.7,18,9.7,27,0
		C355.4,665.5,346.5,665.5,337.5,675.2z M444.7,702c-9-9.7-18-9.7-27,0C426.8,711.7,435.7,711.7,444.7,702z M577.2,702
		c12.1,8.7,20.6,12.5,26.2-2C595.6,692.8,588.2,693.2,577.2,702z M317.6,561.6c-1.5,1.5-4.4,3.3-4.2,4.4c0.7,3.1,2.7,6,4.2,9
		c1.5-1.5,4.4-3.3,4.2-4.4C321,567.4,319.1,564.6,317.6,561.6z M224,655.2c-1.5,1.5-4.4,3.3-4.2,4.4c0.7,3.1,2.7,6,4.2,9
		c1.5-1.5,4.4-3.3,4.2-4.4C227.5,661,225.5,658.2,224,655.2z M359.6,697.2c-2.8,1.5-5.7,3.2-8.6,4.8c1.5,1.5,3.3,4.4,4.4,4.2
		c3.1-0.7,6-2.7,9-4.2C362.9,700.5,361.4,699,359.6,697.2z M805.6,180.6c-1.5-1.5-3.3-4.4-4.4-4.2c-3.1,0.7-6,2.7-9,4.2
		c1.5,1.5,3.3,4.4,4.4,4.2C799.7,184,802.6,182.1,805.6,180.6z M242.1,312.3c-1.8-1.8-3.3-3.3-4.8-4.8c-1.5,3-3.5,5.8-4.2,9
		c-0.2,1.1,2.7,2.9,4.2,4.4C239,318,240.6,315.1,242.1,312.3z M215.4,392.6c-1.8-1.8-3.3-3.3-4.8-4.8c-1.5,3-3.5,5.8-4.2,9
		c-0.2,1.1,2.7,2.9,4.2,4.4C212.2,398.3,213.8,395.4,215.4,392.6z"/> </g> </symbol><symbol viewBox="0 0 1000 1000" id="shape-pinterest"><title>pinterest</title> <path d="M581.414,721.162c-61.877,0-120.107-33.375-140.028-71.383c0,0-33.313,132.051-40.324,157.511
	c-24.848,90.144-97.878,180.289-103.479,187.599c-3.961,5.12-12.73,3.536-13.647-3.287c-1.584-11.451-20.221-125.109,1.71-217.811
	c11.02-46.534,73.759-312.34,73.759-312.34s-18.337-36.549-18.337-90.631c0-85.03,49.279-148.374,110.615-148.374
	c52.137,0,77.234,39.1,77.234,86.003c0,52.379-33.318,130.829-50.558,203.435c-14.376,60.786,30.456,110.365,90.451,110.365
	c108.599,0,181.754-139.48,181.754-304.787c0-125.596-84.606-219.639-238.524-219.639c-173.833,0-282.19,129.737-282.19,274.581
	c0,49.94,14.744,85.149,37.828,112.311c10.597,12.549,12.056,17.663,8.22,32.04c-2.8,10.478-9.013,35.938-11.695,45.924
	c-3.773,14.62-15.593,19.734-28.684,14.376c-80.096-32.645-117.375-120.357-117.375-219.028C118.143,195.277,255.433,0,527.819,0
	c218.846,0,362.892,158.366,362.892,328.426C890.711,553.179,765.67,721.162,581.414,721.162z"/> </symbol><symbol viewBox="0 0 1000 1000" id="shape-services"><title>services</title> <g id="svgstore85f47b7062ef60f83530f305ecabe0ecevents"> <g> <path d="M449.7,857.9c-0.2,0-0.5,0-0.8-0.1l-229-33.2c-1.7-0.2-3.2-1.3-4-2.9c-0.8-1.5-0.7-3.4,0.1-4.9l105.8-187
			c0.9-1.7,2.7-2.7,4.6-2.7c0,0,0,0,0,0c1.9,0,3.6,1,4.6,2.7l123.3,220.3c1,1.7,0.9,3.9-0.3,5.5
			C453.1,857.1,451.5,857.9,449.7,857.9z M229.1,815.4L440,846L326.5,643.1L229.1,815.4z"/> </g> <g> <path d="M449.7,857.9c-1.8,0-3.5-0.9-4.4-2.4c-1.1-1.7-1.1-3.8-0.1-5.5l121.4-208.2l-240.2-4.2l0,0c0,0,0,0,0,0c0,0,0,0,0,0
			c0,0,0,0,0,0s0,0,0,0c0,0,0,0,0,0c-0.2,0-0.5,0-0.7-0.1l-189-32.5l89,212.3c0.8,1.9,0.4,4.1-1,5.6c-1.4,1.5-3.5,2.1-5.5,1.5
			L71.5,777.3c-0.1,0-0.3-0.1-0.4-0.2c-0.7-0.3-1.3-0.7-1.8-1.2c-42.5-43.4-42.5-45.6-42.5-48.2V573c0-0.3,0-0.6,0.1-1l0,0l0,0
			c0,0,0,0,0,0l0,0c0,0,0,0,0,0l0,0c0-0.1,0-0.1,0-0.2l34.1-146c0.4-1.6,1.5-2.9,2.9-3.6l55.9-25.4l0,0c0.8-0.4,1.7-0.5,2.6-0.4
			l145.9,11.4c0.2,0,0.4,0,0.5,0.1c0,0,0,0,0,0c0.1,0,0.3,0.1,0.4,0.1L455,455.7l198-45.2c0.1,0,0.2-0.1,0.4-0.1
			c0.2,0,0.4-0.1,0.5-0.1l182.7-10.5c1.6-0.1,3.1,0.6,4.2,1.7c1.1,1.2,1.5,2.8,1.3,4.4l-33.7,198.1L935,582l29.5-27.8
			c1.6-1.5,3.9-1.9,5.8-0.9c1.9,0.9,3.2,2.9,3,5l-10.5,190.6c-0.2,2.7-2.4,4.9-5.1,5c-2.8,0.1-5-1.9-5.4-4.6L933,593.1l-123.7,21.5
			l70.1,174c0.6,1.4,0.5,3.1-0.2,4.4c-0.7,1.4-2,2.3-3.5,2.7l-179.1,38.4c-0.2,0-0.3,0.1-0.5,0.1l0,0c0,0,0,0,0,0c0,0,0,0,0,0
			c0,0-0.1,0-0.1,0l-245.6,23.6C450.1,857.9,449.9,857.9,449.7,857.9z M575.8,646.9L459.4,846.5l227-21.8L575.8,646.9z
			 M801.6,623.4l-96.7,198.2l162.5-34.9L801.6,623.4z M584.4,641l110.4,177.2l98.3-201.4L584.4,641z M79.6,768.8L211.5,811
			l-82.7-197.5L79.6,768.8z M37.2,726.3c2.8,3.7,14.2,16,27.1,29.4L37.2,624.4V726.3z M38.8,580.2l35.3,171.3L121.4,602L38.8,580.2
			z M943,588.9l12.6,101l6.5-119L943,588.9z M336.8,627.3l228.7,4L454.8,470.1L336.8,627.3z M656,426.5l-72.6,204.1l208.9-24.2
			L656,426.5z M137.4,594.6l181.9,31.3l-53.7-201.1L137.4,594.6z M463.7,464.5l110.4,160.8l72-202.5L463.7,464.5z M275.3,420.3
			l53.5,200.3l117.3-156.4L275.3,420.3z M664.4,420.3l134.5,177.4l31.8-187L664.4,420.3z M39.6,569.6l83,21.9l-5.3-169.7
			L39.6,569.6z M127.4,407.3l5.5,175.9L258,417.5L127.4,407.3z M70.5,430.7L46.3,534.2l63.9-121.5L70.5,430.7z"/> </g> <g> <path d="M874.6,795.9c-1.2,0-2.4-0.4-3.4-1.2c-1.6-1.4-2.2-3.5-1.6-5.6l62.6-202.6l-15.6-158.9c-0.2-2.6,1.5-5.1,4.1-5.6
			c2.6-0.6,5.2,0.9,6.1,3.4l46.3,131.1l-9.9,3.5l-31.9-90.4l11.5,117c0.1,0.7,0,1.4-0.2,2l-59.3,191.9l72-36.4l4.7,9.4l-83,42
			C876.2,795.7,875.4,795.9,874.6,795.9z"/> </g> <g> <path d="M921.8,432.2c-0.4,0-0.9-0.1-1.3-0.2l-84.8-21.8c-2.1-0.5-3.6-2.3-3.9-4.4l-14.9-120.6c-0.3-2.4,1.1-4.7,3.3-5.5
			c2.2-0.9,4.8-0.1,6.2,1.9L926.1,424c1.2,1.8,1.3,4.2,0,6C925.1,431.4,923.5,432.2,921.8,432.2z M841.8,400.9l67.6,17.4
			l-79.4-113.6L841.8,400.9z"/> </g> <g> <path d="M460.2,461.4l-10.5-0.7l10.7-166.2L270.8,417.4c-1.7,1.1-3.9,1.1-5.6,0.1c-1.7-1.1-2.7-3-2.5-5l15.2-153.7L125.6,405.4
			c-1.8,1.7-4.5,1.9-6.5,0.6c-2-1.3-2.9-3.9-2.1-6.2l29.6-81.6L70.3,429.9l-8.7-5.9l99.7-146c1.5-2.2,4.4-2.9,6.7-1.7
			c2.4,1.2,3.5,4,2.5,6.5l-36,99.4l146.3-140.8c1.6-1.5,3.9-1.9,5.9-0.9c2,1,3.1,3,2.9,5.2l-15.5,157l189.3-122.6
			c1.7-1.1,3.8-1.1,5.5-0.1c1.7,1,2.7,2.9,2.6,4.9L460.2,461.4z"/> </g> <g> <path d="M822.1,289.8c-0.4,0-0.9-0.1-1.3-0.2l-151.2-39.3c-1.9-0.5-3.4-2-3.8-4l-14.9-68.2c-0.4-2.1,0.4-4.2,2.1-5.4
			c1.7-1.2,4.1-1.2,5.8-0.1L825,280.1c2.2,1.4,3,4.2,2,6.5C826.1,288.6,824.2,289.8,822.1,289.8z M675.3,240.9L792,271.2
			l-128.1-82.9L675.3,240.9z"/> </g> <g> <path d="M466.4,289.7c-1.3,0-2.6-0.5-3.6-1.5c-1.2-1.2-1.8-2.9-1.6-4.6l17.5-116.3c0.2-1.6,1.2-3,2.6-3.8
			c1.4-0.8,3.1-0.9,4.6-0.3l187.1,76.9c2.1,0.9,3.5,3.1,3.2,5.4c-0.2,2.3-2,4.2-4.2,4.6l-204.6,39.3
			C467,289.7,466.7,289.7,466.4,289.7z M488,175.6l-15.4,102.3l180-34.6L488,175.6z"/> </g> <g> <path d="M932.9,589.5L832.8,408.4L675.1,256.5l-15.6,159.7c-0.2,1.9-1.3,3.5-3,4.3c-1.7,0.8-3.7,0.6-5.2-0.5L464.2,289.4
			l-179.5-38.8L167.2,286c-2.5,0.8-5.2-0.5-6.3-2.9c-1.1-2.4-0.2-5.2,2-6.6l169.6-104c0.3-0.2,0.7-0.4,1.1-0.5c0,0,0,0,0,0
			c0,0,0,0,0,0l0,0c0,0,0,0,0,0s0,0,0,0c0,0,0,0,0,0s0,0,0,0c0,0,0,0,0,0l0,0c0.2,0,0.3-0.1,0.5-0.1l0,0c0,0,0,0,0,0h0c0,0,0,0,0,0
			h0c0,0,0,0,0,0s0,0,0,0c0,0,0,0,0,0c0,0,0,0,0,0l164.8-29.7c0.6-0.1,1.3-0.1,1.9,0l156,29.7c2.7,0.5,4.6,3,4.2,5.8
			s-2.7,4.8-5.5,4.6l-171.1-8.7l-181.9,70.2l164.7,35.6c0.7,0.1,1.3,0.4,1.9,0.8l180.6,126l15.7-161.5c0.2-2,1.5-3.7,3.4-4.4
			c1.9-0.7,4-0.2,5.5,1.1l166.1,160c0.4,0.4,0.7,0.8,0.9,1.2l100.5,181.8L932.9,589.5z M314.8,195.7l-111.9,68.6l78.4-23.6
			L314.8,195.7z M338,182.1l-38.4,51.7l151-58.3L338,182.1z M494.1,163.5l86.1,4.4L502.2,153L494.1,163.5z M487.5,154.8l-65.2,11.8
			l58.8-3.5L487.5,154.8z"/> </g> </g> </symbol><symbol viewBox="0 0 1000 1000" id="shape-twitter"><title>twitter</title> <path d="M897.079,287.069c0.425,8.788,0.613,17.638,0.613,26.551c0,271.134-206.374,583.77-583.776,583.77
	c-115.913,0-223.706-33.996-314.529-92.168c16.113,1.831,32.414,2.813,48.952,2.813c96.199,0,184.579-32.784,254.777-87.774
	c-89.73-1.713-165.54-61.041-191.597-142.527c12.506,2.381,25.326,3.725,38.57,3.725c18.739,0,36.871-2.569,54.022-7.238
	C110.354,555.365,39.55,472.442,39.55,373.042c0-0.856,0-1.712,0-2.593c27.708,15.382,59.328,24.626,92.961,25.664
	c-55.059-36.777-91.255-99.581-91.255-170.753c0-37.602,10.133-72.848,27.777-103.156
	C170.17,246.355,321.428,328.028,491.906,336.572c-3.481-15.013-5.313-30.67-5.313-46.759c0-113.313,91.868-205.149,205.211-205.149
	c58.966,0,112.313,24.908,149.727,64.76c46.696-9.182,90.643-26.245,130.32-49.772C956.47,147.568,924,187.789,881.634,213.153
	c41.509-4.944,81.061-15.963,117.807-32.289C971.977,222.003,937.181,258.137,897.079,287.069z"/> </symbol><symbol viewBox="0 0 1000 337.8" id="shape-wordmark"><title>wordmark</title> <g> <g> <path fill="#FFA400" d="M14.7,109.5h0.7C21.2,89.4,42,58.3,82.5,58.3c56.7,0,82.9,49.2,82.9,106.3c0,61.4-26.5,105.5-82.9,105.5
			c-30.5,0-56.3-14.2-67.1-46.9h-0.7v114.6H1.1V63h13.6V109.5z M151.7,164.6c0-46.1-19.7-93.3-69.2-93.3
			c-49.1,0-67.4,45.3-67.4,93.3c0,48,15.4,92.5,67.4,92.5C130.6,257.1,151.7,214.6,151.7,164.6z"/> <path fill="#FFA400" d="M206.9,107.9h1.1c7.2-26.4,37.3-47.6,70.6-46.1v15c-14.3-2-34.4,2-50.9,19.7c-13.6,15.3-19.4,28-20.8,58.3
			v110.6h-13.6V63h13.6V107.9z"/> <path fill="#FFA400" d="M358.5,58.3c54.1,0,84.6,48.4,84.6,105.9c0,57.5-30.5,105.9-84.6,105.9c-54.2,0-84.6-48.4-84.6-105.9
			C273.9,106.7,304.4,58.3,358.5,58.3z M358.5,257.1c46.3,0,71-44.5,71-92.9c0-48.4-24.7-92.9-71-92.9c-46.3,0-71,44.5-71,92.9
			C287.5,212.6,312.2,257.1,358.5,257.1z"/> <path fill="#FFA400" d="M609.3,125.6c-2.5-35.8-29.1-54.3-62.4-54.3c-46.3,0-71,44.9-71,91c0,54.7,23.3,94.9,71,94.9
			c34.4,0,59.5-26,64.2-63h13.6c-6.1,48.4-38,76-77.8,76c-59.9,0-84.6-51.6-84.6-107.9c0-56.3,30.1-103.9,84.6-103.9
			c39.8,0,72.1,21.3,76,67.3H609.3z"/> <path fill="#FFA400" d="M715.8,76h-40.2v141.4c0,32.7,14,35.8,39.8,35v13c-28,2-54.9-2.4-53.4-48V76h-34.1V63H662V0h13.6v63h40.2
			V76z"/> <path fill="#FFA400" d="M801.6,58.3c54.2,0,84.6,48.4,84.6,105.9c0,57.5-30.5,105.9-84.6,105.9c-54.1,0-84.6-48.4-84.6-105.9
			C717,106.7,747.4,58.3,801.6,58.3z M801.6,257.1c46.3,0,71-44.5,71-92.9c0-48.4-24.7-92.9-71-92.9c-46.3,0-71,44.5-71,92.9
			C730.6,212.6,755.3,257.1,801.6,257.1z"/> <path fill="#FFA400" d="M927.2,107.9h1.1c7.2-26.4,37.3-47.6,70.7-46.1v15c-14.3-2-34.4,2-50.9,19.7c-13.6,15.3-19.4,28-20.8,58.3
			v110.6h-13.6V63h13.6V107.9z"/> </g> </g> </symbol></svg>