<svg xmlns="http://www.w3.org/2000/svg" viewBox="0 0 1000 1000.1"><path fill="#128141" d="M616.6 489c8 8.6 8.2 17.8 6 23-2 4.3-5.6 7-9.6 7-1.3 0-2.6-.4-3.8-1-10-4.2-21.2-5.7-32.2-4.3-11 1.4-21.5 5.7-30 12.4-1.8 1.4-3.8 2-6 2-3.6 0-7.2-2-9.5-6-3.6-6-3.3-14.3 1-22.2 11.3-21 27.8-25.5 39.2-27 3-.4 5.7-.6 8.3-.6 14 0 26 5.4 36.6 16.8zm-80.2-89.6c4 0 7.5-2.4 9.5-6.4 2.5-5.2 2.8-14-4-23-10.7-14.3-23.2-20.7-40.4-20.7h-3.2c-17.2 0-29.7 6.4-40.5 20.8-6.7 9-6.4 17.8-3.8 23 2 4 5.6 6.4 9.5 6.4 1.6 0 3.2-.4 4.7-1.2 9-5 19.5-7.7 30-7.7h3.4c10.6 0 21 2.7 30 7.8 1.6.6 3.2 1 4.8 1zM757 446c-15.3-10.2-29.7-12.2-47.4-5.7-10.8 4-26 12-32.3 35-2 8-1 15.5 3 20.7 2.5 3.4 6 5.3 9.6 5.3 2.8 0 5.5-1.3 7.3-3.5 7-8.4 16-15 26.6-18.8 10.3-3.8 21.6-5 32.3-3l1.8.3c4.5 0 8.2-3 9.6-7.5 1.8-6.4-.7-16-10.7-22.7zm-64.5-68.3c4.2 0 8-2.7 9.5-7.2 2.2-6 .4-15.5-8.6-23-10-8.2-20.4-12.2-31.7-12.2-4.7 0-9.6.7-15 2-11 3-26.8 9.6-35.3 32-3 8-2.4 16 1.4 21.4 2.5 3.5 6 5.6 9.6 5.6 2.6 0 5-1 6.8-2.8 7.7-7.8 17.4-13.4 28.2-16.2 10.7-2.8 22-2.8 32.5 0 .8.3 1.6.4 2.5.4zm-264.2 95c-3-.4-5.7-.6-8.3-.6-14 0-26 5.6-36.5 17-8 8.5-8.2 17.7-6 23 2 4.2 5.5 6.8 9.6 6.8 1.4 0 2.7-.3 4-.8 10-4.3 21-5.8 32-4.4 11.2 1.4 21.6 5.7 30.2 12.4 1.7 1.3 3.7 2 5.8 2 3.7 0 7.3-2.2 9.6-6 3.6-6 3.3-14.4-1-22.3-11.4-21.2-28-25.5-39.3-27zm-138-32.4c-17.6-6.5-32-4.5-47.2 5.8-10 7-12.4 16.4-10.4 22.7 1.4 4.5 5 7.5 9.5 7.5.7 0 1.3 0 2-.2 10.6-2 22-1 32.3 3 10.5 3.8 19.7 10.3 26.6 18.7 1.7 2.2 4.4 3.5 7.3 3.5 3.6 0 7-2 9.7-5.3 4-5.3 5-12.8 3-20.7-6.7-23-21.8-31-32.6-35zm97-49.5c3.7-5.5 4.3-13.5 1.3-21.4-8.5-22.5-24.3-29-35.4-32-5.4-1.3-10.2-2-15-2-11.2 0-21.6 4-31.6 12.3-9 7.4-10.8 17-8.6 23 1.6 4.3 5.2 7 9.5 7 1 0 1.8 0 2.6-.3 10.6-3 22-3 32.6 0 10.8 2.8 20.5 8.4 28.2 16 1.8 2 4.2 3 6.8 3 3.6 0 7-2 9.6-5.6zm487.2 2c7.3 29.7 11.3 60.6 11.3 92.4C885.8 698 712.8 871 500 871c-28.8 0-56.8-3.3-83.8-9.3-185 123-337 154.8-394 87.8-46.6-54.6-17.6-231.8 99-391.3-4.4-23.7-7-48-7-73 0-212.7 173.2-385.8 386-385.8 37 0 72.8 5.4 106.7 15.2 43.5-25.8 88.8-48.8 135.6-68 67-27.7 175.5-55 232 8.2 54.7 61.4 16.3 183.5-100 338zM674 141.2c92 46.8 163 129.2 194.2 229 40.7-84.6 62.5-165.7 10-221.6-41.4-44-118-37.2-204-7.3zM326.3 829.5c-93.2-47.2-164.7-131-195.4-232.6-42 84.7-63.5 167.4-19.4 226 44 45.2 121.3 42.7 214.8 6.6zM358 674c-12 2-24.5.6-35.8-3.7s-21.4-11.5-29-21c-3.3-4-12.2 3-8.8 16.2 5 18.6 15.8 26.4 28 31s25.3 6 41.3-4.6c11.3-7.7 9.4-19 4.3-18zm177 18c-10.8 6-23 8.7-35 8.5-12 .3-24.2-2.6-35-8.6-4.5-2.6-10 7.4-2 18.3 11.6 15.4 24 18.5 37 18.2 12.8.3 25.2-2.8 36.7-18.2 8.3-11 2.8-21-1.7-18.4zm172-43c-7.8 9.7-18 17-29.3 21.2S654 676 642 673.8c-5.2-1-7 10.4 4.3 18 16 10.5 29.3 9 41.4 4.5 12-4.6 23-12.4 27.8-31 3.5-13-5.4-20.2-8.6-16.2zm120-200.7c-1.7 2.2-4.4 3.5-7.3 3.5-3.6 0-7-2-9.7-5.3-4-5.2-5-12.7-3-20.6 3-10.2 7.3-17.5 12.4-22.7 5.8-6 10-10.5 7.6-18.4-4.5-14.8-10-29-16.4-43-2-4.3-10-7.8-16.5-5-9 4-16.7 10-22.8 17.4-1.8 2.2-4.5 3.5-7.4 3.5-3.6 0-7-2-9.7-5.4-4-5.2-5-12.7-2.8-20.6 4.3-15.7 12.6-24.4 21-29.6 6.8-4.4 7.6-14 3.8-19-62.2-85-162.7-140.4-276-140.4s-213.8 55.4-276 140.4c-4 5.2-3 14.7 3.8 19 8.3 5.2 16.6 14 21 29.6 2 8 1 15.4-3 20.6-2.6 3.4-6 5.3-9.7 5.3-2.8 0-5.5-1.4-7.3-3.6-6-7.5-14-13.4-23-17.3-6.4-2.8-14.3.7-16.4 5-6.4 14-11.8 28.2-16.4 43-2.5 7.8 1.7 12.3 7.5 18.3 5 5.3 9.5 12.5 12.3 22.6 2 7.8 1 15.2-3 20.5-2.5 3.4-6 5.3-9.6 5.3-3 0-5.6-1.3-7.4-3.5-4-5-9-2-8 6 .8 4.6 1.8 9 3 13.2 2 5.8 6.7 9.5 12.7 13 14.5 8.7 26.2 21.5 32 37.7 10.7 31 47.3 49 78.3 38.4 29.4-10.2 64 .6 82.2 26 18.7 26.3 58.5 32.8 84.5 13.7 12.4-9 27.5-13.5 42.5-13.4 15-.3 30 4.2 42.5 13.3 26 19 65.8 12.6 84.5-13.7 18-25.5 52.7-36.2 82.2-26 31 10.7 67.6-7.5 78.4-38.4 5.7-16.3 17.4-29 32-37.6 6-3.6 10.7-7.4 12.5-13 1.4-4.3 2.4-8.7 3-13.4 1-7.8-4-10.7-8-6z"/></svg>