<?xml version="1.0" encoding="utf-8"?>
<!-- Generator: Adobe Illustrator 17.1.0, SVG Export Plug-In . SVG Version: 6.00 Build 0)  -->
<!DOCTYPE svg PUBLIC "-//W3C//DTD SVG 1.1//EN" "http://www.w3.org/Graphics/SVG/1.1/DTD/svg11.dtd">
<svg version="1.1" id="Layer_1" xmlns="http://www.w3.org/2000/svg" xmlns:xlink="http://www.w3.org/1999/xlink" x="0px" y="0px"
	 viewBox="0 0 500 500" enable-background="new 0 0 500 500" xml:space="preserve">
<g>
	<path fill="#10497D" d="M402.7,126.4c-2-2.6-15.1-20.7-12.6-46.9C393.1,47.3,455,2.3,455,2.3S309.9,19.2,218.8,56.5
		C127.3,94,91,125.4,89.8,126.4H402.7z"/>
	<path fill="#10497D" d="M94.8,121.4c39.3-40,94.7-65.2,154.9-65.2c60.9,0,115.6,25.2,155.6,65.2c38.7,40,63.9,94.7,63.9,155.6
		c0,60.9-25.2,115.6-63.9,155.6c-40,40.6-94.7,65.2-155.6,65.2c-60.3,0-115.6-24.6-154.9-65.2C56,392.5,30.8,337.8,30.8,277
		C30.8,216.1,56,161.4,94.8,121.4 M361,165.7c-28.9-28.9-68.9-46.7-111.3-46.7s-81.8,17.8-110.1,46.7C111.4,194,93.5,233.3,93.5,277
		c0,43.6,17.8,83,46.1,111.3c28.3,28.9,67.6,46.7,110.1,46.7s82.4-17.8,111.3-46.7c27.7-28.3,45.5-67,45.5-111.3
		C406.5,232.7,388.6,194,361,165.7"/>
	<path fill="#FFFFFF" d="M69.9,277c0,99.5,80.6,180.1,180.1,180.1c99.5,0,180.1-80.6,180.1-180.1c0-99.5-80.6-180.1-180.1-180.1
		C150.5,96.8,69.9,177.5,69.9,277z"/>
	<path fill="#10497D" d="M250,398c-34.4,0-62.2-27.9-62.2-62.2h124.5C312.2,370.2,284.4,398,250,398"/>
	<path fill="#10497D" d="M210.4,253c0,20.2-10.1,36.6-22.6,36.6c-12.5,0-22.6-16.4-22.6-36.6c0-20.2,10.1-36.6,22.6-36.6
		C200.3,216.4,210.4,232.8,210.4,253"/>
	<path fill="#10497D" d="M334.8,253c0,20.2-10.1,36.6-22.6,36.6c-12.5,0-22.6-16.4-22.6-36.6c0-20.2,10.1-36.6,22.6-36.6
		C324.7,216.4,334.8,232.8,334.8,253"/>
</g>
</svg>
