<svg height='100px' width='100px'  fill="#000000" xmlns="http://www.w3.org/2000/svg" xmlns:xlink="http://www.w3.org/1999/xlink" version="1.1" x="0px" y="0px" viewBox="0 0 95 95" enable-background="new 0 0 95 95" xml:space="preserve"><g><g><g><path d="M47.5,91.333c-24.17,0-43.833-19.663-43.833-43.832c0-24.17,19.663-43.834,43.833-43.834s43.833,19.664,43.833,43.834     C91.333,71.67,71.67,91.333,47.5,91.333z M47.5,8.667c-21.412,0-38.833,17.421-38.833,38.834     c0,21.412,17.421,38.832,38.833,38.832s38.833-17.42,38.833-38.832C86.333,26.088,68.912,8.667,47.5,8.667z"></path></g></g><g><path d="M16.201,49.251h-4.464c0.268,5.557,1.803,10.781,4.321,15.392l3.899-2.251c0.238-0.139,0.545-0.057,0.684,0.182    l0.375,0.65c0.137,0.24,0.055,0.545-0.184,0.684l-3.897,2.25c2.968,4.851,7.056,8.939,11.907,11.906l2.25-3.896    c0.138-0.239,0.443-0.322,0.683-0.184l0.65,0.375c0.239,0.139,0.32,0.445,0.183,0.684l-2.252,3.898    c4.61,2.52,9.835,4.053,15.392,4.32v-4.463c0-0.277,0.224-0.5,0.5-0.5h2.502c0.276,0,0.5,0.223,0.5,0.5v4.463    c5.557-0.268,10.781-1.801,15.392-4.32l-2.252-3.898c-0.138-0.238-0.057-0.545,0.183-0.684l0.65-0.375    c0.239-0.139,0.545-0.056,0.683,0.184l2.25,3.896c4.852-2.967,8.94-7.056,11.908-11.906l-3.897-2.25    c-0.238-0.139-0.321-0.443-0.184-0.684l0.375-0.65c0.139-0.238,0.444-0.32,0.684-0.182l3.899,2.25    c2.519-4.609,4.053-9.834,4.32-15.391h-4.464c-0.277,0-0.5-0.224-0.5-0.5v-2.502c0-0.276,0.223-0.5,0.5-0.5h4.464    c-0.268-5.557-1.802-10.78-4.32-15.391l-3.898,2.252c-0.24,0.138-0.545,0.057-0.684-0.184l-0.377-0.65    c-0.137-0.238-0.055-0.545,0.186-0.682l3.896-2.25c-2.967-4.852-7.057-8.941-11.907-11.908l-2.25,3.896    c-0.139,0.24-0.443,0.322-0.684,0.184l-0.65-0.375c-0.238-0.139-0.32-0.444-0.182-0.684l2.251-3.898    c-4.61-2.52-9.834-4.053-15.392-4.32v4.463c0,0.277-0.224,0.5-0.5,0.5h-2.502c-0.276,0-0.5-0.223-0.5-0.5v-4.463    c-5.558,0.268-10.781,1.801-15.392,4.32l2.251,3.898c0.139,0.239,0.057,0.545-0.182,0.684l-0.65,0.375    c-0.24,0.139-0.545,0.057-0.684-0.184l-2.25-3.896c-4.851,2.967-8.939,7.057-11.907,11.907l3.897,2.251    c0.239,0.137,0.321,0.443,0.185,0.682l-0.376,0.65c-0.139,0.24-0.444,0.321-0.684,0.184l-3.899-2.252    c-2.519,4.609-4.053,9.834-4.32,15.391h4.464c0.277,0,0.5,0.224,0.5,0.5v2.502C16.701,49.027,16.479,49.251,16.201,49.251z     M46,43.798V22.333c0-0.828,0.672-1.5,1.5-1.5s1.5,0.672,1.5,1.5v21.465c1.464,0.594,2.499,2.025,2.499,3.703    c0,0.187-0.03,0.364-0.055,0.544l12.539,7.24c0.718,0.414,0.963,1.331,0.549,2.048c-0.414,0.718-1.332,0.965-2.049,0.55    l-12.539-7.238c-0.678,0.527-1.519,0.854-2.444,0.854c-2.209,0-3.999-1.79-3.999-3.998C43.501,45.823,44.536,44.392,46,43.798z"></path></g></g></svg>