<svg height="100" width="100" xmlns="http://www.w3.org/2000/svg" viewBox="0 0 55 55"><path d="M55 27.5C55 12.337 42.663 0 27.5 0S0 12.337 0 27.5c0 8.009 3.444 15.228 8.926 20.258l-.027.023.892.752.178.138c.475.393.966.766 1.466 1.127.162.117.323.235.488.348.534.368 1.082.717 1.642 1.048.122.072.245.142.368.212.613.349 1.239.677 1.88.98l.142.064c2.089.97 4.319 1.684 6.65 2.105l.184.033c.724.125 1.456.225 2.197.292.09.008.181.014.271.021.741.06 1.487.099 2.243.099.749 0 1.489-.039 2.222-.098.093-.007.186-.012.279-.021.735-.067 1.461-.164 2.178-.287l.187-.034c2.297-.412 4.494-1.109 6.557-2.055l.228-.103c.617-.29 1.22-.603 1.811-.936.147-.083.293-.167.439-.253.539-.317 1.067-.648 1.581-1 .186-.126.366-.259.549-.39.439-.316.87-.642 1.289-.983.093-.076.193-.14.284-.217l.915-.764-.027-.023C51.523 42.802 55 35.55 55 27.5zm-53 0C2 13.439 13.44 2 27.5 2S53 13.439 53 27.5c0 7.577-3.325 14.389-8.589 19.063-.294-.203-.59-.385-.893-.537l-8.467-4.233c-.76-.38-1.233-1.144-1.233-1.993v-2.957c.197-.242.404-.516.617-.818 1.096-1.547 1.975-3.269 2.617-5.123 1.266-.601 2.085-1.864 2.085-3.289v-3.545c0-.867-.319-1.708-.887-2.369v-4.667c.052-.519.236-3.448-1.883-5.864C34.524 9.065 31.541 8 27.5 8c-4.041 0-7.024 1.065-8.867 3.168-2.119 2.416-1.935 5.346-1.883 5.864v4.667c-.568.661-.887 1.502-.887 2.369v3.545c0 1.101.494 2.128 1.34 2.822.81 3.172 2.477 5.575 3.093 6.388v2.894c0 .816-.445 1.566-1.162 1.958l-7.907 4.312c-.253.138-.502.297-.753.477C5.276 41.792 2 35.022 2 27.5z" fill-rule="evenodd"/></svg>
