<?xml version="1.0" standalone="no"?>
<!DOCTYPE svg PUBLIC "-//W3C//DTD SVG 1.1//EN" "http://www.w3.org/Graphics/SVG/1.1/DTD/svg11.dtd" >
<svg xmlns="http://www.w3.org/2000/svg">
<metadata></metadata>
<defs>
<font id="fultonshandregular" horiz-adv-x="1136" >
<font-face units-per-em="2048" ascent="1638" descent="-410" />
<missing-glyph horiz-adv-x="866" />
<glyph horiz-adv-x="0" />
<glyph unicode="&#xd;" horiz-adv-x="866" />
<glyph unicode=" "  horiz-adv-x="866" />
<glyph unicode="&#x09;" horiz-adv-x="866" />
<glyph unicode="&#xa0;" horiz-adv-x="866" />
<glyph unicode="!" horiz-adv-x="1001" d="M295 135q0 43 38 59.5t89 16.5q66 0 117 -14q-8 -43 -15 -84q-12 -37 -59 -60q-39 -16 -76 -16q-94 0 -94 98zM557 594q0 25 65.5 239t120.5 379q68 201 81.5 218.5t36 25.5t50.5 8q18 0 44 -4t46 -8q-117 -211 -167 -356q-72 -201 -72 -385q-6 -84 -37 -129 q-37 -57 -113 -58l-53 4z" />
<glyph unicode="&#x22;" horiz-adv-x="944" d="M442 948q0 59 72 211q80 170 141 170q29 0 51.5 -24.5t22.5 -55.5q0 -16 -8 -37.5t-19 -37.5q-16 -25 -24 -37q-16 -25 -24.5 -40.5t-20.5 -45.5q-33 -78 -37 -86q-16 -33 -55 -48.5t-80 -15.5l2 21q-20 20 -21 26zM770 1042q0 72 56.5 170.5t117.5 141.5 q31 -25 45.5 -38t14.5 -50q0 -49 -33 -119q-82 -174 -86 -205q-51 0 -83 23.5t-32 76.5z" />
<glyph unicode="#" horiz-adv-x="1271" d="M160 662q0 49 32.5 68.5t83.5 19.5q27 0 74 -6.5t62 -6.5q66 0 98 41q25 29 47 103q-33 14 -74 18t-88 4q-31 0 -62.5 -1t-64.5 -1q31 88 190.5 118t176.5 138l12 98q16 61 62 62q45 0 79 -29l15 -49q0 -27 -11.5 -66.5t-21.5 -74.5l21 -19l90 -4q84 0 151.5 210 t112.5 210q33 0 51 -36t18 -75q0 -49 -33.5 -132t-62.5 -154q55 -14 88 -29.5t66 -48.5q-74 -20 -146 -41q-84 -33 -106 -102q10 -39 67.5 -68t67.5 -84q-242 -66 -267.5 -167t-135.5 -128q0 59 16 121q6 20 41 117q-39 10 -53 12q-37 8 -58 8q-55 0 -84 -45q-8 -14 -39 -96 q-14 -10 -36.5 -14.5t-46.5 -4.5q-16 0 -37 21q-12 12 -15 20q-98 12 -159 23q-121 23 -121 70zM659 866q0 -104 103 -104q63 0 107 40t44 103q0 51 -28.5 76t-81.5 25q-143 0 -144 -140z" />
<glyph unicode="$" horiz-adv-x="1601" d="M154 352q0 68 27.5 119t86.5 78q-12 -66 -12 -133q0 -55 18.5 -111.5t51.5 -111.5q37 35 43 40q8 8 8 25l6 14q100 164 212 333t222 335q135 207 219 348q35 59 56 82q43 49 84 49q23 0 38 -17.5t23 -41.5q-12 -51 -176 -262q-78 -102 -96 -178q152 18 254 127 q78 100 155 200q99 113 228 127q-23 -74 -93 -166q-84 -102 -120 -149q51 -35 69.5 -65.5t18.5 -63.5q0 -72 -181.5 -96.5t-181.5 -100.5q0 -23 51.5 -98.5t51.5 -149.5q0 -135 -132 -249q-98 -84 -288 -173q-139 -59 -277 -118q-25 90 -114 131q-31 -53 -60 -107 q-45 -66 -98 -65q-25 0 -36 11t-22 36q6 43 23 82q27 49 39 78q-8 27 -57 120q-41 80 -41 121zM422 211q0 -76 61 -76q78 0 224 193q100 131 180 274q-18 25 -43 42.5t-35 17.5q-27 0 -47 -27q-20 -37 -31 -51q-55 -82 -113.5 -146.5t-140.5 -138.5q-31 -31 -37 -39 q-18 -25 -18 -49zM694 154l31 -2q55 0 195.5 75.5t177.5 122.5q22 33 22 68q0 43 -33 90q-23 33 -67 78q-18 -20 -102 -94q-49 -43 -99 -123q-18 -31 -78 -133q-33 -55 -47 -82zM850 702q39 -14 80 -26q49 0 102 67q39 49 66 117l-17 19q-20 0 -36.5 -1t-61.5 -16 q-53 -25 -83 -62.5t-50 -97.5z" />
<glyph unicode="%" d="M154 37q0 100 176 325q168 209 338 420q193 256 219 414l-21 18q-23 0 -67.5 4.5t-67.5 4.5q-66 0 -119 -138.5t-200 -138.5q-74 0 -122 44t-48 122q0 129 174 250q160 111 297 111q59 0 112.5 -72t102.5 -72q27 0 77 9.5t68 9.5q39 0 49 -9q9 -6 25 -41 q-12 -61 -51 -122q-20 -33 -80 -109q-49 -63 -160 -207q-45 -57 -160 -211q-100 -133 -157 -211q-121 -203 -242 -405q-31 -10 -49 -10q-25 0 -47.5 4t-46.5 10zM342 1100q27 -14 53.5 -21.5t55.5 -7.5q59 0 86.5 34t27.5 95q0 27 -8 57.5t-20 61.5q-76 -66 -111 -96 q-59 -53 -84 -123zM637 301q0 84 109.5 235.5t185.5 151.5q47 0 76.5 -18.5t29.5 -63.5q0 -25 -28.5 -59.5t-28.5 -61.5q0 -12 27 -82q12 -33 12 -53q0 -106 -68 -145q-51 -31 -164 -31q-70 0 -106 27q-45 33 -45 100zM725 322q0 -29 31.5 -52.5t62.5 -23.5q53 0 99.5 41 t46.5 96q0 35 -29 65.5t-64 30.5q-53 0 -100 -51t-47 -106z" />
<glyph unicode="&#x26;" horiz-adv-x="1349" d="M160 322q0 188 114 352q106 152 281 246q10 16 51 190q57 244 314 244q72 0 109.5 -42t37.5 -116q0 -98 -92 -192q-199 -203 -199 -218q0 -78 107 -206q78 -94 157 -189q102 80 121 92q76 49 139 49l50 -4q-8 -82 -76 -151q-39 -41 -135 -105q20 -39 75 -102 q37 -41 56 -133q-12 -16 -54 -29.5t-73 -13.5l-27 6q-16 16 -31 41q-39 68 -45 74q-2 2 -26.5 10t-28.5 8q-39 0 -227.5 -88t-300.5 -88q-135 0 -216 110.5t-81 254.5zM336 406q0 -115 65.5 -195t176.5 -80q92 0 170 41q98 51 98 135q0 57 -105 217q-137 209 -143 221 q-14 -14 -28.5 -18t-26.5 -22q-61 -43 -123 -87q-45 -49 -64.5 -98t-19.5 -114zM694 1079q0 -43 29 -73.5t72 -30.5q61 0 108 72.5t47 138.5q0 90 -84 90q-59 0 -115.5 -66.5t-56.5 -130.5z" />
<glyph unicode="'" horiz-adv-x="288" d="M227 1071q0 57 42 239.5t70 209t56 26.5q37 0 51.5 -26.5t14.5 -67.5q0 -49 -46 -218t-75 -183q-16 -8 -57 -9.5t-54 -1.5z" />
<glyph unicode="(" horiz-adv-x="886" d="M4 649q0 223 254 583.5t420 360.5q27 0 51 -20q14 -12 41 -43q-254 -162 -442 -377q-244 -279 -244 -516q0 -106 76 -227q27 -41 147 -195l21 -2q6 -12 71 -59q43 -31 82 -58h19l39 -59l-19 -19h-20l-19 19l-41 -4q-190 0 -321 219q-115 193 -115 397z" />
<glyph unicode=")" horiz-adv-x="712" d="M160 1647q0 29 20.5 45t48.5 16q57 0 179 -242q102 -203 201.5 -476t99.5 -345q0 -172 -185 -381q-147 -168 -334 -282v34q0 53 101 144q141 129 190 198q102 147 103 332q0 164 -139.5 427t-284.5 530z" />
<glyph unicode="*" horiz-adv-x="1638" d="M152 825q0 31 16 44.5t35 19.5q27 0 82 -22.5t80 -22.5q98 0 186 18.5t199 59.5q-102 70 -166 116q-123 92 -123 140q0 43 12 57t57 35q78 -12 175 -96q133 -117 161 -134q70 145 113 226q80 147 158 166q0 -45 -19 -105q-43 -139 -43 -174l4 -35q39 25 154 131 q176 162 291 162q-14 -109 -232 -258q-131 -84 -174 -113l51 -2q68 0 168 19q226 41 283 41q0 -37 -4 -60q-10 -37 -14 -57q-33 8 -66 12t-72 4q-109 0 -235 -43q-53 -18 -225 -92q66 -121 104 -196q74 -145 74 -189q0 -27 -27 -55.5t-55 -28.5q-49 0 -119 146l-94 204 q-76 -61 -129 -165q-18 -37 -123 -342q-12 6 -32.5 12t-45.5 6q0 66 31 154q70 199 69 251l-2 48l-151 -93q-33 -23 -133 -151q-82 -106 -135 -107q-43 0 -82 35q61 70 135 135q27 25 250 199q-14 2 -44 2h-49q-131 0 -190 12q-104 23 -104 86z" />
<glyph unicode="+" horiz-adv-x="1581" d="M160 551q0 41 33.5 67.5t76.5 26.5q16 0 46 -19.5t38 -19.5q68 -6 142 -6h70.5t70.5 2q217 0 219 249t102 249q86 0 86 -80q0 -35 -43 -162q-20 -59 -20 -98q0 -59 37 -80t100 -21q59 0 217 19q88 10 131 10t72 -26.5t43 -73.5q-35 -14 -74 -29.5t-71 -15.5q-51 0 -131 8 q-178 18 -226 18q-111 0 -143 -123q-12 -47 -19.5 -217t-48.5 -196q-16 -10 -81.5 -13.5t-73.5 -3.5q0 23 -2 44.5t-4 43.5q0 53 24 125q57 166 57 209q0 49 -35.5 68.5t-86.5 19.5q-66 0 -142 -20q-190 -51 -233 -51q-51 0 -86 20q-45 27 -45 76z" />
<glyph unicode="," horiz-adv-x="520" d="M152 -391q72 115 120 194q94 156 95 187q0 39 -80 145q-39 51 -39 90q0 37 44 73t81 36t85 -104.5t48 -153.5q0 -141 -88 -297q-100 -176 -230 -176z" />
<glyph unicode="-" d="M229 412v18l19 21q0 33 9 57t32 41q2 2 75.5 6t77.5 4q90 0 238 21q326 45 377 45q41 0 61.5 -16.5t20.5 -57.5q0 -45 -14.5 -78t-53.5 -33q-25 0 -61 15q-82 33 -103 32q-74 0 -348 -61q-127 -29 -211 -29q-61 0 -119 15z" />
<glyph unicode="." horiz-adv-x="559" d="M311 84q0 45 32 59.5t83 14.5q70 0 133 -23q-8 -35 -14 -67q-12 -35 -49 -35q-31 -4 -54 -15q-31 -23 -49 -35t-24 -12q-23 0 -40.5 42t-17.5 71z" />
<glyph unicode="/" horiz-adv-x="1331" d="M31 -246q0 63 33.5 121.5t111.5 140.5q66 68 133 136q98 109 189.5 220t187.5 238q18 23 176 240q158 268 248 410q98 152 143 172q27 -6 54.5 -42t27.5 -65q0 -63 -229 -362q-172 -225 -453 -564q-295 -356 -325 -397q-18 -25 -60 -106q-82 -162 -100 -177 q-10 -6 -62.5 -18t-68.5 -14z" />
<glyph unicode="0" horiz-adv-x="1368" d="M168 45q0 233 272 561q281 336 504 336q160 0 283 -84q141 -96 141 -252q0 -365 -263 -636t-624 -271q-143 0 -228 98.5t-85 247.5zM334 96q0 -111 61.5 -170t169.5 -59q225 0 435 227.5t210 458.5q0 117 -76.5 178.5t-193.5 61.5q-215 0 -410.5 -235.5t-195.5 -461.5z " />
<glyph unicode="1" horiz-adv-x="346" d="M154 -18q0 51 10 126.5t17 131t9.5 132.5t2.5 175q0 49 4 88q14 139 14 149t-11.5 33t-11.5 33q0 12 28 37.5t34 34.5h12q53 0 72 -35q12 -25 12 -82q0 -82 -8 -201q-18 -270 -19 -336q0 -90 5.5 -142t21.5 -126q-70 -16 -87 -19.5t-44 -3.5z" />
<glyph unicode="2" horiz-adv-x="1079" d="M150 33q0 33 15 48t52 30q16 6 44 13l52 13q156 41 383 197q266 182 267 311q0 131 -140 131q-63 0 -141 -37q-176 -84 -223 -84t-47 50q0 104 174 159q129 41 266 41q109 0 169 -58t60 -171q0 -150 -147 -291q-111 -106 -281 -190q90 -57 131 -95q70 -66 82 -137 q-68 20 -118 37q-143 43 -209 43q-70 0 -162 -43t-123 -43q-41 0 -72.5 18.5t-31.5 57.5z" />
<glyph unicode="3" horiz-adv-x="925" d="M166 72q0 35 29.5 54t70.5 28q14 -57 78 -84q45 -18 119 -19q88 0 172 29q117 41 117 110q0 72 -76 99q-47 16 -144 16h-40q-39 0 -67 23.5t-28 62.5q0 55 156 111q182 63 238 143q-55 51 -110.5 69.5t-127.5 18.5q-29 0 -102.5 -4t-85.5 -4q-43 0 -66 8q-37 14 -37 51 q0 39 40 73t83 44l16 -18q217 -18 316 -47q209 -62 209 -191q0 -57 -64 -129q-6 -8 -110 -104q61 -39 96 -88q43 -59 43 -127q0 -121 -113 -193q-96 -61 -225 -61q-131 0 -223 18q-164 33 -164 111z" />
<glyph unicode="4" horiz-adv-x="1097" d="M164 244q0 20 22 49q12 14 41 41q10 8 279 325q111 131 121 132q20 0 34.5 -28t14.5 -54q0 -16 -74 -115q-100 -131 -199 -262q109 -49 166 -70q111 -41 172 -41q117 0 164 189q16 66 41 352q16 190 62 190q41 0 67 -53q21 -41 21 -88q0 -70 -52 -281 q-31 -129 -107.5 -402t-84.5 -310q-23 -94 -121 -111q0 53 27 209q14 84 14 127q0 72 -151 117q-117 35 -218 35q-18 0 -47 -9q-66 -18 -82 -18q-37 0 -73.5 20.5t-36.5 55.5z" />
<glyph unicode="5" horiz-adv-x="1157" d="M154 39q70 0 163 -27q217 -61 275 -61q104 0 213 59q129 70 129 166q0 66 -70.5 108t-140.5 42q-43 0 -98 -11q-131 -25 -164 -24q-61 0 -105 14q-68 23 -67 72q0 25 20.5 70t38.5 77q14 35 33.5 77t36.5 61q215 35 375 86q174 57 268 213l18 2q6 -8 47 -39 q31 -23 31 -50q0 -82 -149 -141q-154 -53 -306 -104q-184 -78 -241 -199q6 -2 304 -20.5t298 -251.5q0 -131 -143 -226q-129 -86 -267 -86q-141 0 -293 41q-207 55 -206 152z" />
<glyph unicode="6" horiz-adv-x="1157" d="M154 35q0 53 11 97t36.5 99.5t55.5 98.5t69 80l94 94q39 39 92 100q106 147 215 297q39 39 82 39q78 0 78 -82q0 -66 -152 -227q-143 -150 -284 -299q-154 -178 -154 -273q0 -84 60.5 -150.5t142.5 -66.5q27 0 48 7.5t38 25.5q10 197 108 330q106 145 312 145 q82 0 117.5 -44t35.5 -130q0 -213 -231 -330q-182 -92 -420 -92q-154 0 -244 60q-111 74 -110 221zM705 -35q0 -33 20 -46t55 -13q78 0 170 85t92 163q0 33 -21.5 48t-55.5 15q-70 0 -165 -91t-95 -161z" />
<glyph unicode="7" horiz-adv-x="1466" d="M172 715q0 43 30.5 59.5t76.5 16.5q33 0 75 -7q102 -14 127 -14q74 0 254 25.5t230 48.5q92 49 155 78q123 57 174 57q37 0 64.5 -27.5t27.5 -64.5q0 -39 -83 -180q-211 -356 -224 -394q43 0 101 11q135 25 168 24q55 0 86.5 -20.5t31.5 -77.5q6 -25 -17.5 -43.5 t-47.5 -13.5q-23 0 -77 11t-71 11q-217 0 -303 -186q-33 -70 -84 -379q-106 18 -112 20q-53 18 -80 78q61 90 107 197.5t46 189.5q-72 -27 -143 -51q-100 -33 -145 -33q-53 0 -95.5 36t-42.5 91q0 35 47.5 48.5t120.5 13.5q37 0 78 -3.5t86 -5.5q158 0 277 209 q53 96 147 363q-121 0 -273.5 -44t-303 -88t-273.5 -44q-66 0 -100.5 25.5t-34.5 62.5z" />
<glyph unicode="8" horiz-adv-x="1118" d="M166 686q0 141 172 209q125 49 285 49h59q145 0 221 -24q121 -39 121 -146q0 -45 -33 -57t-88 -12h-26h-29q-6 78 -82 116q-59 31 -148 31q-88 0 -190 -39q-131 -49 -131 -125q0 -16 125 -104q258 -180 301 -181q57 0 194.5 73t200.5 73q-20 -37 -227 -191 q-84 -61 -84 -94q0 -14 53 -180q29 -90 29 -139q0 -129 -125 -183q-88 -37 -240 -36q-104 0 -200 41q-125 53 -125 147q0 96 215 283q82 68 164 137q-123 72 -246 145q-166 115 -166 207zM346 -84q0 -51 55 -76q41 -18 99 -18q106 0 168 22q100 37 100 123q0 41 -25 96 q-8 16 -88 150q-98 -47 -188 -121q-121 -98 -121 -176z" />
<glyph unicode="9" horiz-adv-x="962" d="M162 412q0 178 221 360q197 162 389 209q98 -31 146 -78q57 -57 57 -153q0 -141 -82 -293q-31 -55 -160 -240q-90 -129 -99 -199.5t-27.5 -140.5t-49.5 -133q-14 -27 -32.5 -41t-47.5 -14t-41 2q-35 8 -69 14q0 53 106 275q72 145 143 292l-161 -4q-121 0 -183 19 q-111 33 -110 125zM299 459q0 -55 39 -83t98 -28q68 0 132.5 25.5t105.5 77.5q16 18 31 47q23 43 26 49q51 63 72 92q37 52 37 115q0 76 -78 75q-125 0 -294 -125.5t-169 -244.5z" />
<glyph unicode=":" horiz-adv-x="577" d="M287 403q0 49 31.5 87t78.5 38q45 0 64 -41q12 -26 12 -51q0 -102 -106 -102q-39 0 -59.5 15.5t-20.5 53.5zM401 862q0 12 2 21q0 43 36 78.5t77 35.5q31 0 57.5 -32.5t26.5 -65.5q0 -35 -50 -55.5t-147 -20.5q-2 27 -2 39z" />
<glyph unicode=";" horiz-adv-x="808" d="M152 -487q0 18 129 118q168 129 239 205q129 135 129 242q0 59 -32.5 112.5t-32.5 63.5q0 29 24.5 55.5t53.5 26.5q61 0 102 -82q35 -69 35 -139q0 -205 -228 -398q-190 -160 -417 -227zM551 860q0 31 6 41q18 29 33.5 39t34.5 10q37 0 59.5 -49t28.5 -98 q-78 -18 -154 -19q-8 33 -8 76z" />
<glyph unicode="&#x3c;" horiz-adv-x="1427" d="M154 469v41q0 49 49 72.5t102 23.5q51 0 299 178q170 123 436 332q113 88 228 178q39 0 47 -16q0 -2 16 -43q0 -78 -186 -231q-129 -106 -377 -269q-276 -180 -287 -188q47 -35 252 -105q328 -111 328 -276v-68q-84 0 -180 80q-170 141 -185 150q-127 82 -274 82 q-31 0 -67 -19.5t-68 -38.5q-10 57 -38 79t-95 38z" />
<glyph unicode="=" horiz-adv-x="1040" d="M150 446q0 49 34.5 76t85.5 27q31 0 129 -29q49 -14 84 -14q55 0 182.5 11t165.5 11q82 0 109 -13t27 -48q0 -47 -31 -66q-23 -12 -72 -12q-37 2 -53 2q-104 0 -246 -6q-330 -14 -411 -14q0 12 -2 37.5t-2 37.5zM252 748q0 35 36 74.5t70 39.5q25 0 74 -19.5t68 -19.5 h168q135 0 192 -8q112 -17 180 -70q-37 -41 -85 -55t-113 -14h-78q-72 0 -237 4t-175 4q-41 0 -70.5 12.5t-29.5 51.5z" />
<glyph unicode="&#x3e;" horiz-adv-x="1542" d="M326 98v37q100 12 317 152q205 131 381 293q188 172 211 260q-20 68 -182 145q-143 66 -287 131q-152 82 -152 162q0 35 25 65q16 20 55 50q127 -102 256 -205q150 -115 277 -172q159 -74 315 -74q0 -59 -5 -96t-24.5 -75t-242.5 -191q-369 -254 -432 -301 q-250 -182 -318 -281q-31 -41 -74 -41q-33 0 -62.5 16.5t-49.5 44.5q-8 35 -8 80z" />
<glyph unicode="?" horiz-adv-x="1157" d="M328 20q10 70 35.5 106t91.5 36q41 0 65.5 -24.5t24.5 -67.5q0 -37 -39 -52q-25 -8 -72 -8q-49 0 -106 10zM367 526q0 76 143 169t289 188q172 129 223 274q-31 31 -51.5 42t-61.5 11q-63 0 -282 -71q-100 -33 -166 -33q-23 0 -37 9t-14 32q0 78 179 127t417 49 q12 2 20 2q59 0 97 -35.5t38 -101.5q0 -121 -114 -244q-80 -86 -250 -199q-121 -80 -240 -157q-31 -23 -59.5 -112t-94.5 -103q-29 88 -32.5 104.5t-3.5 48.5z" />
<glyph unicode="@" horiz-adv-x="1771" d="M162 303q0 346 373 651q356 291 708 291q209 0 338 -82q154 -98 154 -299q0 -231 -318 -383q-262 -125 -520 -125q-84 0 -131 33q-55 39 -55 121q0 139 172 260q160 113 305 113q115 0 147 -99q16 -49 17 -196q111 27 185.5 113.5t74.5 203.5q0 141 -113 207 q-92 53 -242 53q-309 0 -610 -243q-319 -258 -319 -566q0 -154 97 -257t247 -103q145 0 339.5 40t409.5 103q175 52 351 115l-17 -21l2 -18q-45 -49 -276 -129q-201 -68 -438.5 -125t-311.5 -57q-231 0 -379 80q-190 102 -190 319zM797 541q0 -45 27.5 -72t72.5 -27 q61 0 104 39q111 98 132.5 102.5t42 15.5t34.5 28q27 30 27 65q0 43 -26.5 67.5t-67.5 24.5q-98 0 -213 -69q-133 -80 -133 -174z" />
<glyph unicode="A" horiz-adv-x="1484" d="M152 18q8 74 77 175q57 80 117 159l-117 39v21q0 96 101 110q131 20 198 174q31 68 56 103q45 63 90 63q47 0 80 -22q86 47 266 256q256 297 303 346q172 174 279 174l57 -6q-33 -188 -168 -486q-117 -250 -234.5 -512t-117.5 -417q0 -70 80 -177q37 -47 73 -94l-43 -6 q-8 -2 -24 -2q-84 0 -144.5 78t-60.5 172q0 29 27 143q12 53 12 84q0 4 -12.5 37t-12.5 35q-35 18 -79 23.5t-109 5.5h-46.5h-29.5q-178 0 -276 -123q-68 -115 -134 -230q-78 -123 -208 -123zM629 721l20 -21l19 21v20l-19 19l-20 -19v-20zM664 770q4 -12 8 -25 q12 10 27.5 24t15.5 24l-4 51l-21 -23q-31 0 -31 -21q0 -15 5 -30zM672 606q55 -12 110 -26q127 -35 191 -35q35 0 58.5 5t50 19.5t169.5 284.5q129 244 166 326q31 74 48.5 138t17.5 134q-170 -117 -438.5 -394.5t-372.5 -451.5z" />
<glyph unicode="B" horiz-adv-x="1271" d="M176 104q0 14 2 25q2 12 12 45q111 -63 153 -80.5t87 -17.5q129 0 404 114q303 127 303 232q0 66 -117 104q-86 29 -172 29q-170 0 -279 -106q-96 -94 -145 -275l-117 21q0 109 105 305q98 168 196 338q106 188 107 272l-4 27q-37 -12 -105.5 -57.5t-105.5 -59.5 q-20 23 -21 31v28q0 106 226 178q178 57 317 58q135 0 192 -23q97 -38 97 -155q0 -129 -158 -273q-45 -41 -268 -198q162 -37 241 -66q145 -51 146 -174q0 -188 -363 -330q-296 -116 -524 -116h-4q-70 0 -127 26q-78 35 -78 98zM692 686l39 39q90 8 262 152q181 151 181 237 q0 53 -49.5 80t-106.5 27q-51 0 -107 -19q-37 -12 -102 -45q20 -45 20 -86q0 -53 -68.5 -186t-68.5 -199z" />
<glyph unicode="C" horiz-adv-x="1445" d="M172 371q0 266 320.5 615t578.5 349q123 0 186.5 -55t63.5 -180q0 -53 -10.5 -123t-18.5 -131q-68 10 -84 18t-43 58q14 57 21.5 97t7.5 79q0 55 -35 84.5t-92 29.5q-238 0 -507 -305t-269 -551q0 -160 151 -239q123 -66 293 -66q98 0 230 15q49 6 229 30q45 6 121 35 t110 35q13 -18 21 -49q-180 -47 -371.5 -94.5t-357.5 -47.5q-233 0 -371 78q-174 98 -174 318z" />
<glyph unicode="D" horiz-adv-x="1388" d="M-111 41q0 33 29 57.5t64 36.5q-2 -20 -2 -29q0 -74 49 -102q37 -22 122 -22h7q172 0 434 96q281 104 471 256q223 180 223 362q0 217 -350 428q-317 190 -551 191h-41q-49 0 -76.5 3t-54.5 15q-43 14 -57 45q0 33 40 53.5t74 20.5q193 0 451 -102q281 -111 457 -273 q208 -190 208 -393q0 -223 -231 -418q-193 -162 -508 -270q-285 -98 -491 -98q-98 0 -166 24q-100 37 -101 119zM375 285q0 45 76 135q53 63 108 129q31 49 98 207q106 252 230 303l18 -19l2 -51q0 -66 -76 -184q-29 -45 -155 -221q-96 -133 -120 -195.5t-46 -128.5 q-27 -45 -61 -45q-27 0 -50.5 21.5t-23.5 48.5z" />
<glyph unicode="E" horiz-adv-x="1157" d="M249 459.5q95 156.5 107 257.5q113 88 228 178q90 156 180 311q94 111 424 111q78 0 170 -17q12 -2 280 -64q-47 -20 -110.5 -32t-124.5 -12q-45 0 -135 6t-135 6q-154 0 -287 -143q-59 -63 -193 -277q98 -14 199 -26q147 -27 170 -72q-55 -23 -285 -61 q-201 -33 -288 -90q-131 -84 -132 -263q0 -119 168 -166q101 -28 256 -28h11q41 0 94 6q125 14 158 14q57 0 93 -11t58 -48q-39 -18 -216 -25.5t-294 -7.5q-170 0 -299 43q-192 63 -192 200q0 54 95 210.5z" />
<glyph unicode="F" horiz-adv-x="1292" d="M154 0q0 72 110 281q102 186 207 372q113 207 113 265q0 29 -23 53q-63 66 -65 76l4 32l45 47q199 31 475 142q459 184 467 188q274 94 500 94q68 0 111 -16.5t61 -69.5q0 -14 -7 -37q-2 -4 -12 -34q-49 37 -111.5 54t-132.5 17q-143 0 -557.5 -144t-488.5 -235 q-33 -43 -119 -196q-45 -82 -76 -123q16 -4 42 -8t32 -4q61 0 180 25.5t174 25.5q94 0 121 -4q72 -12 107 -56q-186 -41 -371 -79q-211 -51 -362 -117q-90 -39 -156 -195q-53 -131 -105 -260q-66 -131 -163 -131v37z" />
<glyph unicode="G" horiz-adv-x="1677" d="M152 297q0 215 317 512q276 260 663.5 470t581.5 210q123 0 135 -115q-260 -63 -585 -198q-416 -174 -668 -367q-317 -242 -317 -477q0 -141 149 -209q113 -51 272 -51q317 0 494 94q236 127 236 422l-3 18q-88 -33 -176 -65q-119 -41 -178 -41q-90 0 -90 90 q0 18 11.5 40.5t27.5 32t54 13.5t83 4q29 0 49.5 -1t34.5 -1q47 4 266 76q97 32 153 32h3l33 -2q-16 -133 -99 -292q-35 -68 -165 -285q-109 -180 -148 -287q-12 -37 -33.5 -58.5t-56.5 -21.5q-74 0 -100 58q6 29 23.5 61.5t35.5 58.5q-23 20 -25 21q-14 -2 -30 -2 q-66 0 -299 -25q-117 -12 -183 -12q-178 0 -301 59q-166 80 -165 238z" />
<glyph unicode="H" horiz-adv-x="1697" d="M158 821q0 12 4 26.5t10 35.5l51 37q61 -25 154 -136q182 -217 241 -217q66 0 173 158q94 154 188 307q111 176 176 203q10 -25 15.5 -42t5.5 -40q0 -104 -103 -233q-274 -348 -282 -373q8 -12 25.5 -22.5t39.5 -18.5q47 10 188 18q238 14 306 62q76 53 172 254 q82 188 164 377q98 223 163 303q10 2 21 4q31 8 39 8l76 -2q-49 -121 -138 -293q-10 -18 -164 -307q-98 -186 -153 -305q-37 -80 -129 -212t-180 -259q-104 -156 -148 -250q-18 -49 -31 -82q-25 -63 -40 -74.5t-49.5 -15.5t-104.5 -4q0 76 184 358q119 182 240 365 q-33 8 -61.5 10t-67.5 2q-322 0 -500 -119q-86 -57 -207 -225q-88 -121 -180 -121l-27 2q10 88 95 186q127 141 254 285q-145 61 -254 137q-166 115 -166 213z" />
<glyph unicode="I" horiz-adv-x="1427" d="M354.5 71q200.5 25 270.5 107q92 109 227 422t160 465q-12 27 -28.5 34t-51.5 7q-66 0 -150 -33q-193 -76 -254 -76l-47 4v50q0 37 4 51q12 49 265 98q203 41 457.5 67.5t336.5 26.5q49 0 86 -25.5t47 -72.5q-84 -25 -252 -29t-241 -22q-14 -16 -27 -70 q-33 -141 -39 -153l-387 -805q78 -16 148 -17q82 0 192 25q258 57 311 57q66 0 66 -65q0 -61 -48 -84t-124 -23q-33 0 -88 4t-70 4q-121 0 -283.5 -35.5t-328.5 -72.5t-275 -37q-77 0 -77 88q0 85 200.5 110z" />
<glyph unicode="J" horiz-adv-x="1175" d="M154 489l36 39q14 -14 39 -18q49 -170 133 -260q104 -113 265 -113q152 0 233 168q57 119 86 359q16 160 33 321q31 145 61 291q0 33 -29.5 51.5t-64.5 18.5q-78 0 -213 -62.5t-178 -62.5q-37 0 -65.5 24.5t-28.5 65.5q0 25 61.5 75t93.5 66q25 0 48 -27q10 -12 18 -12 q10 0 29 21q178 0 358 23.5t397 70.5q29 -8 62 -18.5t51 -65.5q-10 -49 -55 -84t-101 -47q-8 6 -61 49q-31 25 -72 33l-45 -23q-57 -84 -131 -457q-90 -455 -143 -612q-102 -307 -242 -307q-182 0 -373 151q-203 162 -202 342z" />
<glyph unicode="K" horiz-adv-x="1079" d="M154 174q70 41 108 121q39 100 64 156l-37 38q-18 -2 -19 -8v-30q-6 16 -30.5 59t-24.5 57q0 27 23 62q33 51 67 104q-10 47 -18 96q0 29 18 76q41 102 41 133t-4 58.5t-8 68.5q0 33 18.5 55.5t50.5 34.5q18 -49 25.5 -96t7.5 -108q0 -49 -2 -98.5t-4 -98.5 q0 -66 12 -127q82 35 276.5 170t264.5 205q8 8 145 170q59 70 66 71q27 -16 35 -51t8 -86q0 -96 -180 -227q-168 -109 -336 -215q-180 -117 -180 -178q0 -53 118.5 -123t235.5 -135q133 -78 152 -127q10 -27 12 -71t2 -52v-41q-63 0 -170 92q-195 168 -211 180 q-141 104 -277 121q-38 -176 -38 -363v-10q-113 18 -148 41t-63 76z" />
<glyph unicode="L" horiz-adv-x="1292" d="M160 47q0 31 63 121q23 31 88 115q158 219 281 467.5t196 504.5q33 104 56 140q31 47 67 47q31 0 58.5 -36t27.5 -69q0 -35 -129 -297q-74 -152 -258 -503q-94 -180 -188 -361q131 -31 295 -31q94 0 286.5 14.5t288.5 14.5l4 -55l-4 -41q-16 -16 -43 -31q-63 -35 -73 -47 l-25 -2q-16 0 -201 33q-92 16 -141 16q-84 0 -197 -20q-258 -47 -317 -47q-49 0 -82 10q-53 16 -53 57z" />
<glyph unicode="M" horiz-adv-x="1830" d="M152 0l110 246q78 170 213 465q115 252 127 268q33 51 78 71.5t70 36.5q16 33 27 83.5t71 105.5q80 -72 119 -221q10 -37 55 -449h18q61 0 263 205q182 193 364 385q203 207 260 207q27 -14 55 -29q13 -28 25 -57q-16 -88 -92 -273q-18 -45 -154 -350q-94 -213 -121 -284 q-55 -184 -93 -285.5t-62 -114.5q-14 -6 -58.5 -16t-58.5 -12l-6 65q0 102 90 305q84 184 173 386t89 321q-57 -29 -237 -205q-270 -266 -310 -301q-170 -156 -227 -156q-86 0 -109 316q-14 197 -22 229q-45 -66 -173 -347.5t-212 -401.5q-135 -193 -272 -193z" />
<glyph unicode="N" horiz-adv-x="1484" d="M152 135q117 156 176 238q178 242 208.5 290t96.5 224q31 82 61 133q100 -57 158 -189q25 -57 78 -258q43 -164 90 -239q96 197 194 393q162 313 289 502q170 252 269 262l18 -76q-12 -27 -84 -88q-90 -78 -104 -94q-53 -66 -172 -295q-127 -246 -209 -444 q-100 -242 -101 -320q0 -43 -13 -80t-46 -59q-10 -8 -76 -29q-41 -12 -80 -24q-37 168 -71 335q-43 182 -101 330q-213 -274 -330 -416q-123 -150 -194 -157l-43 12z" />
<glyph unicode="O" horiz-adv-x="1677" d="M172 311q0 209 113 385q88 137 268 289q156 125 313 252q80 72 160 143q102 82 193 82q201 0 321 -254q98 -207 98 -436q0 -250 -262 -520t-510 -270h-114q-254 0 -377 45q-203 74 -203 284zM307 387q0 -127 162 -211q135 -70 274 -70q344 0 537 293q166 252 166 619 q0 119 -84 160q-57 28 -186 28h-9q-111 0 -323 -155q-199 -145 -363 -340q-174 -207 -174 -324z" />
<glyph unicode="P" horiz-adv-x="1331" d="M166 84q0 43 65 127q47 59 95 121q16 25 41 164q10 61 36 92l58 -39q88 127 178 254q115 178 115 276q-63 -35 -103 -49q-55 -23 -112 -31v21l-19 20l19 76q88 68 328.5 142.5t367.5 74.5q129 0 202.5 -69.5t73.5 -198.5q0 -213 -174 -365q-135 -119 -393 -211 q-115 -41 -405 -118q-119 -31 -185 -187.5t-125 -179.5q-23 10 -36 21q-27 18 -27 59zM557 508l18 -21h19q184 0 485 181q328 196 328 366q0 94 -62.5 142.5t-158.5 48.5q-43 0 -88 -10.5t-83 -27t-66.5 -39t-45.5 -52.5q-29 -70 -57 -138q-80 -109 -158 -217 q-86 -125 -131 -233z" />
<glyph unicode="Q" horiz-adv-x="1466" d="M158 246q0 188 245 434q221 219 529.5 387t490.5 168q10 0 19 -2q27 -10 37 -12q39 -25 58 -79.5t19 -107.5q0 -166 -92 -354q-63 -129 -174 -285q-96 -135 -96 -141q0 -43 12 -96q29 -127 29 -158q0 -166 -37 -272q-53 -154 -176 -197v18l-8 11q37 102 59 182 q31 115 31 190q0 90 -17 144q-25 82 -88 104q-12 -2 -348 -133q-127 -49 -227 -49q-115 0 -190.5 65.5t-75.5 182.5zM358 143q51 -30 133 -30h5q88 0 182 30q72 23 285 131q-61 55 -123 111q-90 90 -90 129q0 16 7 33.5t19 36.5q12 6 21 8q20 8 22 8q63 0 153.5 -102.5 t131.5 -102.5q104 0 244 258q131 242 131 359q0 45 -23.5 75.5t-66.5 49.5q-14 -12 -26.5 -37t-12.5 -43q-188 0 -439.5 -117t-423.5 -291q-192 -196 -192 -387q0 -82 63 -119z" />
<glyph unicode="R" horiz-adv-x="1523" d="M154 272q29 23 104.5 140.5t87.5 154.5l-39 41q8 31 221 238q86 84 86 192q0 41 -12 90q33 51 94 107q18 16 115 94q16 -10 35.5 -12t46.5 -2q109 0 260.5 55t306 110.5t283.5 55.5q59 0 100 -30t41 -87q0 -172 -254 -344q-186 -127 -526 -260q-225 -84 -449 -168 q131 -135 248 -330q139 -233 139 -378q0 -63 -36.5 -95t-100.5 -39q0 184 -112 435q-133 292 -288 292h-1q-78 0 -137 -135q-68 -152 -127 -172q-51 10 -56 13q-33 12 -30 34zM616 803l19 -19l76 -4q98 0 342 103q258 109 438 229q217 146 217 242q0 41 -27.5 57t-68.5 16 q-18 0 -40 -3t-50 -11q-205 -55 -353 -117q-217 -88 -344 -192q-162 -131 -209 -301z" />
<glyph unicode="S" horiz-adv-x="1484" d="M150 283q0 100 79 168q0 -145 37 -238q53 -135 176 -135q207 0 502 96q371 121 371 281q0 131 -256 182q-240 31 -477 63q-258 43 -258 156t274 236q174 78 553 196q352 111 412 144q23 -12 53 -21.5t61 -17.5q-63 -80 -319 -144q-432 -106 -484 -125q-285 -98 -413 -262 q72 -35 372 -92t431 -106q215 -80 215 -201q0 -158 -209 -279q-168 -98 -439 -155q-217 -47 -376 -47q-119 0 -212 89t-93 212z" />
<glyph unicode="T" horiz-adv-x="1445" d="M147 1120l37 72q33 12 56.5 17t46.5 5q20 0 60 -3t50 -3q227 0 528.5 75t581.5 149q324 79 530 79h5q57 0 73.5 -8t49.5 -51q-31 -82 -98.5 -120t-159.5 -38l39 78q-51 14 -117 14q-94 0 -330.5 -46t-304.5 -85q-55 -180 -100 -324.5t-103 -238.5q-106 -172 -211 -342 q-117 -201 -164 -368l-155 36q16 96 157 312q197 299 252 409q131 260 131 478l-10 -9q-256 -55 -510 -110q-121 -51 -239 -101q-43 0 -72 39q-24 32 -24 69q0 7 1 15z" />
<glyph unicode="U" horiz-adv-x="1638" d="M152 135q0 82 192 359q168 242 378 487.5t261 253.5v-37q0 -41 -184 -256q-283 -328 -344 -407q-186 -240 -187 -340q0 -51 30 -75t81 -24q346 0 663 340q131 141 459 635q227 342 348 342l4 -39q0 -92 -190 -342q-178 -231 -354 -461q-190 -270 -191 -417 q0 -84 101 -121q84 -27 170 -51q-51 -14 -108.5 -29.5t-100.5 -15.5q-113 0 -152 86q-27 59 -27 188v63q-61 -27 -235 -127q-256 -147 -420 -147q-98 0 -137 18q-57 29 -57 117z" />
<glyph unicode="V" horiz-adv-x="1214" d="M170 1208q20 43 32.5 54.5t65.5 33.5q41 -119 56.5 -379t19.5 -290q25 -190 98 -314h19q59 0 293 357q334 512 448 661q274 358 430 359l84 -2q-662 -602 -1100 -1375q-10 -16 -45 -96q-51 -115 -90 -159t-57 -55t-43 -11q-70 0 -100 96q-23 72 -23 215q0 76 5 148.5 t11 156.5q0 111 -22 228z" />
<glyph unicode="W" horiz-adv-x="2140" d="M152 -12q10 55 173.5 308t321.5 470q174 240 209 252q41 -20 56.5 -42t15.5 -67q0 -47 -146 -219q-236 -279 -272 -328q-145 -197 -145 -305q207 61 409 242q129 115 283 307q129 162 145 168q27 -31 35 -50t8 -60q0 -57 -28 -134q-66 -172 -66 -215q0 -53 34 -91t87 -38 q59 0 133 42t139 83q266 145 410 361q153 230 153 522q0 65 -28.5 121.5t-79.5 75.5q-27 -6 -57 -23q-47 -27 -93 -53v39q0 63 45 102t111 39q96 0 149 -111q44 -90 44 -196q0 -389 -297 -744q-308 -368 -682 -368h-2q-90 0 -146 98q-20 35 -70 176q-84 -41 -231 -162 q-168 -137 -242 -184q-143 -90 -260 -90q-90 0 -116 74z" />
<glyph unicode="X" horiz-adv-x="1253" d="M152 190q0 31 11 47.5t40 34.5l24 -4q41 0 205 170t164 232q0 106 -148.5 277t-148.5 216q0 37 21.5 68t58.5 31q80 0 209 -240t184 -240q74 0 221 160l320 348q31 0 43 -28.5t12 -65.5q0 -78 -135 -188q-127 -96 -254 -193q-139 -111 -139 -176q0 -51 125 -237.5 t125 -260.5q0 -55 -48 -94q-35 -29 -98 -49q-66 197 -108 299q-96 231 -162 231q-43 0 -150 -116q-94 -111 -186 -219q-102 -117 -137 -117q-29 0 -39 38t-10 76z" />
<glyph unicode="Y" horiz-adv-x="1097" d="M147 1303q0 27 27 49t53 22q59 0 125 -137q55 -133 113 -264q72 -154 137 -178q115 39 301 221q66 63 297 315q152 164 182 164q23 0 45.5 -12.5t38.5 -30.5q-76 -86 -309 -307q-211 -201 -305 -320q-147 -188 -197 -376q-63 -252 -125 -502q-20 -63 -76.5 -104.5 t-127.5 -57.5q-23 23 -23 39t23 39q2 18 127 401q47 145 47 246q0 139 -111 350q-121 221 -242 443z" />
<glyph unicode="Z" horiz-adv-x="1736" d="M154 29q6 18 338 270q432 328 657 512q385 315 489 465q-68 27 -151 27q-111 0 -321 -69t-312 -69q-100 0 -178 52q18 29 37 57q18 23 55 33q37 -12 59 -13q139 0 407.5 66.5t399.5 66.5q72 0 109 -14q59 -23 59 -84q0 -150 -295 -391q-68 -57 -589 -432 q-354 -254 -437 -389q59 -14 131 -15q127 0 289 11q372 24 477 24h8h68q94 0 137 -18.5t58 -52.5q-8 -35 -29 -64q-29 -37 -61 -37q-27 0 -121.5 38t-159.5 38q-285 0 -513 -25.5t-439 -101.5q-57 12 -101 37q-55 33 -71 78z" />
<glyph unicode="[" horiz-adv-x="1253" d="M160 59q0 115 20 260q49 352 49 445q0 39 -14 96q-33 131 -33 164q0 94 107 94q203 0 418 70q158 51 391 166l39 -39q-18 -119 -185 -168q-49 -14 -325 -53q-201 -29 -267 -93q-16 -55 -27 -350t-11 -448q0 -49 24.5 -68.5t75.5 -19.5q74 0 243 11t220 11q25 0 51 -12 q10 -4 47 -29h18q-12 -63 -24 -84q-23 -39 -74 -39q-35 0 -82 11q-113 25 -147 24q-55 0 -137 -8q-184 -18 -230 -18h-24q-57 0 -82 10q-41 16 -41 67z" />
<glyph unicode="\" horiz-adv-x="1021" d="M164 1153q0 29 39 65.5t65 36.5q39 0 74 -41q18 -20 49 -77q82 -154 248 -412q78 -123 158 -244q4 -8 133 -164q47 -57 66.5 -103t19.5 -89q0 -61 -35 -104.5t-94 -57.5q-57 195 -223 477q-137 233 -297 445q-102 109 -150 170q-53 68 -53 98z" />
<glyph unicode="]" horiz-adv-x="1349" d="M264 1186q0 41 44 70.5t87 29.5q39 0 82 -8q117 -23 139 -23q86 0 218 19q293 41 360 41q100 0 100 -107q0 -74 -34.5 -317.5t-34.5 -358.5q0 -119 41 -221q45 -98 90 -194q0 -57 -32 -78t-91 -21q-66 0 -221.5 -4t-163.5 -4q-35 0 -180 -26q-68 -12 -109 -13 q-39 0 -51 11q-8 6 -31 49q6 47 50 103t89 79q41 -10 115 -49q57 -31 150 -31q18 0 36.5 -1t38.5 -1q68 0 101 19q45 27 45 94q0 143 2 264t4 227q0 182 -5 275.5t-24 132.5q-18 10 -33.5 16t-33.5 8q-98 0 -299 -16t-301 -16q-61 0 -82 4q-51 10 -66 47z" />
<glyph unicode="^" d="M141 573q0 47 101 107q72 41 143 84l502 432q10 8 45 51q8 10 29.5 31.5t35.5 32.5q25 18 47 18q41 0 67 -210t26 -513q0 -47 -23 -88q-29 -51 -72 -51q-35 0 -56 35t-21 73q0 25 4 48q14 76 14 84q0 125 -10 203.5t-47 166.5q-25 -27 -142 -106q-55 -37 -88 -72 q-78 -78 -153 -156q-94 -96 -148 -163q-33 -43 -57 -62q-41 -33 -78 -33q-35 0 -77 27t-42 61z" />
<glyph unicode="_" horiz-adv-x="1445" d="M4 8q0 43 39 68.5t86 25.5q49 0 151.5 -16t157.5 -16q131 0 326 20q428 45 547 45q45 0 86 -39t41 -82t-37 -59q-16 -8 -70 -12l-20 -19q-80 31 -150.5 55.5t-140.5 24.5q-68 0 -158 -6q-213 -14 -264 -14q-59 0 -268 -43q-100 -20 -162 -21q-68 0 -102 12q-61 20 -62 76 z" />
<glyph unicode="`" horiz-adv-x="692" d="M166 1477q0 47 25.5 76.5t70.5 48.5q86 -47 133 -170q41 -105 41 -222q-88 10 -176 93q-94 88 -94 174z" />
<glyph unicode="a" horiz-adv-x="1021" d="M55 154q0 141 84 268q72 109 203 203q90 66 254 145q190 92 270 92q53 0 103.5 -60.5t50.5 -115.5q0 -139 -89 -299t-89 -209q0 -98 30 -135q25 -30 189 -61q-18 -41 -41 -66q-31 -33 -66 -33q-70 0 -153 103q-66 80 -107 170q-166 -80 -233 -107q-152 -61 -244 -61 q-162 0 -162 166zM204 109q46 -29 107 -29q178 0 305 125q31 31 175 235q88 127 170 127q12 27 19 53.5t7 55.5q0 33 -29.5 53.5t-97.5 20.5q-104 0 -167.5 -15.5t-141.5 -68.5q-113 -76 -238 -209q-155 -165 -155 -261q0 -58 46 -87z" />
<glyph unicode="b" horiz-adv-x="1157" d="M37 37v39q0 14 13 38.5t26 39.5q59 74 198 235q100 117 203 236q123 143 201 237q68 82 137 203q98 176 199 354q41 68 103 109t136 41q-27 -121 -155 -287q-117 -143 -234 -287q-129 -164 -151 -270q135 -27 270 -53q180 -59 180 -187q0 -180 -315 -370 q-289 -174 -479 -174q-61 0 -166 36q-84 29 -166 60zM283 121q0 -88 92 -88q156 0 403 145q273 160 273 301q0 70 -90 105q-63 24 -145 24h-7q-188 0 -357 -148.5t-169 -338.5z" />
<glyph unicode="c" horiz-adv-x="1292" d="M37 233q0 170 184 328q147 125 400 234q199 86 380 127q35 -20 55.5 -44t20.5 -59q0 -74 -51 -186q-59 -131 -123 -131q-29 0 -59.5 19.5t-30.5 47.5q0 16 47 84q31 45 64 90q-10 2 -28.5 5.5t-39.5 5.5q-182 0 -428 -154q-272 -170 -272 -344q0 -129 129 -190 q98 -47 241 -48q117 0 292 16.5t276 41.5q8 2 62 26q40 18 63 17q8 0 14 -2l20 18l39 2l4 -4q-127 -98 -376 -149q-199 -41 -412 -41q-258 0 -371 84q-100 74 -100 206z" />
<glyph unicode="d" horiz-adv-x="1040" d="M35 197q0 178 196 329q184 141 365 142q68 0 115 -26t98 -54l18 18v41l21 19q-6 37 110.5 345t151.5 308q18 0 35.5 -7t36.5 -22l14 -35q-14 -84 -96 -274t-162 -377q-100 -231 -129 -332q47 0 74.5 -4t38.5 -24q-23 -51 -91 -121q-78 -80 -120 -80q-23 0 -90.5 7 t-100.5 7q-31 0 -110.5 -5t-106.5 -5q-121 0 -184 27q-84 35 -84 123zM147 254q0 -51 67 -77.5t202 -26.5q137 0 205 45q84 55 84 192q0 76 -36 119t-110 43q-104 0 -252 -94q-160 -102 -160 -201z" />
<glyph unicode="e" horiz-adv-x="1001" d="M35 207q0 131 110 246q90 94 250 172q123 59 260 100q121 -29 174 -45q92 -31 93 -154q0 -109 -140 -172q-115 -53 -237 -53q-70 0 -150 14.5t-121 42.5q-43 -20 -69 -49q-33 -37 -33 -78q0 -80 92 -114q61 -23 158 -23q92 0 215 12q288 29 364 29q-61 -68 -290 -102 q-168 -25 -330 -25q-141 0 -221 31q-125 49 -125 168zM422 510q61 -98 168 -98q63 0 111.5 28.5t89.5 87.5q-61 66 -150 66q-55 0 -115 -27q-72 -39 -104 -57z" />
<glyph unicode="f" horiz-adv-x="1097" d="M37 498q0 92 219 102t287 129q127 221 172 289q115 172 229 262q145 115 305 115q109 0 181 -47q86 -56 86 -162q0 -74 -41 -141.5t-107 -104.5q23 94 45 190q0 66 -51 110t-117 44q-221 0 -366 -203q-37 -51 -205 -395q176 -51 196 -68q55 -39 56 -110q-123 20 -246 43 q-100 0 -163.5 -133t-123.5 -264q-94 -154 -260 -191q0 82 55 193q10 20 197 313q-23 23 -29 23q-14 -2 -30 -3q-29 0 -72 -18q-94 -41 -121 -41q-45 0 -59.5 11.5t-36.5 56.5z" />
<glyph unicode="g" horiz-adv-x="925" d="M-268 -641q0 14 5 31.5t13 42.5h21q49 -55 179 -116.5t206 -61.5q248 0 413 237q147 213 148 475q0 47 -3 61.5t-22 47.5q-41 16 -63 16q-6 0 -38 -8t-52 -8q-199 0 -291 22q-184 45 -185 185q0 197 226 350q207 141 409 141q104 0 168 -48.5t64 -152.5q0 -45 -43 -155 q-20 -53 -21 -84q0 -311 -39 -520q-55 -299 -194 -463q-170 -201 -465 -201q-96 0 -252 59q-184 70 -184 150zM203 309q0 -78 100 -112q72 -25 168 -25q70 0 137 21q96 29 97 81q0 14 -9.5 42t-9.5 38q0 25 76 150q37 59 37 94q0 41 -37 54.5t-88 13.5q-131 0 -293 -111 q-178 -121 -178 -246z" />
<glyph unicode="h" horiz-adv-x="1310" d="M37 0q10 43 141 219q2 2 260 342q158 207 197 277q14 27 123 284q80 188 147 250q25 -14 51 -26q27 -16 27 -50q0 -23 -98 -227q-125 -250 -248 -500q225 98 301 129q244 102 279 103q8 0 30.5 -8.5t24.5 -10.5q27 -27 41 -68.5t14 -80.5q0 -109 -122 -328t-122 -307 q0 -59 33 -115q-31 -16 -58.5 -27.5t-56.5 -11.5q-76 0 -75 78q0 88 119.5 327.5t119.5 340.5q0 31 -4 50t-4 28q-293 -35 -577 -232q-297 -205 -408 -473q-43 14 -72.5 24.5t-62.5 12.5z" />
<glyph unicode="i" horiz-adv-x="538" d="M45 160q0 45 35 100q47 76 53 92q31 90 64 180q43 98 110 152q20 -20 41 -42.5t21 -51.5q0 -37 -115 -326q-57 -145 -75.5 -162.5t-46.5 -20.5t-77 -3q0 16 -5 47t-5 35zM373 1153q0 39 23.5 104.5t25.5 96.5q25 -14 43 -50t35 -67q6 -10 37 -37q24 -20 24 -47 q0 -37 -29.5 -55.5t-68.5 -18.5q-43 0 -66.5 16.5t-23.5 57.5z" />
<glyph unicode="j" horiz-adv-x="712" d="M-614.5 -192.5q32.5 51.5 92.5 51.5q33 0 51 -33q10 -18 12 -37q-8 -27 -26 -51q-33 -43 -33 -109q0 -109 68.5 -203t170.5 -94q203 0 371 260q121 190 238 543q76 236 151 471h19l20 -18q-2 -12 3 -32t5 -24q0 -41 -23.5 -96t-43.5 -104q-84 -279 -144 -426 q-115 -291 -245 -461q-166 -217 -348 -217q-137 0 -259 166q-112 153 -112 296q0 66 32.5 117.5zM481 1098v28q0 41 43 74t84 33q31 0 72 -39t41 -72q0 -27 -32 -36t-64 -9q-35 0 -61.5 3t-82.5 18z" />
<glyph unicode="k" horiz-adv-x="1040" d="M37 18v39v9q0 39 176 376q4 8 342 637q193 360 213 407.5t28.5 60t43.5 28.5q18 -10 31.5 -16.5t34.5 -55.5q-16 -94 -121 -258t-205 -319q-113 -193 -138 -338q98 25 236 88q115 55 228 110q143 106 290 213q8 -36 16 -71q0 -113 -149 -209q-92 -59 -305 -140t-260 -112 l-23 -47q12 -96 121 -346t109 -279q0 -47 -31 -77.5t-78 -49.5q-23 104 -137 346q-129 272 -191 297q-41 -168 -55 -217q-23 -76 -176 -76z" />
<glyph unicode="l" horiz-adv-x="692" d="M43 51q23 104 154 321.5t260 428.5q147 252 198 416q16 61 35 122q25 61 80 93q29 -4 55.5 -40t26.5 -69q0 -12 -137 -264q-164 -299 -266 -490q-156 -289 -183 -356q-20 -66 -41 -131q-35 -82 -90 -82q-31 0 -69 14z" />
<glyph unicode="m" horiz-adv-x="1697" d="M37 0v37q0 55 211 291q117 131 139 176q16 33 37 61q29 39 71 43t242 97q88 40 125 40h2q86 0 129 -151q6 -18 29 -125q147 82 297 166q213 110 305 110h2q39 0 59.5 -31.5t20.5 -74.5q0 -102 -76 -221q-201 -317 -206 -341t-5 -34q0 -14 11 -72q4 -23 4 -43 q0 -25 -15.5 -41t-42.5 -26q-47 12 -67.5 51t-20.5 94q0 104 80 236q174 285 174 364q-115 -33 -328 -164q-174 -111 -351 -221t-234 -110l-31 6q4 45 176 211q76 74 76 155q0 31 -12 64q-2 4 -29 61q-123 -61 -293 -223q-133 -131 -267 -258t-212 -127z" />
<glyph unicode="n" horiz-adv-x="1060" d="M37 39q0 109 201 348q117 139 147 199q10 18 22.5 56t18.5 50q20 43 35.5 58.5t56.5 15.5q57 0 57 -59q0 -33 -10 -66q-2 -10 -45 -111q98 51 199 105q137 67 205 67h2q78 0 125 -63t47 -145q0 -70 -70 -208.5t-123 -187.5q2 -27 4 -32q4 -14 15 -31q-16 -63 -82 -64 q-35 0 -62.5 21.5t-27.5 54.5q0 74 104.5 203t104.5 199q0 47 -31 75.5t-76 28.5q-129 0 -274 -131q-125 -127 -248 -254q-150 -145 -277 -168v18z" />
<glyph unicode="o" horiz-adv-x="1271" d="M70 242q0 172 319 333q285 143 479 144q170 0 283 -78q131 -90 131 -258q0 -193 -278 -301q-211 -82 -445 -82q-188 0 -301 35q-188 59 -188 207zM193 229q139 -141 333 -141q186 0 383 68q260 89 260 239q0 98 -104 152q-82 41 -191 41q-180 0 -385.5 -104.5 t-295.5 -254.5z" />
<glyph unicode="p" d="M-326 -549q0 43 88 154.5t175 218.5q100 129 120 192q156 188 246 310q98 131 98 241q-33 -20 -41 -24q-35 -18 -71 -33q-31 27 -31 76q0 88 285 172q239 71 365 71h3q104 0 164 -43q70 -51 70 -155q0 -201 -256 -357q-111 -68 -506 -229q-301 -123 -354 -213 q-66 -160 -113 -256q-90 -182 -184 -182q-25 0 -41.5 16.5t-16.5 40.5zM289 96q106 39 213 80q186 90 297 189q33 29 166 163q33 35 46 60.5t13 48.5q0 35 -37 57q-49 29 -125 29q-53 0 -100 -15.5t-96 -45.5q-82 -53 -229.5 -267.5t-147.5 -298.5z" />
<glyph unicode="q" horiz-adv-x="1232" d="M-41 -774q0 106 90 217q88 94 176 186q102 115 119 215q-31 6 -63 6q-27 0 -50 -6q0 53 17 109l57 33q45 -4 75 -12.5t44 -30.5l31 -6q47 0 94 49q20 23 67 92q-10 14 -24 23.5t-35 17.5q-53 -12 -104 -25q-137 0 -236 25q-160 39 -160 135q0 129 199 287 q172 135 411.5 237.5t364.5 102.5q189 -1 189 -185q0 -203 -177 -401q-39 -43 -331 -299q-178 -156 -178 -248q0 -41 21.5 -123t21.5 -114q0 -201 -132 -306q-121 -96 -325 -96q-74 0 -111 21q-51 29 -51 96zM76 -743q31 -14 68.5 -24.5t70.5 -10.5q117 0 176 116 q47 93 47 224q0 70 -14 129q-16 -16 -50 -43t-46 -37q-70 -63 -144 -164q-80 -109 -108 -190zM195 279q0 -49 55 -70q39 -14 96 -14q231 0 377 47q197 63 299 225q31 47 48 89t17 83q0 59 -39.5 82.5t-103.5 23.5q-150 0 -436 -157q-313 -172 -313 -309z" />
<glyph unicode="r" horiz-adv-x="905" d="M18 -57q10 88 107 233q106 162 125 236q10 37 14 96t8 113q0 55 29 127q37 92 84 96l39 -2l20 -140q14 -53 97 -53h44.5t53.5 2q104 0 170 -39q80 -47 96 -143q-96 31 -170 55q-150 49 -151 49q-43 0 -76 -15t-66 -48q-68 -68 -176 -358q-78 -209 -248 -209z" />
<glyph unicode="s" horiz-adv-x="1253" d="M55 319l2 31q57 -20 166 -172q102 -141 180 -141q133 0 345 90q243 104 243 216q0 75 -143 124q-145 37 -291 74q-178 45 -231 104q61 68 243 143q119 49 349 119q256 78 294 92q27 -14 60 -18q-16 -88 -154 -135q-143 -37 -284 -72q-180 -49 -256 -127q268 -68 321 -88 q225 -84 225 -194q0 -160 -268 -299q-238 -123 -414 -123q-147 0 -267 113.5t-120 262.5z" />
<glyph unicode="t" horiz-adv-x="962" d="M37 766q0 47 50 63.5t132 16.5q25 0 61.5 -2t45.5 -2q172 0 276 63q88 53 160 174q27 43 125 254q27 0 54.5 -37.5t27.5 -64.5q0 -51 -35 -115q-16 -29 -125 -174q51 -35 104 -68q52 -43 52 -97v-9l-2 -23q-27 6 -91.5 27t-95.5 21q-109 0 -322.5 -241t-213.5 -349 q0 -92 153 -137q123 -37 285 -37q37 0 60.5 2t52.5 6q-2 -10 18 -37q-68 -27 -128 -39t-128 -12q-172 0 -287 37q-174 55 -174 190q0 127 232 391q88 98 176 197l-72 4q-53 0 -121 -25q-147 -53 -176 -53q-33 0 -63.5 21.5t-30.5 54.5z" />
<glyph unicode="u" horiz-adv-x="1406" d="M37 90q0 59 145 250q131 172 296 339t212 167q39 0 39 -41q0 -49 -115.5 -182.5t-230.5 -262.5q-137 -158 -172 -243l20 -21q12 0 40 -2t42 -2q59 0 129 27.5t136 56.5q96 37 178 80t153 100q57 45 162 189q82 113 164 227q86 111 125 111q25 0 53 -21q6 -19 12 -37 q0 -72 -103 -197.5t-202 -244.5q-108 -146 -108 -246q0 -37 20.5 -48t54.5 -11q37 2 52 2q31 0 65 -10l29 -33q-41 -8 -74 -19q-83 -24 -124 -24h-3q-90 0 -123 49q-24 36 -24 111v6v46t2 48q-164 -104 -199 -123q-119 -68 -224.5 -105.5t-219.5 -37.5q-84 0 -129 14 q-78 25 -78 88z" />
<glyph unicode="v" horiz-adv-x="790" d="M31 684q0 41 20.5 76t59.5 35q66 0 106 -234q25 -154 51 -307q49 51 215 246q74 88 133 147l328 334h39q0 -139 -192 -311q-145 -129 -291 -258q-6 -8 -37 -82l-74 -180q-29 -76 -63 -113q-47 -53 -115 -53q-59 0 -82 48t-23 124q0 43 3.5 89t5.5 72q0 61 -42 183.5 t-42 183.5z" />
<glyph unicode="w" horiz-adv-x="1736" d="M55 129q0 53 191.5 304t230.5 251q31 0 53.5 -26.5t22.5 -57.5q0 -74 -215 -297q-117 -121 -145 -168q35 -20 58 -31.5t48 -11.5q197 0 336 123q98 86 215 295q8 -10 16 -18q2 -2 21 -3q29 -25 33 -30q10 -14 10 -41q0 -41 -29 -115t-29 -110q0 -61 74 -97 q55 -26 122 -26h5q238 0 402 116q184 131 184 361q0 47 -9.5 74.5t-68.5 83.5q-20 0 -39.5 11t-38.5 29l29 33q104 0 166 -123q49 -98 49 -219q0 -215 -256 -352q-213 -115 -453 -115q-88 0 -159.5 30t-126.5 97v39l-43 17q-29 -4 -269 -109q-100 -43 -172 -43 q-82 0 -135 23q-78 33 -78 106z" />
<glyph unicode="x" horiz-adv-x="1175" d="M37 37v20q0 70 254 164t254 172q0 88 -179.5 249t-179.5 192q0 23 26 48t48 25q45 0 143 -119q86 -111 172 -221q93 -118 129 -118h1q72 0 221 102q104 76 211 154h20l19 -39q-8 -96 -195.5 -180.5t-187.5 -182.5q0 -61 30 -145q70 -190 70 -248l-6 -47q-4 6 -129 237 q-88 164 -180 164q-68 0 -193 -78q-137 -86 -272 -170q-12 0 -36 7.5t-40 13.5z" />
<glyph unicode="y" horiz-adv-x="983" d="M-94 -645q23 47 133 184q94 119 190.5 241t96.5 159t-25 49t-70 12h-41q-94 10 -137 160q-28 97 -28 220v9q0 84 8 165t22 171q70 0 101 -61q24 -49 24 -133v-7q0 -41 -7 -116.5t-7 -100.5q0 -125 45 -182q53 -68 172 -68q68 0 197 185q39 55 233 370q141 227 209 289 q14 -10 37.5 -43t23.5 -47q0 -72 -122 -225q-115 -137 -230 -275q-123 -160 -123 -250q0 -27 8 -45q-147 -41 -292 -252l-308 -466q-27 6 -60.5 26.5t-49.5 30.5z" />
<glyph unicode="z" horiz-adv-x="1118" d="M51 -27q0 51 31 95q25 35 74 67l250 168q168 117 264 201q133 117 196 221q-31 12 -59.5 19.5t-58.5 7.5q-47 0 -95 -7q-141 -18 -159 -18q-59 0 -88 16q-41 23 -41 80q0 35 17 57.5t50 22.5q49 0 146.5 -31.5t144.5 -31.5t156.5 11t142.5 11q55 0 76.5 -17t21.5 -48 q0 -55 -196 -230q-211 -186 -521 -413q29 -12 68 -16.5t76 -4.5q63 0 117 4q182 14 194 15q90 0 155.5 -17t104.5 -76q-98 -23 -256 -32q-422 -27 -452.5 -31t-153.5 -66q-51 -26 -82 -26h-2q0 39 -39 39q-31 -31 -35 -33q-10 -2 -22 -6q-25 25 -25 69z" />
<glyph unicode="{" horiz-adv-x="1232" d="M170 215q0 72 78 147q205 199 213 226l-105 -6q-66 0 -103.5 28.5t-37.5 98.5q0 74 156 129q180 66 227 161q-135 47 -172 68q-104 59 -104 141q0 115 124 232q94 88 269 178q123 63 248 108l59 -18q-12 -70 -158 -149q-133 -72 -264 -142q-139 -90 -139 -182 q0 -74 187.5 -111t187.5 -151q0 -55 -113 -123q-8 -4 -166 -86q29 -16 59 -49q8 -8 78 -107l-184 -196q-145 -158 -158 -189q27 -57 117 -88q115 -39 346 -39q76 0 133.5 2t110.5 4q70 0 104.5 -17t50.5 -48q-98 -20 -193 -28.5t-200 -8.5q-256 0 -383 23q-268 47 -268 192z " />
<glyph unicode="|" horiz-adv-x="634" d="M152 74q0 23 30 61q25 31 49 62q72 129 136 354q51 182 84 377q23 127 43 190q41 127 102 158q16 -16 25.5 -32.5t9.5 -39.5q0 -141 -63.5 -337.5t-127 -394.5t-63.5 -349q0 -47 -11.5 -91t-36 -66.5t-48.5 -28.5q-20 8 -40 37.5t-30 43.5h-39q-6 12 -8 19q-12 27 -12 37 z" />
<glyph unicode="}" horiz-adv-x="1175" d="M250 -96q33 92 190 188q135 76 273 152q137 86 137 168q0 53 -193.5 110.5t-193.5 149.5q0 63 102 104q37 14 88 27q-66 29 -92 57q-37 41 -37 107q0 57 129 134t256 152q135 100 135 207q0 117 -282.5 127t-282.5 101q0 29 22.5 49t51.5 20q170 0 367 -65 q256 -86 256 -219q0 -150 -175 -285q-244 -188 -270 -227q35 -12 70 -16.5t73 -4.5h43t48 2q47 0 81.5 -11t34.5 -54q0 -61 -137 -123q-31 -14 -192 -68q111 -68 174 -113q121 -86 121 -137q0 -66 -162 -203q-139 -117 -326.5 -227t-249.5 -110q-16 0 -30.5 3t-28.5 5z" />
<glyph unicode="~" horiz-adv-x="1292" d="M170 530q0 41 23 52q119 20 239 43q66 27 131 55q90 35 137 35q51 0 102.5 -130t178.5 -130q70 0 153 83t115 83q23 0 33 -27.5t10 -56.5q0 -100 -143 -158q-109 -43 -227 -43q-184 0 -230 151q-20 72 -84 72q-49 0 -178 -65.5t-182 -65.5q-39 0 -58.5 30.5t-19.5 71.5z " />
<glyph unicode="&#xa1;" horiz-adv-x="1001" d="M174 27q117 211 168 356q72 201 72 385q6 84 39.5 135t109.5 51l53 -4l2 -65q0 -25 -65.5 -239t-120.5 -380q-68 -201 -81 -218t-35.5 -25.5t-51.5 -8.5q-18 0 -43.5 4.5t-46.5 8.5zM637 1282q6 41 14 84q12 37 55.5 56.5t79.5 19.5q95 -1 95 -99q0 -43 -38 -59t-89 -16 q-66 0 -117 14z" />
<glyph unicode="&#xa2;" horiz-adv-x="1292" d="M37 233q0 180 207 347q164 131 432 237q27 139 59.5 208t71.5 89q33 -33 33 -76q0 -88 -15 -166l176 50q35 -20 55.5 -44t20.5 -59q0 -74 -51 -186q-59 -131 -123 -131q-29 0 -59.5 19.5t-30.5 47.5q0 16 47 84q31 45 64 90q-10 2 -28.5 5.5t-39.5 5.5l-55 -4 q-98 -365 -195 -730q104 0 254 17.5t234 38.5q8 2 62 25.5t77 15.5l20 18l39 2l4 -4q-115 -88 -325 -141q-188 -47 -375 -47l-4 -54q0 -57 -10.5 -99t-36 -67.5t-47.5 -31.5q-23 10 -40.5 40.5t-27.5 47.5h-39q-4 6 -12 26.5t-8 30.5q0 23 30 66q14 20 31 41q-166 0 -266 57 q-129 74 -129 231zM156 256q0 -119 104 -182q88 -53 213 -54q61 133 113 338q42 171 71 353q-193 -68 -335 -187q-166 -137 -166 -268z" />
<glyph unicode="&#xa3;" horiz-adv-x="1292" d="M160 47q0 37 88 156q31 39 61 80q121 168 242 405q-4 35 -6 51q-10 53 -29 54q-49 0 -110 -43q-18 -14 -52 -43l6 61q35 41 56 61q66 61 119 62q27 0 49 -53q6 -16 16 -54q63 131 108.5 241t79.5 230q25 82 41 115q37 78 82 78q31 0 58.5 -38t27.5 -73q0 -20 -50 -128.5 t-126 -258.5q-39 -78 -159 -309q0 -29 2 -58.5t24 -29.5q35 0 88 61q16 20 45 62l-6 -62q-25 -41 -39 -61q-49 -61 -94 -61q-23 0 -45 34q-6 10 -19 37l-196 -387q16 -20 31 -31q43 -31 104 -30q23 0 166 75q70 37 119 37q51 0 156.5 -70.5t150.5 -70.5q29 0 77 44t66 44 v-96q-33 -33 -70.5 -56.5t-70.5 -23.5q-82 0 -184.5 67.5t-157.5 67.5q-27 0 -225 -104q-94 -49 -172 -49t-142 10q-111 18 -110 57z" />
<glyph unicode="&#xa4;" horiz-adv-x="1024" d="M37 373q-16 16 20 61q16 20 39 43l35 33q-35 82 -35 180q0 74 25.5 167t73.5 177q-76 80 -104 123t-28 68q0 16 10.5 26.5t28.5 10.5q35 0 93 -52q33 -35 67 -67l4 -10q37 41 81 64.5t93 23.5q29 0 68 -13q57 -20 117 -39q12 -4 39 -4q25 0 47 2t45 4l63 -4q31 25 51 39 q49 33 78 33q15 0 23 -8q12 -12 12 -31q0 -33 -59 -98q29 -49 28 -144q0 -86 -40 -184t-109 -186q63 -72 98 -123q45 -68 45 -109q0 -25 -16 -41t-62 21q-20 16 -43 39l-110 119q-80 -72 -168 -112t-180 -40q-49 0 -93.5 18.5t-74.5 47.5q-76 -51 -121 -52q-25 0 -41 17z M188 690q0 -106 46.5 -181t113.5 -75q170 0 328 131q203 170 203 461q0 39 -97.5 54.5t-302.5 15.5q-121 0 -213 -156q-78 -133 -78 -250z" />
<glyph unicode="&#xa5;" horiz-adv-x="1097" d="M147 1305q0 10 5 20q4 10 10 23l31.5 18t33.5 8q59 0 125 -137q55 -133 113 -264q72 -154 137 -178q115 39 301 221q66 63 297 315q152 164 182 164q23 0 45.5 -12.5t38.5 -30.5q-84 -94 -254 -256q-195 -184 -264 -260q-141 -154 -215 -291q92 16 152 17q68 0 67 -78 q0 -61 -15 -88t-40 -27q-23 0 -68 24.5t-69 24.5q-20 0 -46 -3t-40 -5l-19 -61l-10 -43q74 14 126 21t95 7q68 0 68 -78q0 -61 -15.5 -87.5t-39.5 -26.5q-23 0 -68 24.5t-70 24.5q-61 0 -127 -19q-20 -92 -39.5 -168.5t-42 -148.5t-79 -113t-127.5 -57l-19 20v39l19 19 q14 84 47 177t65 183q-86 -27 -162 -26q-49 0 -98 14v18l17 23q0 35 7 60.5t25 41.5q2 2 63.5 6.5t65.5 4.5l129 14l13 82q-53 -14 -104.5 -25.5t-98.5 -11.5q-49 0 -98 14v19l16 22q0 35 7 60.5t26 42.5q2 2 63.5 6t65.5 4l114 12q-25 119 -114 283q-10 18 -152 254 q-76 127 -76 164z" />
<glyph unicode="&#xa6;" horiz-adv-x="634" d="M252 750q-2 6 9 28.5t28 50.5q16 45 24.5 103.5t8.5 111.5q0 86 -13 152q-2 14 -4 30.5t-2 37.5q0 37 10.5 68.5t36.5 56.5q35 4 46.5 -14.5t17.5 -53.5t6 -72q0 -53 -4 -98q-14 -156 -15 -166q0 -47 3.5 -65.5t15.5 -49.5q4 -12 6 -16q4 -12 4 -23q0 -25 -16 -43 l-31 -28q-18 -6 -33 -6q-14 0 -39 4l-30 -19q-23 0 -29 11zM256 -102q-8 12 16 57q8 18 19 35q16 47 22 96t6 111q0 66 -5 106.5t-19 116.5q-4 29 -8 57.5t-4 36.5q0 41 9 71.5t40 59.5q37 4 47 -14q18 -33 27.5 -85t9.5 -108q0 -37 -4 -131t-4 -100q0 -63 5 -99t23 -77 q12 -29 13 -49q0 -25 -17 -48q-8 -16 -31 -34q-8 -4 -14 -4h-14q-35 6 -54 6l-32 -19q-23 0 -31 15z" />
<glyph unicode="&#xa7;" horiz-adv-x="1062" d="M-74 -72q0 80 64 133q0 -115 28 -188q43 -109 140 -109q160 0 397 78q293 96 293 224q0 104 -203 145q-190 25 -379 51q-203 35 -203 125q0 131 402 275q166 57 334 116q-63 16 -293 41q-319 35 -320 137q0 90 215 187q131 59 435 153q276 86 323 113q14 -8 47 -17.5 t43 -13.5q-49 -61 -250 -110q-338 -84 -381 -99q-221 -76 -323 -206q393 -80 595 -145.5t202 -170.5q0 -131 -179 -227q-139 -76 -364 -119q201 -43 295 -84q133 -59 133 -145q0 -182 -330 -297q-254 -88 -479 -88q-96 0 -169 70.5t-73 170.5zM172 391q51 -25 143 -43 q172 0 392 80q258 94 258 213q0 59 -58 94q-59 -39 -215 -76q-193 -47 -270 -79q-156 -68 -250 -189z" />
<glyph unicode="&#xa8;" horiz-adv-x="835" d="M113 1495q0 45 31.5 59.5t82.5 14.5q70 0 133 -23q-8 -35 -14 -67q-12 -35 -49 -35q-31 -4 -53 -14q-31 -23 -49.5 -35.5t-24.5 -12.5q-23 0 -40 42t-17 71zM498 1487q0 45 31.5 59.5t82.5 14.5q70 0 133 -23q-8 -35 -14 -68q-12 -35 -49 -34q-31 -4 -53 -15 q-31 -23 -49.5 -35t-24.5 -12q-23 0 -40 42t-17 71z" />
<glyph unicode="&#xa9;" horiz-adv-x="1710" d="M96 551q0 166 72 377q80 240 203 383q150 176 323 176q96 0 309.5 -28.5t303.5 -28.5q182 0 243 -107q47 -82 47 -289q0 -408 -258 -727q-295 -365 -776 -364q-229 0 -358 200q-109 170 -109 408zM203 551q0 -176 71 -322q90 -182 246 -182q512 0 778 354 q228 303 228 770q0 94 -93.5 123t-324.5 29q-78 0 -162 -1t-176 -1q-231 0 -408 -274q-160 -248 -159 -496zM338 518q0 199 213 463t381 264q84 0 125 -41t41 -135q0 -45 -6.5 -96t-12.5 -99q-14 2 -28.5 6.5t-38.5 16.5l-17 37q2 14 10.5 68.5t8.5 64.5q0 41 -24.5 63.5 t-59.5 22.5q-158 0 -336 -229.5t-178 -415.5q0 -119 100 -180q82 -49 195 -49q70 0 151 10q104 16 152 22q76 27 153 54q9 -14 13 -37q-119 -35 -248 -71t-234 -36q-154 0 -243 58q-117 76 -117 239z" />
<glyph unicode="&#xaa;" horiz-adv-x="632" d="M88 1008q0 72 41 133q35 53 102 102q43 31 127 72q98 47 136 47q27 0 52 -29.5t25 -58.5q0 -68 -45 -147.5t-45 -106.5q0 -61 29 -80q10 -6 82 -20q-8 -20 -21.5 -35t-31.5 -15q-33 0 -76 52q-35 41 -55 86q-102 -49 -152.5 -66.5t-85.5 -17.5q-82 0 -82 84zM139 1028 q0 -29 23.5 -43t54.5 -14q117 0 202 121.5t122 121.5q14 29 14 54q0 23 -19.5 30t-43.5 7q-53 0 -84 -7.5t-72 -33.5q-59 -41 -119 -105q-78 -82 -78 -131z" />
<glyph unicode="&#xab;" horiz-adv-x="1769" d="M55 469v41q0 49 49.5 72.5t102.5 23.5q51 0 299 178q170 123 436 332q113 88 227 178q20 0 45 -10l19 -49q0 -78 -186 -231q-129 -106 -377 -269q-276 -180 -287 -188q47 -35 252 -105q328 -111 328 -276v-68q-84 0 -181 80q-170 141 -184 150q-127 82 -274 82 q-31 0 -67 -19.5t-69 -38.5q-10 57 -37.5 79t-95.5 38zM688 555v41q0 49 49 72.5t103 23.5q51 0 299 178q170 123 436 332q113 88 227 178q20 0 45 -10l19 -49q0 -78 -187 -231q-129 -106 -376 -269q-276 -180 -287 -188q47 -35 252 -105q328 -111 327 -276v-68 q-84 0 -180 80q-170 141 -184 150q-127 82 -275 82q-31 0 -66.5 -19.5t-68.5 -38.5q-10 57 -37.5 79t-95.5 38z" />
<glyph unicode="&#xac;" horiz-adv-x="2457" d="M80 -170v1567h2300v-1567h-2300zM127 -88v-35h317v35h-34q-39 0 -52 4q-33 12 -32 80l2 328q35 0 71.5 -1t73.5 -1l10 51l-4 4h-151v74v51q0 66 17 102.5t73 36.5q35 0 59 -18l23 -111h59q55 164 117 319q45 117 133 318q18 -53 119 -315q76 -201 110 -322h62 q31 125 110 406q94 328 123 370q15 8 60 8v37h-244v-37q29 0 65.5 -5t36.5 -21q0 -51 -77 -316l-82 -266l-238 651h-29l-250 -645q-33 137 -65.5 282.5t-56.5 268.5q-8 12 -7 21q0 20 31 25t45 5h25v37h-293v-37q53 0 66.5 -13t25.5 -73q20 -88 45 -180q57 -215 66 -305 q-47 0 -120 -66.5t-95 -117.5q-8 -20 -11.5 -43t-3.5 -62v-61l-82 -41v-21l82 9l2 -314q0 -66 -17 -81t-85 -15zM440 150q0 -121 70 -203t188 -82q131 0 215 84t84 215q0 115 -73.5 186.5t-190.5 71.5q-125 0 -209 -74t-84 -198zM553 188q0 80 39 139.5t115 59.5 q98 0 145 -92q37 -71 37 -180q0 -84 -33 -142q-41 -70 -121 -69q-94 0 -143 100q-39 78 -39 184zM973 -88v-35h295l-2 35q-61 0 -81 17.5t-20 64.5q0 12 2 48t2 60v58q0 94 21 131q33 57 129 57q78 0 108 -47q25 -39 25 -127v-111v-24q0 -90 -8 -162h198v35q-59 0 -75.5 10 t-16.5 47q2 41 2 68v188q0 197 -190 197q-51 0 -102.5 -31t-88.5 -78q2 37 3 56q0 33 -11 53q-47 -20 -94 -32.5t-96 -12.5v-35q23 2 35 2q27 0 44 -7t17 -28v-352q0 -23 -10 -35t-43 -12q-29 2 -43 2zM1311 1090q0 -178 236.5 -201t236.5 -154q0 -86 -65.5 -131t-155.5 -45 q-53 0 -107 16q-72 23 -86 60l-2 98h-39v-67v-29q0 -41 -6 -82q104 -43 217 -43q55 0 105 12q10 -82 10 -147q-39 -23 -92 -39v-25h92v-321q0 -127 131 -127q16 0 36.5 4t37.5 8l55 70l-17 22q-27 -31 -65 -30q-39 0 -60.5 28.5t-21.5 108.5v26v222q16 0 52 2t52 2 q31 0 60 -6l12 55h-176q0 49 2 99t8 95q57 47 86 91q37 55 37 118q0 180 -235.5 200.5t-235.5 152.5q0 78 55.5 120.5t137.5 42.5q39 0 90 -15t78 -38q10 -23 10 -69v-41h37q0 61 3 87.5t15 75.5q-109 43 -227 43q-127 0 -209 -59q-92 -68 -92 -190zM1858 522h327v37h-33 q-43 0 -59 10.5t-16 55.5v512q0 20 -1 40.5t-1 39.5q0 49 19.5 64t90.5 15v37h-327v-37q76 0 92 -14t16 -76v-49v-528q0 -45 -19.5 -57.5t-60.5 -12.5h-28v-37zM1927 254q0 -109 159 -139.5t159 -104.5q0 -51 -37 -78.5t-90 -27.5q-86 0 -117 30.5t-31 114.5h-33 q0 -23 -4 -77t-4 -60q0 -20 46 -33.5t122 -13.5q96 0 162 45q78 53 78 145q0 102 -160 135t-160 103q0 43 32 68.5t77 25.5q33 0 63.5 -15.5t55.5 -43.5q6 -29 8 -35q2 -12 2 -37l33 -2q0 35 6 77t8 64q-86 27 -164 27q-90 0 -145 -37q-66 -45 -66 -131z" />
<glyph unicode="&#xad;" d="M125 449v18l18 20q0 37 7.5 58.5t31.5 40.5q2 2 76 6t78 4q92 0 239 20q326 45 377 46q41 0 61.5 -16.5t20.5 -57.5q0 -45 -14 -78t-53 -33q-25 0 -62 15q-82 33 -104 32q-94 0 -278.5 -45t-278.5 -45q-61 0 -119 15z" />
<glyph unicode="&#xae;" horiz-adv-x="1710" d="M96 551q0 166 72 377q80 240 203 383q150 176 323 176q96 0 309.5 -28.5t303.5 -28.5q182 0 243 -107q47 -82 47 -289q0 -408 -258 -727q-295 -365 -776 -364q-229 0 -358 200q-109 170 -109 408zM203 551q0 -176 71 -322q90 -182 246 -182q512 0 778 354 q228 303 228 770q0 94 -93.5 123t-324.5 29q-78 0 -162 -1t-176 -1q-231 0 -408 -274q-160 -248 -159 -496zM313 461q14 10 61.5 79.5t53.5 90.5l-22 22q4 16 131 135q53 49 53 113q0 12 -8 53q18 27 57 60q16 14 70 55q14 -8 47 -8q76 0 245.5 63.5t264.5 63.5q37 0 73 -25 q7 -23 13 -43q0 -98 -152 -196q-115 -74 -317 -152q-135 -49 -269 -96q78 -76 148 -189q84 -135 84 -219q0 -37 -21.5 -55t-60.5 -23q0 106 -68 250q-80 170 -172 170q-43 0 -96 -108q-29 -57 -63 -70q-16 4 -35 10.5t-17 18.5zM592 766l10 -10l45 -2q102 0 340 118 q258 129 258 211q0 25 -15.5 34t-41.5 9q-16 0 -53 -8q-201 -53 -320 -117q-182 -98 -223 -235z" />
<glyph unicode="&#xaf;" horiz-adv-x="770" d="M53 1223v12l13 14q0 18 4 37t22 33l109 8q70 0 223.5 22.5t204.5 22.5q57 0 57 -51q0 -33 -10 -55.5t-37 -22.5q-20 0 -41 8q-61 25 -74 25q-53 0 -241 -43q-90 -20 -148 -21q-25 0 -46 4.5t-36 6.5z" />
<glyph unicode="&#xb0;" horiz-adv-x="614" d="M96 1022q0 63 119 125q104 53 178 53q61 0 106.5 -32t45.5 -93q0 -72 -103 -112q-78 -31 -163 -31q-74 0 -113 12q-70 23 -70 78zM141 1018q51 -53 125 -53q70 0 142 24q96 33 96 90q0 35 -36 53.5t-73 18.5q-70 0 -144.5 -38t-109.5 -95z" />
<glyph unicode="&#xb1;" horiz-adv-x="1474" d="M16 788q0 41 34 68t77 27q16 0 46 -19.5t38 -19.5q68 -6 141 -6h71t71 2q217 0 219 248.5t102 248.5q86 0 86 -80q0 -35 -43 -161q-20 -59 -20 -99q0 -59 36.5 -79.5t100.5 -20.5q59 0 217 18q88 10 131 11q43 0 72 -27t43 -74q-35 -14 -74 -29.5t-72 -15.5q-51 0 -131 8 q-178 18 -225 19q-111 0 -143 -123q-12 -47 -19.5 -217t-48.5 -197q-16 -10 -81.5 -13t-74.5 -3q0 23 -2 44t-4 44q0 53 25 125q57 166 57 209q0 49 -36 68.5t-87 19.5q-66 0 -141 -21q-190 -51 -234 -51q-51 0 -86 21q-45 27 -45 75zM203 2v18l18 21q0 37 7.5 58.5 t31.5 39.5q2 2 76 6.5t78 4.5q92 0 239 20q326 45 377 45q41 0 61.5 -16.5t20.5 -57.5q0 -45 -14.5 -77.5t-53.5 -32.5q-25 0 -61 14q-82 33 -104 33q-94 0 -278.5 -45t-278.5 -45q-61 0 -119 14z" />
<glyph unicode="&#xb2;" horiz-adv-x="497" d="M-8 795q0 31 35 39l47 16q76 20 190 98q135 92 135 156q0 66 -69 65q-35 0 -94.5 -31.5t-88.5 -31.5q-25 0 -24 24q0 51 88 80q66 20 133 21q115 0 115 -115q0 -72 -74 -143q-53 -51 -141 -94q70 -49 82 -62q20 -23 24 -57q-41 12 -87 27.5t-77 15.5q-35 0 -80 -22.5 t-61 -22.5q-23 0 -38 8t-15 29z" />
<glyph unicode="&#xb3;" horiz-adv-x="423" d="M-20 799q0 12 11 23.5t38 17.5q6 -29 35.5 -40.5t62.5 -11.5q43 0 86 15q59 20 59 55q0 39 -38.5 48t-92.5 9q-20 0 -33.5 11.5t-13.5 31.5q0 23 109 66q63 25 88 61q-27 25 -54.5 34t-62.5 9q-12 0 -45 -2t-51 -2q-51 0 -51 31q0 20 19.5 35.5t41.5 21.5l8 -8 q143 -12 202.5 -40t59.5 -79q0 -23 -18 -49q-10 -14 -68 -67q31 -20 50.5 -47t19.5 -62q0 -59 -57 -96q-47 -31 -113 -31q-92 0 -142 16.5t-50 49.5z" />
<glyph unicode="&#xb4;" horiz-adv-x="745" d="M213 1206l14 29q35 57 152 182q133 141 161.5 147.5t39.5 6.5q16 0 30 -8q31 -16 31 -52q0 -14 -5 -29.5t-15 -33.5q-23 -43 -144 -162q-131 -127 -162 -125q-18 0 -53 17q-6 4 -49 28z" />
<glyph unicode="&#xb5;" horiz-adv-x="1560" d="M-39 -123q0 43 90 137q29 31 90 86q12 72 158 258q137 178 285 326q160 162 209 162q39 0 38 -41q0 -49 -115.5 -182.5t-230.5 -262.5q-137 -158 -172 -243l21 -21q12 0 39.5 -2t42.5 -2q59 0 128.5 27.5t135.5 56.5q96 37 178 80t154 100q57 45 162 189q82 113 163 227 q86 111 125 111q25 0 54 -21q6 -19 12 -37q0 -72 -103.5 -197.5t-201.5 -244.5q-109 -147 -109 -248q0 -35 20.5 -46t55.5 -11q37 2 51 2q31 0 66 -10l28 -33q-41 -8 -73 -19q-86 -25 -127 -24q-90 0 -123 49q-25 37 -25 117v46t2 48q-164 -104 -198 -123 q-119 -68 -224.5 -105.5t-220.5 -37.5q-45 0 -74.5 3t-64.5 15q-55 -61 -84 -92q-90 -92 -113 -92q-33 0 -41 10t-8 45z" />
<glyph unicode="&#xb6;" horiz-adv-x="1351" d="M68 1309q0 131 81.5 249.5t188.5 118.5q82 0 168 -49q117 -68 303 -258q197 -201 240 -303l-15 -76l-45 10l-4 -20q-23 -111 -22 -281q0 -90 4 -165.5t22 -249.5q4 -47 8 -97.5t4 -68.5q0 -63 -9 -106.5t-34 -67.5q-35 20 -43 55q-18 70 -27 169t-9 196q0 53 2 158.5 t2 156.5q0 113 -5.5 184.5t-23.5 151.5q-4 18 -8 38.5t-4 41.5l-47 69q-18 -35 -27.5 -88t-9.5 -121q0 -66 8 -159q18 -215 18 -236l68 6q2 -8 2 -26q0 -41 -30.5 -119t-30.5 -115q0 -25 8 -78q18 -121 18 -153q0 -39 -12 -64q-4 -6 -18.5 -19t-26.5 -24l-49 4 q-43 51 -43 138q12 70 24 141q0 61 -12 106t-55 88q-195 195 -236 240q-143 158 -223 297q-100 176 -100 326zM178 1333q0 -182 168 -444q160 -250 291 -316l16 -8l27 8q6 55 6 111q0 63 -20 266q-10 100 -11 160q0 27 9.5 77t9.5 70q0 68 -50.5 135.5t-129.5 116.5 q-31 18 -65 31.5t-60 13.5q-74 0 -132.5 -60t-58.5 -161z" />
<glyph unicode="&#xb7;" horiz-adv-x="491" d="M127 784q0 45 31.5 59.5t83.5 14.5q70 1 133 -22q-8 -35 -15 -68q-12 -35 -49 -35q-31 -4 -53 -14q-31 -23 -49.5 -35t-24.5 -12q-23 0 -40 42t-17 70z" />
<glyph unicode="&#xb8;" horiz-adv-x="565" d="M154 -416q104 121 125 146q98 117 98 137q0 37 -61.5 90t-61.5 86q0 29 43 54.5t86 25.5q37 0 87 -78t50 -113q0 -106 -90 -221q-104 -131 -237 -131q-25 0 -39 4z" />
<glyph unicode="&#xb9;" horiz-adv-x="262" d="M47 643q0 27 4 61.5t7 59t5.5 93.5t2.5 71q0 23 5 63.5t5 55.5q-12 20 -13 32q0 6 14.5 18.5t16.5 16.5q31 0 40 -15.5t9 -41.5q0 -47 -4 -101q-10 -135 -10 -168q0 -72 14 -135q-18 -6 -34.5 -9t-30.5 -3z" />
<glyph unicode="&#xba;" horiz-adv-x="657" d="M33 1083q0 86 160 168q141 72 239 72q84 0 145.5 -42t61.5 -126q0 -96 -139 -149q-111 -43 -224 -43q-96 0 -149 16q-94 29 -94 104zM94 1077q70 -70 166 -69q96 0 193 32q129 45 129 121q0 49 -46.5 72.5t-101.5 23.5q-88 0 -191.5 -53t-148.5 -127z" />
<glyph unicode="&#xbb;" horiz-adv-x="1785" d="M43 180v37q100 12 317 152q205 131 381 293q188 172 211 260q-20 68 -182 145q-143 66 -287 131q-152 82 -151 162q0 35 24 65q16 20 56 50q127 -102 256 -205q150 -115 276 -172q160 -74 316 -74q0 -59 -5.5 -96t-25 -75t-242.5 -191q-369 -254 -432 -302 q-250 -182 -317 -280q-31 -41 -74 -41q-33 0 -62.5 16.5t-50.5 44.5q-8 35 -8 80zM682 180v37q100 12 317 152q205 131 381 293q188 172 211 260q-20 68 -182 145q-143 66 -287 131q-152 82 -151 162q0 35 24 65q16 20 56 50q127 -102 256 -205q150 -115 276 -172 q159 -74 315 -74q0 -59 -5 -96t-24.5 -75t-242.5 -191q-369 -254 -432 -302q-250 -182 -317 -280q-31 -41 -74 -41q-33 0 -62.5 16.5t-50.5 44.5q-8 35 -8 80z" />
<glyph unicode="&#xbc;" horiz-adv-x="1294" d="M-57 -291l8 66q6 25 18 55q6 16 27 53q41 61 110 137q59 63 121 130q96 106 203 237q123 152 328 422q164 256 258 392t133 157q18 -6 30.5 -39t6.5 -62q-12 -59 -234 -342q-102 -129 -434 -530q-252 -305 -307 -377q-2 -4 -113 -184q-43 -70 -54 -79t-48 -20.5 t-53 -15.5zM248 653q0 27 4 62t7 59.5t5 93t2 70.5q0 23 5 63.5t5 55.5q-12 20 -12 33q0 6 14.5 18t16.5 16q31 0 40 -15t9 -42q0 -47 -4 -100q-10 -135 -10 -168q0 -72 14 -135q-18 -6 -34.5 -9.5t-30.5 -3.5zM686 113q0 12 13.5 26.5t17.5 18.5q2 2 139 161q55 63 62 64 q25 0 24 -41q0 -8 -59 -86q-74 -98 -78 -102q68 -31 82 -35q55 -20 88 -21q76 0 94 184.5t39 184.5q20 0 31.5 -24.5t11.5 -49.5q0 -43 -51 -235q-35 -131 -70 -260q-12 -49 -61 -56q0 31 10 90.5t10 79.5q0 35 -69.5 55.5t-114.5 20.5q-10 0 -30.5 -8t-33.5 -8 q-18 0 -36.5 11t-18.5 30z" />
<glyph unicode="&#xbd;" horiz-adv-x="1286" d="M-51 -291l8 66q6 25 18 55q6 16 27 53q41 61 111 137q59 63 120 130q96 106 203 237q123 152 328 422q164 256 258 392t133 157q18 -6 30.5 -39t6.5 -62q-12 -59 -234 -342q-102 -129 -434 -530q-252 -305 -307 -377q-2 -4 -113 -184q-43 -70 -54 -79t-48 -20.5 t-53 -15.5zM264 664q0 27 4 61.5t7.5 59t5.5 93t2 70.5q0 23 5 64t5 55q-12 20 -12 33q0 6 14 18t16 17q31 0 40 -15.5t9 -42.5q0 -47 -4 -100q-10 -135 -10 -168q0 -72 14 -135q-18 -6 -34.5 -9t-30.5 -3zM739 16q0 31 35 39l47 17q76 20 191 98q135 92 135 156 q0 66 -70 65q-35 0 -94 -31.5t-88 -31.5q-25 0 -25 24q0 51 88 80q66 20 134 21q114 0 114 -115q0 -72 -73 -143q-53 -51 -142 -95q70 -49 82 -61q20 -23 25 -57q-41 14 -87 28.5t-77 14.5q-35 0 -80 -22.5t-61 -22.5q-23 0 -38.5 8t-15.5 28z" />
<glyph unicode="&#xbe;" horiz-adv-x="1372" d="M51 -291l8 66q6 25 19 55q6 16 26 53q41 61 111 137q59 63 121 130q96 106 203 237q123 152 327 422q164 256 258.5 392t132.5 157q18 -6 30.5 -39t6.5 -62q-12 -59 -233 -342q-102 -129 -434 -530q-252 -305 -308 -377q-2 -4 -112 -184q-43 -70 -54.5 -79t-48 -20.5 t-53.5 -15.5zM139 788q0 12 11.5 23.5t37.5 17.5q6 -29 36 -40t63 -11q43 0 86 15q59 20 59 55q0 39 -39 48t-92 9q-20 0 -33.5 11.5t-13.5 31.5q0 23 108 66q63 25 89 61q-27 25 -54.5 34t-62.5 9q-12 0 -45 -2t-51 -2q-51 0 -52 31q0 20 19.5 35.5t42.5 21.5l8 -8 q143 -12 202.5 -40t59.5 -79q0 -23 -18 -49q-10 -14 -68 -68q31 -20 50.5 -46.5t19.5 -61.5q0 -59 -58 -96q-47 -31 -112 -31q-92 0 -142.5 16.5t-50.5 48.5zM825 113q0 12 13.5 26.5t17.5 18.5q2 2 139 161q55 63 62 64q25 0 24 -41q0 -8 -59 -86q-74 -98 -78 -102 q68 -31 82 -35q55 -20 88 -21q76 0 94.5 184.5t38.5 184.5t31.5 -24.5t11.5 -49.5q0 -43 -51 -235q-35 -131 -70 -260q-12 -49 -61 -56q0 31 10 90.5t10 79.5q0 35 -69.5 55.5t-114.5 20.5q-10 0 -30.5 -8t-32.5 -8q-18 0 -37 11t-19 30z" />
<glyph unicode="&#xbf;" horiz-adv-x="1157" d="M160 129q0 121 114 244q80 86 250 198q119 78 240 158q31 23 59.5 112t94.5 103q29 -88 32.5 -104t3.5 -49q0 -76 -144 -170.5t-288 -186.5q-172 -129 -223 -274q31 -31 51.5 -42.5t61.5 -11.5q63 0 282 72q100 33 166 33q23 0 37 -9t14 -32q0 -78 -179 -127t-417 -49 q-12 -2 -20 -2q-59 0 -97 35.5t-38 101.5zM776 1247q0 37 32 48.5t79 11.5q49 -1 106 -11q-10 -70 -32 -100q-29 -41 -95 -41q-41 0 -65.5 24.5t-24.5 67.5z" />
<glyph unicode="&#xc0;" horiz-adv-x="1484" d="M152 18q8 74 77 175q57 80 117 159l-117 39v21q0 96 101 110q131 20 198 174q31 68 56 103q45 63 90 63q47 0 80 -22q86 47 266 256q256 297 303 346q172 174 279 174l57 -6q-33 -188 -168 -486q-117 -250 -234.5 -512t-117.5 -417q0 -70 80 -177q37 -47 73 -94l-43 -6 q-8 -2 -24 -2q-84 0 -144.5 78t-60.5 172q0 29 27 143q12 53 12 84q0 4 -12.5 37t-12.5 35q-35 18 -79 23.5t-109 5.5h-46.5h-29.5q-178 0 -276 -123q-68 -115 -134 -230q-78 -123 -208 -123zM629 721l20 -21l19 21v20l-19 19l-20 -19v-20zM659 797q0 -12 5 -27q4 -12 8 -25 q12 10 27.5 24t15.5 24l-4 51l-21 -23q-33 0 -31 -24zM672 606q55 -12 110 -26q127 -35 191 -35q35 0 58.5 5t50 19.5t169.5 284.5q129 244 166 326q31 74 48.5 138t17.5 134q-170 -117 -438.5 -394.5t-372.5 -451.5zM1292 2009q0 47 25.5 76.5t70.5 48.5q86 -47 133 -170 q41 -105 41 -222q-88 10 -176 93q-94 88 -94 174z" />
<glyph unicode="&#xc1;" horiz-adv-x="1484" d="M152 18q8 74 77 175q57 80 117 159l-117 39v21q0 96 101 110q131 20 198 174q31 68 56 103q45 63 90 63q47 0 80 -22q86 47 266 256q256 297 303 346q172 174 279 174l57 -6q-33 -188 -168 -486q-117 -250 -234.5 -512t-117.5 -417q0 -70 80 -177q37 -47 73 -94l-43 -6 q-8 -2 -24 -2q-84 0 -144.5 78t-60.5 172q0 29 27 143q12 53 12 84q0 4 -12.5 37t-12.5 35q-35 18 -79 23.5t-109 5.5h-46.5h-29.5q-178 0 -276 -123q-68 -115 -134 -230q-78 -123 -208 -123zM629 721l20 -21l19 21v20l-19 19l-20 -19v-20zM659 797q0 -12 5 -27q4 -12 8 -25 q12 10 27.5 24t15.5 24l-4 51l-21 -23q-33 0 -31 -24zM672 606q55 -12 110 -26q127 -35 191 -35q35 0 58.5 5t50 19.5t169.5 284.5q129 244 166 326q31 74 48.5 138t17.5 134q-170 -117 -438.5 -394.5t-372.5 -451.5zM1579 1786l14 29q35 57 152 182q133 141 161.5 147.5 t39.5 6.5q16 0 30 -8q31 -16 31 -52q0 -14 -5 -29.5t-15 -33.5q-23 -43 -144 -162q-131 -127 -162 -125q-18 0 -53 17q-6 4 -49 28z" />
<glyph unicode="&#xc2;" horiz-adv-x="1484" d="M152 18q8 74 77 175q57 80 117 159l-117 39v21q0 96 101 110q131 20 198 174q31 68 56 103q45 63 90 63q47 0 80 -22q86 47 266 256q256 297 303 346q172 174 279 174l57 -6q-33 -188 -168 -486q-117 -250 -234.5 -512t-117.5 -417q0 -70 80 -177q37 -47 73 -94l-43 -6 q-8 -2 -24 -2q-84 0 -144.5 78t-60.5 172q0 29 27 143q12 53 12 84q0 4 -12.5 37t-12.5 35q-35 18 -79 23.5t-109 5.5h-46.5h-29.5q-178 0 -276 -123q-68 -115 -134 -230q-78 -123 -208 -123zM629 721l20 -21l19 21v20l-19 19l-20 -19v-20zM659 797q0 -12 5 -27q4 -12 8 -25 q12 10 27.5 24t15.5 24l-4 51l-21 -23q-33 0 -31 -24zM672 606q55 -12 110 -26q127 -35 191 -35q35 0 58.5 5t50 19.5t169.5 284.5q129 244 166 326q31 74 48.5 138t17.5 134q-170 -117 -438.5 -394.5t-372.5 -451.5zM1194 1682q0 27 49 55q70 35 141 69l400 283 q14 10 28.5 24.5l28.5 28.5q31 23 37 27q12 6 30 6q33 0 53.5 -141.5t20.5 -331.5q0 -31 -20.5 -60.5t-55.5 -29.5q-27 0 -44 23.5t-17 48.5q0 8 10 51q4 16 4 35q0 84 -8 134t-37 107q-25 -23 -90 -58.5t-92 -57.5q-61 -51 -123.5 -102.5t-116.5 -106.5q-25 -27 -49 -44.5 t-57 -17.5q-27 0 -59.5 17.5t-32.5 40.5z" />
<glyph unicode="&#xc3;" horiz-adv-x="1484" d="M152 18q8 74 77 175q57 80 117 159l-117 39v21q0 96 101 110q131 20 198 174q31 68 56 103q45 63 90 63q47 0 80 -22q86 47 266 256q256 297 303 346q172 174 279 174l57 -6q-33 -188 -168 -486q-117 -250 -234.5 -512t-117.5 -417q0 -70 80 -177q37 -47 73 -94l-43 -6 q-8 -2 -24 -2q-84 0 -144.5 78t-60.5 172q0 29 27 143q12 53 12 84q0 4 -12.5 37t-12.5 35q-35 18 -79 23.5t-109 5.5h-46.5h-29.5q-178 0 -276 -123q-68 -115 -134 -230q-78 -123 -208 -123zM629 721l20 -21l19 21v20l-19 19l-20 -19v-20zM659 797q0 -12 5 -27q4 -12 8 -25 q12 10 27.5 24t15.5 24l-4 51l-21 -23q-33 0 -31 -24zM672 606q55 -12 110 -26q127 -35 191 -35q35 0 58.5 5t50 19.5t169.5 284.5q129 244 166 326q31 74 48.5 138t17.5 134q-170 -117 -438.5 -394.5t-372.5 -451.5zM1294 1808q0 20 13 25q70 10 139 20q18 6 55 19 q72 25 101 24q29 0 57.5 -61.5t103.5 -61.5q41 0 88.5 39t67.5 39q25 0 25 -39q0 -49 -82 -75q-61 -20 -133 -21q-106 0 -134 72q-12 33 -47 33q-29 0 -104.5 -30t-104.5 -30q-23 0 -34 13.5t-11 33.5z" />
<glyph unicode="&#xc4;" horiz-adv-x="1484" d="M152 18q8 74 77 175q57 80 117 159l-117 39v21q0 96 101 110q131 20 198 174q31 68 56 103q45 63 90 63q47 0 80 -22q86 47 266 256q256 297 303 346q172 174 279 174l57 -6q-33 -188 -168 -486q-117 -250 -234.5 -512t-117.5 -417q0 -70 80 -177q37 -47 73 -94l-43 -6 q-8 -2 -24 -2q-84 0 -144.5 78t-60.5 172q0 29 27 143q12 53 12 84q0 4 -12.5 37t-12.5 35q-35 18 -79 23.5t-109 5.5h-46.5h-29.5q-178 0 -276 -123q-68 -115 -134 -230q-78 -123 -208 -123zM629 721l20 -21l19 21v20l-19 19l-20 -19v-20zM659 797q0 -12 5 -27q4 -12 8 -25 q12 10 27.5 24t15.5 24l-4 51l-21 -23q-33 0 -31 -24zM672 606q55 -12 110 -26q127 -35 191 -35q35 0 58.5 5t50 19.5t169.5 284.5q129 244 166 326q31 74 48.5 138t17.5 134q-170 -117 -438.5 -394.5t-372.5 -451.5zM1383 1798q0 45 31.5 59.5t82.5 14.5q70 0 133 -23 q-8 -35 -14 -67q-12 -35 -49 -35q-31 -4 -53 -14q-31 -23 -49.5 -35.5t-24.5 -12.5q-23 0 -40 42t-17 71zM1768 1790q0 45 31.5 59.5t82.5 14.5q70 0 133 -23q-8 -35 -14 -68q-12 -35 -49 -34q-31 -4 -53 -15q-31 -23 -49.5 -35t-24.5 -12q-23 0 -40 42t-17 71z" />
<glyph unicode="&#xc5;" horiz-adv-x="1484" d="M152 18q8 74 77 175q57 80 117 159l-117 39v21q0 96 101 110q131 20 198 174q31 68 56 103q45 63 90 63q47 0 80 -22q86 47 266 256q256 297 303 346q172 174 279 174l57 -6q-33 -188 -168 -486q-117 -250 -234.5 -512t-117.5 -417q0 -70 80 -177q37 -47 73 -94l-43 -6 q-8 -2 -24 -2q-84 0 -144.5 78t-60.5 172q0 29 27 143q12 53 12 84q0 4 -12.5 37t-12.5 35q-35 18 -79 23.5t-109 5.5h-46.5h-29.5q-178 0 -276 -123q-68 -115 -134 -230q-78 -123 -208 -123zM629 721l20 -21l19 21v20l-19 19l-20 -19v-20zM659 797q0 -12 5 -27q4 -12 8 -25 q12 10 27.5 24t15.5 24l-4 51l-21 -23q-33 0 -31 -24zM672 606q55 -12 110 -26q127 -35 191 -35q35 0 58.5 5t50 19.5t169.5 284.5q129 244 166 326q31 74 48.5 138t17.5 134q-170 -117 -438.5 -394.5t-372.5 -451.5zM1421 1788q0 80 148 156q129 66 221 65q80 0 136 -37.5 t56 -117.5q0 -90 -129 -140q-100 -39 -206 -38q-86 0 -138 16q-88 29 -88 96zM1477 1782q66 -66 155 -66q88 0 176 31q121 43 121 113q0 47 -42 67.5t-95 20.5q-82 0 -178 -49t-137 -117z" />
<glyph unicode="&#xc6;" horiz-adv-x="2273" d="M152 18q8 74 77 175q57 80 117 159l-117 39v21q0 96 101 110q131 20 198 174q31 68 56 103q45 63 90 63q47 0 80 -22q86 47 266 256q256 297 303 346q172 174 279 174l57 -6q-16 -98 -60.5 -222t-99.5 -243t-113 -240q31 23 54.5 44.5t46.5 56.5q90 172 180 346 q94 123 428 123q76 0 172 -19q29 -6 283 -72q-51 -27 -110.5 -38t-129.5 -11q-35 0 -129 7.5t-141 7.5q-156 0 -289 -162q-57 -70 -195 -309q100 -16 201 -31q147 -31 170 -80q-59 -27 -287 -70q-203 -37 -288 -98q-133 -94 -133 -295q0 -135 170 -186q102 -31 268 -31 q39 0 131 11.5t121 11.5q55 0 93 -12.5t60 -55.5q-41 -23 -213 -30t-301 -7q-92 0 -180 17q-121 23 -199 71q-49 6 -73 12q-76 20 -76 60q0 29 27 143q12 53 12 84q0 4 -12.5 37t-12.5 35q-35 18 -79 23.5t-109 5.5h-46.5h-29.5q-178 0 -276 -123q-68 -115 -134 -230 q-78 -123 -208 -123zM633 725l20 -20l19 20v20l-19 19l-20 -19v-20zM659 797q0 -12 5 -27q4 -12 8 -25q12 10 27.5 24t15.5 24l-4 51l-21 -23q-33 0 -31 -24zM672 606q55 -12 110 -26q127 -35 191 -35q35 0 58.5 5t50 19.5t169.5 284.5q129 244 166 326q31 74 48.5 138 t17.5 134q-170 -117 -438.5 -394.5t-372.5 -451.5z" />
<glyph unicode="&#xc7;" horiz-adv-x="1445" d="M172 371q0 266 320.5 615t578.5 349q123 0 186.5 -55t63.5 -180q0 -53 -10.5 -123t-18.5 -133q-51 8 -100 28l-27 50q14 57 21.5 97t7.5 79q0 55 -35 84.5t-92 29.5q-238 0 -507 -305t-269 -551q0 -162 170 -243q127 -61 274 -62q98 0 230 15q49 6 229 30q45 6 121 35 t110 35q13 -18 21 -49q-20 -4 -251.5 -70.5t-391.5 -66.5q45 -55 45 -86q0 -88 -94 -185q-109 -111 -246 -110l-41 4q66 61 131 123q100 96 100 114q0 29 -63.5 74t-63.5 70q-178 25 -278 106q-121 98 -121 281z" />
<glyph unicode="&#xc8;" horiz-adv-x="1157" d="M154 250q0 53 95 209.5t107 257.5q113 88 228 178q90 156 180 311q94 111 424 111q78 0 170 -17q12 -2 280 -65q-47 -20 -110.5 -31.5t-124.5 -11.5q-45 0 -135 6t-135 6q-154 0 -287 -143q-59 -63 -193 -277q98 -14 199 -26q147 -27 170 -72q-55 -23 -285 -61 q-201 -33 -288 -90q-131 -84 -132 -263q0 -119 168 -166q104 -29 267 -28q41 0 94 6q125 14 158 14q57 0 93 -11t58 -48q-39 -18 -216 -25.5t-294 -7.5q-170 0 -299 43q-193 63 -192 201zM922 1686q0 47 25.5 76.5t70.5 48.5q86 -47 133 -170q41 -105 41 -222 q-88 10 -176 93q-94 88 -94 174z" />
<glyph unicode="&#xc9;" horiz-adv-x="1157" d="M154 250q0 53 95 209.5t107 257.5q113 88 228 178q90 156 180 311q94 111 424 111q78 0 170 -17q12 -2 280 -65q-47 -20 -110.5 -31.5t-124.5 -11.5q-45 0 -135 6t-135 6q-154 0 -287 -143q-59 -63 -193 -277q98 -14 199 -26q147 -27 170 -72q-55 -23 -285 -61 q-201 -33 -288 -90q-131 -84 -132 -263q0 -119 168 -166q104 -29 267 -28q41 0 94 6q125 14 158 14q57 0 93 -11t58 -48q-39 -18 -216 -25.5t-294 -7.5q-170 0 -299 43q-193 63 -192 201zM1133 1448l14 29q35 57 152 182q133 141 161.5 147.5t39.5 6.5q16 0 30 -8 q31 -16 31 -52q0 -14 -5 -29.5t-15 -33.5q-23 -43 -144 -162q-131 -127 -162 -125q-18 0 -53 17q-6 4 -49 28z" />
<glyph unicode="&#xca;" horiz-adv-x="1157" d="M154 250q0 53 95 209.5t107 257.5q113 88 228 178q90 156 180 311q94 111 424 111q78 0 170 -17q12 -2 280 -65q-47 -20 -110.5 -31.5t-124.5 -11.5q-45 0 -135 6t-135 6q-154 0 -287 -143q-59 -63 -193 -277q98 -14 199 -26q147 -27 170 -72q-55 -23 -285 -61 q-201 -33 -288 -90q-131 -84 -132 -263q0 -119 168 -166q104 -29 267 -28q41 0 94 6q125 14 158 14q57 0 93 -11t58 -48q-39 -18 -216 -25.5t-294 -7.5q-170 0 -299 43q-193 63 -192 201zM803 1434q0 27 49 55q70 35 141 69l400 283q14 10 28.5 24.5l28.5 28.5q31 23 37 27 q12 6 30 6q33 0 53.5 -141.5t20.5 -331.5q0 -31 -20.5 -60.5t-55.5 -29.5q-27 0 -44 23.5t-17 48.5q0 8 10 51q4 16 4 35q0 84 -8 134t-37 107q-25 -23 -90 -58.5t-92 -57.5q-61 -51 -123.5 -102.5t-116.5 -106.5q-25 -27 -49 -44.5t-57 -17.5q-27 0 -59.5 17.5t-32.5 40.5z " />
<glyph unicode="&#xcb;" horiz-adv-x="1157" d="M154 250q0 53 95 209.5t107 257.5q113 88 228 178q90 156 180 311q94 111 424 111q78 0 170 -17q12 -2 280 -65q-47 -20 -110.5 -31.5t-124.5 -11.5q-45 0 -135 6t-135 6q-154 0 -287 -143q-59 -63 -193 -277q98 -14 199 -26q147 -27 170 -72q-55 -23 -285 -61 q-201 -33 -288 -90q-131 -84 -132 -263q0 -119 168 -166q104 -29 267 -28q41 0 94 6q125 14 158 14q57 0 93 -11t58 -48q-39 -18 -216 -25.5t-294 -7.5q-170 0 -299 43q-193 63 -192 201zM973 1542q0 45 31.5 59.5t82.5 14.5q70 0 133 -23q-8 -35 -14 -67q-12 -35 -49 -35 q-31 -4 -53 -14q-31 -23 -49.5 -35.5t-24.5 -12.5q-23 0 -40 42t-17 71zM1358 1534q0 45 31.5 59.5t82.5 14.5q70 0 133 -23q-8 -35 -14 -68q-12 -35 -49 -34q-31 -4 -53 -15q-31 -23 -49.5 -35t-24.5 -12q-23 0 -40 42t-17 71z" />
<glyph unicode="&#xcc;" horiz-adv-x="1427" d="M154 -37q0 84 200.5 108.5t270.5 106.5q92 109 227 422t160 465q-12 27 -28.5 34t-51.5 7q-66 0 -150 -33q-193 -76 -254 -76l-47 4v50q0 37 4 51q12 49 265 98q203 41 457.5 67.5t336.5 26.5q49 0 86 -25.5t47 -72.5q-84 -25 -252 -29t-241 -22q-14 -16 -27 -70 q-33 -141 -39 -153l-387 -805q78 -16 148 -17q82 0 192 25q258 57 311 57q66 0 66 -65q0 -61 -48 -84t-124 -23q-33 0 -88 4t-70 4q-121 0 -283.5 -35.5t-328.5 -72.5t-275 -37q-78 0 -77 90zM776 1633q0 47 25.5 76.5t70.5 48.5q86 -47 133 -170q41 -105 41 -222 q-88 10 -176 93q-94 88 -94 174z" />
<glyph unicode="&#xcd;" horiz-adv-x="1427" d="M154 -37q0 84 200.5 108.5t270.5 106.5q92 109 227 422t160 465q-12 27 -28.5 34t-51.5 7q-66 0 -150 -33q-193 -76 -254 -76l-47 4v50q0 37 4 51q12 49 265 98q203 41 457.5 67.5t336.5 26.5q49 0 86 -25.5t47 -72.5q-84 -25 -252 -29t-241 -22q-14 -16 -27 -70 q-33 -141 -39 -153l-387 -805q78 -16 148 -17q82 0 192 25q258 57 311 57q66 0 66 -65q0 -61 -48 -84t-124 -23q-33 0 -88 4t-70 4q-121 0 -283.5 -35.5t-328.5 -72.5t-275 -37q-78 0 -77 90zM1057 1429l14 29q35 57 152 182q133 141 161.5 147.5t39.5 6.5q16 0 30 -8 q31 -16 31 -52q0 -14 -5 -29.5t-15 -33.5q-23 -43 -144 -162q-131 -127 -162 -125q-18 0 -53 17q-6 4 -49 28z" />
<glyph unicode="&#xce;" horiz-adv-x="1427" d="M154 -37q0 84 200.5 108.5t270.5 106.5q92 109 227 422t160 465q-12 27 -28.5 34t-51.5 7q-66 0 -150 -33q-193 -76 -254 -76l-47 4v50q0 37 4 51q12 49 265 98q203 41 457.5 67.5t336.5 26.5q49 0 86 -25.5t47 -72.5q-84 -25 -252 -29t-241 -22q-14 -16 -27 -70 q-33 -141 -39 -153l-387 -805q78 -16 148 -17q82 0 192 25q258 57 311 57q66 0 66 -65q0 -61 -48 -84t-124 -23q-33 0 -88 4t-70 4q-121 0 -283.5 -35.5t-328.5 -72.5t-275 -37q-78 0 -77 90zM684 1418q0 27 49 55q70 35 141 69l400 283q14 10 28.5 24.5l28.5 28.5 q31 23 37 27q12 6 30 6q33 0 53.5 -141.5t20.5 -331.5q0 -31 -20.5 -60.5t-55.5 -29.5q-27 0 -44 23.5t-17 48.5q0 8 10 51q4 16 4 35q0 84 -8 134t-37 107q-25 -23 -90 -58.5t-92 -57.5q-61 -51 -123.5 -102.5t-116.5 -106.5q-25 -27 -49 -44.5t-57 -17.5q-27 0 -59.5 17.5 t-32.5 40.5z" />
<glyph unicode="&#xcf;" horiz-adv-x="1427" d="M154 -37q0 84 200.5 108.5t270.5 106.5q92 109 227 422t160 465q-12 27 -28.5 34t-51.5 7q-66 0 -150 -33q-193 -76 -254 -76l-47 4v50q0 37 4 51q12 49 265 98q203 41 457.5 67.5t336.5 26.5q49 0 86 -25.5t47 -72.5q-84 -25 -252 -29t-241 -22q-14 -16 -27 -70 q-33 -141 -39 -153l-387 -805q78 -16 148 -17q82 0 192 25q258 57 311 57q66 0 66 -65q0 -61 -48 -84t-124 -23q-33 0 -88 4t-70 4q-121 0 -283.5 -35.5t-328.5 -72.5t-275 -37q-78 0 -77 90zM809 1501q0 45 31.5 59.5t82.5 14.5q70 0 133 -23q-8 -35 -14 -67 q-12 -35 -49 -35q-31 -4 -53 -14q-31 -23 -49.5 -35.5t-24.5 -12.5q-23 0 -40 42t-17 71zM1194 1493q0 45 31.5 59.5t82.5 14.5q70 0 133 -23q-8 -35 -14 -68q-12 -35 -49 -34q-31 -4 -53 -15q-31 -23 -49.5 -35t-24.5 -12q-23 0 -40 42t-17 71z" />
<glyph unicode="&#xd0;" horiz-adv-x="1388" d="M-111 41q0 33 29 57.5t64 36.5q-2 -20 -2 -29q0 -74 49 -102q39 -23 129 -22q172 0 434 96q281 104 471 256q223 180 223 362q0 217 -350 428q-317 190 -551 191h-41q-49 0 -76.5 3t-54.5 15q-43 14 -57 45q0 33 40 53.5t74 20.5q193 0 451 -102q281 -111 457 -273 q208 -190 208 -393q0 -223 -231 -418q-193 -162 -508 -270q-285 -98 -491 -98q-98 0 -166 24q-100 37 -101 119zM283 539v12l12 14q0 29 7 44.5t22 25.5l110 6q43 0 101.5 8t80.5 10q88 205 105 234q70 125 166 166l18 -19l2 -51q0 -63 -73 -180q-33 -51 -91 -133 q78 12 140 12q59 0 59 -53q0 -31 -10 -53.5t-39 -22.5q-18 0 -74 21q-33 12 -47 12q-29 0 -45 -2t-51 -8q-90 -119 -117 -187.5t-49 -134.5q-27 -45 -61 -45q-27 0 -50.5 21.5t-23.5 48.5q0 45 76 135q53 63 108 129l6 10q-43 -10 -99 -20.5t-97 -10.5q-49 0 -86 11z" />
<glyph unicode="&#xd1;" horiz-adv-x="1484" d="M152 135q117 156 176 238q178 242 208.5 290t96.5 224q31 82 61 133q100 -57 158 -189q25 -57 78 -258q43 -164 90 -239q96 197 194 393q162 313 289 502q170 252 269 262l18 -76q-12 -27 -84 -88q-90 -78 -104 -94q-53 -66 -172 -295q-127 -246 -209 -444 q-100 -242 -101 -320q0 -43 -13 -80t-46 -59q-10 -8 -76 -29q-41 -12 -80 -24q-37 168 -71 335q-43 182 -101 330q-213 -274 -330 -416q-123 -150 -194 -157l-43 12zM837 1456q0 20 13 25q70 10 139 20q18 6 55 19q72 25 101 24q29 0 57.5 -61.5t103.5 -61.5q41 0 88.5 39 t67.5 39q25 0 25 -39q0 -49 -82 -75q-61 -20 -133 -21q-106 0 -134 72q-12 33 -47 33q-29 0 -104.5 -30t-104.5 -30q-23 0 -34 13.5t-11 33.5z" />
<glyph unicode="&#xd2;" horiz-adv-x="1677" d="M172 311q0 209 113 385q88 137 268 289q156 125 313 252q80 72 160 143q102 82 193 82q201 0 321 -254q98 -207 98 -436q0 -250 -262 -520t-510 -270h-114q-254 0 -377 45q-203 74 -203 284zM307 387q0 -127 162 -211q135 -70 274 -70q344 0 537 293q166 252 166 619 q0 119 -84 160q-59 29 -195 28q-111 0 -323 -155q-199 -145 -363 -340q-174 -207 -174 -324zM985 1815q0 47 25.5 76.5t70.5 48.5q86 -47 133 -170q41 -105 41 -222q-88 10 -176 93q-94 88 -94 174z" />
<glyph unicode="&#xd3;" horiz-adv-x="1677" d="M172 311q0 209 113 385q88 137 268 289q156 125 313 252q80 72 160 143q102 82 193 82q201 0 321 -254q98 -207 98 -436q0 -250 -262 -520t-510 -270h-114q-254 0 -377 45q-203 74 -203 284zM307 387q0 -127 162 -211q135 -70 274 -70q344 0 537 293q166 252 166 619 q0 119 -84 160q-59 29 -195 28q-111 0 -323 -155q-199 -145 -363 -340q-174 -207 -174 -324zM1206 1581l14 29q35 57 152 182q133 141 161.5 147.5t39.5 6.5q16 0 30 -8q31 -16 31 -52q0 -14 -5 -29.5t-15 -33.5q-23 -43 -144 -162q-131 -127 -162 -125q-18 0 -53 17 q-6 4 -49 28z" />
<glyph unicode="&#xd4;" horiz-adv-x="1677" d="M172 311q0 209 113 385q88 137 268 289q156 125 313 252q80 72 160 143q102 82 193 82q201 0 321 -254q98 -207 98 -436q0 -250 -262 -520t-510 -270h-114q-254 0 -377 45q-203 74 -203 284zM307 387q0 -127 162 -211q135 -70 274 -70q344 0 537 293q166 252 166 619 q0 119 -84 160q-59 29 -195 28q-111 0 -323 -155q-199 -145 -363 -340q-174 -207 -174 -324zM781 1528q0 27 49 55q70 35 141 69l400 283q14 10 28.5 24.5l28.5 28.5q31 23 37 27q12 6 30 6q33 0 53.5 -141.5t20.5 -331.5q0 -31 -20.5 -60.5t-55.5 -29.5q-27 0 -44 23.5 t-17 48.5q0 8 10 51q4 16 4 35q0 84 -8 134t-37 107q-25 -23 -90 -58.5t-92 -57.5q-61 -51 -123.5 -102.5t-116.5 -106.5q-25 -27 -49 -44.5t-57 -17.5q-27 0 -59.5 17.5t-32.5 40.5z" />
<glyph unicode="&#xd5;" horiz-adv-x="1677" d="M172 311q0 209 113 385q88 137 268 289q156 125 313 252q80 72 160 143q102 82 193 82q201 0 321 -254q98 -207 98 -436q0 -250 -262 -520t-510 -270h-114q-254 0 -377 45q-203 74 -203 284zM307 387q0 -127 162 -211q135 -70 274 -70q344 0 537 293q166 252 166 619 q0 119 -84 160q-59 29 -195 28q-111 0 -323 -155q-199 -145 -363 -340q-174 -207 -174 -324zM901 1675q0 20 13 25q70 10 139 20q18 6 55 19q72 25 101 24q29 0 57.5 -61.5t103.5 -61.5q41 0 88.5 39t67.5 39q25 0 25 -39q0 -49 -82 -75q-61 -20 -133 -21q-106 0 -134 72 q-12 33 -47 33q-29 0 -104.5 -30t-104.5 -30q-23 0 -34 13.5t-11 33.5z" />
<glyph unicode="&#xd6;" horiz-adv-x="1677" d="M172 311q0 209 113 385q88 137 268 289q156 125 313 252q80 72 160 143q102 82 193 82q201 0 321 -254q98 -207 98 -436q0 -250 -262 -520t-510 -270h-114q-254 0 -377 45q-203 74 -203 284zM307 387q0 -127 162 -211q135 -70 274 -70q344 0 537 293q166 252 166 619 q0 119 -84 160q-59 29 -195 28q-111 0 -323 -155q-199 -145 -363 -340q-174 -207 -174 -324zM949 1665q0 45 31.5 59.5t82.5 14.5q70 0 133 -23q-8 -35 -14 -67q-12 -35 -49 -35q-31 -4 -53 -14q-31 -23 -49.5 -35.5t-24.5 -12.5q-23 0 -40 42t-17 71zM1334 1657 q0 45 31.5 59.5t82.5 14.5q70 0 133 -23q-8 -35 -14 -68q-12 -35 -49 -34q-31 -4 -53 -15q-31 -23 -49.5 -35t-24.5 -12q-23 0 -40 42t-17 71z" />
<glyph unicode="&#xd7;" d="M37 1020q0 33 24.5 57.5t63.5 24.5q47 0 82 -35q10 -12 16 -46t13 -44q27 -33 122 -125q39 -39 78 -77t80 -57.5t76 -19.5q78 0 192.5 117t163.5 117q35 0 65.5 -31t30.5 -63q0 -29 -24 -54q-115 -70 -229 -139q-33 -33 -33 -67q0 -25 14 -48.5t45 -52.5q39 -39 166 -139 q63 -51 98 -85t35 -77q0 -16 -6 -34.5t-16 -43.5q-82 33 -88 37q-27 14 -48 35q-39 39 -114.5 133t-118.5 138t-98 44q-82 0 -231.5 -143t-198.5 -131q-23 6 -64 43q-31 27 -59 55q29 33 59 66q145 88 293 178q25 25 25 57q0 25 -12.5 46.5t-37.5 45.5q-158 106 -315 216 q-20 20 -34.5 47.5t-14.5 54.5z" />
<glyph unicode="&#xd8;" horiz-adv-x="1677" d="M172 311q0 209 113 385q88 137 268 289q156 125 313 252q80 72 160 143q102 82 193 82q53 0 98 -17.5t86 -51.5q51 76 91 124t62 60q18 -6 33 -42t8 -65q-6 -27 -47 -90q-16 -25 -59 -86q72 -109 113 -264q34 -133 34 -258q0 -250 -262 -520t-510 -270h-114 q-106 0 -160.5 3t-132.5 17q-47 -80 -56 -92q-29 -43 -41 -55q-10 -6 -51 -18.5t-55 -14.5l10 69q6 33 17.5 58.5t31.5 58.5l23 33q-78 39 -119 98q-47 70 -47 172zM307 387q0 -66 43 -121q37 -47 109 -86l104 111q100 111 195 223q102 123 192 239.5t185 237.5q25 33 61 88 q6 8 78 121q-37 6 -80 6h-27q-111 0 -323 -155q-199 -145 -363 -340q-174 -207 -174 -324zM547 143q104 -37 196 -37q344 0 537 293q166 252 166 619q0 51 -14.5 85t-42.5 58q-131 -170 -316 -389q-168 -201 -319 -381q-186 -219 -207 -248z" />
<glyph unicode="&#xd9;" horiz-adv-x="1638" d="M152 135q0 82 192 359q168 242 378 487.5t261 253.5v-37q0 -41 -184 -256q-283 -328 -344 -407q-186 -240 -187 -340q0 -51 30 -75t81 -24q346 0 663 340q131 141 459 635q227 342 348 342l4 -39q0 -92 -190 -342q-178 -231 -354 -461q-190 -270 -191 -417 q0 -84 101 -121q84 -27 170 -51q-51 -14 -108.5 -29.5t-100.5 -15.5q-113 0 -152 86q-27 59 -27 188v63q-61 -27 -235 -127q-256 -147 -420 -147q-98 0 -137 18q-57 29 -57 117zM1108 1702q0 47 25.5 76.5t70.5 48.5q86 -47 133 -170q41 -105 41 -222q-88 10 -176 93 q-94 88 -94 174z" />
<glyph unicode="&#xda;" horiz-adv-x="1638" d="M152 135q0 82 192 359q168 242 378 487.5t261 253.5v-37q0 -41 -184 -256q-283 -328 -344 -407q-186 -240 -187 -340q0 -51 30 -75t81 -24q346 0 663 340q131 141 459 635q227 342 348 342l4 -39q0 -92 -190 -342q-178 -231 -354 -461q-190 -270 -191 -417 q0 -84 101 -121q84 -27 170 -51q-51 -14 -108.5 -29.5t-100.5 -15.5q-113 0 -152 86q-27 59 -27 188v63q-61 -27 -235 -127q-256 -147 -420 -147q-98 0 -137 18q-57 29 -57 117zM1266 1468l14 29q35 57 152 182q133 141 161.5 147.5t39.5 6.5q16 0 30 -8q31 -16 31 -52 q0 -14 -5 -29.5t-15 -33.5q-23 -43 -144 -162q-131 -127 -162 -125q-18 0 -53 17q-6 4 -49 28z" />
<glyph unicode="&#xdb;" horiz-adv-x="1638" d="M152 135q0 82 192 359q168 242 378 487.5t261 253.5v-37q0 -41 -184 -256q-283 -328 -344 -407q-186 -240 -187 -340q0 -51 30 -75t81 -24q346 0 663 340q131 141 459 635q227 342 348 342l4 -39q0 -92 -190 -342q-178 -231 -354 -461q-190 -270 -191 -417 q0 -84 101 -121q84 -27 170 -51q-51 -14 -108.5 -29.5t-100.5 -15.5q-113 0 -152 86q-27 59 -27 188v63q-61 -27 -235 -127q-256 -147 -420 -147q-98 0 -137 18q-57 29 -57 117zM942 1487q0 27 49 55q70 35 141 69l400 283q14 10 28.5 24.5l28.5 28.5q31 23 37 27q12 6 30 6 q33 0 53.5 -141.5t20.5 -331.5q0 -31 -20.5 -60.5t-55.5 -29.5q-27 0 -44 23.5t-17 48.5q0 8 10 51q4 16 4 35q0 84 -8 134t-37 107q-25 -23 -90 -58.5t-92 -57.5q-61 -51 -123.5 -102.5t-116.5 -106.5q-25 -27 -49 -44.5t-57 -17.5q-27 0 -59.5 17.5t-32.5 40.5z" />
<glyph unicode="&#xdc;" horiz-adv-x="1638" d="M152 135q0 82 192 359q168 242 378 487.5t261 253.5v-37q0 -41 -184 -256q-283 -328 -344 -407q-186 -240 -187 -340q0 -51 30 -75t81 -24q346 0 663 340q131 141 459 635q227 342 348 342l4 -39q0 -92 -190 -342q-178 -231 -354 -461q-190 -270 -191 -417 q0 -84 101 -121q84 -27 170 -51q-51 -14 -108.5 -29.5t-100.5 -15.5q-113 0 -152 86q-27 59 -27 188v63q-61 -27 -235 -127q-256 -147 -420 -147q-98 0 -137 18q-57 29 -57 117zM1151 1583q0 45 31.5 59.5t82.5 14.5q70 0 133 -23q-8 -35 -14 -67q-12 -35 -49 -35 q-31 -4 -53 -14q-31 -23 -49.5 -35.5t-24.5 -12.5q-23 0 -40 42t-17 71zM1536 1575q0 45 31.5 59.5t82.5 14.5q70 0 133 -23q-8 -35 -14 -68q-12 -35 -49 -34q-31 -4 -53 -15q-31 -23 -49.5 -35t-24.5 -12q-23 0 -40 42t-17 71z" />
<glyph unicode="&#xdd;" horiz-adv-x="1097" d="M147 1303q0 27 27 49t53 22q59 0 125 -137q55 -133 113 -264q72 -154 137 -178q115 39 301 221q66 63 297 315q152 164 182 164q23 0 45.5 -12.5t38.5 -30.5q-76 -86 -309 -307q-211 -201 -305 -320q-147 -188 -197 -376q-63 -252 -125 -502q-20 -63 -76.5 -104.5 t-127.5 -57.5q-23 23 -23 39t23 39q2 18 127 401q47 145 47 246q0 139 -111 350q-121 221 -242 443zM813 1540l14 29q35 57 152 182q133 141 161.5 147.5t39.5 6.5q16 0 30 -8q31 -16 31 -52q0 -14 -5 -29.5t-15 -33.5q-23 -43 -144 -162q-131 -127 -162 -125q-18 0 -53 17 q-6 4 -49 28z" />
<glyph unicode="&#xde;" horiz-adv-x="1331" d="M166 84q0 41 45 86q63 63 76.5 83.5t38.5 160.5q10 61 36 92l58 -39q59 84 118.5 172t84.5 192q-80 -43 -119 -59q-70 -31 -127 -39v21l-19 20l19 76q23 18 98 49q35 14 236 88q4 29 39.5 120t60.5 134q12 20 40 28.5t58 8.5q18 0 19 -27q0 -39 -64 -186q-10 -31 -18 -59 q39 10 129 41q59 20 98 20q129 0 203 -69.5t74 -198.5q0 -180 -144 -287q-109 -80 -334 -137q-188 -43 -374 -86q-115 -31 -176 -185q-31 -76 -93 -98l-45 21zM516 426l19 -20h18q211 0 426 88q266 108 266 274q0 94 -62.5 142t-158.5 48q-43 0 -88 -10t-83 -26.5t-66.5 -39 t-45.5 -53.5q-29 -70 -57 -137q-76 -98 -96 -125q-31 -41 -72 -141z" />
<glyph unicode="&#xdf;" horiz-adv-x="1271" d="M188 -63q0 166 136 419q127 211 254 424q137 231 137 330q0 123 62.5 164t244.5 41q135 0 192 -23q97 -38 97 -155q0 -129 -158 -273q-45 -41 -268 -198q162 -37 241 -66q145 -51 146 -174q0 -139 -209 -256q-193 -109 -375 -109q-70 0 -127 27q-78 35 -78 98q0 14 2 25 q2 12 13 45q111 -63 152.5 -80.5t86.5 -17.5q72 0 228 92q172 100 172 172q0 76 -148.5 140.5t-304.5 64.5q106 78 197 149q131 106 200 182q92 100 93 156q0 53 -49.5 80t-106.5 27q-111 0 -150 -28t-39 -122q0 -63 -117.5 -288.5t-234.5 -448.5q-137 -272 -172 -418z" />
<glyph unicode="&#xe0;" horiz-adv-x="1021" d="M55 154q0 141 84 268q72 109 203 203q90 66 254 145q190 92 270 92q53 0 103.5 -60.5t50.5 -115.5q0 -139 -89 -299t-89 -209q0 -98 30 -135q25 -30 189 -61q-18 -41 -41 -66q-31 -33 -66 -33q-70 0 -153 103q-66 80 -107 170q-166 -80 -233 -107q-152 -61 -244 -61 q-162 0 -162 166zM158 195q0 -57 46 -86t107 -29q178 0 305 125q31 31 175 235q88 127 170 127q12 27 19 53.5t7 55.5q0 33 -29.5 53.5t-97.5 20.5q-104 0 -167.5 -15.5t-141.5 -68.5q-113 -76 -238 -209q-156 -166 -155 -262zM629 1227q0 47 25.5 76.5t70.5 48.5 q86 -47 133 -170q41 -105 41 -222q-88 10 -176 93q-94 88 -94 174z" />
<glyph unicode="&#xe1;" horiz-adv-x="1021" d="M55 154q0 141 84 268q72 109 203 203q90 66 254 145q190 92 270 92q53 0 103.5 -60.5t50.5 -115.5q0 -139 -89 -299t-89 -209q0 -98 30 -135q25 -30 189 -61q-18 -41 -41 -66q-31 -33 -66 -33q-70 0 -153 103q-66 80 -107 170q-166 -80 -233 -107q-152 -61 -244 -61 q-162 0 -162 166zM158 195q0 -57 46 -86t107 -29q178 0 305 125q31 31 175 235q88 127 170 127q12 27 19 53.5t7 55.5q0 33 -29.5 53.5t-97.5 20.5q-104 0 -167.5 -15.5t-141.5 -68.5q-113 -76 -238 -209q-156 -166 -155 -262zM807 1005l14 29q35 57 152 182 q133 141 161.5 147.5t39.5 6.5q16 0 30 -8q31 -16 31 -52q0 -14 -5 -29.5t-15 -33.5q-23 -43 -144 -162q-131 -127 -162 -125q-18 0 -53 17q-6 4 -49 28z" />
<glyph unicode="&#xe2;" horiz-adv-x="1021" d="M55 154q0 141 84 268q72 109 203 203q90 66 254 145q190 92 270 92q53 0 103.5 -60.5t50.5 -115.5q0 -139 -89 -299t-89 -209q0 -98 30 -135q25 -30 189 -61q-18 -41 -41 -66q-31 -33 -66 -33q-70 0 -153 103q-66 80 -107 170q-166 -80 -233 -107q-152 -61 -244 -61 q-162 0 -162 166zM158 195q0 -57 46 -86t107 -29q178 0 305 125q31 31 175 235q88 127 170 127q12 27 19 53.5t7 55.5q0 33 -29.5 53.5t-97.5 20.5q-104 0 -167.5 -15.5t-141.5 -68.5q-113 -76 -238 -209q-156 -166 -155 -262zM434 959q0 27 49 55q70 35 141 69l400 283 q14 10 28.5 24.5l28.5 28.5q31 23 37 27q12 6 30 6q33 0 53.5 -141.5t20.5 -331.5q0 -31 -20.5 -60.5t-55.5 -29.5q-27 0 -44 23.5t-17 48.5q0 8 10 51q4 16 4 35q0 84 -8 134t-37 107q-25 -23 -90 -58.5t-92 -57.5q-61 -51 -123.5 -102.5t-116.5 -106.5q-25 -27 -49 -44.5 t-57 -17.5q-27 0 -59.5 17.5t-32.5 40.5z" />
<glyph unicode="&#xe3;" horiz-adv-x="1021" d="M55 154q0 141 84 268q72 109 203 203q90 66 254 145q190 92 270 92q53 0 103.5 -60.5t50.5 -115.5q0 -139 -89 -299t-89 -209q0 -98 30 -135q25 -30 189 -61q-18 -41 -41 -66q-31 -33 -66 -33q-70 0 -153 103q-66 80 -107 170q-166 -80 -233 -107q-152 -61 -244 -61 q-162 0 -162 166zM158 195q0 -57 46 -86t107 -29q178 0 305 125q31 31 175 235q88 127 170 127q12 27 19 53.5t7 55.5q0 33 -29.5 53.5t-97.5 20.5q-104 0 -167.5 -15.5t-141.5 -68.5q-113 -76 -238 -209q-156 -166 -155 -262zM540 1050q0 20 13 25q70 10 139 20q18 6 55 19 q72 25 101 24q29 0 57.5 -61.5t103.5 -61.5q41 0 88.5 39t67.5 39q25 0 25 -39q0 -49 -82 -75q-61 -20 -133 -21q-106 0 -134 72q-12 33 -47 33q-29 0 -104.5 -30t-104.5 -30q-23 0 -34 13.5t-11 33.5z" />
<glyph unicode="&#xe4;" horiz-adv-x="1021" d="M55 154q0 141 84 268q72 109 203 203q90 66 254 145q190 92 270 92q53 0 103.5 -60.5t50.5 -115.5q0 -139 -89 -299t-89 -209q0 -98 30 -135q25 -30 189 -61q-18 -41 -41 -66q-31 -33 -66 -33q-70 0 -153 103q-66 80 -107 170q-166 -80 -233 -107q-152 -61 -244 -61 q-162 0 -162 166zM158 195q0 -57 46 -86t107 -29q178 0 305 125q31 31 175 235q88 127 170 127q12 27 19 53.5t7 55.5q0 33 -29.5 53.5t-97.5 20.5q-104 0 -167.5 -15.5t-141.5 -68.5q-113 -76 -238 -209q-156 -166 -155 -262zM566 1042q0 45 31.5 59.5t82.5 14.5 q70 0 133 -23q-8 -35 -14 -67q-12 -35 -49 -35q-31 -4 -53 -14q-31 -23 -49.5 -35.5t-24.5 -12.5q-23 0 -40 42t-17 71zM951 1034q0 45 31.5 59.5t82.5 14.5q70 0 133 -23q-8 -35 -14 -68q-12 -35 -49 -34q-31 -4 -53 -15q-31 -23 -49.5 -35t-24.5 -12q-23 0 -40 42t-17 71z " />
<glyph unicode="&#xe5;" horiz-adv-x="1021" d="M55 154q0 141 84 268q72 109 203 203q90 66 254 145q190 92 270 92q53 0 103.5 -60.5t50.5 -115.5q0 -139 -89 -299t-89 -209q0 -98 30 -135q25 -30 189 -61q-18 -41 -41 -66q-31 -33 -66 -33q-70 0 -153 103q-66 80 -107 170q-166 -80 -233 -107q-152 -61 -244 -61 q-162 0 -162 166zM158 195q0 -57 46 -86t107 -29q178 0 305 125q31 31 175 235q88 127 170 127q12 27 19 53.5t7 55.5q0 33 -29.5 53.5t-97.5 20.5q-104 0 -167.5 -15.5t-141.5 -68.5q-113 -76 -238 -209q-156 -166 -155 -262zM602 1046q0 80 148 156q129 66 221 65 q80 0 136 -37.5t56 -117.5q0 -90 -129 -140q-100 -39 -206 -38q-86 0 -138 16q-88 29 -88 96zM658 1040q66 -66 155 -66q88 0 176 31q121 43 121 113q0 47 -42 67.5t-95 20.5q-82 0 -178 -49t-137 -117z" />
<glyph unicode="&#xe6;" horiz-adv-x="1732" d="M55 154q0 141 84 268q72 109 203 203q90 66 254 145q190 92 270 92q53 0 103.5 -60.5t50.5 -115.5l-4 -57q78 53 186 102q90 41 172 68q23 -12 143.5 -40t120.5 -179q0 -119 -139 -191q-113 -57 -235 -57q-66 0 -148 16.5t-121 46.5q-43 -23 -69 -53q-33 -39 -33 -86 q0 -90 92 -127q61 -25 158 -25q94 0 284.5 23t290.5 23q-61 -78 -288 -115q-162 -27 -328 -27q-143 0 -244.5 38t-163.5 110q-166 -80 -233 -107q-152 -61 -244 -61q-162 0 -162 166zM158 195q0 -57 46 -86t107 -29q172 0 295 115q53 51 172 225q86 129 154 143 q25 25 40 53.5t15 59.5q0 33 -29.5 53.5t-97.5 20.5q-104 0 -167.5 -15.5t-141.5 -68.5q-113 -76 -238 -209q-156 -166 -155 -262zM1143 563q31 -53 70.5 -80.5t95.5 -27.5q63 0 112 33t88 96q-61 72 -149 71q-51 0 -113 -30q-6 -2 -104 -62z" />
<glyph unicode="&#xe7;" horiz-adv-x="1292" d="M37 233q0 170 184 328q147 125 400 234q199 86 380 127q35 -20 55.5 -44t20.5 -59q0 -74 -51 -186q-59 -131 -123 -131q-29 0 -59.5 19.5t-30.5 47.5q0 16 47 84q31 45 64 90q-10 2 -28.5 5.5t-39.5 5.5q-182 0 -428 -154q-272 -170 -272 -344q0 -129 129 -190 q98 -47 241 -48q117 0 292 16.5t276 41.5q8 2 62 25.5t77 15.5l20 18l39 2l4 -4q-117 -88 -323 -141q-186 -47 -375 -47q45 -55 45 -86q0 -84 -88 -176q-102 -106 -233 -107l-37 2q72 68 121 117q96 96 96 112q0 29 -60.5 73t-60.5 69q-150 14 -236 71q-109 72 -108 213z " />
<glyph unicode="&#xe8;" horiz-adv-x="1001" d="M35 207q0 131 110 246q90 94 250 172q123 59 260 100q121 -29 174 -45q92 -31 93 -154q0 -109 -140 -172q-115 -53 -237 -53q-70 0 -150 14.5t-121 42.5q-43 -20 -69 -49q-33 -37 -33 -78q0 -80 92 -114q61 -23 158 -23q92 0 215 12q288 29 364 29q-61 -68 -290 -102 q-168 -25 -330 -25q-141 0 -221 31q-125 49 -125 168zM422 510q61 -98 168 -98q63 0 111.5 28.5t89.5 87.5q-61 66 -150 66q-55 0 -115 -27q-72 -39 -104 -57zM447 1084q0 47 25.5 76.5t70.5 48.5q86 -47 133 -170q41 -105 41 -222q-88 10 -176 93q-94 88 -94 174z" />
<glyph unicode="&#xe9;" horiz-adv-x="1001" d="M35 207q0 131 110 246q90 94 250 172q123 59 260 100q121 -29 174 -45q92 -31 93 -154q0 -109 -140 -172q-115 -53 -237 -53q-70 0 -150 14.5t-121 42.5q-43 -20 -69 -49q-33 -37 -33 -78q0 -80 92 -114q61 -23 158 -23q92 0 215 12q288 29 364 29q-61 -68 -290 -102 q-168 -25 -330 -25q-141 0 -221 31q-125 49 -125 168zM422 510q61 -98 168 -98q63 0 111.5 28.5t89.5 87.5q-61 66 -150 66q-55 0 -115 -27q-72 -39 -104 -57zM573 854l14 29q35 57 152 182q133 141 161.5 147.5t39.5 6.5q16 0 30 -8q31 -16 31 -52q0 -14 -5 -29.5 t-15 -33.5q-23 -43 -144 -162q-131 -127 -162 -125q-18 0 -53 17q-6 4 -49 28z" />
<glyph unicode="&#xea;" horiz-adv-x="1001" d="M35 207q0 131 110 246q90 94 250 172q123 59 260 100q121 -29 174 -45q92 -31 93 -154q0 -109 -140 -172q-115 -53 -237 -53q-70 0 -150 14.5t-121 42.5q-43 -20 -69 -49q-33 -37 -33 -78q0 -80 92 -114q61 -23 158 -23q92 0 215 12q288 29 364 29q-61 -68 -290 -102 q-168 -25 -330 -25q-141 0 -221 31q-125 49 -125 168zM215 844q0 27 49 55q70 35 141 69l400 283q14 10 28.5 24.5l28.5 28.5q31 23 37 27q12 6 30 6q33 0 53.5 -141.5t20.5 -331.5q0 -31 -20.5 -60.5t-55.5 -29.5q-27 0 -44 23.5t-17 48.5q0 8 10 51q4 16 4 35q0 84 -8 134 t-37 107q-25 -23 -90 -58.5t-92 -57.5q-61 -51 -123.5 -102.5t-116.5 -106.5q-25 -27 -49 -44.5t-57 -17.5q-27 0 -59.5 17.5t-32.5 40.5zM422 510q61 -98 168 -98q63 0 111.5 28.5t89.5 87.5q-61 66 -150 66q-55 0 -115 -27q-72 -39 -104 -57z" />
<glyph unicode="&#xeb;" horiz-adv-x="1001" d="M35 207q0 131 110 246q90 94 250 172q123 59 260 100q121 -29 174 -45q92 -31 93 -154q0 -109 -140 -172q-115 -53 -237 -53q-70 0 -150 14.5t-121 42.5q-43 -20 -69 -49q-33 -37 -33 -78q0 -80 92 -114q61 -23 158 -23q92 0 215 12q288 29 364 29q-61 -68 -290 -102 q-168 -25 -330 -25q-141 0 -221 31q-125 49 -125 168zM342 915q0 45 31.5 59.5t82.5 14.5q70 0 133 -23q-8 -35 -14 -67q-12 -35 -49 -35q-31 -4 -53 -14q-31 -23 -49.5 -35.5t-24.5 -12.5q-23 0 -40 42t-17 71zM422 510q61 -98 168 -98q63 0 111.5 28.5t89.5 87.5 q-61 66 -150 66q-55 0 -115 -27q-72 -39 -104 -57zM727 907q0 45 31.5 59.5t82.5 14.5q70 0 133 -23q-8 -35 -14 -68q-12 -35 -49 -34q-31 -4 -53 -15q-31 -23 -49.5 -35t-24.5 -12q-23 0 -40 42t-17 71z" />
<glyph unicode="&#xec;" horiz-adv-x="538" d="M45 160q0 45 35 100q47 76 53 92q31 90 64 180q43 98 110 152q20 -20 41 -42.5t21 -51.5q0 -37 -115 -326q-57 -145 -75.5 -162.5t-46.5 -20.5t-77 -3q0 16 -5 47t-5 35zM68 1084q0 47 25.5 76.5t70.5 48.5q86 -47 133 -170q41 -105 41 -222q-88 10 -176 93 q-94 88 -94 174z" />
<glyph unicode="&#xed;" horiz-adv-x="538" d="M45 160q0 45 35 100q47 76 53 92q31 90 64 180q43 98 110 152q20 -20 41 -42.5t21 -51.5q0 -37 -115 -326q-57 -145 -75.5 -162.5t-46.5 -20.5t-77 -3q0 16 -5 47t-5 35zM270 852l14 29q35 57 152 182q133 141 161.5 147.5t39.5 6.5q16 0 30 -8q31 -16 31 -52 q0 -14 -5 -29.5t-15 -33.5q-23 -43 -144 -162q-131 -127 -162 -125q-18 0 -53 17q-6 4 -49 28z" />
<glyph unicode="&#xee;" horiz-adv-x="538" d="M45 160q0 45 35 100q47 76 53 92q31 90 64 180q43 98 110 152q20 -20 41 -42.5t21 -51.5q0 -37 -115 -326q-57 -145 -75.5 -162.5t-46.5 -20.5t-77 -3q0 16 -5 47t-5 35zM45 711q0 27 49 55q70 35 141 69l400 283q14 10 28.5 24.5l28.5 28.5q31 23 37 27q12 6 30 6 q33 0 53.5 -141.5t20.5 -331.5q0 -31 -20.5 -60.5t-55.5 -29.5q-27 0 -44 23.5t-17 48.5q0 8 10 51q4 16 4 35q0 84 -8 134t-37 107q-25 -23 -90 -58.5t-92 -57.5q-61 -51 -123.5 -102.5t-116.5 -106.5q-25 -27 -49 -44.5t-57 -17.5q-27 0 -59.5 17.5t-32.5 40.5z" />
<glyph unicode="&#xef;" horiz-adv-x="538" d="M45 160q0 45 35 100q47 76 53 92q31 90 64 180q43 98 110 152q20 -20 41 -42.5t21 -51.5q0 -37 -115 -326q-57 -145 -75.5 -162.5t-46.5 -20.5t-77 -3q0 16 -5 47t-5 35zM45 905q0 45 31.5 59.5t82.5 14.5q70 0 133 -23q-8 -35 -14 -67q-12 -35 -49 -35q-31 -4 -53 -14 q-31 -23 -49.5 -35.5t-24.5 -12.5q-23 0 -40 42t-17 71zM430 897q0 45 31.5 59.5t82.5 14.5q70 0 133 -23q-8 -35 -14 -68q-12 -35 -49 -34q-31 -4 -53 -15q-31 -23 -49.5 -35t-24.5 -12q-23 0 -40 42t-17 71z" />
<glyph unicode="&#xf0;" horiz-adv-x="962" d="M100 547q0 92 109 125q61 18 184 18l162 -4q-14 35 -49 102q-23 41 -43 84q-45 -31 -74 -46t-70 -27q-10 -2 -39.5 -4t-31.5 -2l-4 14l6 20q-8 33 -8 50q0 18 10 38l86 33l74 29q-49 109 -74 166q-33 80 -33 110q55 8 111 17q25 0 46 -15.5t36.5 -46t31.5 -75.5 q10 -31 25 -86q39 18 73 32.5t56 20.5q47 10 64 -49q8 -33 8 -58q0 -41 -23 -45q-53 6 -106 13q-10 -2 -27 -9q-8 -2 -27 -12q8 -68 99 -197q127 -182 157 -239q84 -156 84 -295q0 -96 -57 -154q-47 -47 -145 -78q-193 47 -387 207q-223 184 -224 363zM238 500 q0 -119 174 -248q164 -123 288 -123q35 0 56.5 19.5t21.5 56.5q0 66 -35 114q-37 45 -73 93q-29 47 -58 96q-39 47 -104.5 74.5t-132.5 27.5q-59 0 -98 -27.5t-39 -82.5z" />
<glyph unicode="&#xf1;" horiz-adv-x="1060" d="M37 39q0 109 201 348q117 139 147 199q10 18 22.5 56t18.5 50q20 43 35.5 58.5t56.5 15.5q57 0 57 -59q0 -33 -10 -66q-2 -10 -45 -111q98 51 199 105q139 68 207 67q78 0 125 -63t47 -145q0 -70 -70 -208.5t-123 -187.5q2 -27 4 -32q4 -14 15 -31q-16 -63 -82 -64 q-35 0 -62.5 21.5t-27.5 54.5q0 74 104.5 203t104.5 199q0 47 -31 75.5t-76 28.5q-129 0 -274 -131q-125 -127 -248 -254q-150 -145 -277 -168v18zM460 960q0 20 13 25q70 10 139 20q18 6 55 19q72 25 101 24q29 0 57.5 -61.5t103.5 -61.5q41 0 88.5 39t67.5 39q25 0 25 -39 q0 -49 -82 -75q-61 -20 -133 -21q-106 0 -134 72q-12 33 -47 33q-29 0 -104.5 -30t-104.5 -30q-23 0 -34 13.5t-11 33.5z" />
<glyph unicode="&#xf2;" horiz-adv-x="1271" d="M70 242q0 172 319 333q285 143 479 144q170 0 283 -78q131 -90 131 -258q0 -193 -278 -301q-211 -82 -445 -82q-188 0 -301 35q-188 59 -188 207zM193 229q139 -141 333 -141q186 0 383 68q260 89 260 239q0 98 -104 152q-82 41 -191 41q-180 0 -385.5 -104.5 t-295.5 -254.5zM590 1084q0 47 25.5 76.5t70.5 48.5q86 -47 133 -170q41 -105 41 -222q-88 10 -176 93q-94 88 -94 174z" />
<glyph unicode="&#xf3;" horiz-adv-x="1271" d="M70 242q0 172 319 333q285 143 479 144q170 0 283 -78q131 -90 131 -258q0 -193 -278 -301q-211 -82 -445 -82q-188 0 -301 35q-188 59 -188 207zM193 229q139 -141 333 -141q186 0 383 68q260 89 260 239q0 98 -104 152q-82 41 -191 41q-180 0 -385.5 -104.5 t-295.5 -254.5zM809 850l14 29q35 57 152 182q133 141 161.5 147.5t39.5 6.5q16 0 30 -8q31 -16 31 -52q0 -14 -5 -29.5t-15 -33.5q-23 -43 -144 -162q-131 -127 -162 -125q-18 0 -53 17q-6 4 -49 28z" />
<glyph unicode="&#xf4;" horiz-adv-x="1271" d="M70 242q0 172 319 333q285 143 479 144q170 0 283 -78q131 -90 131 -258q0 -193 -278 -301q-211 -82 -445 -82q-188 0 -301 35q-188 59 -188 207zM193 229q139 -141 333 -141q186 0 383 68q260 89 260 239q0 98 -104 152q-82 41 -191 41q-180 0 -385.5 -104.5 t-295.5 -254.5zM441 820q0 27 49 55q70 35 141 69l400 283q14 10 28.5 24.5l28.5 28.5q31 23 37 27q12 6 30 6q33 0 53.5 -141.5t20.5 -331.5q0 -31 -20.5 -60.5t-55.5 -29.5q-27 0 -44 23.5t-17 48.5q0 8 10 51q4 16 4 35q0 84 -8 134t-37 107q-25 -23 -90 -58.5t-92 -57.5 q-61 -51 -123.5 -102.5t-116.5 -106.5q-25 -27 -49 -44.5t-57 -17.5q-27 0 -59.5 17.5t-32.5 40.5z" />
<glyph unicode="&#xf5;" horiz-adv-x="1271" d="M70 242q0 172 319 333q285 143 479 144q170 0 283 -78q131 -90 131 -258q0 -193 -278 -301q-211 -82 -445 -82q-188 0 -301 35q-188 59 -188 207zM193 229q139 -141 333 -141q186 0 383 68q260 89 260 239q0 98 -104 152q-82 41 -191 41q-180 0 -385.5 -104.5 t-295.5 -254.5zM536 891q0 20 13 25q70 10 139 20q18 6 55 19q72 25 101 24q29 0 57.5 -61.5t103.5 -61.5q41 0 88.5 39t67.5 39q25 0 25 -39q0 -49 -82 -75q-61 -20 -133 -21q-106 0 -134 72q-12 33 -47 33q-29 0 -104.5 -30t-104.5 -30q-23 0 -34 13.5t-11 33.5z" />
<glyph unicode="&#xf6;" horiz-adv-x="1271" d="M70 242q0 172 319 333q285 143 479 144q170 0 283 -78q131 -90 131 -258q0 -193 -278 -301q-211 -82 -445 -82q-188 0 -301 35q-188 59 -188 207zM193 229q139 -141 333 -141q186 0 383 68q260 89 260 239q0 98 -104 152q-82 41 -191 41q-180 0 -385.5 -104.5 t-295.5 -254.5zM547 905q0 45 31.5 59.5t82.5 14.5q70 0 133 -23q-8 -35 -14 -67q-12 -35 -49 -35q-31 -4 -53 -14q-31 -23 -49.5 -35.5t-24.5 -12.5q-23 0 -40 42t-17 71zM932 897q0 45 31.5 59.5t82.5 14.5q70 0 133 -23q-8 -35 -14 -68q-12 -35 -49 -34q-31 -4 -53 -15 q-31 -23 -49.5 -35t-24.5 -12q-23 0 -40 42t-17 71z" />
<glyph unicode="&#xf7;" d="M117 412v18l18 21q0 37 7.5 58t31.5 40q2 2 76 6t78 4q92 0 239 21q326 45 377 45q41 0 61.5 -16.5t20.5 -57.5q0 -45 -14.5 -78t-53.5 -33q-25 0 -61 15q-82 33 -104 32q-94 0 -278.5 -45t-278.5 -45q-61 0 -119 15zM473 283q0 45 32 59t83 14q70 1 133 -22 q-8 -35 -14 -68q-12 -35 -50 -35q-31 -4 -53 -14q-31 -23 -49 -35t-25 -12q-23 0 -40 42t-17 71zM475 791q0 45 32 59t83 14q70 1 133 -22q-8 -35 -14 -68q-12 -35 -50 -35q-31 -4 -53 -14q-31 -23 -49 -35t-25 -12q-23 0 -40 42t-17 71z" />
<glyph unicode="&#xf8;" horiz-adv-x="1271" d="M61 -96l9 37q12 31 44.5 62.5t75.5 57.5q-57 31 -86 70q-35 47 -34 111q0 172 319 333q285 143 479 144q86 0 156 -21q76 68 104 90q51 41 78 50q18 -4 28.5 -22.5t6.5 -35.5q-4 -14 -55 -59q-37 -33 -70 -59q78 -43 122 -111t44 -168q0 -193 -278 -301 q-211 -82 -445 -82q-86 0 -149.5 5t-137.5 28q-47 -47 -67 -68q-39 -39 -51 -45q-4 -2 -37 -7t-56 -9zM193 229q53 -55 118 -90l21 13q109 72 254 182q70 51 248 192l69 60l-29 2q-180 0 -385.5 -104.5t-295.5 -254.5zM369 113q74 -25 157 -25q186 0 383 68q260 89 260 239 q0 68 -48 112t-122 64q-139 -106 -342 -252q-145 -104 -288 -206z" />
<glyph unicode="&#xf9;" horiz-adv-x="1406" d="M37 90q0 59 145 250q131 172 296 339t212 167q39 0 39 -41q0 -49 -115.5 -182.5t-230.5 -262.5q-137 -158 -172 -243l20 -21q12 0 40 -2t42 -2q59 0 129 27.5t136 56.5q96 37 178 80t153 100q57 45 162 189q82 113 164 227q86 111 125 111q25 0 53 -21q6 -19 12 -37 q0 -72 -103 -197.5t-202 -244.5q-109 -147 -108 -248q0 -35 20.5 -46t54.5 -11q37 2 52 2q31 0 65 -10l29 -33q-41 -8 -74 -19q-86 -25 -127 -24q-90 0 -123 49q-25 37 -24 117v46t2 48q-164 -104 -199 -123q-119 -68 -224.5 -105.5t-219.5 -37.5q-84 0 -129 14 q-78 25 -78 88zM840 1241q0 47 25.5 76.5t70.5 48.5q86 -47 133 -170q41 -105 41 -222q-88 10 -176 93q-94 88 -94 174z" />
<glyph unicode="&#xfa;" horiz-adv-x="1406" d="M37 90q0 59 145 250q131 172 296 339t212 167q39 0 39 -41q0 -49 -115.5 -182.5t-230.5 -262.5q-137 -158 -172 -243l20 -21q12 0 40 -2t42 -2q59 0 129 27.5t136 56.5q96 37 178 80t153 100q57 45 162 189q82 113 164 227q86 111 125 111q25 0 53 -21q6 -19 12 -37 q0 -72 -103 -197.5t-202 -244.5q-109 -147 -108 -248q0 -35 20.5 -46t54.5 -11q37 2 52 2q31 0 65 -10l29 -33q-41 -8 -74 -19q-86 -25 -127 -24q-90 0 -123 49q-25 37 -24 117v46t2 48q-164 -104 -199 -123q-119 -68 -224.5 -105.5t-219.5 -37.5q-84 0 -129 14 q-78 25 -78 88zM981 991l14 29q35 57 152 182q133 141 161.5 147.5t39.5 6.5q16 0 30 -8q31 -16 31 -52q0 -14 -5 -29.5t-15 -33.5q-23 -43 -144 -162q-131 -127 -162 -125q-18 0 -53 17q-6 4 -49 28z" />
<glyph unicode="&#xfb;" horiz-adv-x="1406" d="M37 90q0 59 145 250q131 172 296 339t212 167q39 0 39 -41q0 -49 -115.5 -182.5t-230.5 -262.5q-137 -158 -172 -243l20 -21q12 0 40 -2t42 -2q59 0 129 27.5t136 56.5q96 37 178 80t153 100q57 45 162 189q82 113 164 227q86 111 125 111q25 0 53 -21q6 -19 12 -37 q0 -72 -103 -197.5t-202 -244.5q-109 -147 -108 -248q0 -35 20.5 -46t54.5 -11q37 2 52 2q31 0 65 -10l29 -33q-41 -8 -74 -19q-86 -25 -127 -24q-90 0 -123 49q-25 37 -24 117v46t2 48q-164 -104 -199 -123q-119 -68 -224.5 -105.5t-219.5 -37.5q-84 0 -129 14 q-78 25 -78 88zM619 1031q0 27 49 55q70 35 141 69l400 283q14 10 28.5 24.5l28.5 28.5q31 23 37 27q12 6 30 6q33 0 53.5 -141.5t20.5 -331.5q0 -31 -20.5 -60.5t-55.5 -29.5q-27 0 -44 23.5t-17 48.5q0 8 10 51q4 16 4 35q0 84 -8 134t-37 107q-25 -23 -90 -58.5 t-92 -57.5q-61 -51 -123.5 -102.5t-116.5 -106.5q-25 -27 -49 -44.5t-57 -17.5q-27 0 -59.5 17.5t-32.5 40.5z" />
<glyph unicode="&#xfc;" horiz-adv-x="1406" d="M37 90q0 59 145 250q131 172 296 339t212 167q39 0 39 -41q0 -49 -115.5 -182.5t-230.5 -262.5q-137 -158 -172 -243l20 -21q12 0 40 -2t42 -2q59 0 129 27.5t136 56.5q96 37 178 80t153 100q57 45 162 189q82 113 164 227q86 111 125 111q25 0 53 -21q6 -19 12 -37 q0 -72 -103 -197.5t-202 -244.5q-109 -147 -108 -248q0 -35 20.5 -46t54.5 -11q37 2 52 2q31 0 65 -10l29 -33q-41 -8 -74 -19q-86 -25 -127 -24q-90 0 -123 49q-25 37 -24 117v46t2 48q-164 -104 -199 -123q-119 -68 -224.5 -105.5t-219.5 -37.5q-84 0 -129 14 q-78 25 -78 88zM768 1100q0 45 31.5 59.5t82.5 14.5q70 0 133 -23q-8 -35 -14 -67q-12 -35 -49 -35q-31 -4 -53 -14q-31 -23 -49.5 -35.5t-24.5 -12.5q-23 0 -40 42t-17 71zM1153 1092q0 45 31.5 59.5t82.5 14.5q70 0 133 -23q-8 -35 -14 -68q-12 -35 -49 -34 q-31 -4 -53 -15q-31 -23 -49.5 -35t-24.5 -12q-23 0 -40 42t-17 71z" />
<glyph unicode="&#xfd;" horiz-adv-x="983" d="M-94 -645q23 47 133 184q94 119 190.5 241t96.5 159t-25 49t-70 12h-41q-94 10 -137 160q-29 100 -28 229q0 84 8 165t22 171q70 0 101 -61q25 -51 24 -140q0 -41 -7 -116.5t-7 -100.5q0 -125 45 -182q53 -68 172 -68q68 0 197 185q39 55 233 370q141 227 209 289 q14 -10 37.5 -43t23.5 -47q0 -72 -122 -225q-115 -137 -230 -275q-123 -160 -123 -250q0 -27 8 -45q-147 -41 -292 -252l-308 -466q-27 6 -60.5 26.5t-49.5 30.5zM489 991l14 29q35 57 152 182q133 141 161.5 147.5t39.5 6.5q16 0 30 -8q31 -16 31 -52q0 -14 -5 -29.5 t-15 -33.5q-23 -43 -144 -162q-131 -127 -162 -125q-18 0 -53 17q-6 4 -49 28z" />
<glyph unicode="&#xfe;" d="M-326 -549q0 43 88 154.5t175 218.5q100 129 120 192q156 188 246 310q98 131 98 241q-33 -20 -41 -24q-35 -18 -71 -33l-21 18q2 14 -4 34t-6 24q0 45 71.5 90t186.5 80q2 0 92 174q115 221 178 321q111 174 166 174q33 0 33 -34q-2 -23 -2 -33q0 -70 -159.5 -262.5 t-159.5 -296.5q53 4 148 17t99 13q104 0 164 -43q70 -51 70 -155q0 -201 -256 -357q-111 -68 -506 -229q-301 -123 -354 -213q-66 -160 -113 -256q-90 -182 -184 -182q-25 0 -41.5 16.5t-16.5 40.5zM289 96q106 39 213 80q186 90 297 189q33 29 166 163q33 35 46 60.5 t13 48.5q0 35 -37 57q-49 29 -125 29q-53 0 -100 -15.5t-96 -45.5q-82 -53 -229.5 -267.5t-147.5 -298.5z" />
<glyph unicode="&#xff;" horiz-adv-x="983" d="M-94 -645q23 47 133 184q94 119 190.5 241t96.5 159t-25 49t-70 12h-41q-94 10 -137 160q-29 100 -28 229q0 84 8 165t22 171q70 0 101 -61q25 -51 24 -140q0 -41 -7 -116.5t-7 -100.5q0 -125 45 -182q53 -68 172 -68q68 0 197 185q39 55 233 370q141 227 209 289 q14 -10 37.5 -43t23.5 -47q0 -72 -122 -225q-115 -137 -230 -275q-123 -160 -123 -250q0 -27 8 -45q-147 -41 -292 -252l-308 -466q-27 6 -60.5 26.5t-49.5 30.5zM285 1059q0 45 31.5 59.5t82.5 14.5q70 0 133 -23q-8 -35 -14 -67q-12 -35 -49 -35q-31 -4 -53 -14 q-31 -23 -49.5 -35.5t-24.5 -12.5q-23 0 -40 42t-17 71zM670 1051q0 45 31.5 59.5t82.5 14.5q70 0 133 -23q-8 -35 -14 -68q-12 -35 -49 -34q-31 -4 -53 -15q-31 -23 -49.5 -35t-24.5 -12q-23 0 -40 42t-17 71z" />
<glyph unicode="&#x152;" horiz-adv-x="2641" d="M172 311q0 209 113 385q88 137 268 289q156 125 313 252q80 72 160 143q102 82 193 82q188 0 311 -221q106 -190 106 -407q35 25 62 61q90 156 180 311q94 111 424 111q78 0 170 -17q13 -2 281 -65q-47 -20 -111 -31.5t-125 -11.5q-45 0 -135 6t-135 6q-154 0 -287 -143 q-59 -63 -193 -277q98 -14 199 -26q147 -27 170 -72q-49 -20 -268 -72q-182 -43 -260 -100q-115 -86 -115 -252q0 -90 137 -141q113 -43 236 -43q41 0 94 6q125 14 158 14q57 0 93 -11t58 -48q-39 -18 -216 -25.5t-294 -7.5q-184 0 -319 51q-111 43 -152 113 q-106 -90 -212.5 -139t-209.5 -49h-114q-254 0 -377 45q-203 74 -203 284zM307 387q0 -127 162 -211q135 -70 274 -70q344 0 537 293q166 252 166 619q0 119 -84 160q-59 29 -195 28q-111 0 -323 -155q-199 -145 -363 -340q-174 -207 -174 -324z" />
<glyph unicode="&#x153;" horiz-adv-x="2170" d="M70 242q0 172 319 333q285 143 479 144q145 0 250 -57q121 -68 154 -193q88 86 244 160q119 57 249 96q121 -29 174 -45q92 -31 93 -154q0 -109 -140 -172q-115 -53 -237 -53q-70 0 -150 14.5t-121 42.5q-43 -20 -69 -49q-33 -37 -33 -78q0 -80 92 -114q61 -23 158 -23 q92 0 215 12q288 29 364 29q-61 -68 -290 -102q-168 -25 -330 -25q-129 0 -201 23q-115 37 -139 129q-111 -78 -303 -123q-160 -37 -289 -37q-188 0 -301 35q-188 59 -188 207zM193 229q139 -141 333 -141q186 0 383 68q260 89 260 239q0 98 -104 152q-82 41 -191 41 q-180 0 -385.5 -104.5t-295.5 -254.5zM1532 510q61 -98 168 -98q63 0 111.5 28.5t89.5 87.5q-61 66 -150 66q-55 0 -115 -27q-72 -39 -104 -57z" />
<glyph unicode="&#x178;" horiz-adv-x="1097" d="M147 1303q0 27 27 49t53 22q59 0 125 -137q55 -133 113 -264q72 -154 137 -178q115 39 301 221q66 63 297 315q152 164 182 164q23 0 45.5 -12.5t38.5 -30.5q-76 -86 -309 -307q-211 -201 -305 -320q-147 -188 -197 -376q-63 -252 -125 -502q-20 -63 -76.5 -104.5 t-127.5 -57.5q-23 23 -23 39t23 39q2 18 127 401q47 145 47 246q0 139 -111 350q-121 221 -242 443zM480 1638q0 45 31.5 59.5t82.5 14.5q70 0 133 -23q-8 -35 -14 -67q-12 -35 -49 -35q-31 -4 -53 -14q-31 -23 -49.5 -35.5t-24.5 -12.5q-23 0 -40 42t-17 71zM865 1630 q0 45 31.5 59.5t82.5 14.5q70 0 133 -23q-8 -35 -14 -68q-12 -35 -49 -34q-31 -4 -53 -15q-31 -23 -49.5 -35t-24.5 -12q-23 0 -40 42t-17 71z" />
<glyph unicode="&#x2c6;" horiz-adv-x="1122" d="M158 1133q0 27 49 55q70 35 141 69l400 283q14 10 28.5 24.5l28.5 28.5q31 23 37 27q12 6 30 6q33 0 53.5 -141.5t20.5 -331.5q0 -31 -20.5 -60.5t-55.5 -29.5q-27 0 -44 23.5t-17 48.5q0 8 10 51q4 16 4 35q0 84 -8 134t-37 107q-25 -23 -90 -58.5t-92 -57.5 q-61 -51 -123.5 -102.5t-116.5 -106.5q-25 -27 -49 -44.5t-57 -17.5q-27 0 -59.5 17.5t-32.5 40.5z" />
<glyph unicode="&#x2dc;" horiz-adv-x="1032" d="M186 1505q0 20 13 25q70 10 139 20q18 6 55 19q72 25 101 24q29 0 57.5 -61.5t103.5 -61.5q41 0 88.5 39t67.5 39q25 0 25 -39q0 -49 -82 -75q-61 -20 -133 -21q-106 0 -134 72q-12 33 -47 33q-29 0 -104.5 -30t-104.5 -30q-23 0 -34 13.5t-11 33.5z" />
<glyph unicode="&#x2000;" horiz-adv-x="1087" />
<glyph unicode="&#x2001;" horiz-adv-x="2175" />
<glyph unicode="&#x2002;" horiz-adv-x="1087" />
<glyph unicode="&#x2003;" horiz-adv-x="2175" />
<glyph unicode="&#x2004;" horiz-adv-x="725" />
<glyph unicode="&#x2005;" horiz-adv-x="543" />
<glyph unicode="&#x2006;" horiz-adv-x="362" />
<glyph unicode="&#x2007;" horiz-adv-x="362" />
<glyph unicode="&#x2008;" horiz-adv-x="271" />
<glyph unicode="&#x2009;" horiz-adv-x="435" />
<glyph unicode="&#x200a;" horiz-adv-x="120" />
<glyph unicode="&#x2010;" d="M229 412v18l19 21q0 33 9 57t32 41q2 2 75.5 6t77.5 4q90 0 238 21q326 45 377 45q41 0 61.5 -16.5t20.5 -57.5q0 -45 -14.5 -78t-53.5 -33q-25 0 -61 15q-82 33 -103 32q-74 0 -348 -61q-127 -29 -211 -29q-61 0 -119 15z" />
<glyph unicode="&#x2011;" d="M229 412v18l19 21q0 33 9 57t32 41q2 2 75.5 6t77.5 4q90 0 238 21q326 45 377 45q41 0 61.5 -16.5t20.5 -57.5q0 -45 -14.5 -78t-53.5 -33q-25 0 -61 15q-82 33 -103 32q-74 0 -348 -61q-127 -29 -211 -29q-61 0 -119 15z" />
<glyph unicode="&#x2012;" d="M229 412v18l19 21q0 33 9 57t32 41q2 2 75.5 6t77.5 4q90 0 238 21q326 45 377 45q41 0 61.5 -16.5t20.5 -57.5q0 -45 -14.5 -78t-53.5 -33q-25 0 -61 15q-82 33 -103 32q-74 0 -348 -61q-127 -29 -211 -29q-61 0 -119 15z" />
<glyph unicode="&#x2013;" horiz-adv-x="983" d="M76 412v18l18 21q0 37 7.5 58t31.5 40q2 2 76 6t78 4q92 0 239 21q326 45 377 45q41 0 61.5 -16.5t20.5 -57.5q0 -45 -14.5 -78t-52.5 -33q-25 0 -62 15q-82 33 -104 32q-94 0 -278.5 -45t-278.5 -45q-61 0 -119 15z" />
<glyph unicode="&#x2014;" horiz-adv-x="1488" d="M76 412v18l18 21q0 37 7.5 58t31.5 40q2 2 57.5 5t96.5 7q102 0 327.5 20.5t470 43t283.5 22.5q41 0 61.5 -16.5t20.5 -57.5q0 -45 -14.5 -77.5t-53.5 -32.5q-25 0 -61 14q-84 33 -107 33q-80 0 -294.5 -27.5t-437 -56.5t-287.5 -29q-61 0 -119 15z" />
<glyph unicode="&#x2018;" horiz-adv-x="770" d="M-55 1346q0 96 75 229q70 123 150 190q27 -16 55 -32q25 -21 25 -58q0 -43 -62 -121q-70 -88 -80 -123.5t-12 -60t-2 -59.5v-48.5t2 -45.5q-72 0 -111.5 28.5t-39.5 100.5z" />
<glyph unicode="&#x2019;" horiz-adv-x="673" d="M442 1708q0 80 72 80q66 0 85 -47t38 -92q31 -41 62.5 -86t31.5 -90q0 -74 -48 -113t-126 -45q10 14 24.5 40.5t14.5 37.5q0 90 -77 177t-77 138z" />
<glyph unicode="&#x201a;" horiz-adv-x="393" d="M63 -346q0 57 42 239.5t70 209t56 26.5q37 0 51.5 -26.5t14.5 -67.5q0 -49 -46 -218t-75 -184q-16 -8 -57 -9t-53 -1z" />
<glyph unicode="&#x201c;" horiz-adv-x="925" d="M-92 1313q0 61 139 196q33 31 107 99q28 -19 57 -19q-8 -78 -86 -200q-84 -135 -150 -136q-27 0 -47 16.5t-20 43.5zM94 1196l19 59q27 82 130 189t181 125q0 -66 -29 -133q-14 -31 -84.5 -126.5t-93 -110.5t-43.5 -13q-25 0 -46.5 4t-33.5 6z" />
<glyph unicode="&#x201d;" horiz-adv-x="925" d="M487 1526q0 35 12.5 60.5t43.5 25.5q55 0 105 -68t50 -127q0 -45 -30 -67q-45 -25 -70 -37l-18 -6q-31 0 -62 88t-31 131zM805 1626q0 37 18.5 66.5t50.5 29.5q53 0 82 -49t29 -104q0 -43 -16.5 -103.5t-24.5 -91.5q-43 -4 -74.5 16.5t-48 99.5t-16.5 136z" />
<glyph unicode="&#x201e;" horiz-adv-x="935" d="M406 133q0 35 12 60.5t43 25.5q55 0 105 -67.5t50 -126.5q0 -45 -30 -68q-45 -25 -70 -37l-18 -6q-31 0 -61.5 88t-30.5 131zM723 233q0 37 18.5 67t51.5 30q53 0 81.5 -49.5t28.5 -104.5q0 -43 -16.5 -103.5t-24.5 -90.5q-43 -4 -74.5 16t-48 99t-16.5 136z" />
<glyph unicode="&#x2022;" horiz-adv-x="491" d="M59 776q0 70 62 98q45 20 125 21q115 0 217 -37q-31 -127 -33 -131q-23 -35 -72 -35q-20 -2 -43.5 -8t-42.5 -14q-49 -39 -76.5 -58.5t-41.5 -19.5q-37 0 -66 68.5t-29 115.5z" />
<glyph unicode="&#x2026;" horiz-adv-x="1269" d="M106 84q0 45 32 59.5t83 14.5q70 0 133 -23q-8 -35 -14 -67q-12 -35 -49 -35q-31 -4 -53 -15q-31 -23 -49.5 -35t-24.5 -12q-23 0 -40.5 42t-17.5 71zM537 84q0 45 31.5 59.5t82.5 14.5q70 0 133 -23q-8 -35 -14 -67q-12 -35 -49 -35q-31 -4 -53 -15q-31 -23 -49.5 -35 t-24.5 -12q-23 0 -40 42t-17 71zM987 74q0 45 32 59t83 14q70 1 133 -22q-8 -35 -14 -68q-12 -35 -50 -34q-31 -4 -53 -15q-31 -23 -49 -35t-25 -12q-23 0 -40 42t-17 71z" />
<glyph unicode="&#x202f;" horiz-adv-x="435" />
<glyph unicode="&#x2039;" horiz-adv-x="1427" d="M156 633v41q0 49 49 72.5t102 23.5q51 0 299 178q170 123 436 332q113 88 228 178q20 0 45 -10l18 -49q0 -78 -186 -232q-129 -106 -377 -268q-276 -180 -287 -188q47 -35 252 -105q328 -111 328 -276v-68q-84 0 -180 80q-170 141 -185 150q-127 82 -274 81 q-31 0 -66.5 -19t-68.5 -38q-10 57 -38 78.5t-95 38.5z" />
<glyph unicode="&#x203a;" horiz-adv-x="1542" d="M223 160v37q100 12 318 151q205 131 381 293q188 172 211 260q-20 68 -183 146q-143 66 -286 131q-152 82 -152 161q0 35 25 66q16 20 55 49q127 -102 256 -205q150 -115 276 -172q160 -73 316 -73q0 -59 -5 -96.5t-24.5 -75t-243.5 -191.5q-369 -254 -432 -301 q-250 -182 -317 -281q-31 -41 -74 -41q-33 0 -62.5 16.5t-50.5 45.5q-8 35 -8 80z" />
<glyph unicode="&#x205f;" horiz-adv-x="543" />
<glyph unicode="&#x2122;" horiz-adv-x="1433" d="M37 1450l16 33q27 10 47 10q29 -2 52 -2q119 0 288 43q389 98 478 98l43 -6l14 -22q-29 -74 -121 -74l18 37l-53 6q-43 0 -153.5 -20.5t-143.5 -39.5q-25 -86 -43 -147t-51 -117q-49 -80 -96 -159q-57 -98 -78 -170l-72 16q109 184 176 311q76 139 76 248l-6 -4 q-119 -27 -238 -51q-55 -25 -110 -47l-27 8q-18 29 -16 49zM604 920l187 401q14 23 31.5 31t27.5 14q6 12 10 33.5t31 44.5q41 -37 57 -129q12 -104 17 -146q33 0 189.5 163t182.5 163l25 -10l10 -25q-10 -55 -92 -237q-55 -121 -59 -136q-16 -53 -29 -88q-25 -70 -37 -75 l-49 -13l-2 27q0 49 72.5 202.5t72.5 213.5q-6 -2 -209 -193q-84 -78 -110 -78q-31 0 -42 110t-14 114q-70 -145 -112 -230q-80 -158 -158 -157z" />
<glyph unicode="&#x25fc;" horiz-adv-x="911" d="M0 0v911h911v-911h-911z" />
</font>
</defs>
</svg>
