<svg xmlns="http://www.w3.org/2000/svg" viewBox="0 0 1000 1000.1"><path fill="#fff" d="M280 784.7v168.5c1 25.3 29 34.6 46.5 19.6l219-188H809c50 0 95.4-20.5 128.3-53.3 32.8-32.8 53.2-78.2 53.2-128.2V201.5c0-50-20.4-95.3-53.2-128.2C904.3 40.5 859 20 809 20H191c-50 0-95.4 20.4-128.3 53.2-32.8 33-53.2 78.3-53.2 128.3v401.8c0 50 20.4 95.3 53.2 128.2 32.8 32.8 78.2 53.2 128.2 53.2h89zm-12.3-338.4h464.6c19.2 0 34.7 15.5 34.7 34.7 0 19-15.5 34.7-34.7 34.7H267.7c-19 0-34.7-15.5-34.7-34.7 0-19.2 15.6-34.7 34.7-34.7m0-157h464.6c19.2 0 34.7 15.4 34.7 34.6 0 19-15.5 34.6-34.7 34.6H267.7c-19 0-34.7-15.5-34.7-34.7 0-19.3 15.6-34.8 34.7-34.8M809 135.6c18 0 34.6 7.4 46.6 19.4s19.4 28.4 19.4 46.5v401.8c0 18-7.4 34.5-19.4 46.5s-28.4 19.4-46.5 19.4H191c-18 0-34.6-7.4-46.6-19.4S125 621.4 125 603.3V201.5c0-18 7.4-34.5 19.4-46.5 12-12 28.4-19.4 46.5-19.4h618z"/></svg>