<svg xmlns="http://www.w3.org/2000/svg" viewBox="0 0 1000 1000"><path fill="#FAE010" d="M821.8 459.2c11.7-34.5 18.2-71.5 18.2-110 0-187.8-152.2-340-340-340s-340 152.2-340 340c0 38.5 6.5 75.5 18.3 110l.2.5c11 32.4 321.5 531 321.5 531s310.4-498.7 321.5-531l.3-.5z"/><path fill="#FAE010" d="M160 349.2c0 38.5 6.5 75.5 18.3 110l.2.5c11 32.4 321.5 531 321.5 531V9.3c-187.8 0-340 152.2-340 340z"/><circle cx="500" cy="349.2" r="298" fill="#FFF"/><path fill="#015796" d="M510.6 386.4h-40.4v115h-42v-115H341v-40L430.8 178h39.4v167.5h40.4v41zM428 345.6V256l-49.6 89.6H428z"/><path fill="#333533" d="M638 501.4h-45l-46-115h-9v115h-43.3V178H555c49 0 77.7 35 77.7 90 0 21-1.3 51.8-15 73.6-8 12.3-19.2 22.2-35.5 28.6l56 131.2zM538 344.2c17-.3 30-6.4 37.2-14.5 11-12.4 14-35 14-54.8-.2-22.4-4.4-41.8-13.3-51-7.4-7.8-18.5-12.5-35-12.5H538v132.7h-.2z"/></svg>