<svg enable-background="new 0 0 168.7 77" viewBox="0 0 168.7 77" xmlns="http://www.w3.org/2000/svg"><path d="m150 19.5c5.2 0 9.6 1.9 13.1 5.7 3.1 3.5 4.7 7.6 4.7 12.3 0 4.8-1.6 8.9-5 12.5-3.3 3.6-7.6 5.3-12.8 5.3s-9.5-1.8-12.8-5.3c-3.3-3.6-5-7.7-5-12.5 0-4.7 1.6-8.8 4.7-12.3 3.5-3.8 7.9-5.7 13.1-5.7zm0 4.3c-3.6 0-6.7 1.3-9.3 4s-3.9 6-3.9 9.8c0 2.5.6 4.8 1.8 6.9s2.8 3.8 4.8 4.9c2 1.2 4.2 1.7 6.7 1.7 2.4 0 4.6-.6 6.6-1.7 2-1.2 3.6-2.8 4.8-4.9s1.8-4.4 1.8-6.9c0-3.8-1.3-7.1-3.9-9.8-2.7-2.6-5.8-4-9.4-4z" fill="#73848d"/><path d="m122.8 44.3c-.4-1.5-.6-4.1-.6-8v-11.6h7v-4.4h-7v-9.8l-4.4-2.9v12.7h-6v4.4h6v12.1c0 4.9.6 8.5 1.7 10.9s2.8 4.3 5 5.6c1.3.8 2.8 1.3 4.5 1.6l.1-4.5c-.9-.3-1.7-.7-2.5-1.2-2-1.1-3.2-2.8-3.8-4.9z" fill="#73848d"/><path d="m78.4 20.4 4.4 3.1v12.8c0 3.9.2 6.6.6 8 .6 2.1 1.8 3.7 3.6 5 1.8 1.2 3.9 1.8 6.3 1.8s4.5-.6 6.2-1.8 2.9-2.7 3.5-4.7c.4-1.3.7-4.1.7-8.4v-12.8l4.5-3.1v16.8c0 4.7-.6 8.3-1.7 10.6-1.1 2.4-2.8 4.3-5 5.6s-5 2-8.3 2-6.1-.7-8.3-2c-2.2-1.4-3.9-3.2-5-5.6s-1.6-6.1-1.6-10.9z" fill="#73848d"/><path d="m.9 20.3 5.7 2.1 10.4 22.8 10.4-22.8 5.7-2.1-15.7 34.1h-.8z" fill="#f36f23"/><path d="m77.8 54.4-24.5-53.2h-.8l-24.1 53.2 5.7-2.1 18.8-41.9 6.9 15h-11.3l-2 4.3h15.3l10.3 22.6z" fill="#73848d"/><g fill="#231f20"><path d="m1.3 65.4h1.4v9.5h7.4v1.2h-8.8z"/><path d="m11.7 65.4h1.4v10.7h-1.4z"/><path d="m20.1 76.1-5.5-10.7h1.5l4.4 8.6 4.4-8.6h1.6l-5.5 10.7z"/><path d="m28 65.4h9v1.2h-7.6v3.1h4.6v1.3h-4.6v3.9h8v1.2h-9.4z"/><path d="m45.6 65.4h1.3l4.6 6.6 4.6-6.6h1.3v10.7h-1.4v-8.4l-4.5 6.3-4.5-6.2v8.4h-1.4z"/><path d="m64.5 65.4h1.2l5.7 10.7h-1.5l-1.5-2.9h-6.3l-1.5 2.9h-1.5zm3.1 6.6-2.5-4.7-2.5 4.7z"/><path d="m72.9 65.4h6.5c2.2 0 3.6 1.1 3.6 3 0 1.5-1 2.8-2.7 3l2.9 4.7h-1.6l-2.9-4.7h-4.4v4.7h-1.4zm6.4 4.8c1.4 0 2.2-.6 2.2-1.8 0-1.1-.7-1.8-2.1-1.8h-5.1v3.6z"/><path d="m84.7 65.4h1.4v5.3l6.5-5.3h1.9l-4.6 3.8 5.3 6.9h-1.7l-4.6-6-2.8 2.2v3.8h-1.4z"/><path d="m96.7 65.4h9v1.2h-7.6v3.1h4.6v1.3h-4.6v3.9h8v1.2h-9.4z"/><path d="m112 66.7h-4.8v-1.2h11v1.2h-4.8v9.4h-1.4z"/><path d="m130.4 76.1-5.5-10.7h1.5l4.4 8.6 4.4-8.6h1.6l-5.5 10.7z"/><path d="m138.3 65.4h1.4v10.7h-1.4z"/><path d="m141.7 65.4h9v1.2h-7.6v3.1h4.6v1.3h-4.6v3.9h8v1.2h-9.4z"/><path d="m152.2 65.4h1.4l2.8 8.3 2.9-8.3h1.3l2.9 8.2 2.8-8.2h1.4l-3.7 10.7h-1l-3-8.6-3 8.6h-1z"/></g></svg>
