<svg enable-background="new -7 44 102 33" viewBox="-7 44 102 33" xmlns="http://www.w3.org/2000/svg"><g fill="#73848d"><path d="m84.1 55.2c3.2 0 5.9 1.2 8 3.5 1.9 2.1 2.9 4.6 2.9 7.5s-1 5.4-3 7.6-4.6 3.2-7.8 3.2-5.8-1.1-7.8-3.2c-2-2.2-3-4.7-3-7.6s.9-5.4 2.9-7.5c1.9-2.4 4.5-3.5 7.8-3.5zm0 2.6c-2.2 0-4.1.8-5.7 2.5-1.6 1.6-2.4 3.6-2.4 5.9 0 1.5.4 2.9 1.1 4.2s1.7 2.3 2.9 3 2.6 1.1 4.1 1.1 2.8-.4 4.1-1.1c1.2-.7 2.2-1.7 2.9-3s1.1-2.7 1.1-4.2c0-2.3-.8-4.3-2.4-5.9-1.6-1.7-3.5-2.5-5.7-2.5z"/><path d="m67.4 70.3c-.3-.9-.4-2.5-.4-4.9v-7h4.2v-2.7h-4.2v-6l-2.7-1.7v7.7h-3.6v2.7h3.7v7.3c0 3 .3 5.2 1 6.6.7 1.5 1.7 2.6 3 3.4.8.5 1.7.8 2.7 1v-2.7c-.6-.2-1.1-.4-1.5-.7-1.1-.8-1.8-1.8-2.2-3z"/><path d="m40.3 55.7 2.7 1.9v7.8c0 2.4.1 4 .4 4.9.4 1.3 1.1 2.3 2.2 3s2.4 1.1 3.9 1.1 2.8-.4 3.8-1.1 1.8-1.7 2.2-2.8c.3-.8.4-2.5.4-5.1v-7.8l2.7-1.9v10.2c0 2.9-.3 5-1 6.5-.7 1.4-1.7 2.6-3 3.4s-3 1.2-5.1 1.2c-2 0-3.7-.4-5.1-1.2s-2.4-2-3-3.4c-.7-1.5-1-3.7-1-6.6z"/></g><path d="m-7 55.6 3.5 1.3 6.3 13.9 6.3-13.9 3.5-1.3-9.5 20.8h-.5s-9.6-20.8-9.6-20.8z" fill="#f36f21"/><path d="m39.9 76.4-14.9-32.4h-.5l-14.7 32.4 3.5-1.3 11.5-25.5 4.2 9.1h-6.9l-1.2 2.7h9.3l6.3 13.7z" fill="#73848d"/></svg>