<?xml version="1.0" encoding="utf-8"?>
<!-- Generator: Adobe Illustrator 17.1.0, SVG Export Plug-In . SVG Version: 6.00 Build 0)  -->
<!DOCTYPE svg PUBLIC "-//W3C//DTD SVG 1.1//EN" "http://www.w3.org/Graphics/SVG/1.1/DTD/svg11.dtd">
<svg version="1.1" id="Layer_1" xmlns="http://www.w3.org/2000/svg" xmlns:xlink="http://www.w3.org/1999/xlink" x="0px" y="0px"
	 viewBox="0 0 1000 112" enable-background="new 0 0 1000 112" xml:space="preserve">
<g>
	<path fill="#17A3DD" d="M37.7,55c-0.7-3.3-4.3-4.7-7.5-4.7c-2.5,0.1-5.2,0.9-6.7,2.8c-0.7,0.9-1,2.1-0.9,3.4
		c0.3,3.8,4.4,4.2,8.3,4.6c5,0.6,11.3,1.9,12.7,7.8c0.2,0.8,0.3,1.7,0.3,2.4c0,7.1-7,11.2-13.6,11.2c-5.7,0-12.5-3.4-13.2-9.9
		l-0.1-1l5.3-0.1l0.1,0.8v-0.2c0.4,3.4,4.5,5.2,7.9,5.2c3.9,0,8.2-2.2,8.2-6c0-0.4-0.1-0.8-0.2-1.3c-0.6-2.8-4.4-3.2-8.1-3.6
		c-5.7-0.6-12.4-1.8-13-9.5V57c-0.2-2.5,0.4-4.9,2-7c2.5-3.2,6.9-4.9,11.1-4.9c5.7,0,11.5,2.9,12.5,9.6L37.7,55z"/>
	<polygon fill="#17A3DD" points="80.4,49.7 60,77.5 80.7,77.5 80.7,82.2 53.9,82.2 53.9,77.9 74.2,50.3 53.9,50.3 53.9,45.5 
		80.4,45.5 	"/>
	<polygon fill="#17A3DD" points="93.4,45.6 103.4,61.7 113.4,45.6 119.7,45.6 106.1,67.3 106.1,82.2 100.7,82.2 100.7,67.3 
		87.2,45.6 	"/>
	<polygon fill="#17A3DD" points="133.1,82.2 127.8,82.2 127.8,45.5 132.1,45.5 144.2,63.4 156.3,45.5 160.5,45.5 160.5,82.2 
		155.3,82.2 155.3,56.4 145.7,70.6 142.7,70.6 133.1,56.4 	"/>
	<path fill="#17A3DD" d="M192.8,71.4h-13.1c-1.4,3.4-3.2,7.8-4.4,10.8h-5.7l14.7-37.1h3.9l14.7,37.1h-5.7L192.8,71.4z M181.6,66.4
		h9.1l-4.5-12.9L181.6,66.4z"/>
	<polygon fill="#17A3DD" points="211.8,82.2 211.8,45.5 215.9,45.5 233.8,71.4 233.8,45.5 239,45.5 239,82.2 234.8,82.2 217.1,56.6 
		217.1,82.2 	"/>
	<path fill="#17A3DD" d="M254,50.6c3.4-3.4,8.1-5.6,13.2-5.6c5.2,0,9.8,2.1,13.3,5.6c3.3,3.4,5.4,8.1,5.4,13.3
		c0,5.2-2.1,9.8-5.4,13.2c-3.4,3.5-8.1,5.6-13.3,5.6c-5.1,0-9.8-2.1-13.2-5.6c-3.3-3.4-5.4-8.1-5.4-13.2
		C248.5,58.7,250.7,54,254,50.6 M276.6,54.4c-2.5-2.5-5.9-4-9.5-4c-3.6,0-7,1.5-9.4,4c-2.4,2.4-3.9,5.8-3.9,9.5
		c0,3.7,1.5,7.1,3.9,9.5c2.4,2.5,5.8,4,9.4,4c3.6,0,7-1.5,9.5-4c2.4-2.4,3.9-5.7,3.9-9.5C280.5,60.1,279,56.8,276.6,54.4"/>
	<path fill="#17A3DD" d="M315.4,64.8c-2.1,6-4.5,12.1-6.3,17.7h-3.7L293,45.6h5.5l8.7,26.5l6-17.1h4.2l6,17.1
		c2.9-8.7,6.1-18.1,8.8-26.4h5.6l-12.3,36.8h-3.7L315.4,64.8z"/>
	<path fill="#17A3DD" d="M366.2,55c-0.7-3.3-4.3-4.7-7.5-4.7c-2.5,0.1-5.2,0.9-6.7,2.8c-0.7,0.9-1,2.1-0.9,3.4
		c0.3,3.8,4.4,4.2,8.3,4.6c5,0.6,11.3,1.9,12.7,7.8c0.2,0.8,0.3,1.7,0.3,2.4c0,7.1-7,11.2-13.6,11.2c-5.7,0-12.5-3.4-13.2-9.9
		l-0.1-1l5.3-0.1l0.1,0.8v-0.2c0.4,3.4,4.5,5.2,7.9,5.2c3.9,0,8.2-2.2,8.2-6c0-0.4-0.1-0.8-0.2-1.3c-0.6-2.8-4.4-3.2-8.1-3.6
		c-5.7-0.6-12.4-1.8-13-9.5V57c-0.2-2.5,0.4-4.9,2-7c2.5-3.2,6.9-4.9,11.1-4.9c5.7,0,11.5,2.9,12.5,9.6L366.2,55z"/>
	<path fill="#17A3DD" d="M389,82.2h-5.2V45.6h5.2V82.2z M390,62.6l12.8-17h6.7l-14,18.2l15.5,18.4h-6.9l-14-17V62.6z"/>
	<polygon fill="#17A3DD" points="437.9,50.8 431.1,50.8 431.1,76.9 437.9,76.9 437.9,82.2 419,82.2 419,76.9 425.8,76.9 425.8,50.8 
		419,50.8 419,45.6 437.9,45.6 	"/>
	<path fill="#114A7D" d="M564.8,50.6c3.4-3.5,8.1-5.6,13.2-5.6c5.2,0,9.8,2.1,13.3,5.6c3.4,3.4,5.5,8.1,5.5,13.3
		c0,5.2-2.1,9.9-5.5,13.3c-3.4,3.5-8.1,5.6-13.3,5.6c-5.1,0-9.8-2.1-13.2-5.6c-3.4-3.4-5.5-8.1-5.5-13.3
		C559.3,58.7,561.5,54,564.8,50.6 M590.7,51.2c-3.2-3.3-7.8-5.3-12.7-5.3c-4.9,0-9.4,2-12.6,5.3c-3.2,3.2-5.2,7.7-5.2,12.7
		s2,9.4,5.2,12.7c3.2,3.3,7.7,5.3,12.6,5.3c4.9,0,9.4-2,12.7-5.3c3.2-3.2,5.2-7.7,5.2-12.7S593.9,54.4,590.7,51.2"/>
	<path fill="#114A7D" d="M606.6,82.2h-0.8V46v-0.4h0.4h12.3c14.7,0,14.7,21.4,0,21.4h-5.9l16.9,15.2h-1.2L611.4,67v-0.8h7.1
		c13.6,0,13.6-19.8,0-19.8h-11.9V82.2z"/>
	<polygon fill="#114A7D" points="644,82.2 644,46.4 631.3,46.4 631.3,45.5 657.4,45.5 657.4,46.4 644.7,46.4 644.7,82.2 	"/>
	<polygon fill="#114A7D" points="666.6,63.2 689.6,63.2 689.6,45.6 690.4,45.6 690.4,82.2 689.6,82.2 689.6,64 666.6,64 666.6,82.2 
		665.8,82.2 665.8,45.6 666.6,45.6 	"/>
	<path fill="#114A7D" d="M705.1,50.6c3.4-3.5,8.1-5.6,13.2-5.6c5.2,0,9.8,2.1,13.3,5.6c3.4,3.4,5.5,8.1,5.5,13.3
		c0,5.2-2.1,9.9-5.5,13.3c-3.4,3.5-8.1,5.6-13.3,5.6c-5.1,0-9.8-2.1-13.2-5.6c-3.4-3.4-5.5-8.1-5.5-13.3
		C699.6,58.7,701.7,54,705.1,50.6 M731,51.2c-3.2-3.3-7.8-5.3-12.7-5.3c-4.9,0-9.4,2-12.6,5.3c-3.2,3.2-5.2,7.7-5.2,12.7
		s2,9.4,5.2,12.7c3.2,3.3,7.7,5.3,12.6,5.3c4.9,0,9.4-2,12.7-5.3c3.2-3.2,5.2-7.7,5.2-12.7S734.2,54.4,731,51.2"/>
	<path fill="#114A7D" d="M758.4,45.6c24,0,24,36.6,0,36.6h-12.4V45.6H758.4z M758.4,81.4c23,0,23-35,0-35h-11.6v35H758.4z"/>
	<path fill="#114A7D" d="M790,50.6c3.4-3.5,8.1-5.6,13.2-5.6c5.2,0,9.8,2.1,13.3,5.6c3.3,3.4,5.5,8.1,5.5,13.3
		c0,5.2-2.1,9.9-5.5,13.3c-3.4,3.5-8.1,5.6-13.3,5.6c-5.1,0-9.8-2.1-13.2-5.6c-3.4-3.4-5.5-8.1-5.5-13.3
		C784.5,58.7,786.6,54,790,50.6 M815.9,51.2c-3.2-3.3-7.8-5.3-12.7-5.3c-4.9,0-9.4,2-12.6,5.3c-3.2,3.2-5.2,7.7-5.2,12.7
		s2,9.4,5.2,12.7c3.2,3.3,7.7,5.3,12.6,5.3c4.9,0,9.4-2,12.7-5.3c3.2-3.2,5.2-7.7,5.2-12.7S819.1,54.4,815.9,51.2"/>
	<polygon fill="#114A7D" points="831,82.2 831,45.5 831.8,45.5 856.1,80.7 856.1,45.5 856.9,45.5 856.9,82.2 856.1,82.2 831.9,47.2 
		831.9,82.2 	"/>
	<polygon fill="#114A7D" points="872.2,82.2 872.2,46.4 859.6,46.4 859.6,45.5 885.7,45.5 885.7,46.4 873,46.4 873,82.2 	"/>
	<polygon fill="#114A7D" points="909.3,46.3 901.5,46.3 901.5,81.4 909.3,81.4 909.3,82.2 892.9,82.2 892.9,81.4 900.7,81.4 
		900.7,46.3 892.9,46.3 892.9,45.6 909.3,45.6 	"/>
	<path fill="#114A7D" d="M948.5,56.8c-0.8-1.9-2-3.7-3.5-5.1c-3.1-3.2-7.4-5.1-12.1-5.1c-4.7,0-9,1.9-12.1,5.1
		c-3.1,3.2-5,7.5-5,12.3c0,4.8,1.9,9.2,5,12.3c3.1,3.2,7.4,5.2,12.1,5.2c4.7,0,9-2,12.1-5.2c1.4-1.5,2.6-3.1,3.5-5.1h0.9
		c-0.9,2.1-2.2,4.1-3.8,5.7c-3.2,3.4-7.7,5.4-12.7,5.4c-5,0-9.4-2-12.7-5.4C917,73.6,915,69,915,63.9c0-5,2-9.6,5.2-12.9
		c3.2-3.4,7.7-5.4,12.7-5.4c5,0,9.4,2,12.7,5.4c1.6,1.6,2.9,3.6,3.8,5.7H948.5z"/>
	<path fill="#114A7D" d="M981,53.2c-0.3-1.5-0.9-2.8-2-4c-2.3-2.4-5.9-3.4-9.2-3.4c-3.5,0.1-7.4,1.3-9.6,4.2
		c-1.3,1.6-1.8,3.6-1.6,5.6c0.9,12.8,21.5,2.8,24,14.5c1.7,7.8-5.7,12.4-12.6,12.4c-5.3,0-11.8-3-12.5-9l-0.1-0.4l0.8-0.1l0.1,0.4
		c0.6,5.5,6.7,8.3,11.7,8.3c6.4,0,13.3-4.1,11.8-11.4c-2.4-10.9-23-0.9-24-14.6c-0.2-2.2,0.4-4.3,1.7-6.1c5.3-6.9,20.4-6,22.2,3.5
		l0.1,0.4l-0.8,0.2L981,53.2z"/>
	<path fill="#114A7D" d="M533.1,28.9c-0.4-0.6-3.2-4.4-2.7-9.9c0.6-6.8,13.7-16.3,13.7-16.3s-30.6,3.6-49.9,11.4
		c-19.3,7.9-27,14.5-27.2,14.8H533.1z"/>
	<path fill="#114A7D" d="M468.1,27.8c8.3-8.4,20-13.8,32.7-13.8c12.9,0,24.4,5.3,32.9,13.8c8.2,8.4,13.5,20,13.5,32.9
		c0,12.9-5.3,24.4-13.5,32.9c-8.4,8.6-20,13.8-32.9,13.8c-12.7,0-24.4-5.2-32.7-13.8c-8.2-8.4-13.5-20-13.5-32.9
		C454.6,47.8,459.9,36.3,468.1,27.8 M524.3,37.2c-6.1-6.1-14.5-9.9-23.5-9.9s-17.3,3.8-23.2,9.9c-6,6-9.7,14.3-9.7,23.5
		c0,9.2,3.8,17.5,9.7,23.5c6,6.1,14.3,9.9,23.2,9.9s17.4-3.8,23.5-9.9c5.8-6,9.6-14.2,9.6-23.5C533.9,51.3,530.2,43.2,524.3,37.2"/>
	<circle fill="#FFFFFF" cx="500.9" cy="60.7" r="38"/>
	<path fill="#114A7D" d="M500.9,86.3c-7.3,0-13.1-5.9-13.1-13.1H514C514,80.4,508.1,86.3,500.9,86.3"/>
	<path fill="#114A7D" d="M492.5,55.6c0,4.3-2.1,7.7-4.8,7.7c-2.6,0-4.8-3.5-4.8-7.7c0-4.3,2.1-7.7,4.8-7.7
		C490.4,47.9,492.5,51.4,492.5,55.6"/>
	<path fill="#114A7D" d="M518.8,55.6c0,4.3-2.1,7.7-4.8,7.7c-2.6,0-4.8-3.5-4.8-7.7c0-4.3,2.1-7.7,4.8-7.7
		C516.7,47.9,518.8,51.4,518.8,55.6"/>
</g>
</svg>
