<?xml version="1.0" encoding="utf-8"?>
<!-- Generator: Adobe Illustrator 18.0.0, SVG Export Plug-In . SVG Version: 6.00 Build 0)  -->
<!DOCTYPE svg PUBLIC "-//W3C//DTD SVG 1.1//EN" "http://www.w3.org/Graphics/SVG/1.1/DTD/svg11.dtd">
<svg version="1.1" xmlns="http://www.w3.org/2000/svg" xmlns:xlink="http://www.w3.org/1999/xlink" x="0px" y="0px"
	 viewBox="0 0 1000 1000" enable-background="new 0 0 1000 1000" xml:space="preserve">
<g id="Layer_2">
</g>
<g id="Layer_1">
	<circle fill="#FFFFFF" cx="492.8" cy="514.6" r="359.6"/>
	<path fill="#00A4E2" d="M398.8,274.8c-39.6-1.2-66.1,38.6-59.3,90.5c6.8,52,44.4,88.3,84,89.5c39.6,1.2,62.3-32.3,55.5-84.3
		C472.3,318.7,438.4,276,398.8,274.8z"/>
	<path fill="#00A4E2" d="M415.5,561.2c-59-0.7-108.9,37.2-108.9,81.2c0,44.8,42.6,82.2,101.6,82.2c82.9,0,111.8-35,111.8-79.9
		c0-5.4-0.7-10.7-1.9-15.8c-6.5-25.4-32.3-39.3-64.3-61.5C442,563.6,429.2,561.4,415.5,561.2z"/>
	<path fill="#00A4E2" d="M500,1.8C224.9,1.8,1.8,224.9,1.8,500c0,275.2,223.1,498.2,498.2,498.2c275.1,0,498.2-223,498.2-498.2
		C998.2,224.9,775.1,1.8,500,1.8z M538.1,368.4c0,32.5-18,58.6-43.4,78.4c-24.8,19.4-29.5,27.5-29.5,44c0,14,29.6,35,43.2,45.2
		c47.4,35.6,57,58,57,102.4c0,55.5-59.8,110.7-157,110.7c-85.3,0-157.3-34.7-157.3-90.2c0-56.3,59.7-115.1,145-115.1
		c9.3,0,17.8-0.2,26.6-0.2c-11.7-11.3-21.1-21.1-21.1-38.2c0-10.2,3.2-19.9,7.8-28.6c-4.6,0.3-9.4,0.6-14.2,0.6
		c-70.1,0-110.9-49.3-110.9-111c0-60.4,62.1-115.4,136.6-115.4c38.4,0,146.8,0,146.8,0L535,285.4h-38.6
		C523.6,301,538.1,333,538.1,368.4z M748.9,359.3h-67.7V427h-33.9v-67.7h-67.7v-33.9h67.7v-67.7h33.9v67.7h67.7V359.3z"/>
</g>
</svg>
