<svg xmlns="http://www.w3.org/2000/svg" viewBox="0 0 50 50" xml:space="preserve"><g fill="#60666B"><path class="path1" fill-rule="evenodd" clip-rule="evenodd" d="M38.2 41.4c6.1 0 11-4.8 11-10.7 0-4.4-2.7-8.2-6.7-9.8V20c0-7.1-5.9-12.8-13.2-12.8-5.1 0-9.5 2.8-11.7 6.9-.8-.3-1.7-.5-2.6-.5-4.3 0-7.7 3.3-7.7 7.5 0 .5.1 1.1.2 1.6C3.6 24 .7 27.6.7 31.8c0 5.3 4.4 9.6 9.9 9.6H38.2zm-1-2.1h1.1c4.9 0 8.8-3.8 8.8-8.5 0-3.4-2.1-6.5-5.3-7.8l-1.4-.6.1-1.5v-.8c0-5.9-5-10.7-11-10.7-4.1 0-7.9 2.2-9.8 5.7l-.9 1.6-1.8-.6c-.6-.2-1.2-.3-1.9-.3-3 0-5.5 2.4-5.5 5.3 0 .4 0 .7.1 1.1l.4 1.9-1.9.6c-3.2 1-5.3 3.9-5.3 7.1 0 4.1 3.5 7.5 7.7 7.5h26.6z"/><path class="path2" d="M38.2 42.1H10.7C4.8 42.1 0 37.5 0 31.8c0-4.2 2.7-8 6.7-9.6-.1-.4-.1-.7-.1-1.1 0-4.5 3.8-8.2 8.4-8.2.8 0 1.5.1 2.3.3 2.5-4.2 7.1-6.7 12.1-6.7 7.7 0 14 6.1 14 13.5v.4c4 1.9 6.6 5.9 6.6 10.3 0 6.3-5.3 11.4-11.8 11.4zM15.1 14.4c-3.9 0-7 3-7 6.8 0 .5.1.9.2 1.4l.1.6-.6.2C4 24.6 1.4 28 1.4 31.8c0 4.9 4.1 8.9 9.2 8.9h27.6c5.7 0 10.3-4.5 10.3-10 0-4-2.4-7.6-6.2-9.1l-.5-.2V20c.1-6.6-5.5-12-12.4-12-4.7 0-8.9 2.5-11.1 6.5l-.3.5-.6-.2c-.7-.3-1.5-.4-2.3-.4zM38.2 40H10.7c-4.7 0-8.4-3.7-8.4-8.2 0-3.5 2.3-6.7 5.8-7.8l1.2-.4-.3-1.2c-.1-.4-.1-.9-.1-1.3 0-3.3 2.8-6.1 6.2-6.1.7 0 1.4.1 2.1.4l1.2.4.6-1.1c2-3.8 6-6.1 10.4-6.1 6.5 0 11.8 5.1 11.8 11.4v.6l-.1 1.2 1 .4c3.5 1.5 5.8 4.8 5.8 8.5-.1 5.1-4.4 9.3-9.7 9.3zM15.1 16.5c-2.6 0-4.8 2.1-4.8 4.6 0 .3 0 .6.1 1l.6 2.5-2.5.8c-2.9.9-4.8 3.5-4.8 6.4 0 3.7 3.1 6.8 7 6.8h27.6c4.5 0 8.1-3.5 8.1-7.8 0-3.1-1.9-5.9-4.9-7.2l-1.9-.8.1-2.2v-.5c0-5.5-4.6-10-10.3-10-3.8 0-7.3 2-9.1 5.3l-1.2 2.2-2.4-.8c-.5-.2-1.1-.3-1.6-.3z"/></g><path class="path3" fill="#D94452" d="M20.2 33.3c-.2 0-.4-.1-.6-.2-.3-.3-.3-.8 0-1.2l10.8-10.8c.3-.3.8-.3 1.2 0 .3.3.3.8 0 1.2L20.8 33.1c-.2.1-.4.2-.6.2z"/><path class="path4" fill="#D94452" d="M31 33.3c-.2 0-.4-.1-.6-.2L19.6 22.2c-.3-.3-.3-.8 0-1.2.3-.3.8-.3 1.2 0l10.8 10.8c.3.3.3.8 0 1.2-.1.2-.3.3-.6.3z"/></svg>