<svg xmlns="http://www.w3.org/2000/svg" viewBox="0 0 50 50" xml:space="preserve"><path fill-rule="evenodd" clip-rule="evenodd" fill="#60666B" d="M50 25c0 13.8-11.2 25-25 25S0 38.8 0 25 11.2 0 25 0s25 11.2 25 25z"/><path fill-rule="evenodd" clip-rule="evenodd" fill="#FFF" d="M25 37.6c-6.9 0-12.5-5.6-12.5-12.5S18.1 12.6 25 12.6s12.5 5.6 12.5 12.5S31.9 37.6 25 37.6zm0-26.2c-7.6 0-13.7 6.2-13.7 13.8 0 7.6 6.2 13.7 13.7 13.7 7.6 0 13.8-6.2 13.8-13.7-.1-7.7-6.3-13.8-13.8-13.8zm5.3 18.2-9.7-9.7c-.2-.2-.6-.2-.9 0-.2.2-.2.6 0 .9l9.7 9.7c.2.2.6.2.9 0 .2-.3.2-.7 0-.9zm-10.7 0 9.7-9.7c.2-.2.6-.2.9 0 .2.2.2.6 0 .9l-9.7 9.7c-.2.2-.6.2-.9 0-.2-.3-.2-.7 0-.9z"/><path fill="#FFF" d="m19.7 19.8.3.3-.3-.3zm9.7 10.6-.3.3.3-.3zm.9 0-.3-.3.3.3zm-.9-10.6-.3-.3.3.3zm.9 0-.3.3.3-.3zm0 .9.3.3-.3-.3zm-9.8 9.7-.3-.3.3.3zm-.9 0 .3-.3-.3.3zm5.4 6.8c-6.7 0-12.1-5.4-12.1-12.1H12C12 32.3 17.8 38 25 38v-.8zM12.9 25.1C12.9 18.5 18.3 13 25 13v-.8c-7.2 0-13 5.8-13 12.9h.9zM25 13c6.6 0 12 5.5 12 12.1h.8c0-7.1-5.8-12.9-12.9-12.9v.8zm12 12.1c0 6.7-5.4 12.1-12.1 12.1v.8c7.1 0 12.9-5.8 12.9-12.9H37zM25 11c-7.8 0-14.2 6.3-14.2 14.2h.8c0-7.4 6-13.3 13.3-13.3V11zM10.8 25.1c0 7.8 6.3 14.2 14.2 14.2v-.8c-7.4 0-13.3-6-13.3-13.3h-.9zM25 39.3c7.8 0 14.2-6.3 14.2-14.2h-.8c0 7.4-6 13.3-13.3 13.3v.9zm14.1-14.2C39.1 17.3 32.8 11 25 11v.8c7.4 0 13.3 6 13.3 13.3h.8zm-8.6 4.2-9.7-9.7-.6.6 9.7 9.7.6-.6zm-9.7-9.8c-.4-.4-1.1-.4-1.5 0l.6.6c.1-.1.2-.1.3 0l.6-.6zm-1.4 0c-.4.4-.4 1.1 0 1.5l.6-.6c-.1-.1-.1-.2 0-.3l-.6-.6zm0 1.5 9.7 9.7.6-.6-9.7-9.7-.6.6zm9.7 9.7c.4.4 1.1.4 1.5 0l-.6-.6c-.1.1-.2.1-.3 0l-.6.6zm1.4 0c.4-.4.4-1.1 0-1.5l-.5.6c.1.1.1.2 0 .3l.5.6zm-10.6-.9 9.7-9.7-.6-.6-9.7 9.7.6.6zm9.8-9.7c.1-.1.2-.1.3 0l.6-.6c-.4-.4-1.1-.4-1.5 0l.6.6zm.3 0c.1.1.1.2 0 .3l.6.6c.4-.4.4-1.1 0-1.5l-.6.6zm0 .3-9.7 9.7.6.6 9.7-9.7-.6-.6zm-9.8 9.7c-.1.1-.2.1-.3 0l-.6.6c.4.4 1.1.4 1.5 0l-.6-.6zm-.3 0c-.1-.1-.1-.2 0-.3l-.6-.6c-.4.4-.4 1.1 0 1.5l.6-.6z"/><path fill="#FFF" d="M24.4 24.8h1.2V26h-1.2z"/></svg>