<svg xmlns="http://www.w3.org/2000/svg" viewBox="0 0 50 50" xml:space="preserve"><path fill-rule="evenodd" clip-rule="evenodd" fill="#D94452" d="M50 25c0 13.8-11.2 25-25 25S0 38.8 0 25 11.2 0 25 0s25 11.2 25 25z"/><path fill-rule="evenodd" clip-rule="evenodd" fill="#FFFFFE" d="M37.2 26.7c-1.9 3.3-4 6.8-6.9 9.3-1.1.9-2.4 1.4-3.9 1.4h-4.1c-3.9-.2-7.1-3.4-7.1-7.2V18.3c0-.8.6-1.4 1.4-1.4.8 0 1.4.6 1.4 1.4v6.4c0 .4.3.7.7.7.4 0 .7-.3.7-.7v-9.2c0-.8.6-1.4 1.4-1.4.8 0 1.4.6 1.4 1.4v9.2c0 .4.3.7.7.7.4 0 .7-.3.7-.7V12.9c0-.8.6-1.4 1.4-1.4.8 0 1.4.6 1.4 1.4v11.8c0 .4.3.7.7.7.4 0 .7-.3.7-.7v-9.2c0-.8.6-1.4 1.4-1.4.8 0 1.4.6 1.4 1.4v11.8c0 .3.2.6.5.7.3.1.6 0 .8-.2l2.6-2.4c.5-.5 1.3-.5 1.8 0 .3.2.4.6.4.9.6.1.5.2.5.4zm.7-2.4c-1.1-1.1-2.9-1.1-3.9 0l-1.3 1.3V15.5c0-1.6-1.2-2.9-2.8-2.9-.5 0-1.1.1-1.5.4v-.1c0-1.6-1.3-2.8-2.9-2.8-1.6 0-2.9 1.3-2.9 2.8v.1c-1.4-.8-3.2-.3-4 1.1-.3.4-.4.9-.4 1.4v.4c-1.4-.8-3.2-.3-4 1.1-.3.4-.4.9-.4 1.4v11.8c.1 4.6 3.8 8.4 8.6 8.7h4.1c1.8 0 3.5-.7 4.8-1.8 3.1-2.6 5.2-6.2 7.3-9.7.4-1.2.1-2.4-.7-3.1z"/><path fill="#FFF" d="m37.2 26.7.2.1-.2-.1zm-6.9 9.2.1.2-.1-.2zm-7.9 1.5v.2-.2zm-7.2-7.3H15h.2zm0-11.8H15h.2zm1.5-1.4v-.2.2zm1.4 1.4h.2-.2zm1.5-2.8h-.2.2zm1.4-1.4v-.2.2zm1.5 1.4h.2-.2zm1.4-2.6h-.2.2zm1.5-1.4v-.2.2zm1.4 1.4h.2-.2zm1.5 2.6h-.2.2zm1.4-1.4v-.2.2zm1.5 1.4h.2-.2zm0 11.8H31h.2zm.4.6-.1.2.1-.2zm.9-.1.1.2-.1-.2zm2.5-2.5.1.2-.1-.2zm1.9 0-.1.1.1-.1zm.4 1h-.2.2zm-3.3-2-.1-.1.1.1zm-1.3 1.2h-.2v.5l.4-.4-.2-.1zm0-10h-.2.2zm-2.8-2.9v.2-.2zm-1.6.4h-.2v.4l.3-.2-.1-.2zm0-.2h.2-.2zM25.4 10v.2-.2zm-2.9 2.8h-.2.2zm0 .2-.1.2.3.2V13h-.2zm-4 1 .2.1-.2-.1zm-.4 1.8-.1.2.3.2v-.4h-.2zm-4 1 .2.1-.2-.1zm-.3 1.5h.2-.2zm0 11.8h-.2.2zm8.5 8.6v.2-.2zm4.1 0v.3-.3zm4.9-1.8-.1-.2.1.2zm7.2-9.7.2.1-.2-.1zm-.6-3 .1-.1-.4-.3v.5h.3zm-.9 2.4c-1.9 3.3-4 6.7-6.9 9.2l.3.3c2.9-2.5 5.1-6 6.9-9.3l-.3-.2zm-6.8 9.2c-1 .9-2.3 1.4-3.7 1.4v.4c1.5 0 2.9-.5 4-1.5l-.3-.3zm-3.8 1.4h-4.1v.4h4.1v-.4zm-4 0c-3.8-.2-6.9-3.3-6.9-7h-.4c.1 4 3.3 7.2 7.3 7.4v-.4zm-6.9-7.1V18.3H15v11.8h.5zm0-11.8c0-.7.5-1.2 1.2-1.2v-.4c-.9 0-1.6.7-1.6 1.6h.4zm1.2-1.2c.7 0 1.2.5 1.2 1.2h.4c0-.9-.7-1.6-1.6-1.6v.4zm1.2 1.2v6.4h.4v-6.4h-.4zm0 6.4c0 .5.4.9 1 .9v-.4c-.3 0-.5-.2-.5-.5h-.5zm1 .9c.5 0 1-.4 1-.9h-.4c0 .3-.2.5-.5.5v.4zm.9-.9v-9.2h-.4v9.2h.4zm0-9.2c0-.6.5-1.2 1.2-1.2v-.4c-.9 0-1.6.7-1.6 1.6h.4zm1.2-1.2c.7 0 1.2.5 1.2 1.2h.4c0-.9-.7-1.6-1.6-1.6v.4zm1.2 1.2v9.2h.4v-9.2h-.4zm0 9.2c0 .5.4.9 1 .9v-.4c-.3 0-.5-.2-.5-.5h-.5zm1 .9c.5 0 1-.4 1-.9h-.4c0 .3-.2.5-.5.5v.4zm1-.9V12.9h-.4v11.8h.4zm0-11.8c0-.7.6-1.2 1.2-1.2v-.4c-.9 0-1.6.7-1.6 1.6h.4zm1.2-1.2c.7 0 1.2.5 1.2 1.2h.4c0-.9-.7-1.6-1.6-1.6v.4zm1.2 1.2v11.8h.4V12.9h-.4zm0 11.8c0 .5.4.9 1 .9v-.4c-.3 0-.5-.2-.5-.5h-.5zm1 .9c.5 0 1-.4 1-.9h-.4c0 .3-.2.5-.5.5v.4zm.9-.9v-9.2h-.4v9.2h.4zm0-9.2c0-.6.5-1.2 1.2-1.2v-.4c-.9 0-1.6.7-1.6 1.6h.4zm1.2-1.2c.7 0 1.2.5 1.2 1.2h.4c0-.9-.7-1.6-1.6-1.6v.4zm1.3 1.2v11.8h.4V15.5H31zm0 11.8c0 .4.2.7.6.9l.2-.4c-.2-.1-.3-.3-.3-.5H31zm.6.8c.4.1.8.1 1-.2l-.3-.3c-.2.1-.4.2-.6.1l-.1.4zm1-.2 2.6-2.4-.3-.3-2.6 2.4.3.3zm2.6-2.4c.4-.4 1.1-.4 1.5 0l.3-.3c-.6-.6-1.5-.6-2.1 0l.3.3zm1.5 0c.2.2.3.5.3.8h.4c0-.4-.2-.8-.5-1.1l-.2.3zm.4.8c0 .1 0 .2-.1.3l.4.1c.1-.2.1-.3.1-.5l-.4.1zm1-2.2c-1.2-1.1-3.1-1.1-4.2 0l.3.3c1-1 2.6-1 3.7 0l.2-.3zm-4.3 0-1.3 1.3.3.3 1.3-1.3-.3-.3zm-.9 1.4v-10h-.4v10.1h.4zm0-10c0-1.7-1.3-3.1-3.1-3.1v.4c1.5 0 2.7 1.2 2.6 2.7h.5zm-3-3.1c-.6 0-1.1.1-1.6.4l.2.4c.4-.2.9-.4 1.4-.4v-.4zm-1.4.6v-.1h-.4v.1h.4zm0-.2c0-1.7-1.4-3-3.1-3v.4c1.5 0 2.7 1.2 2.7 2.6h.4zm-3.1-3c-1.7 0-3.1 1.4-3.1 3h.4c0-1.5 1.2-2.6 2.7-2.6v-.4zm-3.1 3v.2h.4v-.1h-.4zm.3 0c-1.5-.8-3.4-.3-4.3 1.1l.4.2c.7-1.3 2.4-1.7 3.7-1l.2-.3zm-4.3 1.1c-.3.5-.4 1-.4 1.5h.4c0-.5.1-.9.4-1.3l-.4-.2zm-.4 1.5v.4h.4v-.4h-.4zm.3.2c-1.5-.8-3.4-.3-4.3 1.1l.4.2c.7-1.3 2.4-1.7 3.7-1l.2-.3zM14 16.7c-.3.5-.4 1-.4 1.5h.4c0-.5.1-.9.4-1.3l-.4-.2zm-.5 1.6v11.8h.5V18.3h-.5zm0 11.8c.1 4.7 3.9 8.6 8.8 8.9v-.4c-4.6-.3-8.3-4-8.4-8.5h-.4zm8.8 8.9h4.1v-.4h-4.1v.4zm4.1 0c1.8 0 3.6-.7 5-1.9l-.3-.3c-1.3 1.1-3 1.8-4.7 1.8v.4zm5-1.9c3.1-2.7 5.3-6.3 7.3-9.8l-.4-.2c-2 3.5-4.2 7-7.2 9.7l.3.3zm7.3-9.8c.5-1.1.2-2.4-.7-3.3l-.3.3c.8.7 1 1.9.6 2.8l.4.2zm-1-3.1.4.1v-.1h-.4z"/></svg>