<svg xmlns="http://www.w3.org/2000/svg" viewBox="0 0 50 50" xml:space="preserve"><path fill-rule="evenodd" clip-rule="evenodd" fill="#60666B" d="M42.6 16.3v-.9c0-7.1-5.9-12.8-13.3-12.8-5.1 0-9.5 2.8-11.7 6.9-.8-.3-1.7-.5-2.6-.5-4.3 0-7.7 3.4-7.7 7.5 0 .5.1 1.1.2 1.6-4 1.3-6.8 4.9-6.8 9.1 0 5.3 4.5 9.6 10 9.6H15c.6 0 1.1-.5 1.1-1.1 0-.6-.5-1.1-1.1-1.1h-4.4c-4.3 0-7.7-3.4-7.7-7.5C2.9 23.9 5 21 8.2 20l1.9-.6-.4-1.9c-.1-.4-.1-.8-.1-1.1 0-2.9 2.5-5.4 5.5-5.4.6 0 1.3.1 1.9.3l1.8.6.9-1.7c1.9-3.5 5.7-5.7 9.8-5.7 6.1 0 11.1 4.8 11.1 10.7v.8l-.1 1.5 1.4.6c3.2 1.4 5.3 4.4 5.3 7.9 0 4.7-4 8.6-8.8 8.6h-3.3c-.6 0-1.1.5-1.1 1.1 0 .6.5 1.1 1.1 1.1h3.3c6.1 0 11.1-4.8 11.1-10.7-.2-4.3-3-8.1-6.9-9.8z"/><path fill="#60666B" d="M38.2 37.5h-3.3c-.9 0-1.7-.7-1.7-1.7 0-.9.8-1.7 1.7-1.7h3.3c4.5 0 8.2-3.6 8.2-8 0-3.2-2-6-5-7.3l-1.8-.8.1-2.1v-.5c0-5.6-4.7-10.1-10.5-10.1-3.9 0-7.4 2.1-9.3 5.4l-1.1 2.1-2.3-.8c-.6-.2-1.1-.3-1.7-.3-2.7 0-4.9 2.1-4.9 4.8 0 .3 0 .7.1 1l.5 2.4-2.4.8c-2.9.9-4.9 3.6-4.9 6.5 0 3.8 3.2 6.9 7.1 6.9H15c.9 0 1.7.7 1.7 1.7 0 .9-.8 1.7-1.7 1.7h-4.4C4.7 37.5 0 32.9 0 27.2c0-4.2 2.7-8 6.7-9.5-.1-.4-.1-.8-.1-1.2 0-4.5 3.7-8.1 8.3-8.1.8 0 1.6.1 2.4.3 2.5-4.2 7-6.8 12-6.8 7.6 0 13.9 6 13.9 13.4v.5c4.1 1.9 6.7 5.8 6.7 10.2 0 6.4-5.3 11.5-11.7 11.5zm-3.3-2.2c-.3 0-.5.2-.5.5s.2.5.5.5h3.3c5.8 0 10.5-4.5 10.5-10.1 0-4-2.5-7.7-6.3-9.3l-.4-.2V15.4c0-6.8-5.7-12.2-12.7-12.2-4.7 0-9 2.5-11.2 6.6l-.2.4-.5-.2c-.8-.3-1.6-.4-2.4-.4-3.9 0-7.1 3.1-7.1 6.9 0 .5.1 1 .2 1.4l.1.5-.5.2c-3.8 1.2-6.4 4.7-6.4 8.6 0 5 4.2 9 9.4 9H15c.3 0 .5-.2.5-.5s-.2-.5-.5-.5h-4.4c-4.6 0-8.3-3.6-8.3-8.1 0-3.5 2.3-6.6 5.7-7.7l1.4-.4-.4-1.2c-.1-.4-.1-.8-.1-1.3 0-3.3 2.7-5.9 6.1-5.9.7 0 1.4.1 2.1.4l1.3.5.7-1.2c2-3.7 6-6 10.3-6C35.8 4.2 41 9.2 41 15.5v.6l-.1 1.3 1 .4c3.5 1.4 5.7 4.7 5.7 8.4 0 5-4.2 9.2-9.4 9.2h-3.3z"/><path fill-rule="evenodd" clip-rule="evenodd" fill="#80B953" d="m33.2 30.7-2.1-.6c1.8-1.4 2.9-3.5 2.9-6 0-3.2-1.9-5.9-4.7-7.1l-.7 2.5c1.6.9 2.8 2.6 2.8 4.5 0 1.6-.8 3-1.9 4l.7-2.5c.1-.3 0-.7-.1-1-.4-.6-1.1-.8-1.8-.5-.3.2-.5.5-.6.8l-1.4 5.3c-.1.3 0 .7.1 1 .2.3.4.5.7.6v.1h.1l5.2 1.4c.3.1.7 0 1-.1.6-.4.8-1.1.5-1.8-.1-.3-.4-.5-.7-.6zM26.3 17.3c-.2-.3-.4-.5-.7-.6v-.1h-.3l-5.1-1.4c-.3-.1-.7 0-1 .1-.6.4-.8 1.1-.5 1.8.2.3.5.5.8.6l2 .5c-1.8 1.4-2.9 3.5-2.9 5.9 0 3.2 2 6 4.8 7.1l.7-2.5c-1.7-.8-2.9-2.6-2.9-4.6 0-1.7.8-3.1 2-4l-.7 2.7c-.1.3 0 .7.1 1 .4.6 1.1.8 1.8.5.3-.2.5-.5.6-.8l1.4-5.3c.1-.3 0-.6-.1-.9z"/><g fill="#60666B"><path fill-rule="evenodd" clip-rule="evenodd" d="m30.6 40.7-3.9 3.9v-9.5c0-.5-.4-.9-.9-.9s-.9.4-.9.9v9.5L21 40.7c-.2-.2-.4-.3-.6-.3-.5 0-.9.4-.9.9 0 .2.1.5.3.6l5.4 5.4c.2.2.4.3.6.3.2 0 .5-.1.6-.3l5.4-5.4c.2-.2.3-.4.3-.6 0-.5-.4-.9-.9-.9l-.6.3z"/><path d="M25.8 48c-.3 0-.6-.1-.8-.4l-5.4-5.4c-.2-.2-.3-.5-.3-.8 0-.7.5-1.2 1.2-1.2.3 0 .6.1.8.4l3.4 3.4v-8.8c0-.7.5-1.2 1.2-1.2s1.2.5 1.2 1.2V44l3.4-3.4c.2-.2.5-.4.8-.4.7 0 1.2.5 1.2 1.2 0 .3-.1.6-.4.8l-5.4 5.4c-.3.2-.6.4-.9.4zm-5.4-7.2c-.3 0-.6.3-.6.6 0 .2.1.3.2.4l5.4 5.4c.2.2.6.2.9 0l5.4-5.4c.1-.1.2-.3.2-.4 0-.3-.3-.6-.6-.6-.2 0-.3.1-.4.2l-4.4 4.4V35.1c0-.3-.3-.6-.6-.6s-.6.3-.6.6v10.3L20.9 41c-.2-.2-.3-.2-.5-.2z"/></g></svg>