<svg xmlns="http://www.w3.org/2000/svg" viewBox="0 0 50 50" enable-background="new 0 0 50 50" xml:space="preserve"><defs><filter id="a" filterUnits="userSpaceOnUse" x="0" y="0" width="50" height="50"><feColorMatrix values="1 0 0 0 0 0 1 0 0 0 0 0 1 0 0 0 0 0 1 0"/></filter></defs><mask maskUnits="userSpaceOnUse" x="0" y="0" width="50" height="50" id="b"><path fill-rule="evenodd" clip-rule="evenodd" fill="#FFF" filter="url(#a)" d="M0 0h50v50H0V0z"/></mask><g mask="url(#b)"><path fill-rule="evenodd" clip-rule="evenodd" fill="#60666B" d="M50 25c0 13.8-11.2 25-25 25S0 38.8 0 25 11.2 0 25 0s25 11.2 25 25z"/><path fill-rule="evenodd" clip-rule="evenodd" fill="#FFF" d="M24.8 34.6c-5.4 0-9.8-4.4-9.8-9.8s4.4-9.8 9.8-9.8 9.8 4.4 9.8 9.8-4.4 9.8-9.8 9.8zm0-20.5c-5.9 0-10.8 4.8-10.8 10.8 0 5.9 4.8 10.8 10.8 10.8 5.9 0 10.8-4.8 10.8-10.8 0-6-4.8-10.8-10.8-10.8zm5.4 10.2H19.4c-.3 0-.5.2-.5.5s.2.5.5.5h10.8c.3 0 .5-.2.5-.5 0-.2-.2-.5-.5-.5z"/><path fill="#FFF" d="M24.8 34.2c-5.2 0-9.4-4.2-9.4-9.4h-.8c0 5.6 4.6 10.2 10.2 10.2v-.8zm-9.3-9.4c0-5.2 4.2-9.4 9.4-9.4v-.8c-5.6 0-10.2 4.6-10.2 10.2h.8zm9.3-9.3c5.2 0 9.4 4.2 9.4 9.4h.8c0-5.6-4.6-10.2-10.2-10.2v.8zm9.4 9.3c0 5.2-4.2 9.4-9.4 9.4v.8C30.5 35 35 30.5 35 24.8h-.8zm-9.4-11.1c-6.2 0-11.2 5-11.2 11.2h.8c0-5.7 4.6-10.3 10.3-10.3v-.9zM13.7 24.8c0 6.2 5 11.2 11.2 11.2v-.8c-5.7 0-10.3-4.6-10.3-10.3h-.9zM24.8 36C31 36 36 31 36 24.8h-.8c0 5.7-4.6 10.3-10.3 10.3v.9zM36 24.8c0-6.2-5-11.2-11.2-11.2v.8c5.7 0 10.3 4.6 10.3 10.3h.9zm-5.8-.9H19.4v.8h10.8v-.8zm-10.8 0c-.5 0-.9.4-.9.9h.8s0-.1.1-.1v-.8zm-.9.9c0 .5.4.9.9.9v-.8s-.1 0-.1-.1h-.8zm.9.9h10.8v-.8H19.4v.8zm10.8 0c.5 0 .9-.4.9-.9h-.8s0 .1-.1.1v.8zm.9-.9c0-.5-.4-.9-.9-.9v.8s.1 0 .1.1h.8z"/></g></svg>