<svg xmlns="http://www.w3.org/2000/svg" viewBox="0 0 50 50" xml:space="preserve"><path fill-rule="evenodd" clip-rule="evenodd" fill="#38ADD8" d="M50 25c0 13.8-11.2 25-25 25S0 38.8 0 25 11.2 0 25 0s25 11.2 25 25z"/><path fill="#FFF" d="M25.1 35.3c-.8 0-1.4-.6-1.4-1.4V21.6c0-.8.6-1.4 1.4-1.4s1.4.6 1.4 1.4v12.2c0 .9-.6 1.5-1.4 1.5z"/><g fill="#FFF"><circle cx="25.1" cy="14.3" r="1.8"/><path d="M25.1 16.5c-1.2 0-2.3-1-2.3-2.3 0-1.2 1-2.3 2.3-2.3 1.2 0 2.3 1 2.3 2.3-.1 1.3-1.1 2.3-2.3 2.3zm0-3.6c-.8 0-1.4.6-1.4 1.4s.6 1.4 1.4 1.4c.8 0 1.4-.6 1.4-1.4s-.7-1.4-1.4-1.4z"/></g></svg>
