<svg xmlns="http://www.w3.org/2000/svg" viewBox="0 0 51 51" xml:space="preserve"><path fill-rule="evenodd" clip-rule="evenodd" fill="#60666B" d="M43.5 16.6v-.9c0-7.2-6.1-13.1-13.6-13.1-5.2 0-9.7 2.9-12 7-.8-.3-1.7-.5-2.7-.5-4.4 0-7.9 3.4-7.9 7.7 0 .6.1 1.1.2 1.6-4 1.3-7 5-7 9.3 0 5.4 4.6 9.8 10.2 9.8h4.5c.6 0 1.1-.5 1.1-1.1 0-.6-.5-1.1-1.1-1.1h-4.5c-4.4 0-7.9-3.4-7.9-7.7 0-3.3 2.2-6.2 5.4-7.3l1.9-.6-.3-1.7c-.1-.4-.1-.8-.1-1.1 0-3 2.5-5.5 5.7-5.5.6 0 1.3.1 1.9.3l1.9.6.9-1.7c2-3.6 5.8-5.9 10-5.9 6.2 0 11.3 4.9 11.3 10.9v.8l-.2 1.6 1.5.6c3.3 1.4 5.5 4.5 5.5 8 0 4.8-4.1 8.7-9 8.7h-3.4c-.6 0-1.1.5-1.1 1.1 0 .6.5 1.1 1.1 1.1H39c6.2 0 11.3-4.9 11.3-10.9 0-4.4-2.8-8.3-6.8-10z"/><path fill="#60666B" d="M39 38.2h-3.4c-1 0-1.7-.8-1.7-1.7 0-.9.8-1.7 1.7-1.7H39c4.7 0 8.4-3.7 8.4-8.1 0-3.2-2-6.2-5.1-7.5l-1.9-.8.1-2.2v-.5c0-5.7-4.8-10.3-10.7-10.3-4 0-7.6 2.1-9.5 5.5L19.1 13l-2.1-.7c-.6-.2-1.1-.3-1.7-.3-2.8 0-5 2.2-5 4.9 0 .3 0 .7.1 1l.5 2.5-2.4.8c-3 1-5 3.6-5 6.7 0 3.9 3.3 7 7.3 7h4.5c1 0 1.7.8 1.7 1.7 0 .9-.8 1.7-1.7 1.7h-4.5C4.8 38.2 0 33.5 0 27.8c0-4.3 2.7-8.2 6.9-9.7-.1-.4-.1-.8-.1-1.2 0-4.6 3.8-8.3 8.5-8.3.8 0 1.6.1 2.4.3C20.2 4.6 24.9 2 30 2c7.8 0 14.2 6.2 14.2 13.7v.5c4.1 1.9 6.8 6 6.8 10.4 0 6.5-5.4 11.6-12 11.6zM35.7 36c-.3 0-.5.2-.5.5s.2.5.5.5H39c5.9 0 10.7-4.6 10.7-10.3 0-4.1-2.5-7.8-6.5-9.5l-.3-.2V15.7c0-6.9-5.8-12.5-13-12.5-4.8 0-9.2 2.6-11.5 6.7l-.2.5-.5-.2c-.8-.3-1.6-.4-2.5-.4-4 0-7.3 3.2-7.3 7 0 .5.1 1 .2 1.5l.1.5-.4.2c-3.9 1.3-6.5 4.8-6.5 8.8 0 5.1 4.3 9.2 9.6 9.2h4.5c.3 0 .5-.2.5-.5s-.2-.5-.5-.5h-4.5c-4.7 0-8.5-3.7-8.5-8.3 0-3.6 2.3-6.7 5.8-7.8l1.4-.4-.3-1.4c-.2-.4-.3-.8-.3-1.3 0-3.4 2.8-6.1 6.3-6.1.7 0 1.4.1 2.1.4l1.4.5.7-1.2c2.1-3.8 6.1-6.2 10.5-6.2 6.6 0 11.9 5.2 11.9 11.5v.6l-.1 1.3 1.1.4c3.5 1.5 5.8 4.9 5.8 8.6 0 5.2-4.3 9.4-9.7 9.4h-3.3z"/><g fill="#60666B"><path fill-rule="evenodd" clip-rule="evenodd" d="m31.3 41.6-4 4v-9.8c0-.5-.4-.9-.9-.9s-.9.4-.9.9v9.8l-4-4c-.2-.2-.4-.3-.7-.3-.5 0-.9.4-.9.9 0 .3.1.5.3.7l5.5 5.5c.2.2.4.3.7.3.3 0 .5-.1.7-.3l5.5-5.5c.2-.2.3-.4.3-.7 0-.5-.4-.9-.9-.9-.3 0-.6.1-.7.3z"/><path d="M26.4 49c-.3 0-.6-.1-.9-.4L20 43.1c-.2-.2-.4-.5-.4-.9 0-.7.6-1.2 1.2-1.2.3 0 .6.1.9.4l3.4 3.4v-9c0-.7.6-1.2 1.2-1.2.7 0 1.2.5 1.2 1.2v9l3.4-3.4c.2-.2.5-.4.9-.4.7 0 1.2.5 1.2 1.2 0 .3-.1.6-.4.9l-5.5 5.5c-.1.3-.4.4-.7.4zm-5.5-7.4c-.3 0-.6.3-.6.6 0 .2.1.3.2.4l5.5 5.5c.2.2.6.2.9 0l5.5-5.5c.1-.1.2-.3.2-.4 0-.3-.3-.6-.6-.6-.2 0-.3.1-.4.2L27 46.3V35.8c0-.3-.3-.6-.6-.6s-.6.3-.6.6v10.5l-4.5-4.5c-.1-.1-.3-.2-.4-.2z"/></g><path fill="#D94452" d="M20.6 31.5c-.3 0-.6-.1-.9-.4-.5-.5-.5-1.2 0-1.7l11.1-11.1c.5-.5 1.2-.5 1.7 0s.5 1.2 0 1.7L21.4 31.2c-.2.2-.5.3-.8.3z"/><path fill="#D94452" d="M31.7 31.5c-.3 0-.6-.1-.9-.4l-11.1-11c-.5-.5-.5-1.2 0-1.7s1.2-.5 1.7 0l11.1 11.1c.5.5.5 1.2 0 1.7-.2.2-.5.3-.8.3z"/></svg>