<svg xmlns="http://www.w3.org/2000/svg" viewBox="0 0 50 50" xml:space="preserve"><path fill-rule="evenodd" clip-rule="evenodd" fill="#F08402" d="M50 25c0 13.8-11.2 25-25 25S0 38.8 0 25 11.2 0 25 0s25 11.2 25 25z"/><path fill="#FFF" d="M37.5 36.1H13.3c-.6 0-1.1-.3-1.4-.8-.3-.5-.3-1.1 0-1.6L24 11.2c.3-.5.8-.9 1.5-.9.6 0 1.2.3 1.5.9l12.1 22.5c.3.5.3 1.1 0 1.6-.5.5-1.1.8-1.6.8zM26.1 11.5l-.7.4-12.1 22.5h24.2L25.4 11.9l.7-.4z"/><path fill="#FFF" d="M26.2 28.5h-2l-.4-7.9h2.8l-.4 7.9zm-2.4 2.8c0-.5.1-.8.4-1 .2-.2.6-.3 1.1-.3.4 0 .8.1 1 .4.2.2.4.6.4 1s-.1.8-.4 1c-.2.2-.6.4-1 .4-.5 0-.8-.1-1.1-.4-.3-.4-.4-.7-.4-1.1z"/></svg>