<svg xmlns="http://www.w3.org/2000/svg" viewBox="0 0 50 50" enable-background="new 0 0 50 50" xml:space="preserve"><defs><filter id="a" filterUnits="userSpaceOnUse" x="0" y=".2" width="50" height="50"><feColorMatrix values="1 0 0 0 0 0 1 0 0 0 0 0 1 0 0 0 0 0 1 0"/></filter></defs><mask maskUnits="userSpaceOnUse" x="0" y=".2" width="50" height="50" id="b"><path fill-rule="evenodd" clip-rule="evenodd" fill="#FFF" filter="url(#a)" d="M0 .2h50v50H0V.2z"/></mask><g mask="url(#b)"><path fill-rule="evenodd" clip-rule="evenodd" fill="#80B953" d="M50 25.2c0 13.8-11.2 25-25 25S0 39 0 25.2 11.2.2 25 .2s25 11.2 25 25z"/></g><path fill-rule="evenodd" clip-rule="evenodd" fill="#FFF" d="m24.4 28.3-4.7-4.7c-.1-.1-.2-.1-.4-.1-.3 0-.5.2-.5.5 0 .1.1.3.1.4l5.1 5.1c.1.1.2.1.4.1.1 0 .3-.1.4-.2l8.5-8.9.7-.8 1.5-1.5c.1-.1.1-.2.1-.4 0-.3-.2-.5-.5-.5-.1 0-.3.1-.4.2l-1.3 1.4-.7.7-8.3 8.7z"/><path fill="#FFF" d="M24.4 29.9c-.2 0-.4-.1-.6-.2l-5.1-5.1c-.2-.2-.2-.4-.2-.6 0-.5.4-.8.8-.8.2 0 .4.1.6.2l4.5 4.5 8-8.4.7-.7 1.3-1.3c.2-.1.3-.2.6-.2.5 0 .8.4.8.8 0 .2-.1.4-.2.6l-1.4 1.5-9.2 9.4c-.2.2-.4.3-.6.3zm-5.1-6.1c-.1 0-.2.1-.2.2s0 .1.1.1l5.1 5.1c.1.1.2.1.3 0l9.2-9.6 1.5-1.5.1-.1c0-.2-.3-.2-.3-.1l-1.3 1.3-.8.6-8.3 8.7c-.1.1-.1.1-.2.1s-.2 0-.2-.1l-4.7-4.7h-.3z"/><path fill="#FFF" d="M24.4 36.7c-6.2 0-11.2-5-11.2-11.2s5-11.2 11.2-11.2c2.2 0 4.4.7 6.2 1.9.4.3.5.8.2 1.1-.3.4-.8.5-1.1.2-1.6-1.1-3.4-1.6-5.3-1.6-5.2 0-9.5 4.3-9.5 9.5s4.3 9.5 9.5 9.5 9.5-4.3 9.5-9.5c0-.7-.1-1.4-.2-2.1-.1-.4.2-.9.6-1 .4-.1.9.2 1 .6.2.8.3 1.6.3 2.5 0 6.2-5 11.3-11.2 11.3z"/></svg>