<svg xmlns="http://www.w3.org/2000/svg" viewBox="0 0 50 50" enable-background="new 0 0 50 50" xml:space="preserve"><defs><filter id="a" filterUnits="userSpaceOnUse" x="0" y="0" width="50" height="50"><feColorMatrix values="1 0 0 0 0 0 1 0 0 0 0 0 1 0 0 0 0 0 1 0"/></filter></defs><mask maskUnits="userSpaceOnUse" x="0" y="0" width="50" height="50" id="b"><path fill-rule="evenodd" clip-rule="evenodd" fill="#FFF" filter="url(#a)" d="M0 0h51.2v50.7H0V0z"/></mask><g mask="url(#b)"><path fill-rule="evenodd" clip-rule="evenodd" fill="#F7C85A" d="M50 25c0 13.8-11.2 25-25 25S0 38.8 0 25 11.2 0 25 0s25 11.2 25 25z"/></g><path fill-rule="evenodd" clip-rule="evenodd" fill="#FFFFFE" d="M34.6 21.2H15v-2.9c0-.5.4-1 1-1h2v1.5c0 .3.2.5.5.5s.5-.2.5-.5v-1.5h11.7v1.5c0 .3.2.5.5.5s.5-.2.5-.5v-1.5h2c.5 0 1 .4 1 1v2.9zm0 12.7c0 .5-.4 1-1 1H16c-.5 0-1-.4-1-1V22.2h19.6v11.7zm-1-17.6h-2v-1.5c0-.3-.2-.5-.5-.5s-.5.2-.5.5v1.5H19v-1.5c0-.3-.2-.5-.5-.5s-.5.2-.5.5v1.5h-2c-1.1 0-2 .9-2 2v15.6c0 1.1.9 2 2 2h17.6c1.1 0 2-.9 2-2V18.3c0-1.1-.9-2-2-2z"/><path fill-rule="evenodd" clip-rule="evenodd" fill="#FFF" d="M34.6 21.2H15v-2.9c0-.5.4-1 1-1h2v1.5c0 .3.2.5.5.5s.5-.2.5-.5v-1.5h11.7v1.5c0 .3.2.5.5.5s.5-.2.5-.5v-1.5h2c.5 0 1 .4 1 1v2.9zm0 12.7c0 .5-.4 1-1 1H16c-.5 0-1-.4-1-1V22.2h19.6v11.7zm-1-17.6h-2v-1.5c0-.3-.2-.5-.5-.5s-.5.2-.5.5v1.5H19v-1.5c0-.3-.2-.5-.5-.5s-.5.2-.5.5v1.5h-2c-1.1 0-2 .9-2 2v15.6c0 1.1.9 2 2 2h17.6c1.1 0 2-.9 2-2V18.3c0-1.1-.9-2-2-2z"/><path fill="#FFF" d="M34.6 21.2v.4h.4v-.4h-.4zm-19.6 0h-.4v.4h.4v-.4zm3-3.9h.4v-.4H18v.4zm1 0v-.4h-.4v.4h.4zm11.7 0h.4v-.4h-.4v.4zm1 0v-.4h-.4v.4h.4zM15 22.2v-.4h-.4v.4h.4zm19.6 0h.4v-.4h-.4v.4zm-2.9-5.9h-.4v.4h.4v-.4zm-1 0v.4h.4v-.4h-.4zm-11.7 0h-.4v.4h.4v-.4zm-1 0v.4h.4v-.4H18zm16.6 4.5H15v.8h19.6v-.8zm-19.1.4v-2.9h-.8v2.9h.8zm0-2.9c0-.3.3-.6.6-.6v-.8c-.8 0-1.4.6-1.4 1.4h.8zm.5-.6h2v-.8h-2v.8zm1.6-.4v1.5h.8v-1.5h-.8zm0 1.5c0 .5.4.9.9.9v-.8s-.1 0-.1-.1h-.8zm.9.9c.5 0 .9-.4.9-.9h-.8s0 .1-.1.1v.8zm.9-.9v-1.5h-.8v1.5h.8zm-.4-1.1h11.7v-.8H19v.8zm11.3-.4v1.5h.8v-1.5h-.8zm0 1.5c0 .5.4.9.9.9v-.8s-.1 0-.1-.1h-.8zm.9.9c.5 0 .9-.4.9-.9h-.8s0 .1-.1.1v.8zm.9-.9v-1.5h-.8v1.5h.8zm-.4-1.1h2v-.8h-2v.8zm1.9 0c.3 0 .6.3.6.6h.8c0-.8-.6-1.4-1.4-1.4v.8zm.6.6v2.9h.8v-2.9h-.8zm0 15.6c0 .3-.3.6-.6.6v.8c.8 0 1.4-.6 1.4-1.4h-.8zm-.6.6H16v.8h17.6v-.8zm-17.6 0c-.3 0-.6-.3-.6-.6h-.8c0 .8.6 1.4 1.4 1.4v-.8zm-.5-.6V22.2h-.8v11.7h.8zM15 22.6h19.6v-.8H15v.8zm19.2-.4v11.7h.8V22.2h-.8zm-.6-6.3h-2v.8h2v-.8zm-1.5.4v-1.5h-.8v1.5h.8zm0-1.4c0-.5-.4-.9-.9-.9v.8s.1 0 .1.1h.8zm-.9-.9c-.5 0-.9.4-.9.9h.8s0-.1.1-.1V14zm-.9.9v1.5h.8v-1.5h-.8zm.4 1H19v.8h11.7v-.8zm-11.3.4v-1.5h-.8v1.5h.8zm0-1.4c0-.5-.4-.9-.9-.9v.8s.1 0 .1.1h.8zm-.9-.9c-.5 0-.9.4-.9.9h.8s0-.1.1-.1V14zm-.9.9v1.5h.8v-1.5h-.8zm.4 1h-2v.8h2v-.8zm-2 0c-1.3 0-2.4 1.1-2.4 2.4h.8c0-.9.7-1.5 1.5-1.5v-.9zm-2.3 2.4v15.6h.8V18.3h-.8zm0 15.6c0 1.3 1.1 2.4 2.4 2.4v-.8c-.9 0-1.5-.7-1.5-1.5h-.9zm2.3 2.4h17.6v-.8H16v.8zm17.6 0c1.3 0 2.4-1.1 2.4-2.4h-.8c0 .9-.7 1.5-1.5 1.5v.9zm2.4-2.4V18.3h-.8v15.6h.8zm0-15.6c0-1.3-1.1-2.4-2.4-2.4v.8c.9 0 1.5.7 1.5 1.5h.9z"/></svg>