<svg xmlns="http://www.w3.org/2000/svg" xmlns:xlink="http://www.w3.org/1999/xlink" viewBox="0 0 50 50" enable-background="new 0 0 50 50" xml:space="preserve"><defs><filter id="a" filterUnits="userSpaceOnUse" x="0" y="0" width="50" height="50"><feColorMatrix values="1 0 0 0 0 0 1 0 0 0 0 0 1 0 0 0 0 0 1 0"/></filter></defs><mask maskUnits="userSpaceOnUse" x="0" y="0" width="50" height="50" id="b"><path fill-rule="evenodd" clip-rule="evenodd" fill="#FFF" filter="url(#a)" d="M0-.3h51v51H0v-51z"/></mask><g mask="url(#b)"><path fill-rule="evenodd" clip-rule="evenodd" fill="#E6980A" d="M50 25c0 13.8-11.2 25-25 25S0 38.8 0 25 11.2 0 25 0s25 11.2 25 25z"/></g><defs><path id="c" d="M14.1 14.4h21.5v21.5H14.1z"/></defs><clipPath id="d"><use xlink:href="#c" overflow="visible"/></clipPath><g clip-path="url(#d)" fill="#FFF"><path fill-rule="evenodd" clip-rule="evenodd" d="M34.6 21.3H15v-2.9c0-.5.4-1 1-1h2v1.5c0 .3.2.5.5.5s.5-.2.5-.5v-1.5h11.7v1.5c0 .3.2.5.5.5s.5-.2.5-.5v-1.5h2c.5 0 1 .4 1 1v2.9zm0 12.7c0 .5-.4 1-1 1H16c-.5 0-1-.4-1-1V22.3h19.6V34zm-1-17.6h-2v-1.5c0-.3-.2-.5-.5-.5s-.5.2-.5.5v1.5H19v-1.5c0-.3-.2-.5-.5-.5s-.5.2-.5.5v1.5h-2c-1.1 0-2 .9-2 2V34c0 1.1.9 2 2 2h17.6c1.1 0 2-.9 2-2V18.4c0-1.1-.9-2-2-2z"/><path d="M34.6 21.3v.4h.4v-.4h-.4zm-19.6 0h-.4v.4h.4v-.4zm3-3.9h.4V17H18v.4zm1 0V17h-.4v.4h.4zm11.7 0h.4V17h-.4v.4zm1 0V17h-.4v.4h.4zM15 22.3v-.4h-.4v.4h.4zm19.6 0h.4v-.4h-.4v.4zm-2.9-5.9h-.4v.4h.4v-.4zm-1 0v.4h.4v-.4h-.4zm-11.7 0h-.4v.4h.4v-.4zm-1 0v.4h.4v-.4H18zm16.6 4.5H15v.8h19.6v-.8zm-19.1.4v-2.9h-.8v2.9h.8zm0-2.9c0-.3.3-.6.6-.6V17c-.8 0-1.4.6-1.4 1.4h.8zm.5-.6h2V17h-2v.8zm1.6-.4v1.5h.8v-1.5h-.8zm0 1.4c0 .5.4.9.9.9v-.8s-.1 0-.1-.1h-.8zm.9.9c.5 0 .9-.4.9-.9h-.8s0 .1-.1.1v.8zm.9-.9v-1.5h-.8v1.5h.8zm-.4-1h11.7V17H19v.8zm11.3-.4v1.5h.8v-1.5h-.8zm0 1.4c0 .5.4.9.9.9v-.8s-.1 0-.1-.1h-.8zm.9.9c.5 0 .9-.4.9-.9h-.8s0 .1-.1.1v.8zm.9-.9v-1.5h-.8v1.5h.8zm-.4-1h2V17h-2v.8zm1.9 0c.3 0 .6.3.6.6h.8c0-.8-.6-1.4-1.4-1.4v.8zm.6.6v2.9h.8v-2.9h-.8zm0 15.6c0 .3-.3.6-.6.6v.8c.8 0 1.4-.6 1.4-1.4h-.8zm-.6.6H16v.8h17.6v-.8zm-17.6 0c-.3 0-.6-.3-.6-.6h-.8c0 .8.6 1.4 1.4 1.4v-.8zm-.5-.6V22.3h-.8V34h.8zM15 22.7h19.6v-.8H15v.8zm19.2-.4V34h.8V22.3h-.8zm-.6-6.3h-2v.8h2V16zm-1.5.4v-1.5h-.8v1.5h.8zm0-1.5c0-.5-.4-.9-.9-.9v.8s.1 0 .1.1h.8zm-.9-.9c-.5 0-.9.4-.9.9h.8s0-.1.1-.1V14zm-.9.9v1.5h.8v-1.5h-.8zm.4 1.1H19v.8h11.7V16zm-11.3.4v-1.5h-.8v1.5h.8zm0-1.5c0-.5-.4-.9-.9-.9v.8s.1 0 .1.1h.8zm-.9-.9c-.5 0-.9.4-.9.9h.8s0-.1.1-.1V14zm-.9.9v1.5h.8v-1.5h-.8zM18 16h-2v.8h2V16zm-2 0c-1.3 0-2.4 1.1-2.4 2.4h.8c0-.9.7-1.5 1.5-1.5V16zm-2.3 2.4V34h.8V18.4h-.8zm0 15.6c0 1.3 1.1 2.4 2.4 2.4v-.8c-.9 0-1.5-.7-1.5-1.5h-.9zm2.3 2.4h17.6v-.8H16v.8zm17.6 0c1.3 0 2.4-1.1 2.4-2.4h-.8c0 .9-.7 1.5-1.5 1.5v.9zM36 34V18.4h-.8V34h.8zm0-15.6c0-1.3-1.1-2.4-2.4-2.4v.8c.9 0 1.5.7 1.5 1.5h.9zM23 31.9l2.7-5.8h-3.5v-1.3h5.1v.9l-2.7 6.1H23z"/></g></svg>