<svg xmlns="http://www.w3.org/2000/svg" xmlns:xlink="http://www.w3.org/1999/xlink" viewBox="0 0 50 50" enable-background="new 0 0 50 50" xml:space="preserve"><defs><filter id="a" filterUnits="userSpaceOnUse" x="0" y="0" width="50" height="50"><feColorMatrix values="1 0 0 0 0 0 1 0 0 0 0 0 1 0 0 0 0 0 1 0"/></filter></defs><mask maskUnits="userSpaceOnUse" x="0" y="0" width="50" height="50" id="b"><path fill-rule="evenodd" clip-rule="evenodd" fill="#FFF" filter="url(#a)" d="M0 0h50v49.9H0V0z"/></mask><g mask="url(#b)"><path fill-rule="evenodd" clip-rule="evenodd" fill="#F08402" d="M50 25c0 13.8-11.2 25-25 25S0 38.8 0 25 11.2 0 25 0s25 11.2 25 25z"/></g><defs><path id="c" d="M14.1 14.5h21.5V36H14.1z"/></defs><clipPath id="d"><use xlink:href="#c" overflow="visible"/></clipPath><g clip-path="url(#d)" fill="#FFF"><path fill-rule="evenodd" clip-rule="evenodd" d="M34.6 21.4H15v-2.9c0-.5.4-1 1-1h2V19c0 .3.2.5.5.5s.5-.2.5-.5v-1.5h11.7V19c0 .3.2.5.5.5s.5-.2.5-.5v-1.5h2c.5 0 1 .4 1 1v2.9zm0 12.7c0 .5-.4 1-1 1H16c-.5 0-1-.4-1-1V22.3h19.6v11.8zm-1-17.6h-2V15c0-.3-.2-.5-.5-.5s-.5.2-.5.5v1.5H19V15c0-.3-.2-.5-.5-.5s-.5.2-.5.5v1.5h-2c-1.1 0-2 .9-2 2v15.6c0 1.1.9 2 2 2h17.6c1.1 0 2-.9 2-2V18.4c0-1.1-.9-1.9-2-1.9z"/><path d="M34.6 21.4v.4h.4v-.4h-.4zm-19.6 0h-.4v.4h.4v-.4zm3-4h.4V17H18v.4zm1 0V17h-.4v.4h.4zm11.7 0h.4V17h-.4v.4zm1 0V17h-.4v.4h.4zM15 22.3v-.4h-.4v.4h.4zm19.6 0h.4v-.4h-.4v.4zm-2.9-5.8h-.4v.4h.4v-.4zm-1 0v.4h.4v-.4h-.4zm-11.7 0h-.4v.4h.4v-.4zm-1 0v.4h.4v-.4H18zm16.6 4.4H15v.8h19.6v-.8zm-19.1.5v-2.9h-.8v2.9h.8zm0-3c0-.3.3-.6.6-.6V17c-.8 0-1.4.6-1.4 1.4h.8zm.5-.5h2V17h-2v.9zm1.6-.5v1.5h.8v-1.5h-.8zm0 1.5c0 .5.4.9.9.9V19s-.1 0-.1-.1h-.8zm.9.9c.5 0 .9-.4.9-.9h-.8s0 .1-.1.1v.8zm.9-.9v-1.5h-.8v1.5h.8zm-.4-1h11.7V17H19v.9zm11.3-.5v1.5h.8v-1.5h-.8zm0 1.5c0 .5.4.9.9.9V19s-.1 0-.1-.1h-.8zm.9.9c.5 0 .9-.4.9-.9h-.8s0 .1-.1.1v.8zm.9-.9v-1.5h-.8v1.5h.8zm-.4-1h2V17h-2v.9zm1.9 0c.3 0 .6.3.6.6h.8c0-.8-.6-1.4-1.4-1.4v.8zm.6.5v2.9h.8v-2.9h-.8zm0 15.7c0 .3-.3.6-.6.6v.8c.8 0 1.4-.6 1.4-1.4h-.8zm-.6.5H16v.8h17.6v-.8zm-17.6 0c-.3 0-.6-.3-.6-.6h-.8c0 .8.6 1.4 1.4 1.4v-.8zm-.5-.5V22.3h-.8V34h.8zM15 22.7h19.6v-.8H15v.8zm19.2-.4V34h.8V22.3h-.8zm-.6-6.3h-2v.8h2V16zm-1.5.5V15h-.8v1.5h.8zm0-1.5c0-.5-.4-.9-.9-.9v.8s.1 0 .1.1h.8zm-.9-.9c-.5 0-.9.4-.9.9h.8s0-.1.1-.1v-.8zm-.9.9v1.5h.8V15h-.8zm.4 1H19v.8h11.7V16zm-11.3.5V15h-.8v1.5h.8zm0-1.5c0-.5-.4-.9-.9-.9v.8s.1 0 .1.1h.8zm-.9-.9c-.5 0-.9.4-.9.9h.8s0-.1.1-.1v-.8zm-.9.9v1.5h.8V15h-.8zm.4 1h-2v.8h2V16zm-2 0c-1.3 0-2.4 1.1-2.4 2.4h.8c0-.9.7-1.5 1.5-1.5V16zm-2.3 2.4V34h.8V18.4h-.8zm0 15.7c0 1.3 1.1 2.4 2.4 2.4v-.8c-.9 0-1.5-.7-1.5-1.5h-.9zm2.3 2.3h17.6v-.8H16v.8zm17.6 0c1.3 0 2.4-1.1 2.4-2.4h-.8c0 .9-.7 1.5-1.5 1.5v.9zm2.4-2.3V18.4h-.8V34h.8zm0-15.7c0-1.3-1.1-2.4-2.4-2.4v.8c.9 0 1.5.7 1.5 1.5h.9zM27 26.4c0 .4-.1.8-.4 1.1-.3.3-.6.5-1.1.6.6.1 1 .2 1.3.5.3.3.4.6.4 1.1 0 .7-.2 1.2-.7 1.6-.5.4-1.2.6-2.1.6-.8 0-1.5-.1-2-.4v-1.3c.3.1.6.3.9.3s.7.1 1 .1c.5 0 .9-.1 1.1-.3s.4-.4.4-.8c0-.3-.1-.6-.4-.7-.3-.1-.7-.2-1.3-.2h-.5v-1.1h.5c.5 0 1-.1 1.2-.2.3-.1.4-.4.4-.7 0-.5-.3-.8-1-.8-.2 0-.5 0-.7.1-.2.1-.5.2-.8.4l-.7-1c.6-.5 1.4-.7 2.3-.7.7 0 1.3.1 1.7.4.2.5.5.9.5 1.4z"/></g></svg>