<svg xmlns="http://www.w3.org/2000/svg" viewBox="0 0 50 50" xml:space="preserve"><path fill-rule="evenodd" clip-rule="evenodd" fill="#D94452" d="M50 25c0 13.8-11.2 25-25 25S0 38.8 0 25 11.2 0 25 0s25 11.2 25 25z"/><path fill-rule="evenodd" clip-rule="evenodd" fill="#FFF" d="M24.8 36.6c-5.8 0-10.5-4.5-10.5-10.1S19 16.4 24.8 16.4s10.5 4.5 10.5 10.1c0 5.5-4.7 10.1-10.5 10.1zm0-21.3c-6.4 0-11.6 5-11.6 11.1s5.2 11.1 11.6 11.1c6.4 0 11.6-5 11.6-11.1s-5.2-11.1-11.6-11.1z"/><path fill="#FFF" d="M24.8 36.2c-5.7 0-10.2-4.4-10.2-9.8H14c0 5.8 4.9 10.4 10.8 10.4v-.6zm-10.2-9.8c0-5.4 4.6-9.8 10.2-9.8V16c-6 0-10.8 4.7-10.8 10.4h.6zm10.2-9.8c5.7 0 10.2 4.4 10.2 9.8h.6c0-5.8-4.9-10.4-10.8-10.4v.6zM35 26.4c0 5.4-4.6 9.8-10.2 9.8v.6c6 0 10.8-4.7 10.8-10.4H35zM24.8 15c-6.6 0-11.9 5.1-11.9 11.4h.6c0-6 5-10.8 11.3-10.8V15zM12.9 26.4c0 6.3 5.3 11.4 11.9 11.4v-.6c-6.2 0-11.3-4.9-11.3-10.8h-.6zm11.9 11.5c6.6 0 11.9-5.1 11.9-11.4h-.6c0 6-5 10.8-11.3 10.8v.6zm11.9-11.5c0-6.3-5.3-11.4-11.9-11.4v.6c6.2 0 11.3 4.9 11.3 10.8h.6z"/><path fill="#FFF" d="M34.1 16.9c.3-.3.2-.9-.1-1.2-.3-.3-.9-.2-1.2.1l1.3 1.1zm-2.8.7c-.3.3-.2.9.1 1.2.3.3.9.2 1.2-.1l-1.3-1.1zm-8.6-6.5c-.5 0-.8.4-.8.8 0 .5.4.8.8.8v-1.6zm4.2 1.6c.5 0 .8-.4.8-.8 0-.5-.4-.8-.8-.8v1.6zM24 27c0 .5.4.8.8.8.5 0 .8-.4.8-.8H24zm1.6-6.8c0-.5-.4-.8-.8-.8-.5 0-.8.4-.8.8h1.6zm7.2-4.4-1.5 1.8 1.3 1.1 1.5-1.8-1.3-1.1zm-10.1-3.1h4.1V11h-4.1v1.7zM25.6 27v-6.8H24V27h1.6z"/></svg>