<svg width="36" height="36" viewBox="0 0 36 36" fill="none" xmlns="http://www.w3.org/2000/svg">
<path fill-rule="evenodd" clip-rule="evenodd" d="M29.1632 2.1193C28.615 1.23421 29.3285 0.437257 30.013 0.0140713L18.0206 0.00313988C8.06824 0.00313988 0 8.06135 0 18.0012C0 27.9413 8.06824 36 18.0206 36L36 35.959V22.8823H19.4243C16.7254 22.8823 14.5374 20.6972 14.5374 18.0012C14.5374 15.306 16.7254 13.1207 19.4243 13.1207L36 13.0942V0.00313988L32.24 0L31.053 0.747291C31.0517 0.723452 30.959 0.671469 30.853 0.654723C30.747 0.637861 30.6364 0.669957 30.5358 0.731825C30.3097 0.871724 30.2104 1.0336 30.3165 1.20525C30.4298 1.38794 30.77 1.27033 31.1925 1.12427C31.8847 0.884945 32.7979 0.569247 33.2958 1.37294C33.7415 2.09279 33.4792 2.93102 32.2731 3.67633C31.5196 4.14197 30.5394 4.41002 30.0011 3.65645L31.2423 2.88949C31.2376 2.90123 31.3471 2.96767 31.4713 2.98475C31.5938 3.00033 31.7314 2.97009 31.8571 2.89229C32.0582 2.76809 32.2306 2.57005 32.0792 2.32572C31.9447 2.10858 31.596 2.23523 31.1715 2.38938C30.5115 2.62903 29.6686 2.93514 29.1632 2.1193ZM31.2423 2.88949C31.2424 2.88907 31.2427 2.88872 31.2432 2.88845C31.2436 2.88819 31.2442 2.888 31.2449 2.88788L31.2423 2.88949ZM9.99195 17.3112L11.2041 16.5618L9.06049 13.1018L7.75399 13.9093L8.78501 15.5731C9.11637 16.1082 9.18123 16.479 8.80422 16.712C8.49031 16.9058 8.23928 16.851 7.94482 16.3756L6.78678 14.5069L5.48051 15.3142L6.7855 17.4209C7.39922 18.411 8.15033 18.586 8.86639 18.1437C9.40641 17.8097 9.58222 17.5482 9.68294 17.0683L9.99195 17.3112ZM9.65089 12.7367L10.8505 11.9953L11.1637 12.2444C11.1631 11.8793 11.4507 11.4944 11.8316 11.2519C12.4169 10.8789 12.9124 10.9491 13.2983 11.2218C13.3233 10.6311 13.5588 10.1841 14.0423 9.88527C15.0034 9.29137 15.6567 9.67304 16.2419 10.6172L17.5102 12.6642L16.2039 13.4718L15.1112 11.7087C14.7963 11.2001 14.5753 11.0537 14.2298 11.2673C13.8467 11.5041 13.9882 11.9006 14.2458 12.3165L15.3054 14.0268L13.9991 14.8341L12.9069 13.0712C12.5919 12.5625 12.3707 12.4164 12.0253 12.6296C11.6422 12.8665 11.7835 13.2631 12.0414 13.6791L13.1012 15.3892L11.7948 16.1967L9.65089 12.7367ZM25.7692 7.55927L23.6256 4.09912L22.3191 4.90654L24.4627 8.36668L25.7692 7.55927ZM23.3515 3.65656L22.045 4.46421L21.4394 3.48701L22.7459 2.67936L23.3515 3.65656ZM25.5144 2.93156L24.3213 3.66896L26.4651 7.12923L27.7712 6.32169L26.6789 4.55848C26.4049 4.1161 26.3437 3.77956 26.7457 3.53092C27.1163 3.30206 27.3924 3.55139 27.6053 3.8948L28.7384 5.72384L30.0448 4.91619L28.7602 2.84294C28.171 1.89214 27.4315 1.60967 26.5646 2.14507C26.0684 2.45197 25.9259 2.83271 25.8969 3.1903L25.5144 2.93156ZM15.9292 8.85597L17.1288 8.11473L17.4418 8.36382C17.4416 7.99867 17.7291 7.61386 18.1101 7.37116C18.6953 6.99833 19.1906 7.06857 19.5769 7.34127C19.6018 6.75062 19.8373 6.30337 20.321 6.00485C21.2818 5.41071 21.9352 5.79226 22.5202 6.73667L23.7885 8.78341L22.4821 9.59105L21.3897 7.82795C21.0749 7.31952 20.8535 7.17311 20.5083 7.38651C20.1251 7.62339 20.2665 8.02007 20.5243 8.43569L21.5839 10.146L20.2776 10.9536L19.1853 9.19043C18.8701 8.682 18.6491 8.53559 18.3035 8.7491C17.9205 8.98599 18.0622 9.38231 18.3196 9.79828L19.3795 11.5087L18.0731 12.3164L15.9292 8.85597ZM1.28606 19.1725C2.15698 20.5781 4.0042 21.0122 5.41153 20.1422L7.11006 19.0922L6.28652 17.7631L4.81748 18.6714C4.1452 19.0866 3.26263 18.8792 2.84662 18.2077C2.43037 17.5363 2.63832 16.6549 3.31061 16.2392L4.77988 15.3311L3.95646 14.0022L2.25723 15.0519C0.849905 15.9217 0.414793 17.7666 1.28606 19.1725Z" fill="black"/>
</svg>
