<svg xmlns="http://www.w3.org/2000/svg" viewBox="0 0 24 24"><defs><style>.cls-2{fill:#fff}</style></defs><path d="M21.27 0H2.74a1.14 1.14 0 0 0-1.15 1.15v21.7A1.14 1.14 0 0 0 2.74 24h18.53a1.14 1.14 0 0 0 1.14-1.15V1.15A1.14 1.14 0 0 0 21.27 0Z" style="fill:#1e1e1e"/><path class="cls-2" d="M3.54 11.67h16.93v3.5H3.54zM15.67 23.35H8.33a1.76 1.76 0 0 1-1.75-1.75v-2.73a1.76 1.76 0 0 1 1.75-1.75h7.34a1.75 1.75 0 0 1 1.75 1.75v2.73a1.75 1.75 0 0 1-1.75 1.75Zm-7.34-4.73a.25.25 0 0 0-.25.25v2.73a.25.25 0 0 0 .25.25h7.34a.25.25 0 0 0 .25-.25v-2.73a.25.25 0 0 0-.25-.25ZM9.37 4.7l2.28 1.53 3.22-3a.31.31 0 0 1 .41 0l2.85 2.57V1.74a.65.65 0 0 0-.64-.65h-11a.64.64 0 0 0-.64.64V7L9 4.7a.3.3 0 0 1 .37 0Z"/><path class="cls-2" d="M15.22 5.06a.2.2 0 0 0-.27 0L11.78 8 9.34 6.35a.2.2 0 0 0-.23 0L5.87 8.8v.62a.85.85 0 0 0 .85.85h10.56a.85.85 0 0 0 .85-.85V7.59Z"/></svg>