<svg xmlns="http://www.w3.org/2000/svg" viewBox="0 0 24 24"><path d="M18.8 2.12A4.84 4.84 0 1 0 23.64 7a4.84 4.84 0 0 0-4.84-4.88Z" style="fill:#1e1e1e"/><path d="M16.06 22.7H1.86V18c0-2.3 7-2.1 7-2.1H9s7-.2 7 2.1.1 4.7.1 4.7H1.86" style="stroke:#1e1e1e;stroke-miterlimit:10;stroke-width:1.5px;fill:none"/><path d="M9.26 13.8h-.4a3.12 3.12 0 0 1-3.1-3.1V8.3a3.12 3.12 0 0 1 3.1-3.1h.4a3.12 3.12 0 0 1 3.1 3.1v2.3a3.14 3.14 0 0 1-3.1 3.2Z" style="fill:#fff;stroke:#1e1e1e;stroke-miterlimit:10;stroke-width:1.5px"/><path d="M21.87 6.46 19.3 3.88a.34.34 0 0 0-.14-.09l-.1-.07a.74.74 0 0 0-.51 0 .47.47 0 0 0-.24.15l-2.59 2.59a.7.7 0 1 0 1 1l1.38-1.41V9.7a.7.7 0 1 0 1.4 0V6.05l1.39 1.39a.68.68 0 0 0 1 0 .63.63 0 0 0 .19-.44.62.62 0 0 0-.21-.54Z" style="fill:#fff"/></svg>