<svg xmlns="http://www.w3.org/2000/svg" viewBox="0 0 24 24"><defs><style>.cls-3{fill:#1e1e1e}</style></defs><path d="M20.47 13.42H3.54" style="stroke-width:3.5px;fill:none;stroke:#1e1e1e;stroke-miterlimit:10"/><rect x="7.33" y="17.87" width="9.34" height="4.73" rx="1" style="stroke-width:1.5px;fill:none;stroke:#1e1e1e;stroke-miterlimit:10"/><path class="cls-3" d="m9.37 4.7 2.28 1.53 3.22-3a.31.31 0 0 1 .41 0l2.85 2.57V1.74a.65.65 0 0 0-.64-.65h-11a.64.64 0 0 0-.64.64V7L9 4.7a.3.3 0 0 1 .37 0Z"/><path class="cls-3" d="M15.22 5.06a.2.2 0 0 0-.27 0L11.78 8 9.34 6.35a.2.2 0 0 0-.23 0L5.87 8.8v.62a.85.85 0 0 0 .85.85h10.56a.85.85 0 0 0 .85-.85V7.59Z"/></svg>