<svg xmlns="http://www.w3.org/2000/svg" viewBox="0 0 24 24"><defs><style>.cls-1{fill:none;stroke:#1e1e1e;stroke-miterlimit:10;stroke-width:1.18px}.cls-2{fill:#1e1e1e}</style></defs><rect class="cls-1" x="9.18" y="20.17" width="6.2" height="3.14" rx=".66"/><path class="cls-1" d="M17.54 17.15H6.31M18.49 15.09H5.36"/><path class="cls-2" d="m10 8 1.79 1.21 2.54-2.31a.23.23 0 0 1 .31 0l2.25 2V5.7a.51.51 0 0 0-.51-.51H7.75a.51.51 0 0 0-.51.51v4.14L9.73 8A.22.22 0 0 1 10 8Z"/><path class="cls-2" d="M14.6 8.32a.15.15 0 0 0-.21 0l-2.5 2.3L10 9.33a.15.15 0 0 0-.18 0l-2.58 1.93v.49a.67.67 0 0 0 .67.67h8.31a.67.67 0 0 0 .67-.67v-1.44Z"/><path d="M16.21 1.57H8" style="stroke-width:2.5px;fill:none;stroke:#1e1e1e;stroke-miterlimit:10"/></svg>