<svg xmlns="http://www.w3.org/2000/svg" viewBox="0 0 24 24"><defs><style>.cls-1{fill:none;stroke:#1e1e1e;stroke-miterlimit:10;stroke-width:1.5px}.cls-2{fill:#1e1e1e}</style></defs><path class="cls-1" d="M6.3 10.4V5.5s0-1.8 2.3-1.8"/><path class="cls-2" d="M9.44 10.4h-2.8v-3h2.8Z"/><path class="cls-1" d="M1.8 10.4V5.5s0-1.8 2.3-1.8"/><path class="cls-2" d="M4.83 10.4H2v-3h2.8Z"/><path class="cls-1" d="M22.6 22.7H8.4V18c0-2.3 7-2.1 7-2.1h.1s7-.2 7 2.1.1 4.7.1 4.7H8.4M15.8 13.8h-.4a3.12 3.12 0 0 1-3.1-3.1V8.3a3.12 3.12 0 0 1 3.1-3.1h.4a3.12 3.12 0 0 1 3.1 3.1v2.3a3.14 3.14 0 0 1-3.1 3.2Z"/></svg>