<svg xmlns="http://www.w3.org/2000/svg" viewBox="0 0 24 24"><defs><style>.cls-2{fill:#fff}</style></defs><path d="M22.85 3.34H1.1A1.15 1.15 0 0 0 0 4.49v15a1.15 1.15 0 0 0 1.1 1.17h21.75A1.14 1.14 0 0 0 24 19.51v-15a1.14 1.14 0 0 0-1.15-1.17Z" style="fill:#1e1e1e"/><path class="cls-2" d="M9.84 10.37v-2H8.22v-1.3c0-.17.1-.72 1-.72v-1A1.85 1.85 0 0 0 7.2 7.06v3.31h2.64ZM5.18 7.07c0-.17.09-.72 1-.72v-1a1.84 1.84 0 0 0-2.02 1.71v3.31h2.56v-2H5.18ZM19.17 15.51a1.27 1.27 0 0 0-.41-.93c-1.1-1.07-4.46-1-4.88-1s-3.74-.07-4.85 1a1.31 1.31 0 0 0-.41.93v3.68h10.62v-.5s0-1.69-.07-3.18Zm-9.53 2.67v-2.67a.26.26 0 0 1 .1-.2c.61-.59 2.85-.75 4.13-.71H14c1.26 0 3.5.12 4.11.71a.27.27 0 0 1 .1.22c0 1 .06 2 .06 2.65ZM13.87 13.18h.27a2.64 2.64 0 0 0 2.6-2.67V9a2.61 2.61 0 0 0-2.6-2.6h-.27A2.61 2.61 0 0 0 11.26 9v1.62a2.61 2.61 0 0 0 2.61 2.56ZM12.28 9a1.59 1.59 0 0 1 1.59-1.59h.27A1.59 1.59 0 0 1 15.72 9v1.56a1.6 1.6 0 0 1-1.58 1.65h-.27a1.59 1.59 0 0 1-1.59-1.59Z"/></svg>