<svg xmlns="http://www.w3.org/2000/svg" viewBox="0 0 1000 1000.1"><path fill="#fff" d="M712.3 605c-28-34.3-56.8-69.7-77.6-111v-5.4c0-16.8-7.8-31.7-20-41.4V429c0-23-14.4-42.5-34.8-50l25.7-130.3c4.8 0 8.5-.7 9-2.7.3-2 6.8-32 7.4-34.2 3-9.2 65.4 16 78.8 20.4 50.6 17.2 66.8-84.2 28.6-98s-130.3 3.3-135.2 20c-6.8 23.4-16 76.8-17.4 85-.3 1.7 2 3.4 5.8 5l-26 131.5h-61l6-234c4.7-.7 8-2 8-4s1.5-32.8 1.8-35c1.3-9.5 67 4.8 81 7C645 118.2 644 15.7 604 8.3S476 33.3 474 51c-2.7 24-3 78.2-3 86.6 0 1.7 3 3 7 3.8l-6.2 234.3h-24.5l-5-184.5c4-.8 6.8-2 6.8-3.8.2-8.5 0-62.6-3-86.7-2-17.4-89.8-50-129.8-42.6s-41 110 11.8 101.6c14-2.2 79.7-16.5 81-7 .3 2.2 1.6 33 1.7 35 0 2 3.3 3.3 8 4l5 184.3h-28.2L366 284c3.8-2 6.2-4 5.7-5.8-2.3-8.2-17.7-60-27-82.5-7-16.2-100.4-22.7-136.7-4.6-36.4 18.3-8.6 117 39.7 94.2 12.8-6 72-38 75.8-29.4 1 2 10.8 31.2 11.4 33 .5 2 4 2.3 8.4 1.8l27.3 85h-8c-29.4 0-53.2 24-53.2 53.2v10.5c-19.4 8-33.2 27-33.2 49.2v161c-23 6-39.8 26.6-39.8 51.3v199c0 29.4 23.8 53.2 53 53.2h21.7c6 23 26.6 39.8 51.3 39.8h199c10.2 0 19.6-3 27.7-7.8 8.8.4 18.8.6 29.4.6 55.2 0 129.7-7.3 172-47 22-21 33-48.3 33-81.5 0-115.4-56.5-184.8-111.3-252zm64.5 319c-40 37.8-116 42.6-169 41.7 4.4-7.7 7-16.5 7-26V729c12-9.7 19.8-24.6 19.8-41.4V534.2c18.8 30 40.7 57 62.2 83.4 55 67.5 107 131.2 107 239.6 0 28-8.8 49.7-27 67z"/></svg>