<svg xmlns="http://www.w3.org/2000/svg" viewBox="0 0 1000 1000"><path fill="#fff" d="M948.4 538.8c0-56-45.8-102-102-102h-71v110.6c0 108.4-88.5 197-197 197h-79v39.5c0 55.7 46.3 101.8 102 101.8h160.8l157 90.6c14.2 7.7 29.4.3 29.3-16.4V538.8z"/><path fill="#fff" d="M687.8 657c28-28 45.4-66.8 45.4-109.4V175.2c0-42.6-17.4-81.3-45.4-109.3S621 20.4 578.5 20.4H206.2C163.6 20.5 125 38 97 66S51.4 132.5 51.4 175V815c0 25.3 23 36.4 44.4 25l238.3-137.7h244.2c42.6 0 81.3-17.4 109.3-45.4zM206.6 257.7h371.6c17.5 0 31.7 14.2 31.7 31.7-.2 17.5-14.4 31.7-32 31.7H206.7c-17.5 0-31.7-14.2-31.7-31.7s14-31.7 31.6-31.7zm0 207c-17.5 0-31.7-14.2-31.7-31.7s14-31.6 31.6-31.6H578c17.6 0 31.8 14.2 31.8 31.7S595.6 465 578 465H206.7z"/></svg>