<svg xmlns="http://www.w3.org/2000/svg" viewBox="0 0 1000 1000.1"><path fill="#fff" d="M737.8 777.7l59.8-59.8c164.4-164.5 164.4-431 0-595.3C634-41 366-41 202.4 122.7 38 287 38 553.5 202.4 718l271.2 271c14.6 14.7 38.3 14.7 53 0 14.5-14.5 14.5-38.2 0-52.8L255 665.2C120 529.8 120 310.6 255.2 175.4 389.6 41 610.4 41 744.7 175.5 880 310.7 880 529.8 744.7 665L685 724.8c-14.6 14.6-14.6 38.2 0 52.8 14.6 14.7 38.2 14.7 52.8 0zM632 883.4c14.7-14.6 14.7-38.2 0-52.8L361 559.4c-77-76.8-77-201.3 0-278 76.2-76.4 201.7-76.4 278 0 76.8 76.7 76.8 201.2 0 278l-59.8 59.8c-14.6 14.6-14.6 38.3 0 53 14.6 14.5 38.2 14.5 52.8 0l59.8-60c106-106 106-277.7 0-383.7-105.5-105.5-278.3-105.5-384 0-106 106-106 277.8 0 383.8l271.3 271.2c15 14.5 38.5 14.5 53 0z"/></svg>