<svg xmlns="http://www.w3.org/2000/svg" viewBox="0 0 1000 1000.1"><path fill="#fff" d="M688 559.5c53.4 83 115 184 69 245-29.6 30.7-82.4 28.4-146 3 21.8-46.2 47-101.5 47.3-102.8.5-2.3-3.7-18-4.6-22.3-1-4.2-4.6-70.6-7-85-2.3-14.4-9.3-21.4-13-25-3.7-3.8-11-23.3-17.2-31.7-6-8.4-7.4-12.5-6.5-16.7s0-27-1-34-15.2-10.6-15.2-10.6l1-3.7 2.6 2.2-2.4-3c.6-3 1.2-6.6.7-9.5 0-.5-.5-1.3-1-2 9-4.4 15.4-8.2 15.4-8.2s8.5-22.3 16.8-34.8c8.4-12.5 45.5-48.3 65.5-64 20-16 40.4-32 46.4-42s8.4-26.4 8.4-26.4 7-9.7 2.4-17.6c-3.3-5.5-6.5-19.7-17.5-33.6l4.4-.7 2.8-6.4s4.2 2.3 7 1.4c2.8-1 5.6-9.8 6.5-16.3 1-6.2 1.8-10.7 5-15 2.8.5 5.4 1 7 1.5 4.7 1.4 12.6 11 19 10.7 6.6-.6 14.5-2.4 14.5-8s-16.7-25.6-16.7-25.6-.5-26.5-3.3-35.8-17.2-26-35.8-32.5-37 1.5-50.2 11.7c-9.2 7.2-18 17.6-16.5 26l-.7.4c-5.6 4.3-12.5 7.5-12.5 7.5l-4.2 3.3 2 2c-1 3 .4 5 .4 5l-1 4.6s1.5 2.3.6 3.7-2.8 3.8-4.6 5.7c-.6.6-1.6 2-2.7 3.6-1.6-.7-3-1.3-4.3-1.7-11-3.7-18.6-.5-22.8 5s-4.7 4.7-17.7.6c-13-4.2-26-10.7-43.7-9.3-4.7.3-9.7 1-14.7 2.2-6.2-3.6-13.2-7.7-21.6-13-28.3-17.5-39.5-33.3-46-40.8-1.2-1.4-2.5-2.7-3.7-3.8 1.2-.6 2-2.7 2-2.7s-12.2-14-19-27c-7-13-10-13.5-15-12-1.5.3-3.7.2-6 0-1.2-1.3-3-2.8-4.6-3.3l-1.5-.4c-3-23 .2-53 .2-53s11.6 2.2 35.3 13c5.5 2.5 8.4 0 9.3-5s-39.5-29-44.6-28-7 15.8-7 15.8C424 51.7 424 73.3 424 77c-2.3.2-4.3.6-5 1.4-2.4 2.3-11.7 10.2-11.7 12.5s2.3 13 7.4 23.2 13.5 27.3 13 40.8c-.5 13.5-8.4 34.8-14 52-5.5 17.2-8.7 43.7-9.2 59.4-.5 15.8 5.6 18.6 13 20L437 290c0 1.3-2.3 6.4 9.3 7.3 11.6 1 21.8 0 34-4.2s27.3-8.7 27.3-8.7-14.4 36.2-28.3 55.7c-5.8 8.2-11 13.5-15.5 17.4-39-26.2-80.6-48.6-124-66.5-44.2-18.4-116-36.4-153.4 5.4-41.4 46.4-2.4 145 102 268.5C246 489 203 408.4 250 358.3 287.3 319 367.5 341 448.4 380c.2 4.7.8 9.4.8 12 0 1.4 1 5 2.5 9.6-1 .6-1.7 1.4-2.4 2.2-9.2 11.6-24 41-28.7 53-4.6 12 0 68.6.5 88.6s11 48.3 14.4 73.4c2.6 20.4 2.5 66.8 2.4 83.5-37-29.3-64.7-54-64.7-54L361.3 638l-53.2-47.3s12.2 23 53 69.3c13.4 16.3 39.7 41.5 66.2 65.7l-.5 3c-1 12.6-16.3 150-16.3 150s-10.4 22.8-12.3 30c-2 7.3.3 18 .3 18l.8.6c-4 14.2-5.2 29.5-4.6 36.7 0 0-2.3 6.6-1 15.2 0 0 13.3 4 35.4 5.7l10.8-4.2s15.2 9.8 51 13 43.2 2.8 53.6-2 6.6-8.8 5.4-9.4c0 0-.3-9.5-6.3-11.4s-33-7-45.3-12.6C491 955 486 947 483 941c2 .7 4.4 3 3.8-1.6-.6-4.7.5-24.3 1-33.2 0-1.8.8-6.2 1.8-12.3 3.5 2.8 13 9.8 27 14.7l8.8-3.5s18.3 6 27.8 9.5 33 3.2 48.4 2.2c15.5-1 16.4-3.6 17.4-5.8 1-2.2-.3-5.4-.3-5.4s-2.8-6.3-12-8.5-17.7-3.5-21-4.4-6.2-4.8-6.2-4.8l-1-.4c-.2-2.4-.8-5.7-2-9-2.2-6.4 0-7 3.8-8.7.7-.3 4.4-7.2 9.6-18 106.5 63.2 192 76.7 226.2 36.6 38-44.6.2-212-128.3-329zM474.3 215c-7.4 2.4-12.5 4.3-12.5 4.3s0 2.5-.2 6l-13 2.3s.6-34 2.4-48.3c2-14.4 4.2-23.7 8-28.3l1-2 3.6 4.8c3 4 19 30.7 33.5 48.7-10 6-17.6 11-23 12.6zM535.2 696c-1-4.2-1.4-65-1.4-65l34 96c1.8 5.7-3 3.4-4.8 4.3-.7.5-11.8 19.5-25 42-6.4-3.7-13-7.8-19.7-12 8.2-29.8 17.6-62.2 17-65.2zm-35.2 144c3.2-15.5 6.4-31 9-42.4l10.7 8c-8 13.8-15 26.5-19.7 34.5z"/></svg>
