<svg xmlns="http://www.w3.org/2000/svg" viewBox="0 0 1000 1000"><path fill="#E12127" d="M794 418.4h-25.5V267.6C768.5 123.2 651.5 6 507 6h-14C348.5 6 231.4 123.3 231.4 267.7v150.8h-25.6c-51 0-92.3 41.3-92.3 92.3v375.6c0 59.5 48.2 107.7 107.7 107.7h557.4c59.5 0 107.7-48.2 107.7-107.7V510.7c.2-51-41.2-92.3-92.2-92.3zM370 267.6c0-68 55.2-123 123-123h14.2c68 0 123 55 123 123v150.8H370V267.6zm325.3 454c0 17-13.7 30.7-30.7 30.7h-67.4C580 788.6 543 813.8 500 813.8s-80-25.2-97.2-61.5h-67.4c-17 0-30.7-13.7-30.7-30.7V691c0-17 13.7-30.8 30.7-30.8h67.4c17.3-36.4 54.2-61.5 97.2-61.5s80 25.2 97.2 61.5h67.4c17 0 30.7 13.7 30.7 30.7v30.6z"/></svg>
