<svg xmlns="http://www.w3.org/2000/svg" viewBox="0 0 1000 1000"><g fill="#656761"><path d="M345.6 2.7S128 5.7 131 202.7c2.7 197 42.3 371 107.2 468.2 65 97 231.6 351 420.8 325.4 0 0 93.2-20 163.8-65.7L594 750.7s-67.7 43-110-14.2C441.6 679.5 309 414 309 414S272 328 354 291L345.7 2.8z"/><path d="M371 2.7S388-3 419 14c31 17.2 31 31.5 31 31.5l3 197s-8.6 11.4-20 22.8c-11.2 11.4-48 28.6-53.6 17C373.8 271.2 371 2.8 371 2.8zM613 729.7l63-33.2s14-2.8 36.7 11.4C735.3 722.2 854 816.4 854 816.4s19.8 17 14 37c-5.5 20-19.7 63-19.7 63L613 729.6z"/></g></svg>