<?xml version="1.0" encoding="utf-8"?>
<!-- Generator: Adobe Illustrator 17.1.0, SVG Export Plug-In . SVG Version: 6.00 Build 0)  -->
<!DOCTYPE svg PUBLIC "-//W3C//DTD SVG 1.1//EN" "http://www.w3.org/Graphics/SVG/1.1/DTD/svg11.dtd">
<svg version="1.1" id="Layer_1" xmlns="http://www.w3.org/2000/svg" xmlns:xlink="http://www.w3.org/1999/xlink" x="0px" y="0px"
	 viewBox="0 0 1000 1000" enable-background="new 0 0 1000 1000" xml:space="preserve">
<g>
	<g>
		<path d="M284.277,15.807c-1.043,0-1.043,0-2.077,1.039C261.442,10.618,241.717,4.389,222.002-0.8v1.039
			c-4.155,2.078-8.311,4.151-12.456,5.19c-1.044,0-2.078,1.039-3.113,2.078c-2.077,3.112-3.121,5.19-5.19,8.301
			c42.552,64.353,80.957,134.93,118.318,211.735c42.56,90.301,74.732,183.714,93.413,281.278c5.19,1.039,11.422,2.078,17.647,4.151
			c4.155-3.112,9.344-7.262,12.457-10.379c2.077-3.112,3.112-5.19,4.145-8.301c0-15.569,0-30.099-1.034-44.634
			c0,1.039,1.034,2.078,2.078,4.156c3.112,4.151,6.223,9.34,9.335,13.491c2.078,1.039,4.156,0,5.19,0
			c2.078-1.039,3.121-1.039,4.156-3.112c0-1.039,0-3.117-1.035-4.156c0-2.073-1.043-3.112-1.043-4.151
			c-5.19-79.917-23.87-157.761-57.086-232.494c-9.336-22.836-20.758-44.628-34.249-64.353
			c51.896,61.242,99.636,125.59,142.197,193.055c39.439,63.314,74.731,128.701,105.869,196.166
			c15.569,45.673,28.017,93.413,36.327,142.197c18.682,99.642,32.172,199.283,42.552,299.959c4.155-2.073,8.301-3.112,12.457-5.19
			c-1.044-16.608-2.078-33.21-1.044-49.818c-1.034-29.065-2.069-58.125-4.145-87.185c5.19,32.171,8.301,65.387,10.379,98.603
			c1.034,0,2.077,0,3.112,1.034c2.078-1.034,3.112-2.073,4.155-3.112c1.035-24.909,2.069-48.784,0-72.655
			c5.19,41.517,7.258,83.034,7.258,124.551c2.078,2.078,4.156,3.112,7.268,4.151c2.078,0,4.156-1.039,6.233-3.112
			c1.035-1.039,2.069-2.078,2.069-3.117c1.044-3.112,1.044-6.223,1.044-9.34c1.034-1.039,1.034-3.112,1.034-4.151
			c1.043,2.078,1.043,4.151,1.043,6.229c4.147,2.073,7.258,5.19,11.414,6.229c5.19,2.073,11.413,4.151,16.603,5.19
			c5.19-3.117,9.345-6.229,14.535-9.345c2.078-3.112,4.155-6.223,6.223-9.34c-3.112-123.512-24.904-241.834-66.421-357.044
			c-63.32-176.447-157.766-330.057-282.317-459.797c-7.267-8.306-13.491-16.608-19.725-24.914
			c38.405,10.379,77.844,18.686,117.293,26.987c28.017,5.19,55.009,8.306,83.034,9.34c17.637,2.078,35.284,4.156,52.931,6.229
			c-13.491-10.379-28.026-18.681-42.552-25.948c7.258,0,14.526,0,21.793-1.039c-1.035-1.034-1.035-3.112-2.078-4.151
			c-1.034-2.073-2.078-4.151-3.112-5.19c-8.301-2.073-16.604-4.151-24.914-6.229c-7.258-3.112-14.525-4.151-21.792-6.223
			c0-2.078,1.034-4.156,1.034-6.229c2.078-4.151,3.121-7.268,3.121-11.418c0-3.112-1.043-6.228-2.077-8.301
			c-2.078-4.156-4.156-5.19-5.19-6.229C499.12,74.971,391.182,46.945,285.312,16.846C284.277,16.846,284.277,16.846,284.277,15.807z
			"/>
	</g>
</g>
</svg>
