<?xml version="1.0" encoding="utf-8"?>
<!-- Generated by IcoMoon.io -->
<!DOCTYPE svg PUBLIC "-//W3C//DTD SVG 1.1//EN" "http://www.w3.org/Graphics/SVG/1.1/DTD/svg11.dtd">
<svg version="1.1" xmlns="http://www.w3.org/2000/svg" xmlns:xlink="http://www.w3.org/1999/xlink" width="1125" height="1000" viewBox="0 0 1125 1000">
<g>
</g>
	<path d="M1062.5 880.045c0 44.434 25.418 82.918 62.5 101.742v15.564c-10.377 1.42-20.969 2.172-31.738 2.172-66.414 0-126.316-27.859-168.674-72.523-25.607 6.818-52.736 10.5-80.838 10.5-155.33 0-281.25-111.93-281.25-250s125.92-250 281.25-250c155.33 0 281.25 111.93 281.25 250 0 54.051-19.301 104.094-52.105 144.986-6.664 14.477-10.395 30.578-10.395 47.559zM500 0c271.932 0 493.156 176.381 499.84 396.016-48.029-21.406-101.158-32.734-156.090-32.734-93.32 0-181.461 32.662-248.182 91.971-69.186 61.496-107.287 143.979-107.287 232.248 0 43.625 9.32 85.828 27.086 124.793-5.105 0.123-10.223 0.207-15.367 0.207-26.52 0-52.549-1.693-77.953-4.926-107.4 107.4-235.596 126.66-359.547 129.488v-26.285c66.93-32.791 125-92.52 125-160.777 0-9.525-0.74-18.877-2.113-28.023-113.082-74.477-185.387-188.236-185.387-315.727 0-224.365 223.857-406.25 500-406.25z" fill="#000000"></path>
</svg>
