<?xml version="1.0" encoding="utf-8"?>
<!-- Generator: Adobe Illustrator 18.0.0, SVG Export Plug-In . SVG Version: 6.00 Build 0)  -->
<!DOCTYPE svg PUBLIC "-//W3C//DTD SVG 1.1//EN" "http://www.w3.org/Graphics/SVG/1.1/DTD/svg11.dtd">
<svg version="1.1" id="Layer_1" xmlns="http://www.w3.org/2000/svg" xmlns:xlink="http://www.w3.org/1999/xlink" x="0px" y="0px"
	 viewBox="0 0 1000 1000" enable-background="new 0 0 1000 1000" xml:space="preserve">
<g>
	<g>
		<polygon fill="#414042" points="1000.4,149.1 864.2,149.1 864.2,13 796.2,13 796.2,149.1 660.1,149.1 660.1,217.2 796.2,217.2 
			796.2,353.3 864.2,353.3 864.2,217.2 1000.4,217.2 		"/>
	</g>
	<g>
		<path fill="#414042" d="M517.1,572.3c-27.4-20.5-86.9-62.6-86.9-90.9c0-33.1,9.4-49.4,59.3-88.3c51-39.9,87.1-92.5,87.1-157.7
			c0-71.1-29-135.5-83.7-166.8h77.5l65.9-69.2c0,0-217.9,0-295.1,0C191.5-0.6,66.7,109.8,66.7,231.3c0,124.1,82,223.1,222.9,223.1
			c9.8,0,19.3-0.6,28.6-1.2c-9.2,17.5-15.6,37.1-15.6,57.6c0,34.5,18.9,54.1,42.4,76.9c-17.7,0-34.8,0.5-53.5,0.5
			c-171.5,0-291.5,118-291.5,231.2c0,111.5,144.7,181.3,316.2,181.3c195.4,0,315.6-110.9,315.6-222.4
			C631.7,688.8,612.4,643.8,517.1,572.3z M346.6,409.2c-79.6-2.4-155.2-75.4-168.9-179.9C163.9,124.9,217.3,45,296.8,47.3
			c79.5,2.4,147.6,88.1,161.3,192.6C471.8,344.3,426.1,411.6,346.6,409.2z M315.4,951.3c-118.5,0-204.1-75-204.1-165.1
			c0-88.3,100.4-164.5,219-163.2c27.6,0.2,53.4,4.7,76.8,12.3C471.4,680,523.2,708,536.3,759c2.4,10.3,3.8,20.9,3.8,31.8
			C540.1,880.9,482,951.3,315.4,951.3z"/>
	</g>
</g>
</svg>
