<svg xmlns="http://www.w3.org/2000/svg" xmlns:xlink="http://www.w3.org/1999/xlink" version="1.1" x="0px" y="0px" viewBox="0 0 1000 1000" enable-background="new 0 0 1000 1000" xml:space="preserve"><g><path fill="#010101" d="M278.4 428.4c-5.9 1.5-11.8 2.8-18 3.7C186 443 119.1 406.9 111 351.5L380.4 312 c3.4 23.3-4.2 46.2-19.6 65.9c32.8-13.8 68.5-22.2 105.8-24.1c9.3-31.8 12.2-66 7.1-101c-19-129.6-139.5-219.2-269-200.2 C75.1 71.6-14.5 192 4.6 321.6c15.5 105.5 98.3 184.5 198.5 199.9C222.2 485.8 247.8 454.3 278.4 428.4z M302.7 162.5 c21.2-3.1 40.8 11.5 44 32.7c3.1 21.2-11.5 40.8-32.7 44c-21.2 3.1-40.8-11.5-44-32.7C266.9 185.3 281.5 165.6 302.7 162.5z M142.4 186c21.2-3.1 40.8 11.5 43.9 32.7c3.1 21.2-11.5 40.8-32.7 44c-21.2 3.1-40.8-11.5-44-32.7 C106.6 208.8 121.3 189.1 142.4 186z"/><path fill="#010101" d="M785.7 51.4c-130.2-13.7-246.9 80.8-260.6 211c-3.5 33 0.1 65.1 9.3 94.8c101 16.2 185.9 79.7 231.5 166.9 c117.7-2.4 218.1-92 230.7-212.2C1010.4 181.7 915.9 65.1 785.7 51.4z M810.8 216.6c2.2-21.3 21.3-36.7 42.6-34.5 c21.3 2.2 36.7 21.3 34.5 42.6c-2.3 21.3-21.3 36.7-42.6 34.5C824 257 808.5 237.9 810.8 216.6z M649.7 199.7 c2.3-21.3 21.3-36.7 42.6-34.5c21.3 2.2 36.7 21.3 34.5 42.6s-21.3 36.7-42.6 34.5C662.9 240 647.5 220.9 649.7 199.7z M745.5 432.8c-74.8-7.9-130.7-59.4-124.8-115.1l270.8 28.5C885.7 401.9 820.3 440.7 745.5 432.8z"/><path fill="#010101" d="M478.7 949.9c153.8 2 280.2-121.1 282.2-274.9c2-153.8-121.1-280.2-274.9-282.2 c-153.8-2-280.2 121.1-282.2 274.9C201.7 821.6 324.9 947.9 478.7 949.9z M579.2 538.5c25.1 0.3 45.2 21 44.9 46.1 c-0.3 25.1-21 45.2-46.1 44.9c-25.1-0.3-45.3-21-44.9-46.1C533.4 558.3 554.1 538.2 579.2 538.5z M641.6 726.4 c-0.8 65.8-73.2 118.2-161.5 117c-88.4-1.1-159.3-55.4-158.4-121.2L641.6 726.4z M388.9 536c25.1 0.3 45.2 21 44.9 46.1 c-0.3 25.1-21 45.2-46.1 44.9c-25.2-0.3-45.2-21-44.9-46.1C343.1 555.8 363.8 535.7 388.9 536z"/></g></svg>