<?xml version="1.0" encoding="utf-8"?>
<!-- Generator: Adobe Illustrator 17.1.0, SVG Export Plug-In . SVG Version: 6.00 Build 0)  -->
<!DOCTYPE svg PUBLIC "-//W3C//DTD SVG 1.1//EN" "http://www.w3.org/Graphics/SVG/1.1/DTD/svg11.dtd">
<svg version="1.1" id="Layer_1" xmlns="http://www.w3.org/2000/svg" xmlns:xlink="http://www.w3.org/1999/xlink" x="0px" y="0px"
	 viewBox="0 0 1000 1000" enable-background="new 0 0 1000 1000" xml:space="preserve">
<path fill-rule="evenodd" clip-rule="evenodd" fill="#010101" d="M456.2,419.9c19-51.7,57.3-84.8,96.9-119.1
	c48.8-42.2,99.4-86,128.3-166.1c21.4,2.9,41.5,11.4,57.4,23.9c9.3,7.3,16.9,15.9,22.2,25.3c5.1,9,8.1,18.8,8.4,29.1
	c0.6,16.9-5.9,36-22.1,56.2c-15.4,19.2-40,38.7-64.2,57.9c-20.8,16.4-41.3,32.7-58.5,50.8l-45.3,47.5h65.8h252
	c11.6,0,22.1,4.7,29.8,12.3c7.7,7.6,12.4,18.1,12.4,29.5v0c0,8.3-2.4,16-6.6,22.4c-4.4,6.8-10.7,12.3-18,15.7l-50,22.9l47.8,27.1
	c6.4,3.6,11.9,9,15.7,15.5c3.6,6.2,5.7,13.3,5.7,20.9l0,0c0,9.7-3.3,18.6-8.8,25.6c-5.7,7.3-13.8,12.7-23.1,15l-44.4,11.2l29.8,34.4
	c3.3,3.8,6,8.1,7.7,12.8c1.6,4.4,2.5,9.2,2.5,14.4v0c0,11.5-4.7,21.9-12.4,29.5c-7.7,7.6-18.2,12.3-29.7,12.3h-2.4h-67.6l47.2,47.9
	c3.9,4,7.1,8.6,9.1,13.6c1.9,4.7,3,10,3,15.7l0,0c0,11.5-4.8,21.9-12.4,29.5c-7.6,7.6-18.2,12.3-29.8,12.3h-302l-53.2-52.8l-6.7-6.6
	l-9.7-1.3l-100.2-13V602.7l17.8-148.4l86.1-16.3l15.8-3L456.2,419.9L456.2,419.9z M56.9,780.1h158.5v-30.8H255v82H56.9V780.1
	L56.9,780.1z M56.9,687.8h25.8v50.4H56.9V687.8L56.9,687.8z M92.7,687.8H255v50.4H92.7V687.8L92.7,687.8z M92.7,564.6l64.7,19.9
	l97.5-25.6v46.9l-70.7,15.4l70.7,0.1v48.9H56.9v-48.9l83.3-0.1l-47.5-15.4V564.6L92.7,564.6z M176.6,440.4V504h35.2
	c7.3,0,12.1-0.6,14.2-1.6c2.1-1.1,3.2-3.1,3.2-6.1c0-3.8-1.4-6.3-4.2-7.5c-2.9-1.3-8.3-1.9-16.4-1.9h-21.5v-46.5h12
	c10.1,0,17.8,0.6,23.2,1.9c5.4,1.3,11.2,4.3,17.3,8.9c6.1,4.6,10.7,10.4,13.8,17.5c3.1,7.1,4.6,15.9,4.6,26.6
	c0,10.3-1.5,19.5-4.5,27.4c-3,7.9-7.1,14.1-12.4,18.5c-5.3,4.4-11.1,7.4-17.4,9.1c-6.3,1.7-15.5,2.6-27.6,2.6h-47.4
	c-14.2,0-25.4-1.9-33.6-5.8c-8.2-3.8-14.5-10-18.8-18.7c-4.4-8.7-6.6-18.6-6.6-29.8c0-13.8,2.6-25.1,7.9-34
	c5.3-9,12.2-15.2,20.9-18.8c8.7-3.6,20.9-5.4,36.6-5.4H176.6L176.6,440.4z M150.3,489.4h-11.8c-8.4,0-13.8,0.4-16.3,1.3
	c-2.5,1-3.7,2.8-3.7,5.6c0,3.5,1,5.7,3.1,6.5c2.1,0.9,7.7,1.3,16.8,1.3h11.8V489.4L150.3,489.4z M306.1,899.7c0-18,0-36-0.1-53.9
	l108.2,14.1l54.8,54.3l8.4,8.3h11.8h313.7c27.2,0,52-11,70-28.8c17.9-17.8,29.1-42.4,29.1-69.4l0,0c0-10.3-1.7-20.3-4.8-29.8
	c10.6-4.9,20.2-11.6,28.4-19.7c18-17.8,29.1-42.4,29.1-69.4v0c0-11.4-2.1-22.6-5.9-33.1c8-5.6,15.2-12.4,21.2-20.1
	c13.1-16.7,21-37.7,21-60.2l0,0c0-17.9-4.9-34.8-13.4-49.3c-2-3.4-4.2-6.7-6.6-9.8c3.6-3.9,6.8-8.1,9.7-12.6
	c9.9-15.3,15.7-33.4,15.7-52.8v0c0-27-11.1-51.6-29.1-69.4c-17.9-17.8-42.7-28.8-70-28.8h-176c25.9-20.5,51.8-41.4,70.6-64.7
	c25.2-31.5,35.3-63.3,34.3-93c-0.7-19.7-6.2-38.2-15.5-54.7c-9.1-16.1-21.6-30.3-36.4-42c-30.7-24.2-72.1-38.4-114-37l-20.7,0.7
	L633.7,98c-22.5,78.1-71.1,120.1-117.9,160.5c-41.6,36-81.9,70.9-106.7,127l-91.4,17.3l-11.4,2.2v-28.3H3.8v523H306.1z"/>
</svg>
