<svg xmlns="http://www.w3.org/2000/svg" xmlns:xlink="http://www.w3.org/1999/xlink" version="1.1" x="0px" y="0px" viewBox="0 0 1000 1000" enable-background="new 0 0 1000 1000" xml:space="preserve"><g><path fill="#010101" d="M812 312.8H188c-61.5 188 42 208 104 208c103.8 0 154.7-105.7 175.4-166.4h65.2 c20.7 60.7 71.6 166.4 175.4 166.4C769.9 520.8 873.4 500.9 812 312.8"/><path fill="#010101" d="M500 84.1c229.3 0 416 186.6 416 415.9C916 729.3 729.3 916 500 916C270.7 916 84.1 729.3 84.1 500 C84.1 270.7 270.7 84.1 500 84.1 M500 0.9C224.3 0.9 0.9 224.3 0.9 500c0 275.7 223.4 499.2 499.1 499.2 c275.6 0 499.1-223.4 499.1-499.2C999.1 224.3 775.6 0.9 500 0.9"/><path fill="#010101" d="M292 687.2c33.3 85.2 111 145.6 208 145.6c97 0 174.6-60.4 208-145.6H292z"/></g></svg>