<?xml version="1.0" encoding="utf-8"?>
<!-- Generator: Adobe Illustrator 17.1.0, SVG Export Plug-In . SVG Version: 6.00 Build 0)  -->
<!DOCTYPE svg PUBLIC "-//W3C//DTD SVG 1.1//EN" "http://www.w3.org/Graphics/SVG/1.1/DTD/svg11.dtd">
<svg version="1.1" id="Layer_1" xmlns="http://www.w3.org/2000/svg" xmlns:xlink="http://www.w3.org/1999/xlink" x="0px" y="0px"
	 viewBox="0 0 1000 1000" enable-background="new 0 0 1000 1000" xml:space="preserve">
<path fill-rule="evenodd" clip-rule="evenodd" fill="#010101" d="M386.1,431.1h505.3c35.1,0,63.9,28.7,63.9,63.8v438.6
	c0,35.1-28.7,63.8-63.9,63.8H386.1c-35.1,0-63.8-28.7-63.8-63.8V495C322.2,459.8,350.9,431.1,386.1,431.1L386.1,431.1z M295.4,2.6
	L295.4,2.6c69,0,131.7,28.2,177.1,73.5c45.4,45.5,73.6,108.1,73.6,177.1v135.9h-1.4H420.2V253.2c0-34.2-14.1-65.4-36.7-88
	c-22.6-22.7-53.8-36.7-88-36.7l0,0c-34.3,0-65.4,14-88,36.7c-22.6,22.7-36.7,53.8-36.7,88v135.9H44.8V253.2
	c0-69,28.2-131.7,73.6-177.1C163.7,30.8,226.4,2.6,295.4,2.6L295.4,2.6z M644.8,571.3c-34,0-61.6,27.5-61.6,61.5
	c0,24.5,14.3,45.7,35,55.5l-20.1,122.7h45.7h45.7l-19.9-122c21.6-9.6,36.6-31.2,36.6-56.3C706.2,598.9,678.7,571.3,644.8,571.3z"/>
</svg>
