<?xml version="1.0" encoding="utf-8"?>
<!-- Generator: Adobe Illustrator 17.1.0, SVG Export Plug-In . SVG Version: 6.00 Build 0)  -->
<!DOCTYPE svg PUBLIC "-//W3C//DTD SVG 1.1//EN" "http://www.w3.org/Graphics/SVG/1.1/DTD/svg11.dtd">
<svg version="1.1" id="Layer_1" xmlns="http://www.w3.org/2000/svg" xmlns:xlink="http://www.w3.org/1999/xlink" x="0px" y="0px"
	 viewBox="0 0 1000 1000" enable-background="new 0 0 1000 1000" xml:space="preserve">
<g>
	<path fill="#010101" d="M110.942,191.719c0.146-0.034,208.763-52.241,389.079-52.241c180.159,0,388.956,52.196,389.136,52.253
		c76.811,17.725,124.703,94.356,106.944,171.156c-12.982,56.231-57.547,96.919-110.62,107.742L716.405,355.187
		c-3.17-18.208-2.832-37.349,1.585-56.49c2.574-11.195,6.451-21.771,11.363-31.628c-63.683-6.822-145.237-13.105-229.32-13.105
		c-84.072,0-165.592,6.283-229.276,13.105c4.9,9.846,8.789,20.411,11.363,31.628c4.417,19.152,4.766,38.282,1.596,56.49
		L27.353,414.363C16.518,399.381,8.426,382.05,4.02,362.897C-13.739,286.098,34.142,209.466,110.942,191.719z M671.581,277.241
		c35.494,142.27,119.319,265.433,233.074,350.887v233.344H95.364V628.128c113.789-85.488,197.614-208.617,233.097-350.887
		c18.343-1.529,37.563-2.934,57.378-4.091v59.446h228.365V273.15C634.008,274.319,653.227,275.712,671.581,277.241z
		 M676.313,567.659c0-97.357-78.924-176.304-176.281-176.304c-97.368,0-176.315,78.947-176.315,176.304
		s78.924,176.304,176.304,176.304S676.313,665.016,676.313,567.659z M614.192,567.659c0,63.065-51.106,114.183-114.171,114.183
		S385.85,630.725,385.85,567.659s51.106-114.183,114.171-114.183C563.086,453.466,614.192,504.594,614.192,567.659z"/>
</g>
</svg>
