<svg xmlns="http://www.w3.org/2000/svg" xmlns:xlink="http://www.w3.org/1999/xlink" version="1.1" x="0px" y="0px" viewBox="0 0 1000 1000" enable-background="new 0 0 1000 1000" xml:space="preserve"><g></g><g><g><path fill="#161616" d="M708 866.6H484.2c-6.2 0-12.6-1.6-18.7-4.7c-6.2 3.1-12.5 4.7-18.7 4.7H222.9c-11.5 0-23.4-5.3-32.6-14.7 c-6.8-6.9-11.4-15.1-13.2-23.6c-63.4-2-105-7.4-130.5-16.8c-26.1-9.7-38.3-24.8-38.3-47.4c0-57.8 2.1-131.5 18.3-189.2 C45.4 508.6 80 475 129.6 475c35.6 0 64 28.4 84.4 84.4c10.2-22.2 22.8-40.1 37.4-53.5c22.5-20.5 50.6-30.9 83.4-30.9 c37.7 0 69 13.8 93 41.1c15.3 17.4 27.6 39.8 37.3 68.2c9.7-28.4 22-50.9 37.4-68.3c24.1-27.2 55.6-41 93.5-41 c32.8 0 60.8 10.5 83.3 31.3c14.6 13.5 27.1 31.5 37.3 53.9c20.6-56.5 49-85.1 84.7-85.1c49.6 0 84.2 33.6 102.9 99.9 c16.2 57.6 18.3 131.4 18.3 189.2c0 22.7-12.2 37.8-38.2 47.5c-25.4 9.5-67.1 14.8-130.5 16.8c-1.8 8.4-6.4 16.7-13.2 23.6 C731.4 861.3 719.5 866.6 708 866.6z M465.5 840.1l5 3.3c4.6 3 9.3 4.6 13.6 4.6H708c6.4 0 13.7-3.4 19.3-9.1 c5.5-5.6 8.7-12.6 8.7-18.8l0-0.8v-9.1l9.1-0.2c146.5-3.7 158.8-24.7 158.8-45.9c0-56.6-2-128.7-17.6-184.1 c-16.4-58.1-44.2-86.3-85-86.3c-31.3 0-56.5 32.5-74.8 96.6l-8.2 28.6l-9.6-28.1c-22.3-65.3-59.2-97.1-112.7-97.1 c-32.8 0-58.9 11.3-79.5 34.7c-18.4 20.7-32.6 51.6-42.3 91.8l-9 37.4l-9.1-37.4c-9.8-40.1-24-71-42.3-91.7 c-20.6-23.4-46.4-34.8-79-34.8c-53.7 0-90.6 31.5-112.9 96.2l-9.6 28l-8.2-28.4c-8.6-30.2-19.1-53.6-31-69.7 c-13-17.5-27.2-26-43.5-26c-40.8 0-68.6 28.3-85 86.4C29 635.4 27 707.5 27 764.1c0 25.8 26.6 42.4 158.8 45.9l9.1 0.2v9.8 c-0.1 6.3 3.2 13.3 8.7 18.8c5.7 5.7 12.9 9.1 19.3 9.1h223.9c4.2 0 8.9-1.6 13.7-4.6L465.5 840.1z"/></g></g><g><path fill="#231F20" d="M848.2 266.9c18.5 18.5 25.8 44.8 28.4 67.4c2.6-22.6 10-48.9 28.5-67.4s44.8-25.8 67.3-28.4l0 0 c-22.6-2.6-48.9-10-67.4-28.4c-18.5-18.5-25.8-44.8-28.4-67.4c-2.6 22.6-9.9 48.9-28.4 67.4s-44.8 25.8-67.4 28.4l0 0 C803.3 241 829.7 248.4 848.2 266.9z"/></g><g><path fill="#231F20" d="M708.3 431.2c14.6 14.6 20.4 35.3 22.4 53.1c2.1-17.8 7.9-38.5 22.4-53.1c14.6-14.6 35.3-20.4 53.1-22.4 l0 0c-17.8-2.1-38.5-7.8-53.1-22.4s-20.4-35.3-22.4-53.1c-2.1 17.8-7.9 38.5-22.4 53.1c-14.6 14.6-35.3 20.4-53.1 22.4l0 0 C672.9 410.8 693.7 416.6 708.3 431.2z"/></g><g><path fill="#231F20" d="M952.2 388.6c-0.8 7.1-3.1 15.4-8.9 21.2c-5.8 5.8-14.1 8.1-21.2 8.9l0 0c7.1 0.8 15.3 3.1 21.2 8.9 c5.8 5.8 8.1 14.1 8.9 21.1c0.8-7.1 3.1-15.3 8.9-21.1c5.8-5.8 14-8.1 21.1-8.9l0 0c-7.1-0.8-15.3-3.1-21.1-8.9 C955.3 403.9 953 395.7 952.2 388.6z"/></g></svg>