<?xml version="1.0" encoding="utf-8"?>
<!-- Generator: Adobe Illustrator 18.0.0, SVG Export Plug-In . SVG Version: 6.00 Build 0)  -->
<!DOCTYPE svg PUBLIC "-//W3C//DTD SVG 1.1//EN" "http://www.w3.org/Graphics/SVG/1.1/DTD/svg11.dtd">
<svg version="1.1" id="Layer_1" xmlns="http://www.w3.org/2000/svg" xmlns:xlink="http://www.w3.org/1999/xlink" x="0px" y="0px"
	 viewBox="0 0 1000 1000" enable-background="new 0 0 1000 1000" xml:space="preserve">
<g>
	<path fill="#414042" d="M815.7,478.6H184.3C83.9,478.6,2.6,554.2,2.6,647.4v135.7c0,93.2,81.3,168.8,181.7,168.8h631.4
		c100.3,0,181.7-75.6,181.7-168.8V647.4C997.4,554.2,916,478.6,815.7,478.6z M316.9,584.2h-58.7v270.9h-56.7V584.2h-58.6v-46.1
		h174.1V584.2z M482.8,855.1h-50.3v-25.7c-9.3,9.5-18.9,16.7-29,21.6c-10,5.1-19.8,7.5-29.2,7.5c-11.7,0-20.4-3.4-26.4-10.5
		c-5.8-7-8.8-17.3-8.8-31.3V621.2h50.3v179.4c0,5.5,1.1,9.5,3.1,12c2.2,2.6,5.6,3.7,10.3,3.7c3.6,0,8.4-1.6,14-4.9
		c5.7-3.3,10.9-7.5,15.6-12.6V621.2h50.3V855.1z M665.3,806.8c0,16.5-3.9,29.2-11.8,38.1c-7.8,8.9-19.3,13.2-34.2,13.2
		c-9.9,0-18.6-1.6-26.3-5.1c-7.7-3.4-15-8.6-21.6-15.8v17.9h-50.9v-317h50.9v102.1c6.8-7.1,14-12.5,21.6-16.2
		c7.7-3.7,15.4-5.5,23.3-5.5c16,0,28.1,4.9,36.5,14.9c8.4,10,12.6,24.6,12.6,43.7V806.8z M839.9,743.8h-96.3v44
		c0,12.3,1.6,20.9,4.9,25.7c3.3,4.7,9,7.1,17.1,7.1c8.4,0,14.2-2,17.5-6.1c3.2-4.1,5-12.9,5-26.7v-10.7h51.8v12
		c0,24-6.3,42.1-19,54.2c-12.5,12-31.4,18-56.5,18c-22.5,0-40.3-6.4-53.2-19.3c-12.9-12.7-19.4-30.4-19.4-53V684.1
		c0-20.2,7.1-36.8,21.4-49.6c14.3-12.7,32.5-19.1,55.1-19.1c23.1,0,40.8,5.9,53.1,17.7c12.4,11.8,18.6,28.8,18.6,51V743.8z"/>
	<path fill="#414042" d="M766.1,656.3c-8,0-13.7,2.1-17.2,6.5c-3.5,4.1-5.2,11.2-5.2,21v23.6h44.5v-23.6c0-9.8-1.8-16.9-5.3-21
		C779.4,658.5,773.7,656.3,766.1,656.3z"/>
	<path fill="#414042" d="M592.5,655.5c-3.6,0-7.2,0.7-10.7,2.3c-3.5,1.5-6.9,3.9-10.4,7.2v145.7c4.1,3.7,8.1,6.7,12,8.3
		c3.9,1.6,7.9,2.5,12.1,2.5c6.2,0,10.7-1.7,13.6-5c2.9-3.3,4.3-8.6,4.3-16.1V679.6c0-8-1.7-13.9-5.3-18
		C604.5,657.6,599.3,655.5,592.5,655.5z"/>
	<polygon fill="#414042" points="267,397.4 330.7,397.4 330.7,252.5 405,48.1 340.2,48.1 300.7,187.8 296.7,187.8 255.3,48.1 
		191,48.1 267,259 	"/>
	<path fill="#414042" d="M491.4,403.9c25.7,0,46-6.3,60.7-18.8c14.6-12.6,21.9-29.8,21.9-51.9V200.1c0-19.6-7.5-35.7-22.3-48.2
		c-15.1-12.5-34.2-18.7-57.7-18.7c-25.7,0-46.3,5.9-61.6,17.7c-15.2,11.8-22.8,27.6-22.8,47.6v133.5c0,21.9,7.5,39.2,22.3,52.2
		C446.8,397.4,466.6,403.9,491.4,403.9z M467.9,196.7c0-5.6,2.2-10.2,6.4-13.7c4.4-3.4,10-5.1,16.9-5.1c7.5,0,13.6,1.7,18.2,5.1
		c4.6,3.6,6.9,8.1,6.9,13.7V337c0,6.9-2.3,12.4-6.9,16.3c-4.5,3.9-10.6,5.9-18.3,5.9c-7.5,0-13.2-1.9-17.2-5.9
		c-4-3.8-6.1-9.3-6.1-16.4V196.7z"/>
	<path fill="#414042" d="M659.6,401.1c10.6,0,21.6-2.9,32.8-8.3c11.4-5.5,22.2-13.5,32.6-24v28.5h56.7V139.8H725v195.6
		c-5.3,5.6-11.1,10.2-17.4,13.8c-6.4,3.6-11.7,5.4-15.8,5.4c-5.3,0-9.2-1.4-11.5-4.1c-2.3-2.7-3.6-7.1-3.6-13.2V139.8H620v215.3
		c0,15.3,3.3,26.8,10,34.4C636.6,397.2,646.4,401.1,659.6,401.1z"/>
</g>
</svg>
