<svg xmlns="http://www.w3.org/2000/svg" viewBox="0 0 1000 1000.1"><path fill="#128141" d="M976.2 51.4c-74.3-83.2-300-17-546.8 178.7h1.6c-61.6 3.3-113.5 16.5-151.5 38.6-44 25.6-69.7 63.6-69.5 111.5 0 43.2 29.3 85.4 79.5 101-20.7 2.7-37.6 9.8-50.2 19.6-16.3 12.7-25.3 30-25.3 48-.2 28.4 17.3 53.3 47 62.3-38.5 12.3-62.7 40.3-62.7 75.2.3 66 63.8 106 185 117.2C264 862.4 163 876.4 110 822c-69.8-92.7 23.8-245.7 105-371.7C20 628-37 882 20.4 949.3c65 76.4 253 24.7 472.7-143.3 74-3.5 130-18.7 169.4-41.6 44.6-26 67-62.6 67-102.3.2-21.4-4.8-41.7-18.3-59.3 62-70.2 80.5-105 80.5-105L711 569l-17.6 16c-5.4-4.3-11.5-8.4-18.4-12-41.3-22.2-110-35.5-221.3-35.5-19 0-32-2-39.5-5-7.7-3.4-10-7-10-10.7.4-11 5.3-16.6 22.7-17h33.7c86 0 148.7-13.7 190-36.6 41-22.7 61-55.4 61-92.3.3-38-10-57.6-33.8-81 9 1 17.6 2 27 2 49-.2 86.2-28 86.6-60.8 0-8-2-22.5-6.5-32l-.5-1.7H610.3v3c-.2 7.5-2.5 13-15.2 18-12.5 5-35.2 8-72.8 8-9.4 0-25-1-41.2-1.7h.2C632 143.8 808 69.5 879.4 145.4s6 198.2-58 313.2C980 271.6 1039 121.8 976.2 51.4zM463.2 628c52 .4 61.3 17 61.7 38.4-.7 22-10 38.4-62 39-52-.5-61.3-17-61.7-39 .5-21.4 10-38 61.8-38.4zm206.4-336.7zm-162 80.6c-.3 28-15.6 41.4-47 41.8-31-.4-47-13.7-47.6-42 .4-28 16.6-41.4 47.5-41.8 31.5.4 46.8 13.7 47.2 42z"/></svg>